<svg width="215" height="184" viewBox="0 0 215 184" fill="none" xmlns="http://www.w3.org/2000/svg">
<path d="M62.4814 112.085C62.4936 112.09 62.5097 112.097 62.5293 112.106C62.5791 112.129 62.6528 112.163 62.7461 112.206C62.9327 112.292 63.1999 112.414 63.5205 112.563C64.162 112.862 65.0176 113.265 65.876 113.683C66.736 114.101 67.5924 114.533 68.2383 114.888C68.2414 114.889 68.2449 114.891 68.248 114.893C67.952 114.88 67.6176 114.86 67.2598 114.835C65.9454 114.742 64.3094 114.591 63.3525 114.628C62.4775 114.662 61.7102 114.547 61.2031 114.354C60.9467 114.256 60.7936 114.151 60.7188 114.07C60.6582 114.005 60.6706 113.984 60.6719 113.979C60.7498 113.615 60.9447 112.951 61.1279 112.359C61.1977 112.134 61.2647 111.922 61.3203 111.748L62.4814 112.085Z" stroke="black"/>
<path d="M62.3477 109.515L62.042 111.771C61.9717 111.786 61.8926 111.8 61.8076 111.81C61.5762 111.835 61.3473 111.825 61.1543 111.767L60.9287 109.309L62.3477 109.515Z" stroke="black"/>
<path d="M32.1826 110.09C32.1856 110.124 32.1889 110.16 32.1924 110.198C32.218 110.479 32.2558 110.864 32.3037 111.281C32.3971 112.094 32.536 113.095 32.7168 113.646C32.9125 114.244 33.2047 114.599 33.5811 114.89C33.7549 115.024 33.9466 115.143 34.1309 115.26C34.3206 115.38 34.5168 115.504 34.7314 115.661C34.8659 115.759 34.955 115.846 35.0146 115.919C34.9828 115.915 34.9498 115.912 34.916 115.908C34.5008 115.856 33.9459 115.779 33.3828 115.681C32.8163 115.581 32.2567 115.463 31.8262 115.328C31.6098 115.26 31.4437 115.194 31.3311 115.133C31.2776 115.104 31.2493 115.083 31.2363 115.072C31.1307 114.821 30.9481 114.232 30.75 113.535C30.5474 112.822 30.3399 112.043 30.2012 111.513C30.1297 111.24 30.1741 110.951 30.3242 110.71L30.9229 109.748L32.1826 110.09Z" stroke="black"/>
<path d="M33.2373 106.339C33.21 106.405 33.1817 106.474 33.1533 106.545C32.9755 106.991 32.7678 107.56 32.5713 108.115C32.3743 108.672 32.1861 109.221 32.0479 109.631C31.9787 109.836 31.9224 110.006 31.8828 110.125C31.8785 110.138 31.874 110.15 31.8701 110.162C31.8527 110.165 31.7141 110.183 31.4424 109.953L31.3135 109.834C31.218 109.739 31.1379 109.661 31.0723 109.596L31.207 106.111L33.2373 106.339Z" stroke="black"/>
<path d="M51.752 44.4424C52.8847 43.4021 54.8794 43.1635 57.5225 43.7539C60.0725 44.3236 63.0886 45.6381 66.1846 47.5059C66.5347 56.6051 66.5443 66.4811 66.0215 77.0244C65.4355 88.8476 64.2646 99.7875 62.7891 109.722C62.3653 109.729 61.9263 109.731 61.4727 109.719H61.4717C61.177 109.711 60.8889 109.696 60.6074 109.68C59.8554 107.648 58.984 105.03 58.2012 101.932C57.3367 98.5097 56.8154 95.4396 56.4434 92.5C55.789 87.3309 55.8456 84.5302 55.9326 82.0576C56.0204 79.5622 56.1405 77.3703 55.5996 73.4688C55.1205 70.0125 54.5378 68.2066 53.8838 66.0693C53.236 63.9522 52.5104 61.4836 51.7246 56.6631C50.8696 51.4172 50.7677 48.4438 50.9434 46.7285C51.0308 45.8744 51.1853 45.3518 51.3359 45.0234C51.4814 44.7066 51.6315 44.553 51.752 44.4424Z" stroke="black"/>
<path opacity="0.3" d="M51.752 44.4404C52.8312 43.4495 54.694 43.1862 57.165 43.6797C59.4645 44.1389 62.1748 45.2335 64.9971 46.8174C58.3295 54.1842 57.4915 59.1279 58.376 62.4834C58.8787 64.3902 59.9056 65.635 60.7207 66.8027C61.5356 67.9701 62.1876 69.1104 62.1826 70.9277C62.1763 73.1733 61.1753 74.5858 60.0879 76.1592C59.0009 77.732 57.8461 79.4467 57.8955 82.1768C57.9286 83.9993 58.4769 84.9284 59.0332 85.8867C59.5608 86.7955 60.1163 87.7618 60.332 89.7529C60.5887 92.1218 60.1214 93.7046 59.668 95.1914C59.2113 96.6887 58.7452 98.1467 59.1826 100.119C59.5493 101.772 60.5716 103.856 63.3203 105.98C63.1477 107.242 62.9704 108.491 62.7881 109.721C62.3646 109.728 61.9258 109.731 61.4727 109.718H61.4717C61.177 109.71 60.8888 109.695 60.6074 109.679C59.8553 107.647 58.984 105.029 58.2012 101.931C57.3367 98.5086 56.8154 95.4378 56.4434 92.498C55.7891 87.329 55.8456 84.5283 55.9326 82.0557C56.0204 79.5604 56.1404 77.3689 55.5996 73.4678C55.1205 70.0116 54.5377 68.2055 53.8838 66.0684C53.236 63.9512 52.5103 61.4826 51.7246 56.6621C50.8695 51.4156 50.7677 48.4419 50.9434 46.7266C51.0309 45.8723 51.1852 45.3498 51.3359 45.0215C51.4811 44.7053 51.6307 44.5519 51.751 44.4414L51.752 44.4404Z" stroke="black"/>
<path d="M61.5371 47.3496C55.6007 56.0978 49.2312 66.9176 43.5234 79.8154C39.1577 89.6807 35.9803 98.9489 33.6396 107.223C33.3072 107.349 32.7609 107.498 32.1006 107.411C31.1272 107.282 30.4879 106.722 30.2197 106.444C29.2999 100.598 29.4038 95.6466 29.7217 92.0654C29.9279 89.743 30.2914 85.9019 31.7617 81.1592C32.5826 78.5114 33.271 77.1216 34.0273 75.6826C34.7933 74.2253 35.6356 72.7063 36.7334 69.835C37.8734 66.8529 38.3069 64.9822 38.7256 62.9375C39.1414 60.9068 39.5414 58.7132 40.6143 55.0459C41.4747 52.1048 42.9013 47.762 45.2334 42.5664C50.6681 44.1605 56.1026 45.7554 61.5371 47.3496Z" stroke="black"/>
<path d="M52.9238 3.71387C56.4364 3.36793 60.3627 3.88687 63.4795 5.22461L64.0918 5.50293C65.8605 6.35491 68.8604 8.24072 71.5518 10.2393C72.6225 11.0343 73.7369 11.924 74.8994 12.9395C77.5753 15.2766 79.4371 16.9064 80.9688 19.0273L81.2705 19.458C84.4545 24.1427 84.2181 28.4198 83.8857 33.1924C83.5532 37.968 83.1312 43.1995 86.1777 49.5186C86.6997 50.601 87.2618 51.589 87.7881 52.4844C88.3187 53.3871 88.8033 54.1807 89.1885 54.9043C89.5743 55.629 89.8343 56.2374 89.9355 56.7578C90.0338 57.2632 89.9772 57.6546 89.7607 57.9912C89.3234 58.6713 88.2659 59.0624 86.8115 59.1123C85.3974 59.1607 83.7809 58.8767 82.4707 58.4082C79.4266 57.3198 76.8924 54.8227 75.0684 51.7676C73.2461 48.7151 72.1622 45.1535 71.9873 42.0127C71.9684 41.6729 71.957 41.3339 71.9463 41.0107C71.9357 40.6906 71.926 40.3817 71.9092 40.1143C71.8927 39.853 71.8686 39.6004 71.8223 39.4023C71.7997 39.306 71.7641 39.1881 71.7012 39.0811C71.6478 38.9904 71.5357 38.8448 71.3408 38.7852L71.252 38.7646C70.947 38.7199 70.7416 38.9162 70.665 39C70.5686 39.1056 70.4884 39.2391 70.4209 39.3701C70.2827 39.6385 70.1391 40.0148 69.9912 40.4619C69.693 41.3635 69.3517 42.6396 68.9912 44.127C68.2882 47.027 67.5009 50.7785 66.8027 54.252C65.7102 54.6227 64.1775 54.9602 62.4541 54.6777C60.9537 54.4319 60.1252 53.8547 59.1924 53.1377C58.2398 52.4055 57.1798 51.5258 55.2832 50.8389C53.0659 50.0359 50.892 50.0406 46.7715 50.0371C44.4045 50.035 43.1794 50.1799 42.4326 50.2734C42.0496 50.3214 41.8475 50.3475 41.6816 50.3438C41.5489 50.3407 41.4406 50.3179 41.2754 50.2422C41.2722 50.2404 41.2685 50.2385 41.2646 50.2363C41.2434 50.2242 41.2128 50.2062 41.1768 50.1846L40.9316 50.0254L40.8447 49.9521C40.6474 49.7587 40.4934 49.4043 40.4414 48.7842C40.383 48.0874 40.4629 47.1629 40.6523 46.0215C41.0315 43.7372 41.8177 40.7458 42.6357 37.248C44.2619 30.2951 45.984 21.4602 44.5928 12.9561C44.2764 11.0227 43.8667 9.3108 44.8057 7.62793C46.0282 5.43707 49.1431 4.08629 52.9238 3.71387Z" stroke="black"/>
<path d="M72.4482 4.08398C72.5696 4.26098 72.705 4.47199 72.8164 4.69727C72.9614 4.99052 73.0529 5.26793 73.0635 5.49609C73.0732 5.70439 73.018 5.84404 72.8867 5.9541C72.2338 6.50129 71.6088 7.58366 71.2559 8.68164C71.0763 9.24029 70.9583 9.83105 70.9473 10.3926C70.9363 10.9504 71.0306 11.5148 71.3145 11.9863C71.5512 12.3795 71.8364 12.7516 72.0957 13.0762C72.3404 13.3825 72.5468 13.632 72.7041 13.8457C72.607 13.8232 72.4808 13.7866 72.3242 13.7275C72.0638 13.6293 71.7522 13.4868 71.4014 13.3066C70.6998 12.9463 69.8697 12.4503 69.0273 11.9033C67.3341 10.8039 65.6448 9.53173 64.8809 8.78027C64.1221 8.03392 63.5026 7.11809 63.1797 6.42773C63.1113 6.28149 63.0617 6.15513 63.0264 6.05078C63.2045 6.10602 63.4287 6.17831 63.6982 6.26367C64.1902 6.41948 64.794 6.60443 65.4277 6.75488C66.0593 6.90483 66.7369 7.02485 67.375 7.04492C68.0053 7.06473 68.65 6.98858 69.1787 6.69922C70.152 6.16635 71.0758 5.39676 71.7461 4.77344C72.0257 4.51343 72.2637 4.27373 72.4482 4.08398Z" stroke="black"/>
<path d="M88.8828 59.2793C89.7228 59.6067 90.8182 59.9807 91.749 60.1123C92.4902 60.2171 92.873 60.5508 93.0371 60.8389C93.207 61.1373 93.1419 61.3434 93.0996 61.4072C93.0891 61.4115 93.0729 61.4192 93.0479 61.4258C92.9728 61.4455 92.8614 61.4609 92.7119 61.4658C92.4139 61.4756 92.0282 61.4418 91.6113 61.374C90.8692 61.2534 90.1207 61.0402 89.6855 60.8428L89.5186 60.7598C89.3939 60.6896 89.2285 60.5196 89.043 60.2344C88.8649 59.9606 88.6991 59.6288 88.5557 59.2998C88.5289 59.2383 88.5053 59.1763 88.4805 59.1162C88.6075 59.1682 88.7417 59.2243 88.8828 59.2793Z" stroke="black"/>
<path d="M73.5566 0.5C74.0643 0.50526 74.7315 0.607258 75.6875 0.764648C77.6 1.07971 78.593 1.24524 79.126 1.36816C79.321 1.41315 79.4259 1.44889 79.4814 1.4707C79.4987 1.57138 79.4879 1.75435 79.3711 2.0293C79.2393 2.33957 79.0051 2.69455 78.6924 3.03613C78.0557 3.73151 77.1884 4.27048 76.3906 4.33105C76.2584 4.34109 76.1155 4.34049 75.9424 4.33789C75.7751 4.33538 75.5802 4.33155 75.374 4.33887C74.9521 4.35387 74.4682 4.41698 73.918 4.63867C73.2901 4.8916 72.7519 5.30028 72.6211 5.40137C72.5291 5.47243 72.4413 5.5427 72.3594 5.61328C72.1212 4.87043 72.043 4.32411 72.0137 3.99023C72.0061 3.90387 72.0054 3.87194 72.001 3.76953C71.9965 3.66457 71.989 3.50016 71.9678 3.16113C71.9203 2.40007 71.9279 2.07663 71.9658 1.86816C72.0459 1.4304 72.3047 0.975968 72.5947 0.744141C72.7967 0.582824 73.0648 0.49492 73.5566 0.5Z" stroke="black"/>
<path d="M73.1357 3.2207C73.2445 3.25993 73.433 3.33579 73.7314 3.41113C74.0587 3.49378 74.2796 3.51599 74.4629 3.52832C74.6434 3.54046 74.7275 3.54214 74.8574 3.57227C75.0848 3.62505 75.3228 3.74029 75.5234 3.88867C75.678 4.00301 75.7877 4.11979 75.8535 4.21582L75.9043 4.30469C75.9724 4.45351 75.9882 4.74894 75.8613 5.17871C75.7403 5.58878 75.5124 6.04126 75.2197 6.44238C74.925 6.84629 74.5867 7.1669 74.2637 7.34473C73.9451 7.51999 73.6939 7.53245 73.4922 7.43848C72.7565 7.09562 72.3711 6.53806 72.165 6.05273C72.0615 5.80877 72.0049 5.58568 71.9746 5.42578C71.9596 5.34665 71.9508 5.28405 71.9463 5.24316C71.9441 5.22297 71.943 5.20783 71.9424 5.19922C71.9421 5.19494 71.9415 5.19147 71.9414 5.19043L71.9336 5.01562L71.8154 4.88379L71.7158 4.76562C71.5002 4.49595 71.4039 4.26968 71.3789 4.11816C71.353 3.9606 71.4038 3.94563 71.4043 3.94531C71.4009 3.94752 71.4011 3.94694 71.4053 3.94531C71.4094 3.94377 71.4151 3.94191 71.4219 3.94043L71.4229 3.93945C71.4262 3.94068 71.4309 3.94333 71.4365 3.94629C71.4531 3.95506 71.4786 3.97272 71.5088 4.00488C71.5708 4.07101 71.64 4.18457 71.6865 4.34766L72.6562 4.31543C72.7739 3.76555 72.9012 3.46941 73 3.31738C73.0419 3.25285 73.0738 3.22101 73.0928 3.20605C73.1033 3.20944 73.1174 3.21409 73.1357 3.2207Z" stroke="black"/>
<path d="M213.95 156.543V158.234C213.95 159.489 213.106 160.435 212.135 160.515L68.5078 172.276C67.8413 172.331 67.1715 172.3 66.5107 172.185L7.30371 161.869C6.34969 161.703 5.56738 160.741 5.56738 159.516V154.781L213.95 156.543Z" stroke="black"/>
<path d="M4.31738 52.3438H137.397C139.033 52.3438 140.445 53.8401 140.445 55.8047V143.438C140.445 145.409 139.017 147.036 137.361 147.155L4.28125 156.738C2.19565 156.888 0.5 155.301 0.5 153.166V56.2246C0.500168 54.0746 2.21899 52.3439 4.31738 52.3438Z" stroke="black"/>
<path d="M6.43945 52.3438H139.52C141.155 52.3438 142.568 53.8402 142.568 55.8047V143.438C142.568 145.409 141.14 147.036 139.483 147.155L6.4043 156.738C4.31841 156.888 2.62207 155.301 2.62207 153.166V56.2246C2.62224 54.0747 4.34101 52.3439 6.43945 52.3438Z" stroke="black"/>
<path d="M135.376 57.9688C136.668 57.9633 137.802 59.1397 137.802 60.7139V138.018C137.802 139.599 136.653 140.884 135.341 140.973L11.3906 149.297C9.74935 149.407 8.41113 148.149 8.41113 146.455V61.583C8.41117 59.8748 9.7715 58.4984 11.4258 58.4912L135.376 57.9688Z" stroke="black"/>
<path d="M76.1494 53.3633C76.6894 53.3629 77.1797 53.8383 77.1797 54.4932C77.1797 55.1487 76.6884 55.6273 76.1475 55.6289C75.6069 55.6304 75.1152 55.1553 75.1152 54.499C75.1152 53.8421 75.608 53.3639 76.1494 53.3633Z" stroke="black"/>
<path d="M145.825 147.62C146.538 147.569 147.253 147.591 147.962 147.686L209.775 155.929L68.5078 167.497C67.8413 167.552 67.1715 167.521 66.5107 167.406L9.16895 157.416L145.825 147.62Z" stroke="black"/>
<path d="M174.241 153.438L62.8838 162.173L30.2334 157.456L142.741 149.271L174.241 153.438Z" stroke="black"/>
<path d="M104.492 16.5459C104.898 16.3928 105.415 16.6074 105.612 17.0986L114.36 38.9082C114.558 39.4013 114.334 39.9235 113.934 40.0996L113.932 40.1006L31.8105 76.5801C31.0384 76.9199 30.3039 76.6033 30.083 76.0527L19.5059 49.6826C19.2839 49.1289 19.5961 48.3816 20.3848 48.083L20.3857 48.084L104.491 16.5459H104.492Z" stroke="black"/>
<path opacity="0.48" d="M103.289 19.7441C103.643 19.6087 104.095 19.7922 104.268 20.2227L111.24 37.6055C111.414 38.038 111.214 38.4926 110.863 38.6445L110.862 38.6455L33.7002 72.4111C33.0219 72.7048 32.3841 72.4199 32.1934 71.9443L23.8525 51.1523C23.6605 50.6735 23.9263 50.0156 24.6172 49.75L24.6182 49.751L103.288 19.7441H103.289Z" stroke="black"/>
<path d="M53.918 3.625C55.4011 3.69908 56.5222 4.03747 57.4746 4.81738C58.7229 5.83967 59.5077 7.48215 59.873 9.46191C60.2373 11.4365 60.1739 13.6968 59.7734 15.8809C59.3729 18.0652 58.6399 20.145 57.6875 21.7607C56.7263 23.3914 55.5882 24.4742 54.4121 24.8047C53.6954 25.006 53.2178 24.865 52.3887 24.502C51.5427 24.1315 50.4 23.5619 48.4854 23.1006C47.8693 22.9522 45.2527 22.3207 42.1846 22.3379C39.1311 22.355 35.5217 23.0146 33.0264 25.5527C29.6073 29.0307 29.1797 35.097 31.3867 40.7178C30.7475 41.1971 30.1079 41.6759 29.4688 42.1553C26.7649 40.7913 21.5834 37.6008 19.96 31.9453C18.5681 27.0965 20.3339 22.3157 23.1777 18.2471C26.0182 14.1832 29.882 10.91 32.5107 9.12988C38.5114 5.06642 44.5426 4.40534 48.2676 4C50.5967 3.74652 52.416 3.54998 53.918 3.625Z" stroke="black"/>
<path d="M31.4795 41.8975C31.5764 41.9471 31.6926 42.0032 31.8262 42.0566C32.2211 42.2147 32.7853 42.3695 33.4199 42.3203C33.5249 42.3122 33.6518 42.3255 33.7871 42.3535C33.6234 42.3925 33.465 42.4581 33.3301 42.5674C32.9563 42.8703 32.9679 43.3047 33.0352 43.6182L33.0664 43.7441C33.1679 44.1082 33.4847 44.7108 33.8096 45.2344C33.9776 45.5052 34.1595 45.774 34.335 46.001C34.3603 46.0338 34.3877 46.066 34.4141 46.0986C34.3517 46.1026 34.2883 46.1082 34.2256 46.1074C34.0463 46.1051 33.9132 46.082 33.8438 46.0566C33.312 45.8616 32.5208 45.5324 31.9297 44.4346C31.7967 44.1876 31.4258 43.5892 31.1016 43.0713C30.9625 42.8492 30.8286 42.6374 30.7207 42.4668L31.4795 41.8975Z" stroke="black"/>
<path d="M90.5645 20.8477C91.5457 20.6846 92.7413 20.8285 93.5469 21.0586C93.2846 21.1273 92.9988 21.2049 92.7051 21.2852C92.1532 21.4359 91.566 21.5976 91.0176 21.7334C90.4654 21.8701 89.9725 21.9761 89.6074 22.0205C89.498 22.0338 89.4086 22.0384 89.3389 22.04C89.3235 21.9235 89.3217 21.7846 89.3545 21.6475C89.3892 21.5026 89.4639 21.3523 89.624 21.2168C89.7889 21.0774 90.0731 20.9294 90.5645 20.8477Z" stroke="black"/>
<path d="M57.2061 94.8125C57.8497 94.825 58.1927 94.9257 58.3789 95.0449C58.5339 95.1442 58.628 95.2869 58.6787 95.5615C58.7343 95.8629 58.7249 96.2586 58.6963 96.8076C58.6756 97.2055 58.6469 97.6677 58.6396 98.1797L58.6406 98.708C58.643 98.8318 58.6372 98.9582 58.6289 99.0967L58.6006 99.5742L59.0762 99.624C60.3969 99.7622 61.7108 100.012 63.0078 100.374L63.4346 100.494L63.6045 100.084C63.6316 100.018 63.6575 99.9553 63.6846 99.8945L63.7686 99.7178C64.3947 98.4845 65.2355 97.4012 66.5068 96.9082C67.769 96.4188 69.582 96.4639 72.2627 97.7725C72.7562 98.0134 72.9913 98.3105 73.0977 98.6289C73.2105 98.9672 73.2013 99.3984 73.0684 99.9336C72.7974 101.024 72.0902 102.287 71.4219 103.604C71.3636 103.718 71.2975 103.832 71.2236 103.953L70.9932 104.331L71.3408 104.605C72.3986 105.439 73.3758 106.352 74.2666 107.337L74.5879 107.691L74.9561 107.387C75.0636 107.298 75.1625 107.219 75.2637 107.148C77.3469 105.689 80.0093 106.217 81.2441 108.267C82.4948 110.342 81.8431 113.24 79.7412 114.713C79.6373 114.786 79.5279 114.853 79.4082 114.923L79.0459 115.134L79.1914 115.527C79.6685 116.82 80.0471 118.157 80.3232 119.525L80.4199 120.004L80.9004 119.918C81.0339 119.894 81.1555 119.876 81.2744 119.865L81.2734 119.864C83.5823 119.658 85.5307 121.378 85.6963 123.798L85.7061 124.034C85.7555 126.52 83.9231 128.696 81.6143 129.025L81.3896 129.052C81.274 129.062 81.1554 129.064 81.0234 129.064L80.5967 129.065L80.5303 129.487C80.3124 130.888 79.9879 132.29 79.5566 133.681L79.4199 134.122L79.8486 134.293C79.9092 134.317 79.9668 134.34 80.0215 134.364L80.1797 134.438C82.2604 135.495 83.0732 138.219 81.8838 140.562C80.6943 142.904 78.0153 143.856 75.9346 142.8C75.8329 142.748 75.7323 142.687 75.6221 142.618L75.2305 142.372L74.9551 142.743C74.0867 143.912 73.1469 145.001 72.1445 146.004L71.8428 146.307L72.0938 146.651C72.1713 146.758 72.2399 146.856 72.2998 146.955C73.5501 149.031 72.8979 151.929 70.7959 153.401C68.7127 154.861 66.0502 154.331 64.8154 152.282C64.7539 152.18 64.6969 152.071 64.6377 151.95L64.4229 151.511L63.9795 151.716C62.7117 152.3 61.4094 152.783 60.084 153.161L59.6807 153.275L59.7236 153.692C59.7378 153.831 59.7484 153.959 59.751 154.085C59.8025 156.651 57.8474 158.887 55.4336 159.103C53.0507 159.315 51.0532 157.477 51.002 154.935C50.9995 154.811 51.0045 154.684 51.0127 154.545L51.041 154.068L50.5654 154.019C49.2449 153.881 47.9316 153.63 46.6348 153.268L46.207 153.148L46.0381 153.559C45.984 153.69 45.9314 153.81 45.873 153.925C44.7206 156.194 42.1709 157.157 40.1211 156.255L39.9238 156.162C37.8433 155.106 37.0304 152.382 38.2197 150.039V150.038C38.2778 149.924 38.3441 149.811 38.418 149.689L38.6494 149.312L38.3008 149.037C37.7491 148.602 37.22 148.145 36.7129 147.668C36.7449 147.617 36.773 147.557 36.7852 147.486C36.8103 147.34 36.7658 147.223 36.7354 147.163C36.6808 147.056 36.6003 146.99 36.5771 146.971C36.5105 146.916 36.4279 146.868 36.3643 146.832C36.2263 146.755 36.0373 146.663 35.8682 146.58C35.689 146.492 35.5287 146.414 35.4199 146.353C35.4185 146.352 35.4174 146.35 35.416 146.35C35.4025 146.335 35.3884 146.321 35.375 146.306L35.0547 145.951L34.6855 146.256C34.5949 146.331 34.5159 146.45 34.501 146.603C34.4878 146.739 34.5313 146.845 34.5605 146.899C34.6141 147 34.6898 147.062 34.7148 147.083C34.7303 147.096 34.748 147.106 34.7646 147.118C34.8661 147.229 34.9678 147.339 35.0713 147.447C34.1533 147.74 33.0179 147.755 31.8945 147.507C30.3498 147.166 28.9971 146.371 28.3975 145.376C27.1469 143.3 27.7986 140.402 29.9004 138.93H29.9014C30.0049 138.857 30.1139 138.79 30.2334 138.72L30.5957 138.508L30.4502 138.115C29.9731 136.822 29.5946 135.486 29.3184 134.117L29.2217 133.639L28.7412 133.724C28.6085 133.747 28.4869 133.767 28.3682 133.777C25.985 133.99 23.9866 132.152 23.9355 129.608C23.8843 127.042 25.8391 124.806 28.2529 124.591C28.3684 124.581 28.4867 124.579 28.6191 124.578L29.0459 124.576L29.1113 124.155C29.3291 122.755 29.6537 121.353 30.085 119.962L30.2217 119.521L29.793 119.35C29.7323 119.325 29.6749 119.302 29.6201 119.278L29.4619 119.204C27.3812 118.148 26.5683 115.423 27.7578 113.08C28.9475 110.737 31.6264 109.786 33.707 110.843C33.8087 110.894 33.9091 110.955 34.0195 111.024L34.4111 111.27L34.6865 110.898C35.5548 109.73 36.4948 108.641 37.4971 107.639L37.7988 107.336L37.5479 106.991C37.4701 106.884 37.4024 106.788 37.3428 106.688V106.688L37.2305 106.491C36.1335 104.433 36.8093 101.668 38.8457 100.241C40.8639 98.8273 43.4262 99.2794 44.707 101.172L44.8271 101.359C44.8887 101.462 44.9446 101.571 45.0039 101.692L45.2188 102.132L45.6631 101.927C46.9307 101.342 48.2325 100.859 49.5576 100.481L49.9609 100.367L49.918 99.9502C49.9039 99.8117 49.8932 99.6841 49.8906 99.5576C49.865 98.2803 50.299 97.0971 51.3838 96.2334C52.485 95.3567 54.3231 94.7565 57.2061 94.8125ZM63.5752 109.578C54.7288 105.087 43.68 109.23 38.8623 118.719C34.0445 128.208 37.2199 139.573 46.0664 144.064C54.9129 148.556 65.9615 144.413 70.7793 134.924C75.5971 125.435 72.4217 114.07 63.5752 109.578Z" stroke="black"/>
<path d="M71.9541 100.996C72.0166 101.852 71.8524 102.755 71.4219 103.603C71.3636 103.717 71.2974 103.83 71.2236 103.951L70.9922 104.33L71.3408 104.604C72.3985 105.438 73.3758 106.35 74.2666 107.335L74.5869 107.689L74.9561 107.385C75.0631 107.296 75.1616 107.217 75.2627 107.146C76.4139 106.34 77.6912 105.568 79.0176 105.448C80.283 105.334 81.6961 105.808 83.1562 107.749C83.7773 108.575 83.6062 109.834 82.8271 111.248C82.0678 112.626 80.831 113.947 79.7402 114.711C79.6365 114.784 79.5275 114.851 79.4082 114.921L79.0459 115.132L79.1914 115.525C79.6685 116.818 80.0462 118.155 80.3223 119.523L80.4189 120.002L80.9004 119.917C81.0339 119.893 81.1549 119.874 81.2734 119.863C83.6566 119.651 85.655 121.489 85.7061 124.032C85.7573 126.598 83.8024 128.835 81.3887 129.05C81.2728 129.06 81.1544 129.062 81.0225 129.062L80.5957 129.064L80.5303 129.486C80.3124 130.887 79.9879 132.288 79.5566 133.679L79.4189 134.12L79.8486 134.291C79.9091 134.315 79.9668 134.338 80.0215 134.362L80.1797 134.437C82.2604 135.493 83.0733 138.218 81.8838 140.561C80.7312 142.83 78.1808 143.794 76.1309 142.891L75.9346 142.798L75.7812 142.714C75.7297 142.684 75.6773 142.651 75.6221 142.616L75.2305 142.371L74.9551 142.742C74.0868 143.911 73.1469 145 72.1445 146.003L71.8428 146.305L72.0938 146.649C72.1715 146.757 72.239 146.854 72.2988 146.953C72.9734 148.073 73.5641 149.483 73.7158 150.78C73.8671 152.074 73.5785 153.155 72.6367 153.814C71.642 154.511 70.0162 154.684 68.4121 154.364C66.8049 154.044 65.4082 153.266 64.8145 152.281V152.28C64.753 152.178 64.6968 152.069 64.6377 151.948L64.4229 151.509L63.9785 151.714C62.711 152.298 61.4091 152.781 60.084 153.159L59.6807 153.274L59.7236 153.691C59.7377 153.829 59.7484 153.958 59.751 154.084C59.7789 155.476 59.6736 156.806 59.2686 157.789C59.069 158.273 58.8045 158.653 58.4668 158.919C58.1336 159.181 57.6995 159.355 57.1172 159.386C54.756 159.511 53.2561 158.991 52.3438 158.189C51.4349 157.391 51.0273 156.243 51.001 154.933C50.9985 154.809 51.0045 154.683 51.0127 154.544L51.04 154.066L50.5654 154.017C50.1392 153.972 49.7138 153.914 49.2891 153.846C50.2277 151.906 51.1626 149.952 51.9941 147.957C52.2861 147.257 52.5566 146.546 52.8252 145.847C59.9439 146.199 67.1363 142.098 70.7793 134.923C75.0775 126.457 73.015 116.507 66.2412 111.264C68.118 107.826 70.0241 104.405 71.9541 100.996Z" stroke="black"/>
<path d="M56.7461 94.8291C59.1293 94.6167 61.1277 96.455 61.1787 98.998C61.1811 99.1219 61.1752 99.2483 61.167 99.3867L61.1396 99.8643L61.6143 99.9141C62.9348 100.052 64.249 100.302 65.5459 100.664L65.9727 100.783L66.1416 100.374C66.1957 100.243 66.2483 100.123 66.3066 100.008C67.4962 97.6651 70.1751 96.7134 72.2559 97.7695C74.3365 98.826 75.1495 101.551 73.96 103.894C73.9017 104.008 73.8354 104.121 73.7617 104.242L73.5312 104.621L73.8789 104.896C74.9364 105.729 75.914 106.641 76.8047 107.626L77.126 107.98L77.4941 107.677C77.6017 107.588 77.7004 107.509 77.8018 107.438C79.885 105.978 82.5475 106.507 83.7822 108.557C85.0329 110.632 84.3813 113.53 82.2793 115.003C82.1757 115.076 82.0659 115.142 81.9463 115.212L81.584 115.424L81.7295 115.816C82.2066 117.109 82.5852 118.446 82.8613 119.814L82.958 120.294L83.4395 120.208C83.5057 120.196 83.5692 120.186 83.6309 120.177L83.8125 120.154C86.1955 119.942 88.1933 121.78 88.2441 124.323C88.2956 126.889 86.3414 129.125 83.9277 129.341C83.812 129.351 83.6932 129.353 83.5615 129.354L83.1348 129.355L83.0693 129.777C82.8516 131.178 82.5261 132.579 82.0947 133.97L81.958 134.412L82.3877 134.583C82.5085 134.631 82.6165 134.676 82.7178 134.728C84.7985 135.784 85.6123 138.509 84.4229 140.852C83.2332 143.194 80.5542 144.145 78.4736 143.089H78.4727C78.3713 143.037 78.2711 142.977 78.1602 142.907L77.7686 142.662L77.4932 143.033C76.6247 144.202 75.685 145.291 74.6826 146.294L74.3809 146.596L74.6318 146.941C74.6706 146.995 74.707 147.046 74.7412 147.096L74.8379 147.244C76.0884 149.32 75.4361 152.218 73.334 153.69C71.2511 155.15 68.5885 154.621 67.3535 152.572C67.292 152.47 67.2349 152.36 67.1758 152.239L66.9609 151.8L66.5176 152.005C65.2497 152.589 63.9474 153.072 62.6221 153.45L62.2197 153.565L62.2617 153.982C62.2758 154.12 62.2866 154.248 62.2891 154.374V154.375C62.3404 156.941 60.3854 159.177 57.9717 159.393C55.5887 159.605 53.5911 157.767 53.54 155.224C53.5377 155.1 53.5426 154.974 53.5508 154.835L53.5791 154.357L53.1035 154.308C51.783 154.169 50.4695 153.92 49.1729 153.558L48.7451 153.438L48.5762 153.848C48.5219 153.979 48.4694 154.099 48.4111 154.214C47.2217 156.557 44.5427 157.509 42.4619 156.452C40.3812 155.396 39.5683 152.671 40.7578 150.328C40.816 150.213 40.8822 150.101 40.9561 149.979L41.1865 149.601L40.8389 149.326C39.7813 148.493 38.8039 147.58 37.9131 146.596L37.5928 146.241L37.2236 146.545C37.1701 146.589 37.119 146.631 37.0684 146.671L36.916 146.784C34.8329 148.243 32.1702 147.714 30.9355 145.665C29.6851 143.589 30.3366 140.691 32.4385 139.219H32.4395C32.543 139.146 32.6522 139.079 32.7715 139.01L33.1338 138.798L32.9883 138.405C32.5113 137.112 32.1326 135.776 31.8564 134.407L31.7598 133.928L31.2793 134.014C31.2126 134.026 31.1488 134.036 31.0869 134.045L30.9062 134.067C28.5231 134.28 26.5247 132.442 26.4736 129.898C26.4221 127.332 28.3773 125.096 30.791 124.881L30.79 124.88C30.9059 124.87 31.0249 124.869 31.1572 124.868L31.584 124.866L31.6494 124.444C31.8672 123.044 32.1918 121.643 32.623 120.252L32.7607 119.811L32.3311 119.639C32.2101 119.59 32.1019 119.545 32 119.493C29.9194 118.437 29.1064 115.713 30.2959 113.37C31.4854 111.027 34.1643 110.076 36.2451 111.133C36.3468 111.184 36.4471 111.245 36.5576 111.314L36.9492 111.56L37.2246 111.188C38.093 110.019 39.0328 108.93 40.0352 107.928L40.3369 107.626L40.0859 107.28C40.0087 107.174 39.9409 107.077 39.8809 106.978C38.6302 104.902 39.2818 102.004 41.3838 100.531C43.4019 99.1172 45.9643 99.5692 47.2451 101.462L47.3652 101.649C47.4268 101.752 47.4828 101.861 47.542 101.982L47.7568 102.421L48.2002 102.217C49.468 101.632 50.7705 101.149 52.0957 100.771L52.499 100.656L52.4561 100.24C52.442 100.102 52.4313 99.9734 52.4287 99.8467C52.3774 97.2807 54.3325 95.0442 56.7461 94.8291ZM66.1133 109.868C57.2669 105.377 46.2183 109.519 41.4004 119.008C36.5826 128.497 39.7579 139.863 48.6045 144.354C57.4508 148.846 68.4994 144.703 73.3174 135.214C78.1351 125.725 74.9598 114.36 66.1133 109.868Z" stroke="black"/>
<path d="M178.703 178.21C179.177 178.125 179.635 178.197 179.895 178.414C180.029 178.527 180.157 178.716 180.225 178.902C180.257 178.993 180.269 179.064 180.269 179.108C180.269 179.121 180.266 179.129 180.266 179.134C180.249 179.158 180.234 179.183 180.222 179.209C179.795 179.146 179.282 178.987 178.835 178.781C178.544 178.647 178.312 178.508 178.168 178.389C178.294 178.317 178.482 178.25 178.703 178.21Z" stroke="black"/>
<path d="M180.706 174.803C180.65 175.097 180.586 175.473 180.537 175.877C180.482 176.338 180.444 176.849 180.463 177.325C180.47 177.51 180.487 177.7 180.517 177.886L180.01 177.861C180.076 177.352 180.114 176.858 180.08 176.479C180.022 175.831 179.982 175.289 179.956 174.909C179.954 174.88 179.952 174.852 179.95 174.825L180.706 174.803Z" stroke="black"/>
<path d="M181.049 178.569C181.087 178.572 181.119 178.576 181.144 178.579C181.159 178.625 181.175 178.678 181.185 178.736C181.204 178.849 181.199 178.947 181.179 179.019C181.161 179.08 181.132 179.122 181.081 179.154C181.022 179.192 180.888 179.245 180.62 179.237C180.099 179.223 179.88 179.025 179.78 178.87C179.747 178.819 179.725 178.764 179.708 178.711C179.891 178.677 180.118 178.638 180.348 178.609C180.615 178.576 180.865 178.559 181.049 178.569Z" stroke="black"/>
<path d="M156.364 182.188C156.845 182.171 157.289 182.306 157.516 182.558C157.633 182.688 157.734 182.893 157.774 183.087C157.794 183.182 157.794 183.254 157.788 183.298C157.786 183.31 157.783 183.318 157.781 183.322C157.761 183.344 157.743 183.367 157.728 183.391C157.314 183.269 156.829 183.039 156.415 182.772C156.146 182.599 155.937 182.429 155.811 182.291C155.945 182.238 156.14 182.197 156.364 182.188Z" stroke="black"/>
<path d="M159.063 179.329C158.966 179.612 158.849 179.974 158.743 180.367C158.622 180.816 158.512 181.316 158.462 181.79C158.442 181.974 158.432 182.165 158.435 182.354L157.937 182.256C158.075 181.761 158.183 181.278 158.204 180.898V180.897C158.24 180.248 158.278 179.706 158.307 179.326C158.309 179.298 158.31 179.27 158.312 179.243L159.063 179.329Z" stroke="black"/>
<path d="M157.937 182.817C158.206 182.822 158.456 182.84 158.637 182.876C158.675 182.884 158.705 182.892 158.729 182.899C158.739 182.946 158.745 183.001 158.747 183.06C158.75 183.174 158.733 183.271 158.702 183.339C158.676 183.398 158.642 183.435 158.586 183.46C158.522 183.489 158.383 183.522 158.118 183.478C157.604 183.391 157.415 183.164 157.338 182.996C157.312 182.941 157.298 182.884 157.288 182.829C157.475 182.821 157.705 182.814 157.937 182.817Z" stroke="black"/>
<path d="M184.793 120.993C186.552 127.51 186.325 132.497 185.745 135.929C185.359 138.214 184.849 139.635 184.453 141.068C184.055 142.512 183.794 143.909 183.953 146.04C184.125 148.332 184.664 149.861 185.132 151.389C185.595 152.903 186.004 154.453 185.977 156.872C185.966 157.805 185.914 157.655 184.912 163.368C184.143 167.753 183.258 170.759 182.568 172.662C182.224 173.614 181.928 174.289 181.721 174.723C181.624 174.926 181.545 175.075 181.491 175.176C181.472 175.181 181.451 175.188 181.428 175.194C181.269 175.236 181.036 175.287 180.754 175.321C180.256 175.381 179.616 175.386 178.944 175.207C177.559 166.164 176.322 156.656 175.303 146.71C174.43 138.199 173.779 129.969 173.309 122.048C177.133 121.696 180.969 121.345 184.793 120.993Z" stroke="black"/>
<path opacity="0.3" d="M184.733 120.998C185.588 127.645 184.488 132.387 183.262 135.556C182.194 138.315 180.978 140.034 180.01 141.711C179.038 143.395 178.347 145 178.489 147.4C178.623 149.654 179.406 151.105 180.056 152.521C180.697 153.921 181.245 155.346 181.075 157.676C180.966 159.177 180.642 159.934 180.336 160.751C180.014 161.613 179.73 162.506 179.781 164.191C179.821 165.498 180.038 166.457 180.293 167.573C180.547 168.684 180.846 169.974 181.077 171.989C181.227 173.291 181.289 174.402 181.318 175.219C181.169 175.254 180.978 175.294 180.755 175.321C180.257 175.381 179.617 175.386 178.944 175.207C177.559 166.164 176.322 156.656 175.303 146.71C174.43 138.199 173.779 129.969 173.309 122.048C177.117 121.698 180.925 121.348 184.733 120.998Z" stroke="black"/>
<path d="M177.577 124.423C177.924 126.858 178.116 130.347 177.177 134.253C176.491 137.105 175.686 138.205 171.501 146.409C167.15 154.94 166.741 156.27 166.457 157.528C165.861 160.167 165.905 161.892 165.983 163.514C166.061 165.115 166.169 166.586 165.739 168.798C165.167 171.744 163.681 175.788 159.522 180.218C158.98 180.066 158.438 179.914 157.896 179.763C157.411 171.666 157.405 161.872 158.628 150.864C159.883 139.563 162.118 129.814 164.438 121.92C168.818 122.755 173.198 123.588 177.577 124.423Z" stroke="black"/>
<path d="M152.739 81.7168C153.236 81.5962 153.746 81.8572 153.939 82.3301L160.785 99.0869C161.015 99.6491 160.711 100.287 160.131 100.465L147.095 104.453C146.59 104.608 146.05 104.357 145.843 103.871L138.4 86.4365C138.15 85.8497 138.486 85.179 139.106 85.0283L152.739 81.7168Z" stroke="black"/>
<path d="M152.6 82.3857C153.047 82.2771 153.507 82.5121 153.682 82.9385L160.076 98.5908C160.283 99.098 160.01 99.6736 159.486 99.834L147.31 103.56C146.854 103.699 146.367 103.473 146.18 103.035L139.228 86.75C139.002 86.2206 139.306 85.6143 139.865 85.4785L152.6 82.3857Z" stroke="black"/>
<path d="M141.965 94.2002C141.956 94.2878 141.95 94.3788 141.948 94.4678C141.944 94.7359 141.962 95.0618 141.979 95.3604C141.996 95.6707 142.011 95.9532 142.007 96.1719C142.006 96.2486 142 96.3071 141.995 96.3496L141.895 96.4346L141.911 96.6895L141.977 97.6709L141.852 97.7236L141.701 96.334L141.691 96.2393L141.647 96.1553L141.048 95.0137L141.54 94.5703L141.542 94.5684C141.544 94.5669 141.547 94.5645 141.55 94.5615C141.556 94.5556 141.566 94.5465 141.579 94.5352C141.605 94.5123 141.642 94.4795 141.688 94.4395C141.762 94.374 141.859 94.2904 141.965 94.2002ZM140.745 94.3984L140.837 94.6113L140.464 93.8994C140.372 93.7251 140.313 93.536 140.288 93.3418L140.745 94.3984Z" stroke="black"/>
<path d="M177.88 76.4561C179.6 76.1028 180.519 76.0562 181.905 76.5381C185.664 77.845 187.651 81.2695 188.604 82.9248C189.763 84.9404 190.285 86.6905 190.448 88.4336C190.613 90.1883 190.416 91.9576 190.107 94.0312C189.489 98.1798 188.442 103.421 189.164 111.749C189.462 115.182 189.976 118.257 189.974 120.974C189.971 123.661 189.455 125.827 187.797 127.423C187.113 128.081 186.354 128.429 184.633 129.203C178.028 132.175 172.105 131.667 168.452 131.306C166.421 131.105 164.944 130.95 163.839 130.676C162.748 130.405 162.096 130.033 161.657 129.448C160.934 128.484 160.912 127.375 161.173 125.762C161.428 124.184 161.958 122.133 162.113 119.597C162.34 115.898 161.492 112.96 159.862 107.28C157.949 100.61 155.743 96.3545 154.308 93.1641C152.866 89.9602 152.257 87.9362 153.234 85.5449C154.28 82.9873 156.535 81.4976 157.779 80.6826C159.173 79.7697 160.304 79.3973 161.927 79.126C162.75 78.9883 163.692 78.8779 164.864 78.7363C166.032 78.5952 167.416 78.4248 169.104 78.168C173.599 77.4839 176.139 76.8136 177.88 76.4561Z" stroke="black"/>
<path d="M171.139 68.2158C171.175 68.2575 171.228 68.3362 171.289 68.4668C171.411 68.7268 171.536 69.1219 171.641 69.6455C171.849 70.6876 171.965 72.1639 171.873 73.9092L171.87 73.9688L171.881 74.0283L171.954 74.4307C172.05 74.9823 172.125 75.5233 172.184 76.0518C172.212 76.311 172.334 76.5231 172.516 76.6748C172.684 76.8155 172.881 76.8865 173.051 76.9248C173.384 76.9998 173.763 76.9821 174.018 76.9658C175.053 76.8997 175.799 76.9124 176.284 76.9736C176.406 76.989 176.505 77.0063 176.584 77.0244C176.559 77.0536 176.533 77.0877 176.5 77.1221C176.28 77.3511 175.926 77.6337 175.457 77.9219C174.528 78.4929 173.214 79.0477 171.767 79.2559C169.732 79.2697 167.901 79.1678 166.632 78.9863C166.224 78.928 165.888 78.8611 165.628 78.7939C165.934 78.6777 166.302 78.5437 166.709 78.3916C167.177 78.2164 167.681 78.0202 168.128 77.8125C168.563 77.6104 168.992 77.3762 169.277 77.1133C170.267 76.2015 170.201 75.1861 170.259 74.7041L170.301 74.3604L169.993 74.2002C169.851 74.1264 169.471 73.9496 169.079 73.6631C168.676 73.368 168.351 73.0194 168.247 72.6484C167.898 71.404 168.513 70.2191 168.668 69.9336C168.997 69.3264 169.188 69.0097 169.328 68.8223C169.445 68.6662 169.518 68.6074 169.631 68.5312L170.027 68.2861C170.03 68.2854 170.034 68.2847 170.04 68.2832C170.051 68.2804 170.066 68.2771 170.085 68.2734C170.124 68.266 170.173 68.2581 170.231 68.251C170.348 68.2367 170.487 68.2266 170.628 68.2197C170.768 68.2129 170.904 68.2096 171.013 68.2109C171.07 68.2117 171.111 68.2142 171.139 68.2158Z" stroke="black"/>
<path d="M170.871 63.4766C170.91 63.6703 170.916 63.9124 170.948 64.2959C171.008 65.003 171.15 65.9795 171.921 66.8105C172.593 67.5348 173.353 67.722 173.905 67.8789C174.465 68.0382 174.76 68.1538 174.961 68.5566C175.1 68.8362 175.184 69.2394 175.195 69.6875C175.207 70.1312 175.146 70.5751 175.035 70.9199C175.022 70.959 175.008 71.0027 174.985 71.0615C174.935 71.1906 174.717 71.7276 173.796 72.3906C173.67 72.4816 173.542 72.5662 173.412 72.6514C173.285 72.7347 173.151 72.8219 173.028 72.9082C172.791 73.0745 172.524 73.2837 172.354 73.5654C172.257 73.7269 172.192 73.8769 172.15 73.9873C172.13 74.0428 172.115 74.0896 172.104 74.124C172.099 74.1413 172.095 74.156 172.092 74.167C172.09 74.1723 172.09 74.177 172.089 74.1807C172.088 74.1826 172.087 74.1841 172.087 74.1855V74.1885H172.086V74.1895C172.079 74.2194 172.076 74.2484 172.07 74.2754C172.017 74.2673 171.954 74.2548 171.886 74.2334C171.611 74.1474 171.374 73.9839 171.269 73.8047C171.215 73.7142 171.127 73.5113 171.061 73.3096C171.005 73.1402 170.989 73.0518 170.962 72.9414C170.938 72.8466 170.904 72.7368 170.827 72.623L170.734 72.5088L170.636 72.4189C170.574 72.3695 170.509 72.3317 170.446 72.3018C170.458 72.2867 170.471 72.2729 170.481 72.2578C170.517 72.2066 170.567 72.1268 170.598 72.0283C170.622 71.951 170.639 71.8413 170.614 71.7197L170.573 71.5947C170.49 71.4123 170.339 71.3227 170.229 71.2822C170.127 71.2444 170.028 71.2364 169.963 71.2344C169.925 71.2332 169.885 71.2364 169.845 71.2383C169.855 71.2236 169.866 71.209 169.876 71.1934C169.988 71.0244 170.125 70.8058 170.213 70.5684C170.302 70.3276 170.358 70.0203 170.246 69.6982H170.247C170.216 69.6091 170.177 69.5278 170.127 69.4531C169.914 69.1328 169.675 68.9391 169.603 68.8877C169.634 68.9104 169.597 68.8896 169.515 68.7412C169.444 68.6153 169.365 68.4415 169.291 68.2344C169.141 67.817 169.026 67.3041 169.024 66.8242C169.022 65.9383 169.407 65.007 169.9 64.3184C170.145 63.9761 170.4 63.717 170.617 63.5625C170.73 63.4825 170.809 63.4474 170.857 63.4307C170.861 63.4438 170.867 63.4588 170.871 63.4766Z" stroke="black"/>
<mask id="path-43-inside-1_10264_26907" fill="white">
<path d="M169.52 71.4252C169.791 71.054 170.265 71.4028 170.268 71.883C170.271 72.3632 169.805 72.8625 169.354 72.7677C168.903 72.6729 169.157 71.9249 169.52 71.4252Z"/>
</mask>
<path d="M169.52 71.4252L168.712 70.8366L168.712 70.8369L169.52 71.4252ZM170.268 71.883L169.268 71.8887L169.268 71.889L170.268 71.883ZM169.354 72.7677L169.148 73.7464L169.148 73.7464L169.354 72.7677ZM169.52 71.4252L170.329 72.0137C170.264 72.1026 170.12 72.2295 169.895 72.2622C169.685 72.2926 169.526 72.2239 169.444 72.1694C169.296 72.0723 169.268 71.9564 169.268 71.8887L170.268 71.883L171.268 71.8774C171.265 71.3295 170.998 70.799 170.545 70.5002C170.31 70.3449 169.982 70.2286 169.607 70.283C169.217 70.3397 168.912 70.5622 168.712 70.8366L169.52 71.4252ZM170.268 71.883L169.268 71.889C169.268 71.8679 169.27 71.8527 169.272 71.8438C169.274 71.8351 169.276 71.8307 169.276 71.8302C169.277 71.8296 169.276 71.8307 169.275 71.8327C169.273 71.8346 169.273 71.8355 169.273 71.8351C169.273 71.8347 169.277 71.8312 169.285 71.8258C169.293 71.8204 169.308 71.8117 169.33 71.8031C169.377 71.7852 169.459 71.768 169.559 71.7891L169.354 72.7677L169.148 73.7464C169.809 73.8852 170.365 73.5729 170.69 73.2469C171.018 72.9171 171.271 72.426 171.268 71.8771L170.268 71.883ZM169.354 72.7677L169.56 71.7891C169.645 71.8071 169.759 71.8513 169.868 71.9446C169.977 72.0379 170.041 72.1472 170.076 72.2395C170.135 72.3981 170.102 72.4933 170.112 72.4456C170.118 72.4173 170.137 72.354 170.18 72.2642C170.221 72.1777 170.274 72.0896 170.329 72.0135L169.52 71.4252L168.712 70.8369C168.473 71.1645 168.24 71.6081 168.151 72.051C168.108 72.2646 168.074 72.5958 168.201 72.9369C168.356 73.3519 168.702 73.6526 169.148 73.7464L169.354 72.7677Z" fill="black" mask="url(#path-43-inside-1_10264_26907)"/>
<path d="M167.684 72.2383C167.768 72.3391 167.871 72.4256 167.999 72.4824C168.035 72.4986 168.072 72.5113 168.108 72.5215C168.029 72.6136 167.949 72.7146 167.885 72.8213C167.78 72.9963 167.702 73.2118 167.725 73.4697V73.4707C167.735 73.5826 167.777 73.6676 167.8 73.709C167.826 73.7573 167.856 73.7991 167.882 73.8311C167.896 73.8488 167.912 73.8654 167.928 73.8828C167.876 73.8449 167.826 73.804 167.782 73.7588C167.67 73.6429 167.612 73.5383 167.615 73.5449C167.44 73.2249 167.51 72.8824 167.654 72.3408C167.664 72.3059 167.673 72.2718 167.684 72.2383Z" stroke="black"/>
<path opacity="0.3" d="M159.109 90.4043C159.714 90.2995 160.501 90.5135 161.391 91.0811C162.269 91.6416 163.188 92.5113 164.029 93.5996C165.715 95.7806 167.027 98.7631 167.1 101.715C167.16 104.174 166.351 106 165.678 107.721C165.054 109.314 164.517 110.88 165.207 112.641L165.362 112.995C166.118 114.566 167.338 115.161 168.434 115.719C169.528 116.276 170.537 116.811 171.266 118.192C172.128 119.828 171.914 121.361 171.577 122.871C171.413 123.608 171.208 124.381 171.128 125.101C171.046 125.835 171.083 126.584 171.439 127.295C172.014 128.439 173.316 129.294 175.697 129.678C177.549 129.976 180.114 129.999 183.641 129.624C177.437 132.123 171.921 131.65 168.452 131.307C166.421 131.106 164.944 130.951 163.839 130.677C162.748 130.406 162.096 130.034 161.657 129.45C160.934 128.486 160.913 127.376 161.174 125.763C161.429 124.185 161.958 122.134 162.113 119.598C162.34 115.899 161.492 112.961 159.862 107.281C158.554 102.722 157.112 99.2989 155.869 96.5625C156.192 95.7913 156.457 95.0427 156.692 94.3506C156.951 93.5896 157.173 92.9126 157.413 92.3262C157.904 91.1278 158.383 90.5303 159.109 90.4043Z" stroke="black"/>
<path d="M156.989 81.2568C157.797 80.908 158.18 80.7689 158.638 80.8809C159.182 81.014 159.71 81.4902 160.179 82.3574C160.643 83.2148 161.006 84.3783 161.258 85.7285C161.761 88.4265 161.798 91.7629 161.388 94.6162C161.152 96.2543 160.81 98.6209 159.887 100.952C158.966 103.279 157.48 105.534 154.978 106.982C154.614 107.193 153.447 107.868 151.885 108.266C150.323 108.663 148.403 108.774 146.505 107.899C143.33 106.437 141.275 102.692 141.506 98.374C141.964 98.1761 142.423 97.9782 142.881 97.7803C143.39 98.278 143.964 98.7691 144.562 99.1172C145.25 99.5171 146.053 99.7804 146.842 99.543C147.452 99.3594 147.848 98.9364 148.131 98.3857C148.403 97.8556 148.592 97.1643 148.781 96.3701C149.166 94.756 149.586 92.5513 150.649 89.7275C153.052 83.3505 155.736 81.7978 156.989 81.2568Z" stroke="black"/>
</svg>
