<svg width="215" height="184" viewBox="0 0 215 184" fill="none" xmlns="http://www.w3.org/2000/svg">
<rect width="215" height="184" fill="#8C8C8C"/>
<g id="Group 20">
<g id="Group">
<path id="Vector" d="M62.4807 112.083C62.4928 112.089 62.5089 112.096 62.5286 112.104C62.5784 112.127 62.6521 112.161 62.7454 112.204C62.932 112.29 63.1992 112.412 63.5198 112.562C64.1613 112.86 65.0168 113.263 65.8752 113.681C66.7352 114.099 67.5917 114.531 68.2375 114.886C68.2407 114.887 68.2442 114.889 68.2473 114.891C67.9513 114.878 67.6168 114.858 67.259 114.833C65.9446 114.74 64.3087 114.589 63.3518 114.626C62.4767 114.66 61.7095 114.545 61.2024 114.352C60.946 114.254 60.7929 114.149 60.718 114.068C60.6575 114.003 60.6699 113.982 60.6711 113.978C60.749 113.613 60.944 112.949 61.1272 112.357C61.197 112.132 61.2639 111.92 61.3196 111.746L62.4807 112.083Z" stroke="black"/>
<path id="Vector_2" d="M62.3479 109.517L62.0422 111.773C61.9719 111.787 61.8928 111.802 61.8079 111.812C61.5764 111.837 61.3475 111.827 61.1545 111.769L60.929 109.311L62.3479 109.517Z" stroke="black"/>
<path id="Vector_3" d="M32.1826 110.088C32.1856 110.122 32.1889 110.158 32.1924 110.196C32.218 110.477 32.2558 110.862 32.3037 111.279C32.3971 112.092 32.536 113.093 32.7168 113.645C32.9125 114.242 33.2047 114.597 33.5811 114.888C33.7549 115.022 33.9466 115.142 34.1309 115.258C34.3206 115.378 34.5168 115.502 34.7314 115.659C34.8659 115.757 34.955 115.844 35.0146 115.917C34.9828 115.913 34.9498 115.91 34.916 115.906C34.5008 115.854 33.9459 115.777 33.3828 115.679C32.8163 115.579 32.2567 115.461 31.8262 115.326C31.6098 115.258 31.4437 115.192 31.3311 115.131C31.2776 115.102 31.2493 115.081 31.2363 115.07C31.1307 114.819 30.9481 114.23 30.75 113.533C30.5474 112.82 30.3399 112.041 30.2012 111.511C30.1297 111.238 30.1741 110.949 30.3242 110.708L30.9229 109.746L32.1826 110.088Z" stroke="black"/>
<path id="Vector_4" d="M33.2371 106.337C33.2098 106.403 33.1815 106.472 33.1531 106.543C32.9753 106.989 32.7676 107.558 32.571 108.113C32.3741 108.67 32.1859 109.219 32.0476 109.629C31.9785 109.834 31.9222 110.004 31.8826 110.123C31.8782 110.136 31.8738 110.148 31.8699 110.16C31.8525 110.163 31.7139 110.181 31.4421 109.951L31.3132 109.832C31.2178 109.737 31.1377 109.659 31.072 109.594L31.2068 106.109L33.2371 106.337Z" stroke="black"/>
<path id="Vector_5" d="M51.752 44.4404C52.8847 43.4001 54.8794 43.1615 57.5225 43.752C60.0725 44.3217 63.0886 45.6362 66.1846 47.5039C66.5347 56.6032 66.5443 66.4791 66.0215 77.0225C65.4355 88.8457 64.2646 99.7855 62.7891 109.72C62.3653 109.727 61.9263 109.729 61.4727 109.717H61.4717C61.177 109.709 60.8889 109.694 60.6074 109.678C59.8554 107.646 58.984 105.028 58.2012 101.93C57.3367 98.5078 56.8154 95.4376 56.4434 92.498C55.789 87.329 55.8456 84.5283 55.9326 82.0557C56.0204 79.5602 56.1405 77.3683 55.5996 73.4668C55.1205 70.0105 54.5378 68.2047 53.8838 66.0674C53.236 63.9503 52.5104 61.4817 51.7246 56.6611C50.8696 51.4152 50.7677 48.4419 50.9434 46.7266C51.0308 45.8724 51.1853 45.3498 51.3359 45.0215C51.4814 44.7047 51.6315 44.551 51.752 44.4404Z" stroke="black"/>
<path id="Vector_6" opacity="0.3" d="M51.7517 44.4404C52.831 43.4495 54.6938 43.1862 57.1648 43.6797C59.4642 44.1389 62.1745 45.2335 64.9968 46.8174C58.3292 54.1842 57.4912 59.1279 58.3757 62.4834C58.8785 64.3902 59.9053 65.635 60.7205 66.8027C61.5354 67.9701 62.1873 69.1104 62.1824 70.9277C62.1761 73.1733 61.1751 74.5858 60.0876 76.1592C59.0007 77.732 57.8459 79.4467 57.8953 82.1768C57.9283 83.9993 58.4766 84.9284 59.033 85.8867C59.5605 86.7955 60.116 87.7618 60.3318 89.7529C60.5885 92.1218 60.1212 93.7046 59.6677 95.1914C59.211 96.6887 58.7449 98.1467 59.1824 100.119C59.549 101.772 60.5714 103.856 63.3201 105.98C63.1475 107.242 62.9701 108.491 62.7878 109.721C62.3644 109.728 61.9256 109.731 61.4724 109.718H61.4714C61.1767 109.71 60.8886 109.695 60.6072 109.679C59.855 107.647 58.9838 105.029 58.2009 101.931C57.3364 98.5086 56.8152 95.4378 56.4431 92.498C55.7888 87.329 55.8454 84.5283 55.9324 82.0557C56.0201 79.5604 56.1401 77.3689 55.5994 73.4678C55.1203 70.0116 54.5375 68.2055 53.8835 66.0684C53.2357 63.9512 52.5101 61.4826 51.7244 56.6621C50.8692 51.4156 50.7675 48.4419 50.9431 46.7266C51.0306 45.8723 51.185 45.3498 51.3357 45.0215C51.4809 44.7053 51.6305 44.5519 51.7507 44.4414L51.7517 44.4404Z" stroke="black"/>
<path id="Vector_7" d="M61.5369 47.3477C55.6005 56.0958 49.2309 66.9157 43.5232 79.8135C39.1575 89.6787 35.98 98.9469 33.6394 107.221C33.3069 107.348 32.7607 107.496 32.1003 107.409C31.127 107.28 30.4876 106.72 30.2195 106.442C29.2996 100.596 29.4035 95.6447 29.7214 92.0635C29.9276 89.741 30.2911 85.8999 31.7615 81.1572C32.5824 78.5094 33.2707 77.1197 34.0271 75.6807C34.7931 74.2234 35.6354 72.7044 36.7332 69.833C37.8731 66.851 38.3067 64.9802 38.7253 62.9355C39.1411 60.9049 39.5412 58.7113 40.614 55.0439C41.4745 52.1029 42.9011 47.76 45.2332 42.5645C50.6678 44.1586 56.1023 45.7535 61.5369 47.3477Z" stroke="black"/>
<path id="Vector_8" d="M52.9238 3.71387C56.4364 3.36793 60.3627 3.88687 63.4795 5.22461L64.0918 5.50293C65.8605 6.35491 68.8604 8.24072 71.5518 10.2393C72.6225 11.0343 73.7369 11.924 74.8994 12.9395C77.5753 15.2766 79.4371 16.9064 80.9688 19.0273L81.2705 19.458C84.4545 24.1427 84.2181 28.4198 83.8857 33.1924C83.5532 37.968 83.1312 43.1995 86.1777 49.5186C86.6997 50.601 87.2618 51.589 87.7881 52.4844C88.3187 53.3871 88.8033 54.1807 89.1885 54.9043C89.5743 55.629 89.8343 56.2374 89.9355 56.7578C90.0338 57.2632 89.9772 57.6546 89.7607 57.9912C89.3234 58.6713 88.2659 59.0624 86.8115 59.1123C85.3974 59.1607 83.7809 58.8767 82.4707 58.4082C79.4266 57.3198 76.8924 54.8227 75.0684 51.7676C73.2461 48.7151 72.1622 45.1535 71.9873 42.0127C71.9684 41.6729 71.957 41.3339 71.9463 41.0107C71.9357 40.6906 71.926 40.3817 71.9092 40.1143C71.8927 39.853 71.8686 39.6004 71.8223 39.4023C71.7997 39.306 71.7641 39.1881 71.7012 39.0811C71.6478 38.9904 71.5357 38.8448 71.3408 38.7852L71.252 38.7646C70.947 38.7199 70.7416 38.9162 70.665 39C70.5686 39.1056 70.4884 39.2391 70.4209 39.3701C70.2827 39.6385 70.1391 40.0148 69.9912 40.4619C69.693 41.3635 69.3517 42.6396 68.9912 44.127C68.2882 47.027 67.5009 50.7785 66.8027 54.252C65.7102 54.6227 64.1775 54.9602 62.4541 54.6777C60.9537 54.4319 60.1252 53.8547 59.1924 53.1377C58.2398 52.4055 57.1798 51.5258 55.2832 50.8389C53.0659 50.0359 50.892 50.0406 46.7715 50.0371C44.4045 50.035 43.1794 50.1799 42.4326 50.2734C42.0496 50.3214 41.8475 50.3475 41.6816 50.3438C41.5489 50.3407 41.4406 50.3179 41.2754 50.2422C41.2722 50.2404 41.2685 50.2385 41.2646 50.2363C41.2434 50.2242 41.2128 50.2062 41.1768 50.1846L40.9316 50.0254L40.8447 49.9521C40.6474 49.7587 40.4934 49.4043 40.4414 48.7842C40.383 48.0874 40.4629 47.1629 40.6523 46.0215C41.0315 43.7372 41.8177 40.7458 42.6357 37.248C44.2619 30.2951 45.984 21.4602 44.5928 12.9561C44.2764 11.0227 43.8667 9.3108 44.8057 7.62793C46.0282 5.43707 49.1431 4.08629 52.9238 3.71387Z" stroke="black"/>
<path id="Vector_9" d="M72.4485 4.08398C72.5699 4.26098 72.7052 4.47199 72.8167 4.69727C72.9617 4.99052 73.0531 5.26793 73.0637 5.49609C73.0734 5.70439 73.0183 5.84404 72.887 5.9541C72.2341 6.50129 71.609 7.58366 71.2561 8.68164C71.0766 9.24029 70.9585 9.83105 70.9475 10.3926C70.9366 10.9504 71.0308 11.5148 71.3147 11.9863C71.5515 12.3795 71.8367 12.7516 72.0959 13.0762C72.3406 13.3825 72.547 13.632 72.7043 13.8457C72.6073 13.8232 72.481 13.7866 72.3245 13.7275C72.0641 13.6293 71.7524 13.4868 71.4016 13.3066C70.7001 12.9463 69.87 12.4503 69.0276 11.9033C67.3344 10.8039 65.645 9.53173 64.8811 8.78027C64.1224 8.03392 63.5028 7.11809 63.1799 6.42773C63.1116 6.28149 63.062 6.15513 63.0266 6.05078C63.2048 6.10602 63.429 6.17831 63.6985 6.26367C64.1904 6.41948 64.7943 6.60443 65.428 6.75488C66.0596 6.90483 66.7372 7.02485 67.3752 7.04492C68.0055 7.06473 68.6503 6.98858 69.179 6.69922C70.1523 6.16635 71.076 5.39676 71.7463 4.77344C72.0259 4.51343 72.264 4.27373 72.4485 4.08398Z" stroke="black"/>
<path id="Vector_10" d="M88.8823 59.2812C89.7223 59.6086 90.8177 59.9826 91.7485 60.1143C92.4897 60.219 92.8725 60.5528 93.0366 60.8408C93.2065 61.1393 93.1414 61.3453 93.0991 61.4092C93.0887 61.4134 93.0724 61.4211 93.0474 61.4277C92.9724 61.4475 92.8609 61.4629 92.7114 61.4678C92.4134 61.4775 92.0277 61.4437 91.6108 61.376C90.8687 61.2554 90.1202 61.0421 89.6851 60.8447L89.5181 60.7617C89.3934 60.6915 89.228 60.5215 89.0425 60.2363C88.8644 59.9626 88.6986 59.6308 88.5552 59.3018C88.5284 59.2402 88.5048 59.1783 88.48 59.1182C88.607 59.1702 88.7412 59.2262 88.8823 59.2812Z" stroke="black"/>
<path id="Vector_11" d="M73.5564 0.5C74.064 0.50526 74.7313 0.607258 75.6873 0.764648C77.5998 1.07971 78.5928 1.24524 79.1257 1.36816C79.3207 1.41315 79.4256 1.44889 79.4812 1.4707C79.4984 1.57138 79.4876 1.75435 79.3708 2.0293C79.239 2.33957 79.0049 2.69455 78.6921 3.03613C78.0554 3.73151 77.1881 4.27048 76.3904 4.33105C76.2582 4.34109 76.1153 4.34049 75.9421 4.33789C75.7749 4.33538 75.5799 4.33155 75.3738 4.33887C74.9519 4.35387 74.468 4.41698 73.9177 4.63867C73.2899 4.8916 72.7517 5.30028 72.6208 5.40137C72.5288 5.47243 72.4411 5.5427 72.3591 5.61328C72.121 4.87043 72.0428 4.32411 72.0134 3.99023C72.0058 3.90387 72.0051 3.87194 72.0007 3.76953C71.9962 3.66457 71.9887 3.50016 71.9675 3.16113C71.92 2.40007 71.9276 2.07663 71.9656 1.86816C72.0457 1.4304 72.3045 0.975968 72.5945 0.744141C72.7964 0.582824 73.0646 0.49492 73.5564 0.5Z" stroke="black"/>
<path id="Vector_12" d="M73.1357 3.2207C73.2445 3.25993 73.433 3.33579 73.7314 3.41113C74.0587 3.49378 74.2796 3.51599 74.4629 3.52832C74.6434 3.54046 74.7275 3.54214 74.8574 3.57227C75.0848 3.62505 75.3228 3.74029 75.5234 3.88867C75.678 4.00301 75.7877 4.11979 75.8535 4.21582L75.9043 4.30469C75.9724 4.45351 75.9882 4.74894 75.8613 5.17871C75.7403 5.58878 75.5124 6.04126 75.2197 6.44238C74.925 6.84629 74.5867 7.1669 74.2637 7.34473C73.9451 7.51999 73.6939 7.53245 73.4922 7.43848C72.7565 7.09562 72.3711 6.53806 72.165 6.05273C72.0615 5.80877 72.0049 5.58568 71.9746 5.42578C71.9596 5.34665 71.9508 5.28405 71.9463 5.24316C71.9441 5.22297 71.943 5.20783 71.9424 5.19922C71.9421 5.19494 71.9415 5.19147 71.9414 5.19043L71.9336 5.01562L71.8154 4.88379L71.7158 4.76562C71.5002 4.49595 71.4039 4.26968 71.3789 4.11816C71.353 3.9606 71.4038 3.94563 71.4043 3.94531C71.4009 3.94752 71.4011 3.94694 71.4053 3.94531C71.4094 3.94377 71.4151 3.94191 71.4219 3.94043L71.4229 3.93945C71.4262 3.94068 71.4309 3.94333 71.4365 3.94629C71.4531 3.95506 71.4786 3.97272 71.5088 4.00488C71.5708 4.07101 71.64 4.18457 71.6865 4.34766L72.6562 4.31543C72.7739 3.76555 72.9012 3.46941 73 3.31738C73.0419 3.25285 73.0738 3.22101 73.0928 3.20605C73.1033 3.20944 73.1174 3.21409 73.1357 3.2207Z" stroke="black"/>
</g>
<path id="Vector_13" d="M213.95 156.541V158.232C213.95 159.487 213.107 160.433 212.135 160.513L68.5081 172.274C67.8416 172.329 67.1717 172.298 66.511 172.183L7.30396 161.867C6.34994 161.701 5.56763 160.739 5.56763 159.514V154.779L213.95 156.541Z" stroke="black"/>
<path id="Vector_14" d="M4.31738 52.3418H137.397C139.033 52.3418 140.445 53.8382 140.445 55.8027V143.436C140.445 145.407 139.017 147.034 137.361 147.153L4.28125 156.736C2.19565 156.886 0.5 155.299 0.5 153.164V56.2227C0.500168 54.0727 2.21899 52.3419 4.31738 52.3418Z" stroke="black"/>
<path id="Vector_15" d="M6.43921 52.3418H139.519C141.155 52.3418 142.568 53.8382 142.568 55.8027V143.436C142.568 145.407 141.139 147.034 139.483 147.153L6.40405 156.736C4.31816 156.886 2.62183 155.299 2.62183 153.164V56.2227C2.62199 54.0727 4.34076 52.3419 6.43921 52.3418Z" stroke="black"/>
<path id="Vector_16" d="M135.376 57.9707C136.668 57.9652 137.801 59.1416 137.802 60.7158V138.02C137.802 139.601 136.653 140.886 135.341 140.975L11.3904 149.299C9.74911 149.409 8.41089 148.151 8.41089 146.457V61.585C8.41092 59.8767 9.77125 58.5003 11.4255 58.4932L135.376 57.9707Z" stroke="black"/>
<path id="Vector_17" d="M76.1489 53.3633C76.6889 53.3629 77.1792 53.8383 77.1792 54.4932C77.1792 55.1487 76.6879 55.6273 76.147 55.6289C75.6064 55.6304 75.1147 55.1553 75.1147 54.499C75.1148 53.8421 75.6075 53.3639 76.1489 53.3633Z" stroke="black"/>
<path id="Vector_18" d="M145.825 147.618C146.538 147.567 147.253 147.589 147.962 147.684L209.776 155.927L68.5081 167.495C67.8416 167.55 67.1718 167.519 66.511 167.404L9.16919 157.414L145.825 147.618Z" stroke="black"/>
<path id="Vector_19" d="M174.241 153.44L62.8833 162.175L30.2329 157.458L142.741 149.273L174.241 153.44Z" stroke="black"/>
<g id="Group_2">
<g id="Group_3">
<path id="Vector_20" d="M104.492 16.5459C104.898 16.3928 105.415 16.6074 105.612 17.0986L114.36 38.9082C114.558 39.4013 114.333 39.9235 113.933 40.0996L113.931 40.1006L31.8101 76.5801C31.0379 76.9199 30.3034 76.6033 30.0825 76.0527L19.5054 49.6826C19.2834 49.1289 19.5956 48.3816 20.3843 48.083L20.3853 48.084L104.491 16.5459H104.492Z" stroke="black"/>
<path id="Vector_21" opacity="0.48" d="M103.289 19.7441C103.642 19.6087 104.094 19.7922 104.267 20.2227L111.24 37.6055C111.413 38.038 111.213 38.4926 110.863 38.6445L110.862 38.6455L33.6997 72.4111C33.0214 72.7048 32.3836 72.4199 32.1929 71.9443L23.8521 51.1523C23.66 50.6735 23.9258 50.0156 24.6167 49.75L24.6177 49.751L103.288 19.7441H103.289Z" stroke="black"/>
</g>
<g id="Group_4">
<path id="Vector_22" d="M53.9177 3.625C55.4008 3.69908 56.522 4.03747 57.4744 4.81738C58.7226 5.83967 59.5075 7.48215 59.8728 9.46191C60.2371 11.4365 60.1736 13.6968 59.7732 15.8809C59.3727 18.0652 58.6396 20.145 57.6873 21.7607C56.726 23.3914 55.5879 24.4742 54.4119 24.8047C53.6951 25.006 53.2176 24.865 52.3884 24.502C51.5425 24.1315 50.3997 23.5619 48.4851 23.1006C47.869 22.9522 45.2525 22.3207 42.1843 22.3379C39.1309 22.355 35.5214 23.0146 33.0261 25.5527C29.6071 29.0307 29.1795 35.097 31.3865 40.7178C30.7473 41.1971 30.1077 41.6759 29.4685 42.1553C26.7646 40.7913 21.5832 37.6008 19.9597 31.9453C18.5678 27.0965 20.3337 22.3157 23.1775 18.2471C26.018 14.1832 29.8817 10.91 32.5105 9.12988C38.5112 5.06642 44.5424 4.40534 48.2673 4C50.5964 3.74652 52.4157 3.54998 53.9177 3.625Z" stroke="black"/>
<path id="Vector_23" d="M31.479 41.8975C31.5759 41.9471 31.6921 42.0032 31.8257 42.0566C32.2206 42.2147 32.7848 42.3695 33.4194 42.3203C33.5245 42.3122 33.6513 42.3255 33.7866 42.3535C33.6229 42.3925 33.4645 42.4581 33.3296 42.5674C32.9558 42.8703 32.9674 43.3047 33.0347 43.6182L33.0659 43.7441C33.1674 44.1082 33.4842 44.7108 33.8091 45.2344C33.9771 45.5052 34.159 45.774 34.3345 46.001C34.3598 46.0338 34.3872 46.066 34.4136 46.0986C34.3512 46.1026 34.2878 46.1082 34.2251 46.1074C34.0458 46.1051 33.9127 46.082 33.8433 46.0566C33.3115 45.8616 32.5203 45.5324 31.9292 44.4346C31.7962 44.1876 31.4253 43.5892 31.1011 43.0713C30.962 42.8492 30.8281 42.6374 30.7202 42.4668L31.479 41.8975Z" stroke="black"/>
</g>
<path id="Vector_24" d="M90.5635 20.8496C91.5447 20.6865 92.7403 20.8304 93.5459 21.0605C93.2836 21.1292 92.9979 21.2069 92.7041 21.2871C92.1522 21.4379 91.565 21.5996 91.0166 21.7354C90.4644 21.8721 89.9715 21.978 89.6064 22.0225C89.497 22.0358 89.4076 22.0403 89.3379 22.042C89.3225 21.9254 89.3207 21.7865 89.3535 21.6494C89.3882 21.5045 89.4629 21.3542 89.623 21.2188C89.7879 21.0793 90.0722 20.9313 90.5635 20.8496Z" stroke="black"/>
</g>
<g id="Group_5">
<g id="Group_6">
<path id="Vector_25" d="M57.2058 94.8125C57.8495 94.825 58.1925 94.9257 58.3787 95.0449C58.5336 95.1442 58.6278 95.2869 58.6785 95.5615C58.734 95.8629 58.7246 96.2586 58.696 96.8076C58.6753 97.2055 58.6467 97.6677 58.6394 98.1797L58.6404 98.708C58.6428 98.8318 58.6369 98.9582 58.6287 99.0967L58.6003 99.5742L59.0759 99.624C60.3966 99.7622 61.7106 100.012 63.0076 100.374L63.4343 100.494L63.6042 100.084C63.6313 100.018 63.6572 99.9553 63.6843 99.8945L63.7683 99.7178C64.3945 98.4845 65.2353 97.4012 66.5066 96.9082C67.7687 96.4188 69.5818 96.4639 72.2625 97.7725C72.7559 98.0134 72.9911 98.3105 73.0974 98.6289C73.2103 98.9672 73.201 99.3984 73.0681 99.9336C72.7972 101.024 72.0899 102.287 71.4216 103.604C71.3633 103.718 71.2972 103.832 71.2234 103.953L70.9929 104.331L71.3406 104.605C72.3983 105.439 73.3756 106.352 74.2664 107.337L74.5876 107.691L74.9558 107.387C75.0633 107.298 75.1623 107.219 75.2634 107.148C77.3466 105.689 80.0091 106.217 81.2439 108.267C82.4945 110.342 81.8429 113.24 79.741 114.713C79.6371 114.786 79.5276 114.853 79.408 114.923L79.0457 115.134L79.1912 115.527C79.6682 116.82 80.0469 118.157 80.323 119.525L80.4197 120.004L80.9001 119.918C81.0336 119.894 81.1553 119.876 81.2742 119.865L81.2732 119.864C83.5821 119.658 85.5304 121.378 85.696 123.798L85.7058 124.034C85.7553 126.52 83.9229 128.696 81.614 129.025L81.3894 129.052C81.2738 129.062 81.1552 129.064 81.0232 129.064L80.5964 129.065L80.53 129.487C80.3121 130.888 79.9877 132.29 79.5564 133.681L79.4197 134.122L79.8484 134.293C79.909 134.317 79.9665 134.34 80.0212 134.364L80.1794 134.438C82.2601 135.495 83.073 138.219 81.8835 140.562C80.6941 142.904 78.0151 143.856 75.9343 142.8C75.8326 142.748 75.732 142.687 75.6218 142.618L75.2302 142.372L74.9548 142.743C74.0864 143.912 73.1467 145.001 72.1443 146.004L71.8425 146.307L72.0935 146.651C72.1711 146.758 72.2396 146.856 72.2996 146.955C73.5499 149.031 72.8976 151.929 70.7957 153.401C68.7125 154.861 66.05 154.331 64.8152 152.282C64.7536 152.18 64.6966 152.071 64.6375 151.95L64.4226 151.511L63.9792 151.716C62.7114 152.3 61.4091 152.783 60.0837 153.161L59.6804 153.275L59.7234 153.692C59.7375 153.831 59.7482 153.959 59.7507 154.085C59.8022 156.651 57.8471 158.887 55.4333 159.103C53.0505 159.315 51.0529 157.477 51.0017 154.935C50.9992 154.811 51.0042 154.684 51.0125 154.545L51.0408 154.068L50.5652 154.019C49.2446 153.881 47.9313 153.63 46.6345 153.268L46.2068 153.148L46.0378 153.559C45.9837 153.69 45.9311 153.81 45.8728 153.925C44.7204 156.194 42.1707 157.157 40.1208 156.255L39.9236 156.162C37.843 155.106 37.0301 152.382 38.2195 150.039V150.038C38.2776 149.924 38.3438 149.811 38.4177 149.689L38.6492 149.312L38.3005 149.037C37.7488 148.602 37.2197 148.145 36.7126 147.668C36.7446 147.617 36.7727 147.557 36.7849 147.486C36.8101 147.34 36.7656 147.223 36.7351 147.163C36.6806 147.056 36.6001 146.99 36.5769 146.971C36.5103 146.916 36.4276 146.868 36.364 146.832C36.2261 146.755 36.037 146.663 35.8679 146.58C35.6888 146.492 35.5285 146.414 35.4197 146.353C35.4182 146.352 35.4172 146.35 35.4158 146.35C35.4023 146.335 35.3882 146.321 35.3748 146.306L35.0544 145.951L34.6853 146.256C34.5946 146.331 34.5156 146.45 34.5007 146.603C34.4876 146.739 34.531 146.845 34.5603 146.899C34.6139 147 34.6895 147.062 34.7146 147.083C34.73 147.096 34.7477 147.106 34.7644 147.118C34.8658 147.229 34.9675 147.339 35.071 147.447C34.1531 147.74 33.0177 147.755 31.8943 147.507C30.3496 147.166 28.9968 146.371 28.3972 145.376C27.1466 143.3 27.7984 140.402 29.9001 138.93H29.9011C30.0047 138.857 30.1136 138.79 30.2332 138.72L30.5955 138.508L30.45 138.115C29.9729 136.822 29.5943 135.486 29.3181 134.117L29.2214 133.639L28.741 133.724C28.6082 133.747 28.4867 133.767 28.3679 133.777C25.9847 133.99 23.9863 132.152 23.9353 129.608C23.8841 127.042 25.8389 124.806 28.2527 124.591C28.3681 124.581 28.4865 124.579 28.6189 124.578L29.0457 124.576L29.1111 124.155C29.3288 122.755 29.6534 121.353 30.0847 119.962L30.2214 119.521L29.7927 119.35C29.732 119.325 29.6747 119.302 29.6199 119.278L29.4617 119.204C27.3809 118.148 26.568 115.423 27.7576 113.08C28.9472 110.737 31.6262 109.786 33.7068 110.843C33.8085 110.894 33.9089 110.955 34.0193 111.024L34.4109 111.27L34.6863 110.898C35.5546 109.73 36.4945 108.641 37.4968 107.639L37.7986 107.336L37.5476 106.991C37.4698 106.884 37.4021 106.788 37.3425 106.688V106.688L37.2302 106.491C36.1333 104.433 36.809 101.668 38.8455 100.241C40.8636 98.8273 43.4259 99.2794 44.7068 101.172L44.8269 101.359C44.8885 101.462 44.9444 101.571 45.0037 101.692L45.2185 102.132L45.6628 101.927C46.9304 101.342 48.2323 100.859 49.5574 100.481L49.9607 100.367L49.9177 99.9502C49.9037 99.8117 49.8929 99.6841 49.8904 99.5576C49.8648 98.2803 50.2988 97.0971 51.3835 96.2334C52.4847 95.3567 54.3228 94.7565 57.2058 94.8125ZM63.575 109.578C54.7285 105.087 43.6798 109.23 38.8621 118.719C34.0443 128.208 37.2197 139.573 46.0662 144.064C54.9126 148.556 65.9613 144.413 70.7791 134.924C75.5968 125.435 72.4215 114.07 63.575 109.578Z" stroke="black"/>
<path id="Vector_26" d="M71.9543 100.998C72.0168 101.854 71.8526 102.757 71.4221 103.604C71.3638 103.719 71.2977 103.832 71.2239 103.953L70.9924 104.332L71.3411 104.606C72.3987 105.44 73.3761 106.352 74.2668 107.337L74.5872 107.691L74.9563 107.387C75.0634 107.298 75.1618 107.219 75.2629 107.148C76.4141 106.342 77.6915 105.57 79.0178 105.45C80.2832 105.336 81.6963 105.81 83.1565 107.751C83.7776 108.577 83.6065 109.836 82.8274 111.25C82.068 112.628 80.8313 113.949 79.7405 114.713C79.6367 114.786 79.5277 114.853 79.4084 114.923L79.0461 115.134L79.1917 115.527C79.6688 116.82 80.0465 118.157 80.3225 119.525L80.4192 120.004L80.9006 119.919C81.0342 119.895 81.1551 119.876 81.2737 119.865C83.6569 119.653 85.6553 121.491 85.7063 124.034C85.7575 126.6 83.8026 128.837 81.3889 129.052C81.273 129.062 81.1546 129.064 81.0227 129.064L80.5959 129.066L80.5305 129.488C80.3126 130.889 79.9881 132.29 79.5569 133.681L79.4192 134.122L79.8489 134.293C79.9094 134.317 79.967 134.34 80.0217 134.364L80.1799 134.438C82.2606 135.495 83.0735 138.22 81.884 140.562C80.7315 142.832 78.181 143.795 76.1311 142.893L75.9348 142.8L75.7815 142.716C75.7299 142.686 75.6775 142.653 75.6223 142.618L75.2307 142.373L74.9553 142.744C74.087 143.913 73.1472 145.002 72.1448 146.005L71.843 146.307L72.094 146.651C72.1718 146.758 72.2392 146.856 72.2991 146.955C72.9737 148.075 73.5643 149.485 73.7161 150.782C73.8674 152.076 73.5787 153.157 72.637 153.816C71.6423 154.513 70.0164 154.686 68.4124 154.366C66.8051 154.046 65.4085 153.268 64.8147 152.283V152.282C64.7532 152.18 64.6971 152.071 64.6379 151.95L64.4231 151.511L63.9788 151.716C62.7112 152.3 61.4093 152.783 60.0842 153.161L59.6809 153.276L59.7239 153.693C59.738 153.831 59.7487 153.959 59.7512 154.086C59.7791 155.478 59.6738 156.808 59.2688 157.791C59.0693 158.275 58.8048 158.655 58.467 158.921C58.1338 159.183 57.6998 159.357 57.1174 159.388C54.7563 159.513 53.2564 158.992 52.344 158.191C51.4351 157.393 51.0275 156.245 51.0012 154.935C50.9988 154.811 51.0047 154.685 51.0129 154.546L51.0403 154.068L50.5657 154.019C50.1395 153.974 49.714 153.916 49.2893 153.848C50.228 151.908 51.1628 149.954 51.9944 147.959C52.2864 147.259 52.5569 146.548 52.8254 145.849C59.9441 146.201 67.1366 142.1 70.7795 134.925C75.0778 126.459 73.0152 116.509 66.2415 111.266C68.1182 107.828 70.0244 104.407 71.9543 100.998Z" stroke="black"/>
<path id="Vector_27" d="M56.7456 94.8291C59.1288 94.6167 61.1272 96.455 61.1782 98.998C61.1806 99.1219 61.1747 99.2483 61.1665 99.3867L61.1392 99.8643L61.6138 99.9141C62.9344 100.052 64.2485 100.302 65.5454 100.664L65.9722 100.783L66.1411 100.374C66.1952 100.243 66.2479 100.123 66.3062 100.008C67.4957 97.6651 70.1746 96.7134 72.2554 97.7695C74.336 98.826 75.149 101.551 73.9595 103.894C73.9012 104.008 73.8349 104.121 73.7612 104.242L73.5308 104.621L73.8784 104.896C74.9359 105.729 75.9136 106.641 76.8042 107.626L77.1255 107.98L77.4937 107.677C77.6012 107.588 77.6999 107.509 77.8013 107.438C79.8845 105.978 82.547 106.507 83.7817 108.557C85.0324 110.632 84.3808 113.53 82.2788 115.003C82.1752 115.076 82.0654 115.142 81.9458 115.212L81.5835 115.424L81.729 115.816C82.2062 117.109 82.5847 118.446 82.8608 119.814L82.9575 120.294L83.439 120.208C83.5052 120.196 83.5687 120.186 83.6304 120.177L83.812 120.154C86.195 119.942 88.1928 121.78 88.2437 124.323C88.2951 126.889 86.3409 129.125 83.9272 129.341C83.8115 129.351 83.6927 129.353 83.561 129.354L83.1343 129.355L83.0688 129.777C82.8511 131.178 82.5256 132.579 82.0942 133.97L81.9575 134.412L82.3872 134.583C82.508 134.631 82.616 134.676 82.7173 134.728C84.7981 135.784 85.6118 138.509 84.4224 140.852C83.2327 143.194 80.5537 144.145 78.4731 143.089H78.4722C78.3708 143.037 78.2706 142.977 78.1597 142.907L77.7681 142.662L77.4927 143.033C76.6242 144.202 75.6845 145.291 74.6821 146.294L74.3804 146.596L74.6313 146.941C74.6701 146.995 74.7065 147.046 74.7407 147.096L74.8374 147.244C76.0879 149.32 75.4356 152.218 73.3335 153.69C71.2506 155.15 68.588 154.621 67.353 152.572C67.2915 152.47 67.2344 152.36 67.1753 152.239L66.9604 151.8L66.5171 152.005C65.2492 152.589 63.947 153.072 62.6216 153.45L62.2192 153.565L62.2612 153.982C62.2753 154.12 62.2861 154.248 62.2886 154.374V154.375C62.3399 156.941 60.3849 159.177 57.9712 159.393C55.5882 159.605 53.5906 157.767 53.5396 155.224C53.5372 155.1 53.5421 154.974 53.5503 154.835L53.5786 154.357L53.103 154.308C51.7825 154.169 50.469 153.92 49.1724 153.558L48.7446 153.438L48.5757 153.848C48.5214 153.979 48.4689 154.099 48.4106 154.214C47.2212 156.557 44.5422 157.509 42.4614 156.452C40.3807 155.396 39.5678 152.671 40.7573 150.328C40.8155 150.213 40.8817 150.101 40.9556 149.979L41.186 149.601L40.8384 149.326C39.7809 148.493 38.8035 147.58 37.9126 146.596L37.5923 146.241L37.2231 146.545C37.1696 146.589 37.1185 146.631 37.0679 146.671L36.9155 146.784C34.8324 148.243 32.1698 147.714 30.9351 145.665C29.6846 143.589 30.3361 140.691 32.438 139.219H32.439C32.5425 139.146 32.6518 139.079 32.771 139.01L33.1333 138.798L32.9878 138.405C32.5108 137.112 32.1322 135.776 31.856 134.407L31.7593 133.928L31.2788 134.014C31.2122 134.026 31.1483 134.036 31.0864 134.045L30.9058 134.067C28.5227 134.28 26.5242 132.442 26.4731 129.898C26.4217 127.332 28.3768 125.096 30.7905 124.881L30.7896 124.88C30.9054 124.87 31.0244 124.869 31.1567 124.868L31.5835 124.866L31.6489 124.444C31.8667 123.044 32.1913 121.643 32.6226 120.252L32.7603 119.811L32.3306 119.639C32.2096 119.59 32.1014 119.545 31.9995 119.493C29.919 118.437 29.1059 115.713 30.2954 113.37C31.4849 111.027 34.1639 110.076 36.2446 111.133C36.3463 111.184 36.4466 111.245 36.5571 111.314L36.9487 111.56L37.2241 111.188C38.0925 110.019 39.0323 108.93 40.0347 107.928L40.3364 107.626L40.0854 107.28C40.0082 107.174 39.9404 107.077 39.8804 106.978C38.6298 104.902 39.2813 102.004 41.3833 100.531C43.4015 99.1172 45.9638 99.5692 47.2446 101.462L47.3647 101.649C47.4263 101.752 47.4823 101.861 47.5415 101.982L47.7563 102.421L48.1997 102.217C49.4675 101.632 50.77 101.149 52.0952 100.771L52.4985 100.656L52.4556 100.24C52.4415 100.102 52.4308 99.9734 52.4282 99.8467C52.3769 97.2807 54.332 95.0442 56.7456 94.8291ZM66.1128 109.868C57.2664 105.377 46.2178 109.519 41.3999 119.008C36.5821 128.497 39.7575 139.863 48.604 144.354C57.4503 148.846 68.4989 144.703 73.3169 135.214C78.1346 125.725 74.9593 114.36 66.1128 109.868Z" stroke="black"/>
</g>
</g>
<g id="Group_7">
<path id="Vector_28" d="M178.703 178.21C179.177 178.125 179.636 178.197 179.895 178.414C180.029 178.527 180.158 178.716 180.225 178.902C180.258 178.993 180.269 179.064 180.269 179.108C180.269 179.121 180.267 179.129 180.266 179.134C180.249 179.158 180.234 179.183 180.222 179.209C179.795 179.146 179.283 178.987 178.835 178.781C178.544 178.647 178.313 178.508 178.168 178.389C178.294 178.317 178.482 178.25 178.703 178.21Z" stroke="black"/>
<path id="Vector_29" d="M180.706 174.801C180.65 175.095 180.586 175.471 180.537 175.875C180.482 176.336 180.445 176.847 180.463 177.323C180.47 177.508 180.487 177.698 180.517 177.884L180.01 177.859C180.076 177.35 180.114 176.856 180.08 176.477C180.023 175.829 179.982 175.287 179.956 174.907C179.954 174.878 179.952 174.85 179.95 174.823L180.706 174.801Z" stroke="black"/>
<path id="Vector_30" d="M181.049 178.571C181.087 178.574 181.119 178.578 181.144 178.581C181.159 178.626 181.175 178.68 181.185 178.738C181.204 178.851 181.199 178.949 181.179 179.021C181.161 179.082 181.132 179.124 181.081 179.156C181.022 179.194 180.888 179.246 180.62 179.239C180.099 179.225 179.88 179.027 179.78 178.872C179.747 178.821 179.725 178.766 179.708 178.713C179.891 178.678 180.118 178.64 180.348 178.611C180.615 178.578 180.865 178.561 181.049 178.571Z" stroke="black"/>
<path id="Vector_31" d="M156.364 182.19C156.845 182.173 157.289 182.308 157.516 182.56C157.633 182.69 157.734 182.894 157.774 183.089C157.794 183.184 157.794 183.256 157.788 183.3C157.786 183.312 157.783 183.32 157.781 183.324C157.761 183.346 157.743 183.369 157.728 183.393C157.314 183.271 156.829 183.041 156.415 182.774C156.146 182.601 155.937 182.431 155.811 182.293C155.945 182.24 156.14 182.199 156.364 182.19Z" stroke="black"/>
<path id="Vector_32" d="M159.064 179.329C158.966 179.612 158.85 179.974 158.744 180.367C158.623 180.816 158.512 181.316 158.462 181.79C158.443 181.974 158.432 182.165 158.435 182.354L157.937 182.256C158.076 181.761 158.184 181.278 158.205 180.898V180.897C158.24 180.248 158.278 179.706 158.307 179.326C158.309 179.298 158.311 179.27 158.313 179.243L159.064 179.329Z" stroke="black"/>
<path id="Vector_33" d="M157.937 182.817C158.207 182.822 158.456 182.84 158.637 182.876C158.675 182.884 158.706 182.892 158.73 182.899C158.739 182.946 158.746 183.001 158.748 183.06C158.751 183.174 158.733 183.271 158.703 183.339C158.676 183.398 158.642 183.435 158.586 183.46C158.522 183.489 158.383 183.522 158.119 183.478C157.604 183.391 157.415 183.164 157.338 182.996C157.313 182.941 157.298 182.884 157.289 182.829C157.475 182.821 157.705 182.814 157.937 182.817Z" stroke="black"/>
<path id="Vector_34" d="M184.793 120.995C186.552 127.512 186.325 132.499 185.745 135.931C185.359 138.216 184.849 139.637 184.453 141.07C184.055 142.514 183.794 143.911 183.953 146.042C184.125 148.334 184.664 149.863 185.132 151.391C185.595 152.905 186.004 154.455 185.977 156.874C185.966 157.807 185.914 157.657 184.912 163.37C184.143 167.754 183.258 170.761 182.568 172.664C182.224 173.615 181.928 174.291 181.721 174.725C181.624 174.928 181.545 175.077 181.491 175.178C181.472 175.183 181.451 175.19 181.428 175.196C181.269 175.238 181.036 175.289 180.754 175.323C180.256 175.383 179.616 175.387 178.944 175.209C177.559 166.166 176.322 156.658 175.303 146.712C174.43 138.201 173.779 129.971 173.309 122.05C177.133 121.698 180.969 121.346 184.793 120.995Z" stroke="black"/>
<path id="Vector_35" opacity="0.3" d="M184.733 121C185.588 127.647 184.488 132.389 183.262 135.558C182.194 138.317 180.978 140.036 180.01 141.713C179.038 143.397 178.347 145.002 178.489 147.402C178.623 149.656 179.406 151.107 180.056 152.523C180.697 153.923 181.245 155.348 181.075 157.678C180.966 159.179 180.642 159.936 180.336 160.753C180.014 161.615 179.73 162.508 179.781 164.193C179.821 165.5 180.038 166.459 180.293 167.575C180.547 168.686 180.846 169.976 181.077 171.991C181.227 173.293 181.289 174.404 181.318 175.221C181.169 175.256 180.978 175.296 180.755 175.323C180.257 175.383 179.617 175.388 178.944 175.209C177.559 166.166 176.322 156.658 175.303 146.712C174.43 138.201 173.779 129.971 173.309 122.05C177.117 121.7 180.925 121.35 184.733 121Z" stroke="black"/>
<path id="Vector_36" d="M177.577 124.423C177.924 126.858 178.117 130.347 177.177 134.253C176.491 137.105 175.686 138.205 171.501 146.409C167.15 154.94 166.741 156.27 166.457 157.528C165.862 160.167 165.905 161.892 165.984 163.514C166.061 165.115 166.169 166.586 165.74 168.798C165.167 171.744 163.681 175.788 159.523 180.218C158.98 180.066 158.438 179.914 157.896 179.763C157.411 171.666 157.406 161.872 158.628 150.864C159.883 139.563 162.118 129.814 164.439 121.92C168.818 122.755 173.198 123.588 177.577 124.423Z" stroke="black"/>
<g id="Group_8">
<path id="Vector_37" d="M152.74 81.7148C153.236 81.5943 153.747 81.8552 153.94 82.3281L160.785 99.085C161.015 99.6472 160.712 100.285 160.131 100.463L147.095 104.451C146.59 104.606 146.05 104.355 145.843 103.869L138.401 86.4346C138.15 85.8478 138.487 85.177 139.107 85.0264L152.74 81.7148Z" stroke="black"/>
<path id="Vector_38" d="M152.6 82.3818C153.047 82.2732 153.507 82.5082 153.682 82.9346L160.076 98.5869C160.283 99.0941 160.01 99.6697 159.486 99.8301L147.31 103.556C146.854 103.695 146.367 103.469 146.18 103.031L139.228 86.7461C139.002 86.2167 139.306 85.6104 139.865 85.4746L152.6 82.3818Z" stroke="black"/>
</g>
<path id="Vector_39" d="M141.965 94.1982C141.956 94.2858 141.95 94.3768 141.948 94.4658C141.944 94.734 141.962 95.0598 141.979 95.3584C141.996 95.6688 142.011 95.9513 142.007 96.1699C142.006 96.2467 142 96.3052 141.995 96.3477L141.895 96.4326L141.911 96.6875L141.977 97.6689L141.852 97.7217L141.701 96.332L141.692 96.2373L141.648 96.1533L141.048 95.0117L141.54 94.5684L141.542 94.5664C141.544 94.565 141.547 94.5625 141.55 94.5596C141.557 94.5536 141.567 94.5445 141.579 94.5332C141.605 94.5104 141.642 94.4776 141.688 94.4375C141.762 94.3721 141.859 94.2885 141.965 94.1982ZM140.745 94.3965L140.837 94.6094L140.464 93.8975C140.373 93.7231 140.313 93.5341 140.288 93.3398L140.745 94.3965Z" stroke="black"/>
<path id="Vector_40" d="M177.88 76.4561C179.6 76.1028 180.52 76.0562 181.906 76.5381C185.665 77.845 187.652 81.2695 188.604 82.9248C189.764 84.9404 190.285 86.6905 190.449 88.4336C190.613 90.1883 190.417 91.9576 190.108 94.0312C189.49 98.1798 188.442 103.421 189.165 111.749C189.462 115.182 189.976 118.257 189.974 120.974C189.972 123.661 189.455 125.827 187.797 127.423C187.114 128.081 186.355 128.429 184.633 129.203C178.028 132.175 172.106 131.667 168.453 131.306C166.422 131.105 164.944 130.95 163.839 130.676C162.748 130.405 162.096 130.033 161.658 129.448C160.934 128.484 160.912 127.375 161.173 125.762C161.429 124.184 161.958 122.133 162.114 119.597C162.34 115.898 161.493 112.96 159.863 107.28C157.949 100.61 155.743 96.3545 154.308 93.1641C152.867 89.9602 152.257 87.9362 153.235 85.5449C154.281 82.9873 156.536 81.4976 157.78 80.6826C159.173 79.7697 160.305 79.3973 161.927 79.126C162.75 78.9883 163.693 78.8779 164.865 78.7363C166.033 78.5952 167.416 78.4248 169.104 78.168C173.6 77.4839 176.14 76.8136 177.88 76.4561Z" stroke="black"/>
<g id="Group_9">
<g id="Group_10">
<path id="Vector_41" d="M171.139 68.2158C171.176 68.2575 171.228 68.3362 171.29 68.4668C171.412 68.7268 171.537 69.1219 171.641 69.6455C171.85 70.6876 171.966 72.1639 171.874 73.9092L171.871 73.9688L171.882 74.0283L171.955 74.4307C172.05 74.9823 172.126 75.5233 172.184 76.0518C172.213 76.311 172.335 76.5231 172.516 76.6748C172.684 76.8155 172.882 76.8865 173.052 76.9248C173.385 76.9998 173.764 76.9821 174.018 76.9658C175.054 76.8997 175.8 76.9124 176.285 76.9736C176.407 76.989 176.506 77.0063 176.585 77.0244C176.56 77.0536 176.534 77.0877 176.501 77.1221C176.281 77.3511 175.927 77.6337 175.458 77.9219C174.529 78.4929 173.214 79.0477 171.767 79.2559C169.732 79.2697 167.902 79.1678 166.633 78.9863C166.225 78.928 165.889 78.8611 165.629 78.7939C165.934 78.6777 166.303 78.5437 166.71 78.3916C167.178 78.2164 167.682 78.0202 168.129 77.8125C168.564 77.6104 168.993 77.3762 169.278 77.1133C170.268 76.2015 170.201 75.1861 170.26 74.7041L170.302 74.3604L169.994 74.2002C169.852 74.1264 169.471 73.9496 169.08 73.6631C168.677 73.368 168.352 73.0194 168.248 72.6484C167.899 71.404 168.514 70.2191 168.669 69.9336C168.998 69.3264 169.189 69.0097 169.329 68.8223C169.445 68.6662 169.519 68.6074 169.632 68.5312L170.028 68.2861C170.031 68.2854 170.035 68.2847 170.041 68.2832C170.052 68.2804 170.067 68.2771 170.086 68.2734C170.125 68.266 170.174 68.2581 170.232 68.251C170.349 68.2367 170.488 68.2266 170.629 68.2197C170.769 68.2129 170.904 68.2096 171.013 68.2109C171.071 68.2117 171.112 68.2142 171.139 68.2158Z" stroke="black"/>
<path id="Vector_42" d="M170.872 63.4766C170.911 63.6703 170.917 63.9124 170.949 64.2959C171.009 65.003 171.151 65.9795 171.922 66.8105C172.594 67.5348 173.354 67.722 173.906 67.8789C174.466 68.0382 174.761 68.1538 174.962 68.5566C175.101 68.8362 175.185 69.2394 175.196 69.6875C175.208 70.1312 175.147 70.5751 175.036 70.9199C175.023 70.959 175.009 71.0027 174.986 71.0615C174.936 71.1906 174.718 71.7276 173.797 72.3906C173.671 72.4816 173.543 72.5662 173.413 72.6514C173.286 72.7347 173.152 72.8219 173.029 72.9082C172.792 73.0745 172.525 73.2837 172.355 73.5654C172.258 73.7269 172.193 73.8769 172.151 73.9873C172.131 74.0428 172.116 74.0896 172.105 74.124C172.1 74.1413 172.096 74.156 172.093 74.167C172.091 74.1723 172.091 74.177 172.09 74.1807C172.089 74.1826 172.088 74.1841 172.088 74.1855V74.1885H172.087V74.1895C172.08 74.2194 172.077 74.2484 172.071 74.2754C172.018 74.2673 171.955 74.2548 171.887 74.2334C171.612 74.1474 171.375 73.9839 171.27 73.8047C171.216 73.7142 171.128 73.5113 171.062 73.3096C171.006 73.1402 170.99 73.0518 170.963 72.9414C170.939 72.8466 170.905 72.7368 170.828 72.623L170.735 72.5088L170.637 72.4189C170.575 72.3695 170.51 72.3317 170.447 72.3018C170.459 72.2867 170.472 72.2729 170.482 72.2578C170.518 72.2066 170.568 72.1268 170.599 72.0283C170.623 71.951 170.64 71.8413 170.615 71.7197L170.574 71.5947C170.491 71.4123 170.34 71.3227 170.23 71.2822C170.128 71.2444 170.029 71.2364 169.964 71.2344C169.926 71.2332 169.886 71.2364 169.846 71.2383C169.856 71.2236 169.867 71.209 169.877 71.1934C169.989 71.0244 170.126 70.8058 170.214 70.5684C170.303 70.3276 170.359 70.0203 170.247 69.6982H170.248C170.217 69.6091 170.178 69.5278 170.128 69.4531C169.915 69.1328 169.676 68.9391 169.604 68.8877C169.635 68.9104 169.598 68.8896 169.516 68.7412C169.445 68.6153 169.366 68.4415 169.292 68.2344C169.142 67.817 169.027 67.3041 169.025 66.8242C169.023 65.9383 169.408 65.007 169.901 64.3184C170.146 63.9761 170.401 63.717 170.618 63.5625C170.731 63.4825 170.81 63.4474 170.858 63.4307C170.862 63.4438 170.868 63.4588 170.872 63.4766Z" stroke="black"/>
<g id="Vector_43">
<mask id="path-43-inside-1_9983_14114" fill="white">
<path d="M169.521 71.4252C169.792 71.054 170.266 71.4028 170.269 71.883C170.272 72.3632 169.806 72.8625 169.355 72.7677C168.904 72.6729 169.158 71.9249 169.521 71.4252Z"/>
</mask>
<path d="M169.521 71.4252L168.713 70.8366L168.713 70.8369L169.521 71.4252ZM170.269 71.883L169.269 71.8887L169.269 71.889L170.269 71.883ZM169.355 72.7677L169.149 73.7464L169.149 73.7464L169.355 72.7677ZM169.521 71.4252L170.33 72.0137C170.265 72.1026 170.121 72.2295 169.896 72.2622C169.686 72.2926 169.527 72.2239 169.445 72.1694C169.297 72.0723 169.269 71.9564 169.269 71.8887L170.269 71.883L171.269 71.8774C171.266 71.3295 170.999 70.799 170.546 70.5002C170.311 70.3449 169.983 70.2286 169.608 70.283C169.218 70.3397 168.913 70.5622 168.713 70.8366L169.521 71.4252ZM170.269 71.883L169.269 71.889C169.269 71.8679 169.271 71.8527 169.273 71.8438C169.275 71.8351 169.277 71.8307 169.277 71.8302C169.278 71.8296 169.277 71.8307 169.276 71.8327C169.274 71.8346 169.274 71.8355 169.274 71.8351C169.274 71.8347 169.278 71.8312 169.286 71.8258C169.294 71.8204 169.309 71.8117 169.331 71.8031C169.378 71.7852 169.46 71.768 169.56 71.7891L169.355 72.7677L169.149 73.7464C169.81 73.8852 170.366 73.5729 170.691 73.2469C171.019 72.9171 171.272 72.426 171.269 71.8771L170.269 71.883ZM169.355 72.7677L169.561 71.7891C169.646 71.8071 169.76 71.8513 169.869 71.9446C169.978 72.0379 170.042 72.1472 170.077 72.2395C170.136 72.3981 170.103 72.4933 170.113 72.4456C170.119 72.4173 170.137 72.354 170.18 72.2642C170.222 72.1777 170.275 72.0896 170.33 72.0135L169.521 71.4252L168.713 70.8369C168.474 71.1645 168.241 71.6081 168.152 72.051C168.109 72.2646 168.075 72.5958 168.202 72.9369C168.356 73.3519 168.703 73.6526 169.149 73.7464L169.355 72.7677Z" fill="black" mask="url(#path-43-inside-1_9983_14114)"/>
</g>
</g>
<path id="Vector_44" d="M167.684 72.2383C167.768 72.3391 167.872 72.4256 168 72.4824C168.036 72.4986 168.073 72.5113 168.109 72.5215C168.03 72.6136 167.949 72.7146 167.885 72.8213C167.781 72.9963 167.703 73.2118 167.725 73.4697V73.4707C167.735 73.5826 167.778 73.6676 167.801 73.709C167.827 73.7573 167.857 73.7991 167.883 73.8311C167.897 73.8488 167.913 73.8654 167.928 73.8828C167.876 73.8449 167.827 73.804 167.783 73.7588C167.671 73.6429 167.612 73.5383 167.616 73.5449C167.441 73.2249 167.511 72.8824 167.655 72.3408C167.664 72.3059 167.674 72.2718 167.684 72.2383Z" stroke="black"/>
</g>
<path id="Vector_45" opacity="0.3" d="M159.11 90.4023C159.714 90.2976 160.501 90.5116 161.391 91.0791C162.27 91.6396 163.189 92.5093 164.03 93.5977C165.715 95.7787 167.027 98.7612 167.1 101.713C167.16 104.172 166.352 105.998 165.678 107.719C165.054 109.312 164.517 110.878 165.207 112.639L165.363 112.993C166.118 114.565 167.338 115.159 168.434 115.717C169.528 116.274 170.537 116.809 171.266 118.19C172.128 119.826 171.914 121.359 171.577 122.869C171.413 123.606 171.208 124.379 171.128 125.099C171.046 125.833 171.083 126.582 171.44 127.293C172.014 128.437 173.316 129.292 175.698 129.676C177.549 129.974 180.114 129.997 183.641 129.622C177.437 132.121 171.922 131.648 168.452 131.305C166.422 131.104 164.944 130.949 163.839 130.675C162.748 130.404 162.096 130.033 161.657 129.448C160.934 128.484 160.913 127.374 161.174 125.761C161.429 124.183 161.958 122.132 162.114 119.596C162.34 115.897 161.492 112.959 159.863 107.279C158.554 102.72 157.112 99.297 155.869 96.5605C156.192 95.7893 156.457 95.0407 156.693 94.3486C156.951 93.5876 157.173 92.9107 157.413 92.3242C157.904 91.1258 158.383 90.5283 159.11 90.4023Z" stroke="black"/>
<path id="Vector_46" d="M156.99 81.2588C157.798 80.9099 158.18 80.7709 158.638 80.8828C159.182 81.0159 159.71 81.4921 160.179 82.3594C160.643 83.2168 161.006 84.3803 161.258 85.7305C161.761 88.4285 161.799 91.7648 161.388 94.6182C161.152 96.2562 160.81 98.6228 159.887 100.954C158.966 103.281 157.48 105.536 154.978 106.984C154.614 107.195 153.447 107.87 151.885 108.268C150.324 108.665 148.403 108.776 146.505 107.901C143.33 106.439 141.275 102.694 141.506 98.376C141.964 98.1781 142.423 97.9801 142.881 97.7822C143.391 98.28 143.964 98.771 144.563 99.1191C145.251 99.5191 146.053 99.7823 146.842 99.5449C147.452 99.3613 147.848 98.9383 148.131 98.3877C148.403 97.8576 148.592 97.1663 148.781 96.3721C149.166 94.758 149.586 92.5532 150.65 89.7295C153.052 83.3525 155.736 81.7998 156.99 81.2588Z" stroke="black"/>
</g>
</g>
</svg>
