<svg width="211" height="123" viewBox="0 0 211 123" fill="none" xmlns="http://www.w3.org/2000/svg">
<path d="M65.8838 2.7334C73.5997 0.321807 79.9054 0.0445005 85.207 1.04102C90.5091 2.03767 94.8403 4.31467 98.5996 7.05762C102.368 9.80741 105.542 13.0091 108.563 15.8721C111.563 18.7145 114.433 21.2453 117.538 22.5234C120.644 23.8021 123.199 23.844 125.627 23.1758C128.021 22.5168 130.277 21.1672 132.766 19.7314C137.752 16.8542 143.933 13.4584 154.85 13.7207C160.317 13.8512 164.398 14.9706 167.399 16.7783C170.394 18.5819 172.347 21.0893 173.531 24.0586C175.914 30.0312 175.195 37.8814 173.474 45.5596C172.606 49.4309 172.232 52.761 172.397 55.5254C172.563 58.2894 173.27 60.5247 174.602 62.1621C177.289 65.4669 182.278 66.0885 189.467 64.3027C192.933 63.4422 196.38 63.8416 199.431 65.5977C202.485 67.3559 205.181 70.4976 207.088 75.1865C210.887 84.5264 211.522 99.9329 205.671 122.364H8.09668C6.14571 117.183 3.27847 108.612 1.68262 99.3574C0.0505589 89.8924 -0.237674 79.7894 3.06445 71.8662C5.19164 66.7638 7.87744 64.3837 10.7471 63.3516C13.6517 62.3069 16.8316 62.6068 20.04 63.0654C23.194 63.5163 26.4253 64.1342 29.2139 63.5635C30.6305 63.2734 31.9486 62.6763 33.1035 61.5996C34.2549 60.5263 35.2187 59.0003 35.9678 56.8896C37.4476 52.7195 38.1272 47.8127 38.8027 42.7061C39.4808 37.58 40.1564 32.236 41.6143 27.1055C43.0701 21.9818 45.3002 17.0947 49.0723 12.8906C52.7244 8.82032 57.8453 5.36423 65.168 2.96289L65.8838 2.7334Z" stroke="#2C1106"/>
<path d="M101.318 6.17969H180.918C183.254 6.17971 185.078 7.87308 185.123 9.88477L185.124 9.90527L185.126 9.92578V55.9873C185.126 58.0357 183.287 59.7763 180.918 59.7764H101.318C98.9498 59.7761 97.1105 58.0355 97.1105 55.9873V9.92676L97.1134 9.90527V9.88477C97.1587 7.87333 98.9828 6.17992 101.318 6.17969Z" stroke="#2C1106"/>
<path d="M109.022 39.1094V53.7402H107.988V39.1094H109.022Z" stroke="#2C1106"/>
<mask id="path-4-inside-1_10331_48649" fill="white">
<path d="M161.226 15.4238V54.2415H104.551V54.5266H161.226H161.511V15.4238H161.226Z"/>
</mask>
<path d="M161.226 15.4238V14.4238H160.226V15.4238H161.226ZM161.226 54.2415V55.2415H162.226V54.2415H161.226ZM104.551 54.2415V53.2415H103.551V54.2415H104.551ZM104.551 54.5266H103.551V55.5266H104.551V54.5266ZM161.511 54.5266V55.5266H162.511V54.5266H161.511ZM161.511 15.4238H162.511V14.4238H161.511V15.4238ZM161.226 15.4238H160.226V54.2415H161.226H162.226V15.4238H161.226ZM161.226 54.2415V53.2415H104.551V54.2415V55.2415H161.226V54.2415ZM104.551 54.2415H103.551V54.5266H104.551H105.551V54.2415H104.551ZM104.551 54.5266V55.5266H161.226V54.5266V53.5266H104.551V54.5266ZM161.226 54.5266V55.5266H161.511V54.5266V53.5266H161.226V54.5266ZM161.511 54.5266H162.511V15.4238H161.511H160.511V54.5266H161.511ZM161.511 15.4238V14.4238H161.226V15.4238V16.4238H161.511V15.4238Z" fill="#2C1106" mask="url(#path-4-inside-1_10331_48649)"/>
<path d="M154.555 20.3613V53.7412H153.522V20.3613H154.555Z" stroke="#2C1106"/>
<path d="M145.448 25.0684V53.7412H144.415V25.0684H145.448Z" stroke="#2C1106"/>
<path d="M136.342 34.5117V53.7402H135.309V34.5117H136.342Z" stroke="#2C1106"/>
<path d="M127.235 29.3477V53.7412H126.202V29.3477H127.235Z" stroke="#2C1106"/>
<path d="M118.129 34.5117V53.7402H117.095V34.5117H118.129Z" stroke="#2C1106"/>
<mask id="path-11-inside-2_10331_48649" fill="white">
<path d="M108.685 34.2866L108.326 33.7379L126.729 21.6908L135.816 28.281L153.834 13.9238L154.243 14.4369L135.835 29.1048L126.709 22.4873L108.685 34.2866Z"/>
</mask>
<path d="M108.685 34.2866L107.849 34.8347L108.397 35.6708L109.233 35.1233L108.685 34.2866ZM108.326 33.7379L107.778 32.9012L106.941 33.4492L107.489 34.286L108.326 33.7379ZM126.729 21.6908L127.316 20.8812L126.758 20.4766L126.181 20.8541L126.729 21.6908ZM135.816 28.281L135.229 29.0906L135.845 29.537L136.439 29.0631L135.816 28.281ZM153.834 13.9238L154.616 13.3007L153.993 12.5185L153.211 13.1417L153.834 13.9238ZM154.243 14.4369L154.866 15.219L155.648 14.5959L155.025 13.8139L154.243 14.4369ZM135.835 29.1048L135.248 29.9144L135.863 30.3608L136.458 29.8869L135.835 29.1048ZM126.709 22.4873L127.296 21.6778L126.738 21.2731L126.162 21.6507L126.709 22.4873ZM108.685 34.2866L109.522 33.7386L109.162 33.1899L108.326 33.7379L107.489 34.286L107.849 34.8347L108.685 34.2866ZM108.326 33.7379L108.874 34.5746L127.276 22.5274L126.729 21.6908L126.181 20.8541L107.778 32.9012L108.326 33.7379ZM126.729 21.6908L126.142 22.5003L135.229 29.0906L135.816 28.281L136.403 27.4715L127.316 20.8812L126.729 21.6908ZM135.816 28.281L136.439 29.0631L154.457 14.7059L153.834 13.9238L153.211 13.1417L135.193 27.499L135.816 28.281ZM153.834 13.9238L153.052 14.5469L153.461 15.06L154.243 14.4369L155.025 13.8139L154.616 13.3007L153.834 13.9238ZM154.243 14.4369L153.62 13.6549L135.211 28.3227L135.835 29.1048L136.458 29.8869L154.866 15.219L154.243 14.4369ZM135.835 29.1048L136.422 28.2953L127.296 21.6778L126.709 22.4873L126.122 23.2969L135.248 29.9144L135.835 29.1048ZM126.709 22.4873L126.162 21.6507L108.138 33.45L108.685 34.2866L109.233 35.1233L127.257 23.324L126.709 22.4873Z" fill="#2C1106" mask="url(#path-11-inside-2_10331_48649)"/>
<path d="M154.006 15.0811L153.097 13.9268L154.597 13.6904L154.006 15.0811Z" stroke="#2C1106"/>
<mask id="path-14-inside-3_10331_48649" fill="white">
<path d="M117.422 55.3887H116.998V55.8128H117.422V55.3887Z"/>
</mask>
<path d="M116.998 55.3887V54.3887H115.998V55.3887H116.998ZM117.422 55.3887H118.422V54.3887H117.422V55.3887ZM117.422 55.8128V56.8128H118.422V55.8128H117.422ZM116.998 55.8128H115.998V56.8128H116.998V55.8128ZM116.998 55.3887V56.3887H117.422V55.3887V54.3887H116.998V55.3887ZM117.422 55.3887H116.422V55.8128H117.422H118.422V55.3887H117.422ZM117.422 55.8128V54.8128H116.998V55.8128V56.8128H117.422V55.8128ZM116.998 55.8128H117.998V55.3887H116.998H115.998V55.8128H116.998Z" fill="#2C1106" mask="url(#path-14-inside-3_10331_48649)"/>
<mask id="path-16-inside-4_10331_48649" fill="white">
<path d="M118.227 55.3887H117.803V55.8128H118.227V55.3887Z"/>
</mask>
<path d="M117.803 55.3887V54.3887H116.803V55.3887H117.803ZM118.227 55.3887H119.227V54.3887H118.227V55.3887ZM118.227 55.8128V56.8128H119.227V55.8128H118.227ZM117.803 55.8128H116.803V56.8128H117.803V55.8128ZM117.803 55.3887V56.3887H118.227V55.3887V54.3887H117.803V55.3887ZM118.227 55.3887H117.227V55.8128H118.227H119.227V55.3887H118.227ZM118.227 55.8128V54.8128H117.803V55.8128V56.8128H118.227V55.8128ZM117.803 55.8128H118.803V55.3887H117.803H116.803V55.8128H117.803Z" fill="#2C1106" mask="url(#path-16-inside-4_10331_48649)"/>
<mask id="path-18-inside-5_10331_48649" fill="white">
<path d="M126.529 55.3887H126.105V55.8128H126.529V55.3887Z"/>
</mask>
<path d="M126.105 55.3887V54.3887H125.105V55.3887H126.105ZM126.529 55.3887H127.529V54.3887H126.529V55.3887ZM126.529 55.8128V56.8128H127.529V55.8128H126.529ZM126.105 55.8128H125.105V56.8128H126.105V55.8128ZM126.105 55.3887V56.3887H126.529V55.3887V54.3887H126.105V55.3887ZM126.529 55.3887H125.529V55.8128H126.529H127.529V55.3887H126.529ZM126.529 55.8128V54.8128H126.105V55.8128V56.8128H126.529V55.8128ZM126.105 55.8128H127.105V55.3887H126.105H125.105V55.8128H126.105Z" fill="#2C1106" mask="url(#path-18-inside-5_10331_48649)"/>
<mask id="path-20-inside-6_10331_48649" fill="white">
<path d="M127.333 55.3887H126.909V55.8128H127.333V55.3887Z"/>
</mask>
<path d="M126.909 55.3887V54.3887H125.909V55.3887H126.909ZM127.333 55.3887H128.333V54.3887H127.333V55.3887ZM127.333 55.8128V56.8128H128.333V55.8128H127.333ZM126.909 55.8128H125.909V56.8128H126.909V55.8128ZM126.909 55.3887V56.3887H127.333V55.3887V54.3887H126.909V55.3887ZM127.333 55.3887H126.333V55.8128H127.333H128.333V55.3887H127.333ZM127.333 55.8128V54.8128H126.909V55.8128V56.8128H127.333V55.8128ZM126.909 55.8128H127.909V55.3887H126.909H125.909V55.8128H126.909Z" fill="#2C1106" mask="url(#path-20-inside-6_10331_48649)"/>
<mask id="path-22-inside-7_10331_48649" fill="white">
<path d="M135.635 55.3887H135.211V55.8128H135.635V55.3887Z"/>
</mask>
<path d="M135.211 55.3887V54.3887H134.211V55.3887H135.211ZM135.635 55.3887H136.635V54.3887H135.635V55.3887ZM135.635 55.8128V56.8128H136.635V55.8128H135.635ZM135.211 55.8128H134.211V56.8128H135.211V55.8128ZM135.211 55.3887V56.3887H135.635V55.3887V54.3887H135.211V55.3887ZM135.635 55.3887H134.635V55.8128H135.635H136.635V55.3887H135.635ZM135.635 55.8128V54.8128H135.211V55.8128V56.8128H135.635V55.8128ZM135.211 55.8128H136.211V55.3887H135.211H134.211V55.8128H135.211Z" fill="#2C1106" mask="url(#path-22-inside-7_10331_48649)"/>
<mask id="path-24-inside-8_10331_48649" fill="white">
<path d="M136.44 55.3887H136.016V55.8128H136.44V55.3887Z"/>
</mask>
<path d="M136.016 55.3887V54.3887H135.016V55.3887H136.016ZM136.44 55.3887H137.44V54.3887H136.44V55.3887ZM136.44 55.8128V56.8128H137.44V55.8128H136.44ZM136.016 55.8128H135.016V56.8128H136.016V55.8128ZM136.016 55.3887V56.3887H136.44V55.3887V54.3887H136.016V55.3887ZM136.44 55.3887H135.44V55.8128H136.44H137.44V55.3887H136.44ZM136.44 55.8128V54.8128H136.016V55.8128V56.8128H136.44V55.8128ZM136.016 55.8128H137.016V55.3887H136.016H135.016V55.8128H136.016Z" fill="#2C1106" mask="url(#path-24-inside-8_10331_48649)"/>
<mask id="path-26-inside-9_10331_48649" fill="white">
<path d="M144.742 55.3887H144.318V55.8128H144.742V55.3887Z"/>
</mask>
<path d="M144.318 55.3887V54.3887H143.318V55.3887H144.318ZM144.742 55.3887H145.742V54.3887H144.742V55.3887ZM144.742 55.8128V56.8128H145.742V55.8128H144.742ZM144.318 55.8128H143.318V56.8128H144.318V55.8128ZM144.318 55.3887V56.3887H144.742V55.3887V54.3887H144.318V55.3887ZM144.742 55.3887H143.742V55.8128H144.742H145.742V55.3887H144.742ZM144.742 55.8128V54.8128H144.318V55.8128V56.8128H144.742V55.8128ZM144.318 55.8128H145.318V55.3887H144.318H143.318V55.8128H144.318Z" fill="#2C1106" mask="url(#path-26-inside-9_10331_48649)"/>
<mask id="path-28-inside-10_10331_48649" fill="white">
<path d="M145.546 55.3887H145.122V55.8128H145.546V55.3887Z"/>
</mask>
<path d="M145.122 55.3887V54.3887H144.122V55.3887H145.122ZM145.546 55.3887H146.546V54.3887H145.546V55.3887ZM145.546 55.8128V56.8128H146.546V55.8128H145.546ZM145.122 55.8128H144.122V56.8128H145.122V55.8128ZM145.122 55.3887V56.3887H145.546V55.3887V54.3887H145.122V55.3887ZM145.546 55.3887H144.546V55.8128H145.546H146.546V55.3887H145.546ZM145.546 55.8128V54.8128H145.122V55.8128V56.8128H145.546V55.8128ZM145.122 55.8128H146.122V55.3887H145.122H144.122V55.8128H145.122Z" fill="#2C1106" mask="url(#path-28-inside-10_10331_48649)"/>
<mask id="path-30-inside-11_10331_48649" fill="white">
<path d="M153.848 55.3887H153.424V55.8128H153.848V55.3887Z"/>
</mask>
<path d="M153.424 55.3887V54.3887H152.424V55.3887H153.424ZM153.848 55.3887H154.848V54.3887H153.848V55.3887ZM153.848 55.8128V56.8128H154.848V55.8128H153.848ZM153.424 55.8128H152.424V56.8128H153.424V55.8128ZM153.424 55.3887V56.3887H153.848V55.3887V54.3887H153.424V55.3887ZM153.848 55.3887H152.848V55.8128H153.848H154.848V55.3887H153.848ZM153.848 55.8128V54.8128H153.424V55.8128V56.8128H153.848V55.8128ZM153.424 55.8128H154.424V55.3887H153.424H152.424V55.8128H153.424Z" fill="#2C1106" mask="url(#path-30-inside-11_10331_48649)"/>
<mask id="path-32-inside-12_10331_48649" fill="white">
<path d="M154.653 55.3887H154.229V55.8128H154.653V55.3887Z"/>
</mask>
<path d="M154.229 55.3887V54.3887H153.229V55.3887H154.229ZM154.653 55.3887H155.653V54.3887H154.653V55.3887ZM154.653 55.8128V56.8128H155.653V55.8128H154.653ZM154.229 55.8128H153.229V56.8128H154.229V55.8128ZM154.229 55.3887V56.3887H154.653V55.3887V54.3887H154.229V55.3887ZM154.653 55.3887H153.653V55.8128H154.653H155.653V55.3887H154.653ZM154.653 55.8128V54.8128H154.229V55.8128V56.8128H154.653V55.8128ZM154.229 55.8128H155.229V55.3887H154.229H153.229V55.8128H154.229Z" fill="#2C1106" mask="url(#path-32-inside-12_10331_48649)"/>
<path d="M101.319 6.17969H180.918C183.053 6.1798 184.759 7.59416 185.072 9.37305H97.1654C97.4782 7.59421 99.1841 6.1798 101.319 6.17969Z" stroke="#2C1106"/>
<path d="M101.837 7.45898C102.013 7.45898 102.155 7.60104 102.156 7.77637C102.156 7.9519 102.013 8.09473 101.837 8.09473C101.662 8.09448 101.52 7.95176 101.52 7.77637C101.52 7.60119 101.662 7.45923 101.837 7.45898Z" stroke="#2C1106"/>
<path d="M105.252 7.45898C105.428 7.45898 105.571 7.60104 105.571 7.77637C105.571 7.9519 105.428 8.09473 105.252 8.09473C105.077 8.09448 104.935 7.95176 104.935 7.77637C104.935 7.60119 105.077 7.45923 105.252 7.45898Z" stroke="#2C1106"/>
<path d="M108.668 7.45898C108.843 7.45898 108.986 7.60104 108.986 7.77637C108.986 7.9519 108.843 8.09473 108.668 8.09473C108.492 8.09448 108.35 7.95176 108.35 7.77637C108.351 7.60119 108.493 7.45923 108.668 7.45898Z" stroke="#2C1106"/>
<path d="M175.637 31.9082C175.909 31.9783 176.214 32.0606 176.513 32.1436C176.558 32.7181 176.619 33.3544 176.7 33.8623V33.8652C176.718 33.9725 176.737 34.0783 176.758 34.1787L176.826 34.4619C176.989 35.0411 177.49 35.9487 177.91 36.6602C178.128 37.0278 178.336 37.3635 178.489 37.6064C178.506 37.6333 178.523 37.6591 178.538 37.6836C178.428 37.807 178.282 37.9668 178.104 38.1494C177.673 38.591 177.066 39.1638 176.355 39.6953C174.893 40.7876 173.165 41.5783 171.644 41.0303C170.231 40.5212 169.753 39.688 169.607 38.9541H169.608C169.513 38.4687 169.558 37.9936 169.632 37.6309C169.661 37.4885 169.695 37.3668 169.724 37.2725L170.404 37.0654L170.64 36.9932L170.727 36.7627L171.574 34.5088L175.637 31.9082Z" stroke="#2C1106"/>
<path d="M175.637 31.9082C175.909 31.9783 176.214 32.0606 176.513 32.1436C176.554 32.6626 176.608 33.2316 176.679 33.7109C176.085 35.0751 174.159 38.4442 169.559 38.5488C169.541 38.2101 169.579 37.8915 169.632 37.6309C169.661 37.4885 169.695 37.3668 169.724 37.2725L170.404 37.0654L170.64 36.9932L170.727 36.7627L171.574 34.5088L175.637 31.9082Z" stroke="#2C1106"/>
<path d="M165.566 28.167C165.847 28.0576 166.232 28.0264 166.646 28.1299C167.061 28.2335 167.385 28.4416 167.582 28.6699C167.779 28.8994 167.82 29.1113 167.781 29.2686C167.742 29.4258 167.606 29.5932 167.324 29.7031C167.043 29.8125 166.658 29.8438 166.244 29.7402C165.829 29.6369 165.505 29.4287 165.308 29.2002C165.111 28.9706 165.069 28.7588 165.108 28.6016C165.147 28.4443 165.284 28.2769 165.566 28.167Z" stroke="#2C1106"/>
<path d="M172.517 22.4336C175.44 22.4336 177.768 25.0818 177.606 28.4404C177.446 31.7577 174.395 34.449 171.399 34.4336C169.937 34.426 168.806 33.7743 168.046 32.7168C167.276 31.6461 166.873 30.1353 166.956 28.4268C167 27.5112 167.019 26.691 167.118 25.9434C167.215 25.2011 167.385 24.5851 167.698 24.0879C168.293 23.1408 169.539 22.4336 172.517 22.4336Z" stroke="#2C1106"/>
<path d="M169.251 28.4355C169.251 28.4355 168.864 29.4454 169.239 30.4468" stroke="#2C1106" stroke-miterlimit="10" stroke-linecap="round"/>
<path d="M171.166 28.2037C171.166 28.3894 171.116 28.5402 171.056 28.5402C170.996 28.5402 170.946 28.3897 170.946 28.2037C170.946 28.0176 170.995 27.8672 171.056 27.8672C171.116 27.8672 171.166 28.0176 171.166 28.2037Z" stroke="#2C1106" stroke-miterlimit="10" stroke-linecap="round"/>
<path d="M167.443 27.8658C167.443 28.0515 167.394 28.2023 167.334 28.2023C167.273 28.2023 167.224 28.0515 167.224 27.8658C167.224 27.6801 167.273 27.5293 167.334 27.5293C167.395 27.5293 167.443 27.6801 167.443 27.8658Z" stroke="#2C1106" stroke-miterlimit="10" stroke-linecap="round"/>
<path d="M170.351 23.1104C170.656 23.0724 173.082 23.0178 176.199 23.7754C176.838 23.9308 177.156 24.2698 177.311 24.6641C177.477 25.0878 177.475 25.6314 177.345 26.1836C177.216 26.7337 176.974 27.229 176.737 27.5312C176.659 27.6312 176.592 27.6935 176.544 27.7314C176.284 27.4648 176.078 26.9957 175.939 26.4912C175.865 26.2273 175.817 25.9814 175.787 25.8018C175.772 25.7127 175.762 25.6407 175.756 25.5918C175.753 25.5673 175.751 25.5481 175.749 25.5361C175.748 25.5303 175.747 25.526 175.747 25.5234V25.5215L175.687 24.9268L175.112 25.0908C172.121 25.9456 170.119 25.7812 168.892 25.4346C168.276 25.2608 167.847 25.0389 167.579 24.8682C167.445 24.7828 167.351 24.7096 167.293 24.6611C167.284 24.6539 167.277 24.6467 167.27 24.6406L167.214 24.5264C167.36 24.415 167.542 24.2759 167.735 24.1338C167.961 23.968 168.197 23.7995 168.403 23.6621C168.623 23.5158 168.77 23.4321 168.832 23.4072C169.226 23.2494 169.946 23.1607 170.351 23.1104Z" stroke="#2C1106"/>
<path d="M166.818 23.8213C166.806 23.8798 166.789 23.9534 166.761 24.0439C166.597 24.5659 166.46 25.2349 166.345 25.9023C166.347 25.8386 166.348 25.775 166.352 25.7119C166.38 25.1628 166.442 24.658 166.498 24.29C166.52 24.1447 166.542 24.0214 166.559 23.9258C166.563 23.9235 166.568 23.9213 166.573 23.9189C166.657 23.8792 166.742 23.8449 166.818 23.8213Z" stroke="#2C1106"/>
<path d="M171.361 17.9971C173.72 17.9701 176.049 18.7647 177.138 20.7705L177.139 20.7715L177.25 20.9863C177.406 21.3059 177.533 21.6603 177.625 22.0508L177.689 22.3174L177.946 22.4062C177.949 22.4074 177.955 22.4104 177.963 22.4141C177.982 22.4216 178.012 22.4347 178.051 22.4541C178.131 22.4931 178.247 22.5569 178.38 22.6514C178.647 22.8403 178.979 23.1491 179.233 23.625C179.718 24.5353 179.985 26.2019 178.638 29.1152L177.376 29.5566C177.268 29.3396 177.125 29.0235 176.979 28.6162C176.672 27.7606 176.35 26.5046 176.304 24.9229L176.286 24.2598L175.653 24.46L175.652 24.4609C175.65 24.4615 175.647 24.4627 175.643 24.4639C175.635 24.4663 175.623 24.4697 175.607 24.4746C175.574 24.4845 175.524 24.4992 175.458 24.5176C175.328 24.5544 175.137 24.6063 174.896 24.6641C174.414 24.7798 173.737 24.9195 172.961 25.0166C171.394 25.2129 169.496 25.2241 167.977 24.5723L167.976 24.5713C167.055 24.1765 166.469 23.7191 166.111 23.2607L166.107 23.2559C166.106 23.2544 166.104 23.2519 166.1 23.2471C166.096 23.2411 166.086 23.2276 166.075 23.2129C165.3 22.1811 165.537 20.9349 166.251 19.834V19.833C166.541 19.3855 167.193 18.9258 168.133 18.5732C169.057 18.227 170.193 18.0104 171.361 17.9971Z" stroke="#2C1106"/>
<path d="M171.361 17.9971C172.588 17.983 173.806 18.194 174.847 18.6797C174.573 18.5836 174.291 18.4913 174.001 18.4121C172.422 17.9803 170.597 17.8339 168.884 18.541C167.372 19.164 166.444 20.0463 165.894 20.9697C165.781 21.1592 165.688 21.3501 165.606 21.5381C165.66 20.9635 165.897 20.3809 166.251 19.834V19.833C166.541 19.3855 167.193 18.9258 168.133 18.5732C169.057 18.227 170.193 18.0104 171.361 17.9971Z" stroke="#2C1106"/>
<path d="M178.114 29.4746C178.541 29.4747 178.906 29.5984 179.152 29.7725C179.399 29.9474 179.491 30.1426 179.491 30.3047C179.491 30.4666 179.399 30.662 179.152 30.8369C178.906 31.0109 178.541 31.1347 178.114 31.1348C177.687 31.1348 177.321 31.011 177.075 30.8369C176.828 30.662 176.736 30.4666 176.736 30.3047C176.736 30.1429 176.828 29.9474 177.075 29.7725C177.321 29.5983 177.687 29.4746 178.114 29.4746Z" stroke="#2C1106"/>
<path d="M166.922 26.477C166.922 26.477 167.88 25.8668 168.646 26.6648" stroke="#2C1106" stroke-miterlimit="10" stroke-linecap="round"/>
<path d="M170.763 26.682C170.763 26.682 171.763 26.0719 172.562 26.8698" stroke="#2C1106" stroke-miterlimit="10" stroke-linecap="round"/>
<path d="M177.001 29.0322C176.979 30.9223 176.33 32.608 175.412 33.917C174.435 35.3088 173.187 36.2344 172.134 36.5459C169.965 37.1882 167.666 36.3719 166.656 34.1855C166.156 33.1024 166.2 31.8591 166.392 30.8447C166.393 30.8409 166.393 30.8368 166.394 30.833C166.647 31.5504 166.975 32.1679 167.379 32.6729L168.442 34.0029L168.266 32.3086C168.249 32.1443 168.276 31.9606 168.437 31.8008C168.614 31.6257 169.037 31.3955 170.018 31.3584C171.153 31.3154 171.764 31.6711 172.104 32.0264C172.461 32.399 172.579 32.8324 172.614 33.0137L172.742 33.6826L173.342 33.3604C174.832 32.5598 175.696 31.2777 176.186 30.2236C176.425 29.7096 176.578 29.241 176.672 28.8945L177.001 29.0322Z" stroke="#2C1106"/>
<path d="M170.561 32.1035C170.472 32.1682 170.367 32.2282 170.241 32.2754H170.24C169.91 32.399 169.745 32.314 169.639 32.2148C169.631 32.2071 169.624 32.1979 169.616 32.1895C169.645 32.1878 169.674 32.1885 169.705 32.1865C169.95 32.1707 170.241 32.1445 170.561 32.1035Z" stroke="#2C1106"/>
<path d="M162.681 72.5889C162.694 72.772 162.712 73.0058 162.731 73.2764C162.78 73.9556 162.842 74.8668 162.896 75.7959C162.95 76.7264 162.996 77.6711 163.013 78.417C163.019 78.7017 163.019 78.9537 163.017 79.1631L162.41 78.1484L162.305 79.4219C162.293 79.3866 162.281 79.3514 162.27 79.3154C162.16 78.9577 162.091 78.6158 162.074 78.5264L161.154 78.6699C161.068 78.2231 161.015 77.5797 160.99 76.8408C160.961 75.9815 160.97 75.036 160.992 74.208V74.2061C161.007 73.589 161.029 73.04 161.048 72.6455C161.05 72.5965 161.053 72.5499 161.055 72.5059L162.681 72.5889Z" stroke="#2C1106"/>
<path d="M162.53 72.5811C162.58 72.9089 162.629 73.2298 162.669 73.4932C162.674 73.5214 162.678 73.5493 162.682 73.5762L161.008 73.666C161.021 73.2704 161.035 72.9204 161.048 72.6455C161.051 72.5965 161.053 72.5499 161.055 72.5059L162.53 72.5811Z" stroke="#2C1106"/>
<path d="M162.96 72.4355L160.263 71.5664C160.269 71.5077 160.277 71.4427 160.285 71.3721C160.326 70.9847 160.386 70.4221 160.46 69.7207C160.61 68.3175 160.817 66.3588 161.051 64.1377C161.52 59.6958 162.097 54.2031 162.526 50.001C163.037 44.9943 164.269 42.1128 165.141 40.6357L162.96 72.4355Z" stroke="#2C1106"/>
<path d="M163.869 70.6885L162.978 72.626L159.935 71.5459L159.972 70.5361L163.869 70.6885Z" stroke="#2C1106"/>
<path d="M184.405 117.875H179.293L179.184 116.502L184.174 116.267L184.405 117.875Z" stroke="#2C1106"/>
<path d="M184.938 118.781C184.956 118.785 184.982 118.79 185.013 118.796C185.09 118.811 185.205 118.834 185.348 118.864C185.634 118.926 186.035 119.019 186.49 119.146C187.296 119.372 188.245 119.697 189.037 120.127L189.366 120.317C190.152 120.806 190.492 121.44 190.646 121.947V121.946C190.691 122.099 190.717 122.242 190.734 122.366H178.028C178.036 122.195 178.049 122.024 178.067 121.855V121.854C178.163 120.93 178.383 120.064 178.582 119.426C178.674 119.129 178.761 118.883 178.827 118.707L184.938 118.781Z" stroke="#2C1106"/>
<path d="M190.728 122.303C190.731 122.324 190.732 122.345 190.734 122.365H178.028C178.029 122.344 178.031 122.324 178.032 122.303H190.728Z" stroke="#2C1106"/>
<path d="M169.489 116.503L169.381 117.875H164.269L164.498 116.267L169.489 116.503Z" stroke="#2C1106"/>
<path d="M169.846 118.707C169.912 118.883 170 119.129 170.093 119.426C170.291 120.064 170.512 120.93 170.607 121.854V121.855C170.625 122.024 170.638 122.195 170.646 122.366H157.94C157.958 122.242 157.984 122.099 158.029 121.945L158.028 121.944C158.182 121.437 158.524 120.805 159.309 120.317L159.308 120.316C160.155 119.791 161.264 119.404 162.185 119.146C162.64 119.019 163.041 118.926 163.327 118.864C163.47 118.834 163.584 118.811 163.662 118.796C163.693 118.79 163.718 118.785 163.736 118.781L169.846 118.707Z" stroke="#2C1106"/>
<path d="M170.643 122.303C170.644 122.324 170.645 122.344 170.646 122.365H157.94C157.943 122.345 157.944 122.324 157.947 122.303H170.643Z" stroke="#2C1106"/>
<path d="M181.276 62.7422L181.425 64.8018L181.426 64.8066L185.641 116.17H177.487L173.289 82.9355L172.294 82.9727L171.372 101.099V101.104L170.772 116.225L163.24 116.114L163.278 61.502L181.276 62.7422Z" stroke="#2C1106"/>
<path d="M181.276 62.7422L181.395 64.3857C175.399 65.9167 170.825 65.687 167.748 65.0732C166.175 64.7594 164.989 64.3453 164.202 64.0127C163.809 63.8465 163.515 63.7003 163.322 63.5977C163.307 63.5895 163.293 63.5799 163.278 63.5723V61.502L181.276 62.7422Z" stroke="#2C1106"/>
<path d="M171.388 74.9844L172.291 83.0156L171.676 95.1201L169.421 74.9844H171.388Z" stroke="#2C1106"/>
<path d="M169.432 65.125C169.432 65.125 170.103 73.5258 171.507 75.4387" stroke="#2C1106" stroke-miterlimit="10" stroke-linecap="round" stroke-linejoin="round"/>
<path d="M167.907 65.125C167.907 65.125 168.057 69.8471 169.935 69.8052" stroke="#2C1106" stroke-miterlimit="10" stroke-linecap="round" stroke-linejoin="round"/>
<path d="M179.98 64.7656L184.981 115.204" stroke="#2C1106" stroke-miterlimit="10" stroke-linecap="round" stroke-linejoin="round"/>
<path d="M180.39 68.8974C180.39 68.8974 178.464 69.029 177.549 65.123" stroke="#2C1106" stroke-miterlimit="10" stroke-linecap="round" stroke-linejoin="round"/>
<path d="M177.06 115.203H185.633" stroke="#2C1106" stroke-miterlimit="10" stroke-linecap="round" stroke-linejoin="round"/>
<path d="M170.982 115.205H163.02" stroke="#2C1106" stroke-miterlimit="10" stroke-linecap="round" stroke-linejoin="round"/>
<path d="M178.877 37.3096C179.147 37.3736 179.528 37.4787 179.965 37.6406C180.845 37.9664 181.925 38.5143 182.794 39.4014C182.835 39.4431 182.902 39.5444 182.969 39.75C183.034 39.9494 183.089 40.2119 183.131 40.5391C183.215 41.1935 183.24 42.0519 183.218 43.0674C183.175 45.0959 182.948 47.6818 182.678 50.3721C182.409 53.0529 182.097 55.8408 181.888 58.2422C181.706 60.3435 181.597 62.2 181.674 63.4561C181.613 63.4657 181.546 63.4771 181.473 63.4883C181.051 63.5533 180.442 63.6422 179.696 63.7363C178.202 63.9248 176.16 64.1348 173.966 64.2227C171.77 64.3106 169.436 64.2757 167.352 63.9785C165.373 63.6963 163.681 63.185 162.54 62.3711C162.544 62.2776 162.551 62.1605 162.558 62.0215C162.579 61.6255 162.609 61.0522 162.65 60.3438C162.733 58.9267 162.858 56.9692 163.027 54.8076C163.365 50.474 163.878 45.3537 164.577 42.1123C164.953 40.3676 166.138 38.9043 167.769 38.1904V38.1895C168.082 38.0526 168.415 37.9196 168.761 37.7949C168.787 38.078 168.843 38.4226 168.961 38.7793C169.11 39.2264 169.361 39.7082 169.786 40.1055C170.215 40.5072 170.796 40.7996 171.562 40.9004C173.07 41.0989 174.763 40.4383 176.11 39.6201C176.794 39.2045 177.414 38.7329 177.908 38.2754C178.261 37.9478 178.568 37.6089 178.785 37.2891C178.814 37.2956 178.845 37.3019 178.877 37.3096Z" stroke="#2C1106"/>
<path d="M164.648 55.9023C164.909 55.9999 165.218 56.1266 165.545 56.2646C166.186 56.5358 166.911 56.8573 167.385 57.0469C167.523 57.1021 167.689 57.2256 167.87 57.4199C168.047 57.6097 168.214 57.8405 168.36 58.0713C168.506 58.3007 168.626 58.5204 168.709 58.6836C168.75 58.7649 168.782 58.8317 168.804 58.877C168.814 58.8994 168.822 58.9165 168.827 58.9277C168.83 58.9334 168.831 58.938 168.832 58.9404L168.833 58.9424L169 59.3223L169.403 59.2295L170.287 59.0244L170.052 61.7285C170.014 61.7296 169.975 61.7313 169.934 61.7324C169.582 61.7422 169.087 61.7539 168.52 61.7617C167.382 61.7773 165.958 61.7776 164.792 61.7158C162.542 61.597 160.779 60.5947 160.188 60.0723C159.903 59.8214 159.828 59.6497 159.808 59.585C159.804 59.5748 159.803 59.566 159.802 59.5596L159.868 59.3535L159.694 59.1426C159.524 58.9359 159.531 58.8041 159.539 58.7529C159.544 58.7178 159.555 58.6901 159.563 58.6738C159.566 58.6694 159.567 58.666 159.568 58.6641L159.848 58.3164L159.63 58.1133C159.685 58.1428 159.746 58.176 159.812 58.2139C160.092 58.3725 160.471 58.6014 160.842 58.7578L161 58.8203C161.441 58.98 162 59.0366 162.413 59.0586C162.627 59.0699 162.816 59.0725 162.951 59.0723C163.019 59.0721 163.075 59.0711 163.113 59.0703C163.132 59.0699 163.148 59.0697 163.158 59.0693H163.177L163.293 58.0879C162.738 57.9322 161.899 57.4609 161.168 56.9287C160.808 56.667 160.493 56.4044 160.269 56.1787C160.19 56.0999 160.128 56.0283 160.079 55.9678C160.084 55.9705 160.089 55.9743 160.095 55.9775C160.152 56.0099 160.227 56.0543 160.32 56.1113C160.504 56.2233 160.752 56.3759 161.03 56.5381C161.582 56.8597 162.294 57.2417 162.974 57.46C163.641 57.6741 164.363 57.7979 164.909 57.8682C165.184 57.9035 165.418 57.9258 165.585 57.9395C165.668 57.9463 165.735 57.9511 165.781 57.9541C165.804 57.9556 165.822 57.9563 165.835 57.957C165.841 57.9574 165.846 57.9578 165.85 57.958H165.855L165.88 57.459L165.856 57.958L167.528 58.0391L166.174 57.0547V57.0537L166.172 57.0527C166.17 57.0513 166.167 57.0486 166.163 57.0459C166.155 57.0403 166.144 57.0322 166.129 57.0215C166.1 57.0001 166.057 56.9686 166.004 56.9297C165.897 56.8517 165.748 56.7429 165.578 56.6182C165.271 56.3921 164.899 56.1157 164.59 55.8818C164.609 55.8888 164.629 55.8949 164.648 55.9023Z" stroke="#2C1106"/>
<path d="M162.75 59.6503C160.708 59.6269 159.167 58.3672 159.167 58.3672" stroke="#2C1106" stroke-width="0.75" stroke-miterlimit="10" stroke-linecap="round"/>
<path d="M159.308 59.4629C159.308 59.4629 160.692 60.9649 162.883 60.9649" stroke="#2C1106" stroke-width="0.75" stroke-miterlimit="10" stroke-linecap="round"/>
<path d="M181.394 38.8857C181.967 38.7998 182.585 39.1661 183.008 39.6523C183.185 39.8562 183.499 40.3905 183.871 41.3135C184.237 42.2201 184.642 43.4635 185.019 45.0479C185.772 48.2158 186.405 52.7373 186.374 58.6465V58.7188C186.374 58.7611 186.373 58.8237 186.37 58.9014C186.365 59.0573 186.352 59.2711 186.323 59.5039C186.294 59.7383 186.25 59.983 186.184 60.2021C186.117 60.4261 186.037 60.5937 185.952 60.6992C185.94 60.7142 185.885 60.7668 185.746 60.8457C185.616 60.9199 185.441 61.001 185.224 61.085C184.789 61.2528 184.221 61.42 183.577 61.5693C182.29 61.8682 180.752 62.0848 179.48 62.1074C178.182 62.1307 175.873 62.0608 173.875 61.9844C172.879 61.9463 171.965 61.907 171.3 61.877C171.086 61.8673 170.898 61.8579 170.741 61.8506L171.039 58.7012L179.076 56.9941L179.523 56.8994L179.469 56.4463V56.4453C179.469 56.4441 179.468 56.442 179.468 56.4395C179.467 56.4343 179.466 56.4264 179.465 56.416C179.463 56.3953 179.46 56.364 179.455 56.3232C179.446 56.2413 179.432 56.1195 179.415 55.9639C179.382 55.6525 179.336 55.2028 179.285 54.6504C179.183 53.5447 179.06 52.0294 178.979 50.3896C178.897 48.7486 178.857 46.9895 178.918 45.3945C178.98 43.7884 179.142 42.3905 179.448 41.4502C180.087 39.4888 180.861 38.9658 181.394 38.8857Z" stroke="#2C1106"/>
<path d="M172.832 62.3057L170.736 61.916L171.04 58.7012L172.027 58.4912L172.832 62.3057Z" stroke="#2C1106"/>
<path d="M176.933 38.627C176.179 39.6992 175.045 40.8808 173.467 41.5186L172.094 40.4756C172.577 40.3404 173.199 40.1512 173.888 39.8994C174.871 39.5402 176.009 39.0496 177.079 38.4092C177.031 38.4804 176.984 38.5542 176.933 38.627Z" stroke="#2C1106"/>
<path d="M168.908 38.1406C168.936 38.2601 168.968 38.3858 169.007 38.5146C169.162 39.0253 169.43 39.6512 169.897 40.1309L168.867 40.7812C168.78 40.4968 168.689 40.1329 168.649 39.7441C168.589 39.1655 168.64 38.5987 168.908 38.1406Z" stroke="#2C1106"/>
<path d="M170.5 41.957C170.5 41.9883 170.475 42.0136 170.444 42.0137C170.42 42.0137 170.4 41.9997 170.391 41.9795L170.387 41.957C170.387 41.9257 170.413 41.9004 170.444 41.9004L170.466 41.9043C170.487 41.913 170.5 41.9336 170.5 41.957Z" stroke="#2C1106"/>
<path d="M170.268 44.2207C170.268 44.252 170.243 44.2773 170.211 44.2773C170.188 44.2773 170.167 44.2634 170.159 44.2432L170.155 44.2207C170.155 44.1894 170.18 44.1641 170.211 44.1641L170.234 44.168C170.254 44.1766 170.268 44.1973 170.268 44.2207Z" stroke="#2C1106"/>
<path d="M35.3315 99.9492L31.9624 122.499H30.606L34.0435 99.9492H35.3315Z" stroke="#2C1106"/>
<path d="M32.2686 89.1074L32.5928 91.2305L33.5566 97.5488H32.2422L31.2754 91.0811L30.9805 89.1074H32.2686Z" stroke="#2C1106"/>
<path d="M42.9849 89.1074L43.3091 91.2305L44.27 97.5488H42.9585L41.9917 91.0811L41.6968 89.1074H42.9849Z" stroke="#2C1106"/>
<path d="M42.2231 99.9492L38.855 122.499H37.4985L40.936 99.9492H42.2231Z" stroke="#2C1106"/>
<path d="M59.606 99.9492L63.0425 122.499H61.687L58.3179 99.9492H59.606Z" stroke="#2C1106"/>
<path d="M49.77 99.9492L53.2065 122.499H51.8511L48.4819 99.9492H49.77Z" stroke="#2C1106"/>
<path d="M32.2686 89.1074L32.5049 90.6553H31.2119L30.9805 89.1074H32.2686Z" stroke="#2C1106"/>
<path d="M42.9849 89.1074L43.2212 90.6553H41.9282L41.6968 89.1074H42.9849Z" stroke="#2C1106"/>
<path d="M40.9351 74.373L43.3647 88.4463H28.2896L25.8599 74.373H40.9351Z" stroke="#2C1106"/>
<path d="M42.7231 74.373L45.1528 88.4463H30.0776L27.6479 74.373H42.7231Z" stroke="#2C1106"/>
<path d="M30.168 97.4355H61.4717C62.147 97.4355 62.6942 97.9829 62.6943 98.6582C62.6943 99.3336 62.1471 99.8818 61.4717 99.8818H30.168C29.4927 99.8817 28.9453 99.3335 28.9453 98.6582C28.9455 97.983 29.4928 97.4357 30.168 97.4355Z" stroke="#2C1106"/>
<path d="M38.7736 46.9375C39.855 46.1809 40.8134 46.3296 41.5314 46.666C41.8995 46.8385 42.2031 47.0623 42.4161 47.2451C42.5217 47.3357 42.6037 47.4139 42.6573 47.4688C42.6668 47.4784 42.6751 47.488 42.6827 47.4961C42.698 47.532 42.7192 47.581 42.7443 47.6426C42.8032 47.7873 42.8866 47.9998 42.9825 48.2666C43.1746 48.8009 43.4163 49.5503 43.6134 50.4082C44.0126 52.1456 44.2086 54.238 43.546 55.9062C43.2359 56.6869 42.7544 57.0984 42.2159 57.3096C41.6575 57.5285 40.9961 57.5468 40.3292 57.4502C39.7263 57.3629 39.1514 57.1852 38.6993 57.0166C38.7307 56.9894 38.764 56.9633 38.795 56.9336C39.0452 56.694 39.281 56.3669 39.4083 55.9346C39.536 55.5009 39.5459 54.9914 39.3907 54.4043C39.2477 53.8631 38.9826 53.1842 38.7277 52.4941C38.4665 51.7873 38.2039 51.0416 38.0353 50.3125C37.6898 48.8188 37.786 47.6284 38.7736 46.9375Z" stroke="#2C1106"/>
<path d="M46.3922 41.6367L46.4049 41.6426L46.4176 41.6475L54.8424 45.1562L54.8698 45.2197C55.7503 47.8183 55.4398 50.5969 54.15 52.5293C52.882 54.429 50.6306 55.57 47.4459 54.877C44.7775 54.2962 43.1734 52.7196 42.3444 50.8096C41.5066 48.8792 41.4548 46.587 41.9625 44.623C42.3909 42.9657 43.3048 42.1102 44.0934 41.6602C44.493 41.4321 44.8666 41.305 45.1383 41.2354C45.259 41.2044 45.3587 41.1847 45.4303 41.1729L46.3922 41.6367Z" stroke="#2C1106"/>
<path d="M48.8942 53.207C49.4829 53.1435 49.9611 53.1838 50.2565 53.3379C50.3901 53.4077 50.4797 53.4969 50.5367 53.6143C50.5962 53.7366 50.639 53.9284 50.609 54.2285C50.3621 56.7015 51.065 58.3238 51.3727 58.9004L51.3746 58.9043C51.4136 58.9759 51.4464 59.0312 51.4703 59.0703L51.4713 59.0723L51.8258 60.1309C51.8153 60.1906 51.8 60.2746 51.776 60.377C51.7229 60.6033 51.6334 60.9166 51.4889 61.2588C51.197 61.9499 50.6996 62.7164 49.8688 63.1699C49.604 63.3144 49.233 63.2968 48.7262 63.0127C48.2262 62.7323 47.6921 62.2415 47.2076 61.6553C46.7262 61.0727 46.3178 60.425 46.0573 59.8604C45.9268 59.5776 45.8397 59.3276 45.7955 59.126C45.7488 58.9126 45.7629 58.8083 45.7721 58.7803V58.7793C45.9618 58.2097 46.1887 57.1152 46.3815 56.0938C46.5098 55.4126 46.6261 54.7445 46.7106 54.2471C46.7468 54.0334 46.7756 53.8506 46.7985 53.7119C46.9243 53.668 47.0894 53.6118 47.2819 53.5537C47.7358 53.4168 48.325 53.2685 48.8942 53.207Z" stroke="#2C1106"/>
<path d="M48.8937 53.207C49.4825 53.1434 49.9606 53.1838 50.256 53.3379C50.3898 53.4077 50.4801 53.4968 50.5372 53.6143C50.5967 53.7366 50.6385 53.9285 50.6085 54.2285C50.4327 55.9893 50.7393 57.3187 51.0411 58.1465C48.6671 57.9796 47.2083 56.7768 46.423 55.8613C46.534 55.2623 46.6353 54.6878 46.7101 54.2471C46.7464 54.0333 46.7761 53.8506 46.799 53.7119C46.9248 53.668 47.0899 53.6117 47.2823 53.5537C47.7362 53.4168 48.3246 53.2685 48.8937 53.207Z" stroke="#2C1106"/>
<path d="M55.2535 49.3174C55.6871 49.2745 56.073 49.3669 56.3434 49.5264C56.6139 49.686 56.7387 49.8891 56.7574 50.0781C56.7761 50.267 56.6937 50.4907 56.4596 50.7002C56.2256 50.9095 55.8651 51.0753 55.4313 51.1182C54.9977 51.1609 54.6127 51.0686 54.3424 50.9092C54.0716 50.7494 53.9469 50.5462 53.9283 50.3574C53.9098 50.1684 53.9922 49.9448 54.2262 49.7354C54.46 49.5262 54.8199 49.3603 55.2535 49.3174Z" stroke="#2C1106"/>
<path d="M45.9093 46.3799C47.1383 45.3718 49.2512 44.8351 52.8595 45.5137L53.6017 45.666C54.175 45.7939 54.7412 46.467 55.0206 47.7578V47.7598C55.1557 48.3743 55.2114 49.0894 55.1759 49.8691C55.1748 49.8784 55.1735 49.8868 55.173 49.8945C55.1727 49.8986 55.1722 49.9025 55.172 49.9062C55.1498 50.3722 55.0919 50.8597 54.9972 51.3604V51.3613C54.7134 52.873 54.1165 54.1342 53.4171 55.0215C52.7054 55.9244 51.9411 56.3773 51.3409 56.4209C49.4795 56.5572 47.5636 55.5604 46.1642 54.0967C44.8407 52.7123 44.0949 51.0355 44.2169 49.7129L44.2521 49.4541C44.4851 48.2182 44.9839 47.1376 45.9083 46.3799H45.9093Z" stroke="#2C1106"/>
<path d="M45.9855 46.3213C47.225 45.3522 49.324 44.8485 52.8605 45.5137L53.6017 45.666C53.9013 45.7328 54.1976 45.9493 54.4532 46.3242L54.4044 46.3535C54.3937 46.3584 54.3682 46.3696 54.3253 46.3848C54.2394 46.4152 54.0843 46.4617 53.8361 46.5127C53.4005 46.6021 52.6854 46.7026 51.5646 46.7461L51.0587 46.7607C49.602 46.7902 48.0762 46.9508 46.8527 47.3828C46.2889 47.5819 45.7617 47.8508 45.3351 48.209C45.4638 47.6032 45.6702 46.9378 45.9855 46.3213Z" stroke="#2C1106"/>
<mask id="path-101-inside-13_10331_48649" fill="white">
<path d="M43.6827 51.7207L43.7135 51.7361C43.7135 51.7361 43.6867 51.7901 43.6827 51.7207Z"/>
</mask>
<path d="M43.6827 51.7207L44.1301 50.8263L42.5866 50.0544L42.6843 51.7773L43.6827 51.7207ZM43.7135 51.7361L44.6091 52.181L45.0527 51.2878L44.1608 50.8417L43.7135 51.7361ZM43.6827 51.7207L43.2354 52.6151L43.2662 52.6304L43.7135 51.7361L44.1608 50.8417L44.1301 50.8263L43.6827 51.7207ZM43.7135 51.7361C42.8179 51.2912 42.818 51.291 42.8181 51.2907C42.8182 51.2906 42.8183 51.2904 42.8184 51.2902C42.8186 51.2899 42.8187 51.2895 42.8189 51.2892C42.8192 51.2885 42.8196 51.2879 42.8199 51.2872C42.8206 51.2858 42.8213 51.2844 42.822 51.283C42.8234 51.2802 42.8249 51.2773 42.8265 51.2743C42.8296 51.2683 42.8332 51.2617 42.8371 51.2546C42.8445 51.2411 42.8555 51.2221 42.8699 51.1999C42.8832 51.1793 42.9068 51.1446 42.9406 51.1046C42.9692 51.0707 43.0362 50.9952 43.1426 50.9239C43.2404 50.8583 43.4841 50.7214 43.8201 50.764C44.1942 50.8115 44.4212 51.0445 44.5263 51.2053C44.6204 51.3494 44.6521 51.4809 44.6629 51.5311C44.6762 51.5932 44.6799 51.6415 44.6811 51.6641L43.6827 51.7207L42.6843 51.7773C42.6866 51.8173 42.692 51.8791 42.7075 51.9514C42.7205 52.012 42.7549 52.1507 42.8521 52.2994C42.9603 52.4649 43.1906 52.7002 43.5683 52.7481C43.9078 52.7912 44.1552 52.6529 44.2566 52.5849C44.443 52.4599 44.5393 52.3013 44.5486 52.287C44.5656 52.2608 44.5786 52.2381 44.5876 52.222C44.5922 52.2135 44.5964 52.2058 44.5999 52.1991C44.6016 52.1957 44.6033 52.1925 44.6048 52.1895C44.6056 52.188 44.6063 52.1865 44.607 52.1851C44.6074 52.1844 44.6077 52.1837 44.6081 52.183C44.6083 52.1826 44.6084 52.1823 44.6086 52.182C44.6087 52.1818 44.6088 52.1815 44.6088 52.1815C44.609 52.1812 44.6091 52.181 43.7135 51.7361Z" fill="#2C1106" mask="url(#path-101-inside-13_10331_48649)"/>
<path d="M45.8148 41.0635C46.169 40.8809 48.3152 39.88 51.766 40.4863C53.461 40.785 54.7479 41.982 55.2123 43.166C55.443 43.7543 55.4545 44.2933 55.2758 44.708C55.1036 45.1071 54.7178 45.4777 53.9652 45.6729L53.9242 45.6836C53.8304 45.708 53.7309 45.7294 53.6244 45.7471L53.2513 45.7939C51.0113 45.987 49.011 46.1369 47.5013 46.5957C46.737 46.828 46.0612 47.15 45.5287 47.624C44.9885 48.105 44.6181 48.7233 44.4388 49.5049V49.5059C44.2581 50.3011 44.1453 50.8377 44.0756 51.1992L42.9437 50.6475C42.916 50.5926 42.8796 50.5188 42.8392 50.4248C42.734 50.18 42.595 49.8015 42.474 49.2891C42.2322 48.2649 42.0594 46.6962 42.3715 44.5713C42.5924 43.0677 43.3972 42.2235 44.1478 41.7441C44.5279 41.5015 44.8961 41.3522 45.1683 41.2637C45.3039 41.2196 45.4144 41.1909 45.4886 41.1738C45.5255 41.1654 45.5533 41.1596 45.5707 41.1562C45.5794 41.1546 45.586 41.1539 45.5892 41.1533H45.5902L45.7513 41.1279L45.8148 41.0635Z" stroke="#2C1106"/>
<path d="M43.7242 50.7295C44.158 50.7724 44.5185 50.9381 44.7526 51.1475C44.9868 51.357 45.0689 51.5808 45.0504 51.7695C45.0318 51.9583 44.9071 52.1615 44.6364 52.3213C44.366 52.4807 43.9811 52.5731 43.5475 52.5303C43.1136 52.4874 42.7532 52.3216 42.5192 52.1123C42.3143 51.929 42.2259 51.7348 42.2194 51.5625L42.2213 51.4902C42.2401 51.3012 42.3648 51.0981 42.6354 50.9385C42.9057 50.779 43.2908 50.6867 43.7242 50.7295Z" stroke="#2C1106"/>
<path d="M51.8234 51.1348C51.8234 51.1348 52.2492 52.0381 52.0031 53.0644" stroke="#2C1106" stroke-miterlimit="10" stroke-linecap="round"/>
<path d="M53.1573 48.8323C53.1573 48.8323 54.1253 48.0636 55.0929 48.9289" stroke="#2C1106" stroke-miterlimit="10" stroke-linecap="round"/>
<path d="M48.1837 48.8323C48.1837 48.8323 49.1517 48.0636 50.1193 48.9289" stroke="#2C1106" stroke-miterlimit="10" stroke-linecap="round"/>
<mask id="path-108-inside-14_10331_48649" fill="white">
<path d="M49.8651 50.3118C49.8651 50.6123 49.745 50.8556 49.5967 50.8556C49.4483 50.8556 49.3282 50.612 49.3282 50.3118C49.3282 50.0112 49.4483 49.7676 49.5967 49.7676C49.7447 49.7676 49.8651 50.0112 49.8651 50.3118Z"/>
</mask>
<path d="M49.8651 50.3118H48.8651C48.8651 50.3424 48.8569 50.3205 48.8898 50.2538C48.9063 50.2203 48.952 50.1379 49.0508 50.0533C49.156 49.9632 49.3433 49.8556 49.5967 49.8556V50.8556V51.8556C50.2601 51.8556 50.5843 51.3394 50.6832 51.139C50.8133 50.8755 50.8651 50.5816 50.8651 50.3118H49.8651ZM49.5967 50.8556V49.8556C49.8505 49.8556 50.0378 49.9635 50.143 50.0536C50.2416 50.1382 50.2872 50.2204 50.3036 50.2538C50.3364 50.3203 50.3282 50.3421 50.3282 50.3118H49.3282H48.3282C48.3282 50.5816 48.3801 50.8753 48.51 51.1387C48.6086 51.3385 48.9327 51.8556 49.5967 51.8556V50.8556ZM49.3282 50.3118H50.3282C50.3282 50.2811 50.3365 50.3028 50.3037 50.3692C50.2872 50.4026 50.2417 50.4849 50.143 50.5695C50.0379 50.6597 49.8505 50.7676 49.5967 50.7676V49.7676V48.7676C48.9326 48.7676 48.6085 49.2848 48.51 49.4847C48.38 49.7481 48.3282 50.0419 48.3282 50.3118H49.3282ZM49.5967 49.7676V50.7676C49.3422 50.7676 49.1548 50.6592 49.05 50.5694C48.9515 50.4849 48.9061 50.4028 48.8897 50.3696C48.8569 50.3032 48.8651 50.2815 48.8651 50.3118H49.8651H50.8651C50.8651 50.0414 50.8131 49.7476 50.6831 49.4844C50.5849 49.2853 50.2609 48.7676 49.5967 48.7676V49.7676Z" fill="#2C1106" mask="url(#path-108-inside-14_10331_48649)"/>
<mask id="path-110-inside-15_10331_48649" fill="white">
<path d="M54.6175 50.3118C54.6175 50.6123 54.4971 50.8556 54.3491 50.8556C54.2011 50.8556 54.0807 50.612 54.0807 50.3118C54.0807 50.0112 54.2008 49.7676 54.3491 49.7676C54.4975 49.7676 54.6175 50.0112 54.6175 50.3118Z"/>
</mask>
<path d="M54.6175 50.3118H53.6175C53.6175 50.342 53.6094 50.32 53.6423 50.2535C53.6588 50.2201 53.7043 50.1379 53.8029 50.0535C53.9078 49.9636 54.0951 49.8556 54.3491 49.8556V50.8556V51.8556C55.0127 51.8556 55.3368 51.3388 55.4354 51.1393C55.5655 50.8759 55.6175 50.5821 55.6175 50.3118H54.6175ZM54.3491 50.8556V49.8556C54.6036 49.8556 54.791 49.9639 54.8957 50.0538C54.9942 50.1382 55.0396 50.2202 55.056 50.2535C55.0888 50.3198 55.0807 50.3417 55.0807 50.3118H54.0807H53.0807C53.0807 50.5821 53.1328 50.8758 53.2628 51.139C53.361 51.338 53.685 51.8556 54.3491 51.8556V50.8556ZM54.0807 50.3118H55.0807C55.0807 50.2811 55.0889 50.3028 55.0561 50.3693C55.0397 50.4026 54.9942 50.4849 54.8955 50.5695C54.7903 50.6597 54.6029 50.7676 54.3491 50.7676V49.7676V48.7676C53.6851 48.7676 53.361 49.2848 53.2624 49.4847C53.1325 49.7481 53.0807 50.0419 53.0807 50.3118H54.0807ZM54.3491 49.7676V50.7676C54.0953 50.7676 53.9079 50.6597 53.8028 50.5695C53.7041 50.4849 53.6585 50.4026 53.6421 50.3692C53.6093 50.3028 53.6175 50.2811 53.6175 50.3118H54.6175H55.6175C55.6175 50.0419 55.5658 49.7481 55.4358 49.4847C55.3373 49.2848 55.0132 48.7676 54.3491 48.7676V49.7676Z" fill="#2C1106" mask="url(#path-110-inside-15_10331_48649)"/>
<path d="M49.7448 54.1523C50.2498 54.4187 51.0625 54.6847 52.125 54.4965" stroke="#2C1106" stroke-miterlimit="10" stroke-linecap="round"/>
<path d="M54.4415 41.9619C54.7863 42.3396 55.05 42.7529 55.212 43.166C55.3448 43.5046 55.4026 43.8266 55.3956 44.1182C55.2927 43.5511 55.0311 42.8887 54.548 42.1191H54.547C54.5132 42.0654 54.4778 42.0131 54.4415 41.9619Z" stroke="#2C1106"/>
<path d="M68.9908 86.6094C69.931 86.8619 70.6133 87.6622 70.7242 88.6162L70.7379 88.8096L71.3766 117.947L67.9987 118.221L64.9303 93.2354L64.8844 92.8604L64.5114 92.8018L60.9948 92.251L63.2692 85.0732L68.9908 86.6094Z" stroke="#2C1106"/>
<path d="M71.4034 118.574L71.4484 118.943L71.8156 119.006L71.8185 119.007C71.821 119.007 71.8249 119.008 71.8302 119.009C71.8414 119.011 71.8591 119.014 71.882 119.019C71.9278 119.027 71.9964 119.04 72.0841 119.059C72.2598 119.095 72.5129 119.151 72.8175 119.229C73.4283 119.384 74.24 119.624 75.0538 119.963C75.8721 120.304 76.667 120.735 77.2628 121.262C77.6914 121.641 77.9964 122.052 78.1505 122.5H70.962L70.2013 121.993L69.7306 121.679L69.4767 122.186L69.3195 122.5H67.3829C67.3927 122.288 67.4106 122.021 67.4454 121.732C67.533 121.007 67.7134 120.219 68.049 119.721L68.1515 119.568L68.131 119.385L68.0704 118.846L71.3448 118.099L71.4034 118.574Z" stroke="#2C1106"/>
<path d="M76.1608 120.497C77.1411 121.048 77.8784 121.712 78.15 122.5H70.9615L70.2008 121.99L69.7291 121.675L69.4762 122.183L69.317 122.5H67.3785C67.3832 122.394 67.3899 122.275 67.4 122.146C67.4271 121.801 67.4784 121.397 67.566 120.999C68.3981 121.31 69.925 121.674 72.3229 121.525L72.3219 121.524C74.4763 121.395 75.5869 120.944 76.1608 120.497Z" stroke="#2C1106"/>
<path d="M64.5323 90.5029C65.6221 90.7236 66.3953 91.6935 66.3702 92.8037L63.9767 118.046L60.5675 118.308L59.1788 97.4023L59.1476 96.9355H58.3507L59.7609 89.5371L64.5323 90.5029Z" stroke="#2C1106"/>
<path d="M63.9357 118.462L63.8898 118.925L64.3488 119.004L64.3527 119.005C64.3562 119.006 64.3617 119.006 64.3693 119.008C64.3847 119.011 64.4086 119.015 64.4396 119.021C64.5017 119.032 64.5941 119.051 64.7111 119.076C64.9455 119.126 65.2797 119.203 65.672 119.311C66.3616 119.499 67.2209 119.778 68.0411 120.161L68.3898 120.332C69.5221 120.913 70.3865 121.633 70.6857 122.501H63.4991L62.7374 121.991L62.2657 121.676L62.0118 122.183L61.8527 122.501H59.9142C59.9188 122.395 59.9256 122.276 59.9357 122.147C59.9751 121.644 60.0606 121.017 60.2433 120.467L60.2443 120.468C60.3374 120.192 60.4479 119.947 60.5763 119.756L60.674 119.61L60.6593 119.437L60.6115 118.858L63.9728 118.079L63.9357 118.462Z" stroke="#2C1106"/>
<path d="M68.6964 120.497C69.6769 121.048 70.414 121.712 70.6857 122.5H63.4972L62.7374 121.99L62.2657 121.675L62.0118 122.183L61.8536 122.5H59.9142C59.9188 122.394 59.9256 122.275 59.9357 122.146C59.9628 121.801 60.0141 121.397 60.1017 120.999C60.9337 121.31 62.4607 121.674 64.8585 121.525L64.8575 121.524C67.012 121.395 68.1226 120.944 68.6964 120.497Z" stroke="#2C1106"/>
<path d="M55.6666 62.124C56.1074 62.724 56.6776 63.7108 57.1725 65.25C57.7036 66.9022 58.3241 68.4686 58.8805 69.6631C59.1582 70.2593 59.4236 70.7715 59.6578 71.1582C59.7746 71.3509 59.8893 71.5207 59.9977 71.6572C60.0713 71.75 60.1624 71.8539 60.2692 71.9365L60.3815 72.0117C60.5328 72.0957 60.6814 72.0882 60.7633 72.0762C60.8505 72.0633 60.9279 72.0353 60.9869 72.0098C61.1062 71.9581 61.2331 71.8805 61.3551 71.7969C61.6039 71.6263 61.914 71.3753 62.2545 71.0801C62.9395 70.4862 63.7968 69.6718 64.6305 68.8555C65.4656 68.0377 66.2834 67.2113 66.8922 66.5898C67.1024 66.3753 67.2874 66.1845 67.4401 66.0273L68.5397 67.9346C68.4534 68.087 68.3288 68.3057 68.1715 68.5752C67.8501 69.126 67.3935 69.8893 66.8541 70.7393C65.77 72.4475 64.3697 74.4754 63.0641 75.8379C61.7311 77.2289 60.9176 77.8042 60.3873 78.0176C60.1354 78.1189 59.9558 78.134 59.816 78.1221C59.6675 78.1094 59.5314 78.0638 59.3453 77.9922C59.3446 77.9919 59.3426 77.9917 59.3395 77.9902C59.3351 77.9882 59.3289 77.9847 59.3209 77.9805C59.3047 77.9719 59.2836 77.9597 59.2574 77.9434C59.2046 77.9103 59.1394 77.8647 59.0612 77.8066C58.9046 77.6904 58.7134 77.5347 58.4977 77.3496C58.0669 76.98 57.5578 76.5107 57.068 76.0459C56.5791 75.5819 56.1131 75.1268 55.7692 74.7871C55.5974 74.6175 55.4562 74.477 55.358 74.3789C55.3571 74.378 55.356 74.3769 55.3551 74.376L55.6666 62.124Z" stroke="#2C1106"/>
<path d="M71.5701 64.7529L70.3132 63.6367L70.7605 65.2627H70.7595C70.7605 65.2668 70.7629 65.275 70.7654 65.2871C70.7704 65.3117 70.777 65.3515 70.783 65.4023C70.795 65.5052 70.802 65.6485 70.782 65.8086C70.7429 66.1207 70.6052 66.4896 70.1873 66.7754V66.7764C69.7781 67.0563 69.5003 67.2196 69.3191 67.3154L68.0574 65.2969C67.9399 65.1089 67.9039 64.883 67.9558 64.668C68.1914 63.6885 68.696 61.7066 69.1462 60.6699C69.2276 60.4826 69.3022 60.3226 69.3708 60.1865C69.255 60.5854 69.0658 61.13 68.7615 61.8662L69.5681 62.416C69.5693 62.4173 69.5699 62.4177 69.5701 62.418C69.5727 62.4155 69.5784 62.4115 69.5857 62.4053C69.6008 62.3924 69.6238 62.3726 69.6531 62.3516C69.7159 62.3064 69.7861 62.2664 69.8484 62.2461C69.91 62.2261 69.9217 62.2383 69.9099 62.2334C69.9213 62.2413 69.9601 62.276 70.0076 62.3867L70.1716 62.7686L70.574 62.6777V62.6787H70.572C70.571 62.6789 70.5699 62.6795 70.5691 62.6797C70.5756 62.6788 70.5894 62.6772 70.6072 62.6768C70.6447 62.6758 70.6904 62.6796 70.7332 62.6934C70.782 62.7091 70.9018 62.7528 70.9636 63.041L71.0085 63.25L71.1902 63.3623C71.1927 63.364 71.1963 63.3668 71.2009 63.3701C71.2157 63.3807 71.2404 63.3984 71.2703 63.4238C71.3308 63.4754 71.4104 63.5541 71.4841 63.6562C71.627 63.8541 71.7474 64.1384 71.6697 64.5322C71.6475 64.6447 71.622 64.721 71.6003 64.7695C71.5999 64.7706 71.5989 64.7714 71.5984 64.7725C71.5884 64.7661 71.5796 64.7611 71.574 64.7568L71.5701 64.7529ZM71.5701 64.7529C71.5692 64.7522 71.5681 64.752 71.5681 64.752C71.5682 64.752 71.5692 64.7523 71.5701 64.7529Z" stroke="#2C1106"/>
<path d="M67.8405 64.7269C67.8405 64.7269 69.133 62.9589 69.5872 62.6967C70.0413 62.4346 70.1292 62.8287 69.7987 63.5369C69.4681 64.2452 69.4472 64.5105 69.4472 64.5105C69.4472 64.5105 70.0577 65.7461 69.1543 66.6593" stroke="#2C1106" stroke-width="0.5" stroke-miterlimit="10" stroke-linecap="round"/>
<path d="M70.6019 62.4199C70.6019 62.4199 70.6421 64.0033 70.1722 64.5017C69.7024 64.9998 69.5289 64.3806 69.5457 64.1492" stroke="#2C1106" stroke-width="0.5" stroke-miterlimit="10" stroke-linecap="round"/>
<path d="M71.4373 63.0469C71.4373 63.0469 71.4213 64.3841 70.9797 64.7175C70.5378 65.0508 70.2376 64.5904 70.277 64.3576" stroke="#2C1106" stroke-width="0.5" stroke-miterlimit="10" stroke-linecap="round"/>
<path d="M45.3409 59.0615C45.6214 59.3986 46.0194 59.8551 46.4904 60.3301C46.9603 60.8041 47.5098 61.3035 48.0919 61.7236C48.6695 62.1405 49.306 62.499 49.9503 62.6602L50.2325 62.7305L50.4337 62.5195L50.4406 62.5127C50.4441 62.5089 50.4491 62.5037 50.4552 62.4971C50.4681 62.4832 50.4868 62.463 50.5099 62.4375C50.5559 62.3865 50.6207 62.3127 50.6993 62.2197C50.8566 62.0337 51.0696 61.7674 51.2941 61.4473C51.6388 60.9555 52.0269 60.3085 52.2736 59.6074C52.5079 59.7223 52.802 59.8695 53.1134 60.04C53.8607 60.4494 54.6279 60.9404 54.9923 61.3564C54.9934 61.3594 54.9948 61.363 54.9962 61.3672C54.9997 61.3773 55.0037 61.3906 55.0079 61.4062L55.0177 61.4404L55.0314 61.4736C55.3211 62.1482 56.2435 64.5757 56.5304 68.7725C56.6757 70.8957 56.512 72.1223 56.1632 72.8857C55.8342 73.6059 55.3148 73.9688 54.5343 74.2871L54.2306 74.4111L54.2228 74.7393C54.2221 74.771 54.2216 74.8033 54.2208 74.8359C54.22 74.8685 54.2196 74.9022 54.2189 74.9355V74.9365C54.1959 76.1344 54.3054 77.3651 54.4171 78.5322C54.5135 79.5388 54.6095 80.4922 54.6359 81.3701C54.3861 81.3985 54.0393 81.4369 53.6183 81.4775C52.7136 81.5648 51.4668 81.6667 50.0988 81.7246C48.7296 81.7826 47.2454 81.7967 45.8634 81.71C44.4738 81.6228 43.2201 81.4352 42.296 81.1064C41.9641 80.9883 41.6126 80.664 41.2697 80.0654C40.9315 79.4751 40.636 78.6782 40.3859 77.7236C39.8862 75.8166 39.59 73.3694 39.4523 70.9072C39.3147 68.4488 39.3367 65.9985 39.465 64.0947C39.5292 63.1417 39.6189 62.335 39.7267 61.7373C39.7807 61.4376 39.8379 61.2016 39.8937 61.0303C39.9564 60.8378 39.9974 60.7946 39.9825 60.8096C40.2083 60.5811 40.6383 60.3218 41.215 60.0586C41.7774 59.802 42.4294 59.5635 43.0548 59.3584C43.6788 59.1538 44.2685 58.9856 44.7023 58.8682C44.856 58.8266 44.9901 58.7916 45.0988 58.7637C45.1653 58.8471 45.2463 58.9478 45.3409 59.0615Z" stroke="#2C1106"/>
<path d="M45.3861 58.8164C45.5888 59.0645 45.89 59.4117 46.2865 59.8164C46.975 60.5191 47.9567 61.3973 49.222 62.2295C49.1209 62.3015 49.0056 62.3805 48.8744 62.46C48.3063 62.8042 47.4641 63.1817 46.3754 63.3096C46.0402 63.3489 45.7775 63.2046 45.5394 62.8203C45.2886 62.4153 45.1184 61.8109 45.0267 61.1367C44.9365 60.4722 44.9284 59.7886 44.9681 59.2617C44.9881 58.9971 45.0192 58.7845 45.0531 58.6406C45.0586 58.6174 45.0659 58.598 45.0707 58.5811C45.1183 58.5648 45.1569 58.5623 45.1859 58.5625C45.2362 58.6282 45.3026 58.7142 45.3861 58.8164Z" stroke="#2C1106"/>
<path d="M52.2692 59.5049C52.3314 59.6254 52.4093 59.7946 52.4938 59.998C52.6628 60.4054 52.8474 60.9262 52.9772 61.4277C53.1113 61.9462 53.1694 62.3806 53.1344 62.6465C53.1281 62.6944 53.1168 62.7259 53.11 62.7471C53.1076 62.7467 53.1049 62.7475 53.1022 62.7471C52.4017 62.6385 51.7061 62.3887 51.1774 62.1602C51.05 62.1051 50.9332 62.0521 50.8297 62.0029C51.3907 61.2357 51.7698 60.5529 52.0153 60.0303C52.1156 59.8166 52.1915 59.629 52.2516 59.4746C52.2567 59.4843 52.2635 59.494 52.2692 59.5049Z" stroke="#2C1106"/>
<path d="M53.317 77.4551L54.7653 82.1455L54.8473 82.4111L55.1158 82.4824L66.9742 85.5918C63.2406 86.6762 61.0831 89.6611 59.8658 92.3262C59.24 93.6965 58.853 95.0027 58.6217 95.9648C58.5059 96.4464 58.4288 96.8436 58.3805 97.1221C58.3791 97.1303 58.377 97.1385 58.3756 97.1465C58.3386 97.1479 58.2992 97.1498 58.2574 97.1514C57.9168 97.1642 57.4229 97.1803 56.8131 97.1953C55.5933 97.2252 53.9091 97.2484 52.0514 97.2227C48.3161 97.1709 43.9458 96.9205 41.2174 96.1494C39.9783 95.7992 39.1488 94.9854 38.6061 93.8867C38.0563 92.7738 37.8071 91.3761 37.7555 89.918C37.6519 86.9937 38.3489 83.9967 38.776 82.9648C39.2579 81.8003 39.5855 80.0907 39.7926 78.71C39.8972 78.0123 39.9735 77.3848 40.0231 76.9316C40.0331 76.8402 40.0405 76.7552 40.0485 76.6787L53.317 77.4551Z" stroke="#2C1106"/>
<path d="M50.4347 63.9023C50.4347 63.928 50.4136 63.9492 50.3878 63.9492C50.3753 63.9491 50.364 63.9438 50.3556 63.9355L50.3419 63.9023C50.3421 63.8767 50.3622 63.8566 50.3878 63.8564L50.421 63.8701C50.4293 63.8784 50.4346 63.8896 50.4347 63.9023Z" stroke="#2C1106"/>
<path d="M50.3878 65.7607C50.4136 65.7607 50.4347 65.7405 50.4347 65.7148C50.4345 65.6891 50.4136 65.6689 50.3878 65.6689M50.3878 65.7607V65.6689M50.3878 65.7607C50.3751 65.7605 50.3638 65.7562 50.3556 65.748L50.3419 65.7148C50.3421 65.6892 50.3622 65.6691 50.3878 65.6689M50.3878 65.7607V65.6689" stroke="#2C1106"/>
<path d="M39.4674 61.0205C39.6759 60.7879 40.0658 60.6367 40.5201 60.7871C40.9765 60.9384 41.5829 61.4286 42.0807 62.6572V62.6582C42.5532 63.8205 42.4613 65.4062 42.1002 66.9961C41.7433 68.5677 41.1445 70.0533 40.7028 70.9551C40.2302 71.9198 39.7648 73.2653 39.4215 74.3506C39.2486 74.8972 39.1045 75.3851 39.0035 75.7363C38.9531 75.9118 38.9135 76.0534 38.8864 76.1514C38.8728 76.2003 38.8622 76.2387 38.8551 76.2646C38.8516 76.2776 38.8482 76.2881 38.8463 76.2949C38.8455 76.2981 38.8448 76.301 38.8444 76.3027V76.3047L39.3268 76.4355L38.8434 76.3057L38.7203 76.7627L39.1715 76.9102L45.9723 79.1357L46.7428 81.2305L44.6803 81.0781H44.6813C42.9644 80.9275 41.0909 80.7332 40.6451 80.668H40.6432C40.2346 80.6102 38.8155 80.4332 37.4518 80.1484C36.7681 80.0057 36.119 79.8394 35.6285 79.6553C35.3822 79.5628 35.1948 79.4727 35.068 79.3896C34.9763 79.3296 34.944 79.2916 34.9362 79.2822C34.8861 79.1249 34.8494 78.753 34.8649 78.1367C34.8801 77.5318 34.9424 76.7555 35.0504 75.8525C35.2662 74.0481 35.6603 71.7625 36.2057 69.3691C36.75 66.9891 37.4144 65.0652 38.0231 63.6484C38.6389 62.2148 39.181 61.3383 39.4664 61.0215L39.4674 61.0205Z" stroke="#2C1106"/>
<path d="M52.0787 78.4229L52.1901 77.4404H52.193C52.1943 77.4404 52.1961 77.4395 52.1979 77.4395H52.2506C52.2828 77.4398 52.3266 77.4416 52.3795 77.4453C52.4826 77.4526 52.6239 77.4687 52.7848 77.5059C52.609 77.4291 52.4112 77.3551 52.1891 77.2891C51.9323 77.2128 51.5278 77.2361 51.0006 77.373C50.4896 77.5058 49.9315 77.7271 49.4059 77.9697C48.8825 78.2114 48.4041 78.4681 48.0563 78.665C47.8827 78.7633 47.7425 78.8463 47.6461 78.9043C47.598 78.9332 47.5606 78.9554 47.5358 78.9707C47.5235 78.9783 47.5145 78.9845 47.5084 78.9883C47.5055 78.9901 47.503 78.9913 47.5016 78.9922L47.4996 78.9932L47.4098 79.0498L47.3053 79.0645L47.2809 79.0684L47.2672 79.0703L45.5123 79.2754L45.5905 81.1377L47.4889 81.2783H48.0143C48.05 81.2655 48.0987 81.2479 48.1578 81.2246C48.2981 81.1695 48.4969 81.0855 48.7262 80.9717C49.1894 80.7417 49.7556 80.4003 50.2174 79.9463L50.649 79.5215L50.985 80.0254V80.0264L50.986 80.0283C50.9872 80.0302 50.9892 80.0332 50.9918 80.0371C50.997 80.0449 51.0051 80.0563 51.0153 80.0713C51.0358 80.1017 51.0665 80.1468 51.1041 80.2012C51.1794 80.3099 51.284 80.4579 51.401 80.6162C51.5691 80.8436 51.7443 81.0644 51.8893 81.2246L52.7526 80.8994V80.8984L52.7516 80.8975C52.7522 80.8985 52.7529 80.9006 52.7545 80.9033C52.7587 80.9105 52.7668 80.9229 52.777 80.9385C52.7816 80.9455 52.7881 80.9521 52.7936 80.96C52.7933 80.946 52.7943 80.932 52.7936 80.918C52.7889 80.8249 52.7764 80.7564 52.7672 80.7256L53.5807 80.3262C53.4599 79.9223 53.2629 79.4846 53.0455 79.1973V79.1963C52.7904 78.861 52.5312 78.6634 52.3453 78.5518C52.2521 78.4958 52.1764 78.4609 52.1285 78.4414C52.1048 78.4317 52.0874 78.4257 52.0787 78.4229ZM52.0787 78.4229L52.0778 78.4219H52.0758L52.0739 78.4209H52.0729C52.0736 78.4211 52.0756 78.4218 52.0787 78.4229Z" stroke="#2C1106"/>
<path d="M52.1758 80.6957C52.1758 80.6957 51.8188 79.9099 51.0616 79.3242" stroke="#2C1106" stroke-width="0.5" stroke-miterlimit="10" stroke-linecap="round"/>
<path d="M53.3089 80.1903C53.3089 80.1903 52.787 79.0349 52.0299 78.4492" stroke="#2C1106" stroke-width="0.5" stroke-miterlimit="10" stroke-linecap="round"/>
<path d="M124.381 65.6758L122.385 77.9902H101.866L103.863 65.6758H124.381Z" stroke="#2C1106"/>
<path d="M121.011 78.9902V79.8066H100.48V78.9902H121.011Z" stroke="#2C1106"/>
<path d="M123.082 65.6758L121.086 77.9902H100.567L102.563 65.6758H123.082Z" stroke="#2C1106"/>
<path d="M121.99 66.6035L121.025 72.5635L120.294 77.0615H101.659L101.901 75.5742L102.308 73.0596L103.353 66.6035H121.99Z" stroke="#2C1106"/>
<path d="M108.931 66.6035L102.516 71.7715L103.353 66.6035H108.931Z" stroke="#2C1106"/>
<path d="M114.83 66.6035L101.701 76.7998L101.87 75.7637L113.343 66.6035H114.83Z" stroke="#2C1106"/>
<path d="M120.295 77.0605H115.311L120.849 73.6426L120.295 77.0605Z" stroke="#2C1106"/>
<path d="M112.623 78.9902V79.8066H92.0931V78.9902H112.623Z" stroke="#2C1106"/>
<path d="M47.833 122.342L47.833 82.7031H49.0215L49.0215 122.342H47.833Z" stroke="#2C1106"/>
<path d="M149.974 122.34V82.7012H151.162V122.34H149.974Z" stroke="#2C1106"/>
<path d="M39.707 82.8164V80.8066L120.385 80.8066V82.8164L39.707 82.8164Z" stroke="#2C1106"/>
<path d="M121.385 82.8164V80.8066H153.912V82.8164H121.385Z" stroke="#2C1106"/>
<path d="M125.168 122.34V82.7012H126.356V122.34H125.168Z" stroke="#2C1106"/>
<path d="M81.9594 47.041C82.4914 46.9416 82.859 46.9568 83.0424 47.0146C83.2879 47.0924 83.4939 47.225 83.6693 47.4023L83.6732 47.4062C84.1035 47.8321 84.3591 48.4964 84.5023 49.1104C84.5719 49.4088 84.6117 49.6781 84.6332 49.8721C84.6439 49.9686 84.6501 50.0458 84.6537 50.0977C84.6554 50.1234 84.656 50.1428 84.6566 50.1553C84.6569 50.1615 84.6575 50.1664 84.6576 50.1689V50.1709L84.6693 50.5098L84.9886 50.624L84.9916 50.626C84.9963 50.6278 85.0047 50.6312 85.016 50.6357C85.0387 50.6449 85.074 50.6588 85.1166 50.6787C85.2028 50.719 85.3158 50.7783 85.4281 50.8545C85.6785 51.0244 85.8073 51.1979 85.8226 51.3438V51.3447C85.8395 51.5002 85.7663 51.6462 85.6166 51.79C85.545 51.8587 85.4688 51.9137 85.4095 51.9512C85.3806 51.9695 85.3569 51.9832 85.3422 51.9912L85.3295 51.998L84.9408 52.1836L85.0648 52.5879V52.5908L85.0658 52.5928V52.5947L85.0668 52.5957C85.0674 52.5984 85.0678 52.6023 85.0687 52.6064C85.0731 52.6267 85.0801 52.6638 85.0873 52.7178C85.1017 52.8262 85.1166 53.0041 85.1088 53.2549C85.0931 53.7565 84.987 54.5536 84.6068 55.6719V55.6738C84.2298 56.7935 83.4386 57.1127 82.8129 57.1973H82.8119C82.5776 57.2298 82.3691 57.2284 82.2211 57.2188C82.1478 57.214 82.0904 57.2073 82.0531 57.2021C82.0345 57.1996 82.0208 57.1976 82.0131 57.1963L82.0062 57.1943L82.0072 57.1953L81.2513 57.0449L81.4222 57.7959L81.8568 59.7041V59.7051L81.9847 60.2656L75.2914 59.2539L75.4554 57.1797L75.4613 57.1055L75.4447 57.0322C74.8708 54.4391 75.3843 52.4132 76.3578 50.8799C77.3395 49.3337 78.8087 48.2597 80.1761 47.6309H80.1771C80.8275 47.3316 81.444 47.1374 81.9594 47.041Z" stroke="#2C1106"/>
<path d="M84.3819 54.6214C84.3819 54.6214 83.5693 54.7243 82.6586 54.4531" stroke="#2C1106" stroke-width="0.75" stroke-miterlimit="10" stroke-linecap="round"/>
<path d="M83.9155 48.4579C83.9155 48.4579 83.1368 48.0677 82.6058 48.8719" stroke="#2C1106" stroke-miterlimit="10" stroke-linecap="round"/>
<path d="M83.5287 49.6211L83.5648 49.7539C83.6282 49.7369 83.6779 49.7069 83.7162 49.6758C83.7122 49.6438 83.7086 49.6098 83.6996 49.5762M83.5287 49.6211L83.6996 49.5762M83.5287 49.6211L83.6996 49.5762M83.5287 49.6211L83.4945 49.4902L83.5804 49.4766C83.6102 49.4751 83.6381 49.4774 83.6635 49.4814C83.6761 49.5113 83.6905 49.5422 83.6996 49.5762M83.4935 49.4902L83.5629 49.7539C83.5002 49.7704 83.4431 49.7695 83.3949 49.7617C83.3824 49.732 83.3687 49.7008 83.3597 49.667C83.3507 49.6331 83.3461 49.5995 83.3422 49.5674C83.3803 49.5363 83.4304 49.5072 83.4935 49.4902Z" stroke="#2C1106"/>
<path d="M80.9354 58.0713C81.1605 58.1009 81.3517 58.124 81.5009 58.1416L81.6434 58.7646C81.2114 58.5437 80.7987 58.2722 80.4344 57.999C80.6155 58.0248 80.7831 58.0512 80.9354 58.0713Z" stroke="#2C1106"/>
<path d="M81.9598 47.0391C82.4258 46.952 82.7654 46.9528 82.9657 46.9932L83.0428 47.0127C83.0887 47.0273 83.1325 47.0452 83.1757 47.0635C82.5834 47.4434 81.8396 47.7453 81.1542 47.9658C80.8327 48.0692 80.5329 48.1501 80.2821 48.2139L80.41 47.5283C80.9748 47.287 81.5061 47.1239 81.9598 47.0391Z" stroke="#2C1106"/>
<path d="M84.8617 44.0605L84.9789 44.0723H85.0082L84.8685 44.0537M84.8617 44.0605L84.8685 44.0537M84.8617 44.0605L84.8685 44.0537M84.8617 44.0605L84.5443 44.0283C84.543 44.0232 84.5416 44.018 84.5404 44.0127L84.8685 44.0537M71.1508 45.0059H71.1517L71.142 44.9805C71.1334 44.9553 71.1212 44.9152 71.1088 44.8633C71.0835 44.7579 71.0604 44.6116 71.0658 44.4473C71.0761 44.1342 71.1876 43.7411 71.6547 43.4062L71.6537 43.4053C71.9655 43.185 72.4571 42.9735 73.2269 42.8477L73.226 42.8467C75.0143 42.5567 77.0481 41.7097 78.5844 40.7959C79.3526 40.3389 80.0214 39.8502 80.4808 39.3867C80.7093 39.1562 80.9059 38.9126 81.0306 38.6641C81.0451 38.6353 81.0547 38.6038 81.0677 38.5732C81.227 38.6217 81.4091 38.6819 81.5922 38.7607C81.8578 38.8752 82.1082 39.0153 82.2982 39.1787C82.4873 39.3414 82.5909 39.5047 82.6244 39.667L82.8802 40.9072L83.5414 39.8281L83.7855 39.4277C83.8498 39.6188 83.9192 39.833 83.9877 40.0654C84.2324 40.896 84.4704 41.9346 84.5277 42.9502L84.5414 43.3838V43.3994C84.5414 43.5573 84.5365 43.7113 84.5258 43.8613C84.5213 43.9189 84.5175 43.967 84.5121 44.0098H84.514L84.5131 44.0254H84.5111C84.4185 44.9646 84.1029 45.733 83.4701 46.2227L83.3402 46.3164C81.8346 47.319 80.9806 47.7988 80.5131 48.0264C80.2794 48.1401 80.1515 48.1848 80.0941 48.2021L79.6117 48.1602L79.6176 48.7129L79.6332 50.0732C79.5711 50.0625 79.5065 50.0526 79.4398 50.0449C78.9866 49.9926 78.2626 50.0084 77.7894 50.5654L77.7885 50.5664C77.5571 50.8407 77.4317 51.2078 77.391 51.5713C77.3496 51.9412 77.3902 52.35 77.5345 52.7344C77.776 53.3772 78.3003 53.9277 79.1302 54.124C79.0172 54.3832 78.8431 54.7099 78.5746 55.0391C77.9868 55.7594 76.9267 56.5367 75.0082 56.6328C75.0028 56.6312 74.9967 56.6299 74.9906 56.6279C74.9311 56.6089 74.8363 56.5748 74.7113 56.5186C74.4609 56.4059 74.0875 56.2024 73.6342 55.8496C72.7288 55.145 71.4903 53.8316 70.2709 51.415C69.0386 48.9735 68.9201 47.51 69.1801 46.709C69.418 45.9764 70.0181 45.6881 70.682 45.6992L71.4496 45.7129L71.1508 45.0059ZM84.5463 43.4551C84.5458 43.4514 84.5447 43.4463 84.5443 43.4424C84.5438 43.4379 84.5438 43.4312 84.5433 43.4229C84.5447 43.4406 84.5459 43.4529 84.5463 43.4551Z" stroke="#2C1106"/>
<path d="M77.2662 41.499C77.164 41.5497 77.0587 41.5983 76.9508 41.6465C77.0568 41.5978 77.1622 41.5492 77.2662 41.499ZM81.9528 38.9404C82.0799 39.0133 82.1972 39.0924 82.2975 39.1787C82.4866 39.3415 82.5912 39.5046 82.6246 39.667L82.7155 40.1084C82.609 39.8723 82.4791 39.6152 82.3268 39.3857C82.2262 39.2342 82.1004 39.0757 81.9528 38.9404ZM81.067 38.5732C81.1394 38.5953 81.2169 38.6183 81.2965 38.6465C81.199 38.6482 81.1052 38.6667 81.0192 38.6963C81.0156 38.6975 81.012 38.6989 81.0084 38.7002C81.0149 38.6879 81.0237 38.6764 81.0299 38.6641C81.0443 38.6353 81.0539 38.6038 81.067 38.5732Z" stroke="#2C1106"/>
<path d="M96.2892 117.877H91.1779L91.0675 116.504L96.0587 116.269L96.2892 117.877Z" stroke="#2C1106"/>
<path d="M96.8209 118.783C96.8398 118.787 96.865 118.792 96.8961 118.798C96.9738 118.813 97.0881 118.836 97.2311 118.866C97.5173 118.928 97.918 119.021 98.3737 119.148C99.2941 119.406 100.402 119.794 101.25 120.319C102.034 120.807 102.376 121.439 102.529 121.946V121.947C102.575 122.101 102.6 122.244 102.618 122.368H89.9117C89.9199 122.197 89.9329 122.026 89.9508 121.857V121.856C90.0461 120.932 90.2668 120.066 90.4655 119.428C90.5579 119.131 90.6454 118.885 90.7115 118.709L96.8209 118.783Z" stroke="#2C1106"/>
<path d="M102.611 122.305C102.614 122.326 102.615 122.347 102.618 122.367H89.9117C89.9127 122.346 89.9145 122.326 89.9156 122.305H102.611Z" stroke="#2C1106"/>
<path d="M97.5387 116.775C95.6955 117.193 93.7435 117.331 92.2086 117.36C91.3908 117.376 90.6965 117.36 90.2076 117.341C90.0943 117.336 89.9921 117.33 89.902 117.325V96.4512C91.9952 95.8099 95.0559 94.8101 97.5387 93.7344V116.775Z" stroke="#2C1106"/>
<path d="M82.0338 84.2158L83.5709 95.6973C83.4458 95.7258 83.2954 95.7622 83.1217 95.7969C82.5633 95.9084 81.7709 96.0399 80.8395 96.1201C78.9679 96.2813 76.5743 96.2315 74.3942 95.4229C73.4456 95.0709 72.6831 94.1319 72.0885 92.7773C71.4998 91.4361 71.1162 89.7782 70.8698 88.1436C70.624 86.5137 70.5185 84.9321 70.4742 83.7559C70.4532 83.1969 70.4456 82.7308 70.444 82.3965L82.0338 84.2158Z" stroke="#2C1106"/>
<path d="M107.219 117.875H102.108L101.997 116.502L106.989 116.267L107.219 117.875Z" stroke="#2C1106"/>
<path d="M107.751 118.781C107.77 118.785 107.795 118.79 107.826 118.796C107.904 118.811 108.018 118.834 108.161 118.864C108.447 118.926 108.848 119.019 109.304 119.146C110.224 119.404 111.332 119.792 112.18 120.317C112.964 120.805 113.306 121.437 113.459 121.944V121.945C113.505 122.099 113.531 122.242 113.548 122.366H100.842C100.85 122.195 100.863 122.024 100.881 121.855V121.854C100.976 120.93 101.197 120.064 101.396 119.426C101.488 119.129 101.575 118.883 101.641 118.707L107.751 118.781Z" stroke="#2C1106"/>
<path d="M113.541 122.303C113.545 122.324 113.545 122.345 113.548 122.365H100.842C100.843 122.344 100.845 122.324 100.846 122.303H113.541Z" stroke="#2C1106"/>
<mask id="path-164-inside-16_10331_48649" fill="white">
<path d="M74.2853 84.1228C74.2853 84.1228 75.5922 94.218 79.2772 96.2649C85.1917 99.5509 100.057 94.5122 100.057 94.5122V117.795C100.057 117.795 104.688 118.171 108.694 117.169V88.0588C108.694 85.1626 106.07 82.9744 103.221 83.4948L89.1661 86.0625L76.8037 83.418"/>
</mask>
<path d="M79.2772 96.2649L79.7629 95.3907L79.7628 95.3907L79.2772 96.2649ZM100.057 94.5122H101.057V93.1174L99.7358 93.5652L100.057 94.5122ZM100.057 117.795H99.0568V118.717L99.976 118.792L100.057 117.795ZM108.694 117.169L108.936 118.14L109.694 117.95V117.169H108.694ZM103.221 83.4948L103.041 82.5111L103.041 82.5111L103.221 83.4948ZM89.1661 86.0625L88.9569 87.0404L89.1508 87.0819L89.3458 87.0462L89.1661 86.0625ZM74.2853 84.1228C73.2936 84.2512 73.2936 84.2514 73.2936 84.2516C73.2936 84.2518 73.2937 84.252 73.2937 84.2523C73.2938 84.2528 73.2939 84.2535 73.294 84.2543C73.2942 84.256 73.2945 84.2583 73.2949 84.2611C73.2956 84.2669 73.2967 84.275 73.2981 84.2855C73.3009 84.3065 73.3051 84.3368 73.3106 84.376C73.3216 84.4542 73.3381 84.5678 73.3602 84.7121C73.4044 85.0007 73.4715 85.4129 73.5636 85.9132C73.7474 86.9118 74.0325 88.27 74.4372 89.6988C74.8403 91.122 75.3709 92.647 76.0551 93.9649C76.726 95.2573 77.612 96.4838 78.7916 97.1391L79.2772 96.2649L79.7628 95.3907C79.0999 95.0225 78.4406 94.2195 77.8301 93.0434C77.2328 91.8927 76.7457 90.5102 76.3615 89.1537C75.9789 87.8029 75.7069 86.5093 75.5305 85.5511C75.4425 85.073 75.3787 84.6805 75.3371 84.409C75.3163 84.2733 75.301 84.168 75.2911 84.0974C75.2861 84.0621 75.2825 84.0355 75.2802 84.0181C75.279 84.0095 75.2781 84.0031 75.2776 83.9991C75.2774 83.9971 75.2772 83.9957 75.2771 83.995C75.277 83.9946 75.277 83.9943 75.277 83.9942C75.277 83.9942 75.277 83.9942 75.277 83.9942C75.277 83.9943 75.277 83.9944 74.2853 84.1228ZM79.2772 96.2649L78.7915 97.139C80.4944 98.0851 82.7389 98.3879 85.0238 98.3773C87.3335 98.3667 89.8121 98.0338 92.0721 97.6032C94.3368 97.1717 96.4094 96.6367 97.9143 96.2103C98.6675 95.9969 99.2804 95.8102 99.7063 95.6763C99.9193 95.6094 100.086 95.5557 100.199 95.5184C100.256 95.4998 100.3 95.4853 100.33 95.4753C100.345 95.4703 100.357 95.4664 100.365 95.4638C100.369 95.4624 100.372 95.4614 100.374 95.4606C100.375 95.4603 100.376 95.46 100.377 95.4597C100.377 95.4596 100.377 95.4595 100.377 95.4595C100.378 95.4594 100.378 95.4593 100.057 94.5122C99.7358 93.5652 99.7359 93.5651 99.7359 93.5651C99.7358 93.5651 99.7358 93.5652 99.7357 93.5652C99.7354 93.5653 99.7349 93.5654 99.7342 93.5657C99.7328 93.5662 99.7305 93.5669 99.7274 93.568C99.721 93.5701 99.7111 93.5735 99.6978 93.5779C99.6712 93.5868 99.6308 93.6001 99.5774 93.6176C99.4706 93.6526 99.3118 93.7039 99.1067 93.7683C98.6965 93.8972 98.1019 94.0784 97.3691 94.2861C95.9019 94.7018 93.8886 95.2211 91.6978 95.6385C89.5022 96.0568 87.1556 96.3675 85.0146 96.3773C82.8488 96.3873 81.0173 96.0877 79.7629 95.3907L79.2772 96.2649ZM100.057 94.5122H99.0568V117.795H100.057H101.057V94.5122H100.057ZM100.057 117.795C99.976 118.792 99.9761 118.792 99.9763 118.792C99.9764 118.792 99.9766 118.792 99.9767 118.792C99.9771 118.792 99.9774 118.792 99.9779 118.792C99.9789 118.792 99.9801 118.792 99.9816 118.792C99.9846 118.793 99.9887 118.793 99.9939 118.793C100.004 118.794 100.019 118.795 100.038 118.797C100.076 118.799 100.131 118.803 100.202 118.808C100.343 118.816 100.547 118.827 100.804 118.838C101.316 118.858 102.04 118.874 102.892 118.858C104.587 118.826 106.83 118.666 108.936 118.14L108.694 117.169L108.451 116.199C106.552 116.674 104.477 116.827 102.854 116.858C102.048 116.873 101.364 116.858 100.882 116.839C100.642 116.83 100.453 116.819 100.325 116.811C100.262 116.807 100.213 116.804 100.181 116.802C100.166 116.801 100.154 116.8 100.147 116.799C100.143 116.799 100.14 116.799 100.139 116.799C100.138 116.799 100.138 116.799 100.137 116.799C100.137 116.799 100.137 116.799 100.137 116.799C100.137 116.799 100.137 116.799 100.137 116.799C100.137 116.799 100.138 116.799 100.057 117.795ZM108.694 117.169H109.694V88.0588H108.694H107.694V117.169H108.694ZM108.694 88.0588H109.694C109.694 84.5384 106.504 81.8785 103.041 82.5111L103.221 83.4948L103.4 84.4786C105.635 84.0703 107.694 85.7869 107.694 88.0588H108.694ZM103.221 83.4948L103.041 82.5111L88.9864 85.0788L89.1661 86.0625L89.3458 87.0462L103.4 84.4786L103.221 83.4948ZM89.1661 86.0625L89.3753 85.0847L77.0129 82.4402L76.8037 83.418L76.5946 84.3959L88.9569 87.0404L89.1661 86.0625Z" fill="#2C1106" mask="url(#path-164-inside-16_10331_48649)"/>
<path d="M75.0656 59.1738C77.3215 59.2584 80.2539 59.9242 82.7384 61.041C83.9789 61.5986 85.0893 62.2606 85.9435 63.0029C86.8 63.7473 87.3712 64.5486 87.589 65.3809V65.3818C87.7866 66.1287 87.9426 67.4658 88.0636 69.1611V69.1621C88.1996 71.007 88.288 73.2307 88.3458 75.4648C88.3667 76.2901 88.3846 77.1154 88.3986 77.9238C88.4378 80.2355 88.45 82.4023 88.4523 83.9912C88.4534 84.7856 88.4529 85.4356 88.4513 85.8867C88.4509 86.0066 88.4498 86.1124 88.4493 86.2031C88.3647 86.2242 88.2666 86.2495 88.1554 86.2764C87.7266 86.38 87.1073 86.5238 86.3488 86.6836C84.8304 87.0034 82.7569 87.3863 80.5353 87.6416C78.3108 87.8973 75.9539 88.0224 73.8615 87.834C71.8716 87.6547 70.1933 87.1969 69.0822 86.3652C69.0886 86.2649 69.0969 86.1372 69.1066 85.9844C69.1327 85.5703 69.1703 84.9714 69.215 84.2334C69.3043 82.7575 69.4234 80.723 69.5411 78.4902C69.7763 74.0299 70.0077 68.7607 69.9904 65.5713V65.5703C69.9862 64.9554 70.2126 63.2704 70.9904 61.7773C71.711 60.3941 72.8576 59.2489 74.6896 59.1738H75.0656Z" stroke="#2C1106"/>
<path d="M86.026 66.4824L88.0719 69.3008C88.1687 70.6518 88.2418 72.1968 88.2955 73.7959L88.3453 75.4648C88.3603 76.0559 88.3707 76.6467 88.3824 77.2314C87.0596 76.7901 85.7732 76.1278 84.7242 75.1406L84.5533 74.9736C82.8143 73.2294 82.083 70.7718 81.8014 68.668C81.6572 67.59 81.6337 66.624 81.6461 65.9277C81.6497 65.7257 81.6561 65.5465 81.6637 65.3945L86.026 66.4824Z" stroke="#2C1106"/>
<path d="M106.235 61.7734C106.221 61.8058 106.207 61.8402 106.191 61.876C106.048 62.2036 105.842 62.6723 105.591 63.2363C105.09 64.3649 104.409 65.8737 103.687 67.3965C102.965 68.9212 102.205 70.4524 101.548 71.6289C101.22 72.2182 100.923 72.7082 100.673 73.0605C100.548 73.2372 100.442 73.369 100.356 73.459C100.288 73.5303 100.252 73.5535 100.247 73.5576C100.064 73.6229 99.6634 73.6828 99.068 73.7207C98.4847 73.7578 97.7755 73.7725 97.0338 73.7725L96.1842 73.7656C95.3341 73.7538 94.4979 73.7279 93.819 73.7021C93.4508 73.6882 93.1292 73.6727 92.8776 73.6611L94.2672 67.1357L95.4449 67.2988L98.2369 67.6836L98.5377 67.7256L98.7135 67.4775L103.745 60.3711L106.235 61.7734Z" stroke="#2C1106"/>
<path d="M109.17 57.627L108.398 57.1309L108.413 58.0635V58.0879C108.413 58.1072 108.413 58.1377 108.412 58.1768C108.409 58.2549 108.403 58.369 108.39 58.5078C108.364 58.788 108.31 59.1593 108.198 59.5342C107.966 60.3095 107.545 60.9401 106.791 61.0654C105.952 61.2045 105.281 60.8427 104.787 60.3955C104.541 60.173 104.35 59.9384 104.221 59.7588C104.157 59.6697 104.11 59.5953 104.079 59.5449C104.063 59.5201 104.052 59.5012 104.046 59.4893C104.042 59.4833 104.039 59.4788 104.038 59.4766V59.4756L104.032 59.4648L104.025 59.4531L104.024 59.4512C104.021 59.4461 104.016 59.4365 104.008 59.4229C103.994 59.3956 103.971 59.3517 103.944 59.292C103.889 59.1716 103.815 58.9878 103.748 58.749C103.613 58.272 103.504 57.5746 103.619 56.7139C103.733 55.8582 104.002 55.4238 104.194 55.2119C104.292 55.104 104.378 55.0449 104.429 55.0156C104.455 55.0009 104.473 54.9931 104.48 54.9902V54.9893L104.76 54.915L104.825 54.6172V54.6162C104.825 54.6151 104.825 54.6128 104.826 54.6104C104.827 54.6055 104.829 54.5978 104.832 54.5879C104.836 54.5677 104.843 54.5373 104.852 54.498C104.871 54.4187 104.899 54.3024 104.936 54.1592C105.011 53.8724 105.121 53.4777 105.264 53.0459C105.527 52.2551 105.88 51.4058 106.291 50.8457C106.285 50.8891 106.281 50.9332 106.274 50.9766C106.256 51.0803 106.237 51.1751 106.217 51.25C106.208 51.2875 106.198 51.3179 106.191 51.3408C106.183 51.3655 106.18 51.3741 106.181 51.3711C106.086 51.5798 105.923 52.0936 105.795 52.5107C105.727 52.7288 105.665 52.9356 105.62 53.0879C105.597 53.1641 105.579 53.2269 105.566 53.2705C105.56 53.2923 105.555 53.3096 105.551 53.3213C105.55 53.3268 105.548 53.331 105.547 53.334C105.547 53.3355 105.547 53.3371 105.547 53.3379L105.546 53.3389L105.036 55.0908L106.365 53.8467C106.37 53.8428 106.379 53.8356 106.391 53.8271C106.419 53.8079 106.46 53.7849 106.506 53.7676C106.591 53.7362 106.687 53.725 106.808 53.7949C106.895 53.8452 106.926 53.9108 106.936 54.001C106.942 54.0494 106.939 54.0969 106.934 54.1328C106.932 54.1487 106.93 54.161 106.928 54.168H106.929V54.167L107.865 54.5107L107.864 54.5117V54.5127L107.863 54.5156C107.862 54.5173 107.861 54.5189 107.86 54.5205C107.858 54.5236 107.857 54.5267 107.856 54.5293C107.853 54.5345 107.851 54.5391 107.848 54.543C107.844 54.5507 107.838 54.5577 107.834 54.5635C107.824 54.5744 107.809 54.5889 107.785 54.5996C107.705 54.6355 107.72 54.5624 107.926 54.6924C108.076 54.7868 108.086 54.8692 108.089 54.9111C108.091 54.9438 108.086 54.9755 108.081 54.999C108.079 55.0072 108.076 55.013 108.075 55.0166L108.076 55.0156L107.494 56.3301L108.766 55.6543C108.772 55.652 108.782 55.6489 108.795 55.6445C108.825 55.6343 108.865 55.6248 108.906 55.623C108.967 55.6205 109.044 55.628 109.133 55.751C109.266 55.9348 109.407 56.3397 109.457 56.7822C109.481 56.9947 109.48 57.1885 109.458 57.3398C109.447 57.4147 109.432 57.4714 109.417 57.5107C109.403 57.5458 109.392 57.5587 109.391 57.5596C109.304 57.6532 109.252 57.6465 109.232 57.6445C109.212 57.6426 109.192 57.6366 109.178 57.6309C109.172 57.6283 109.169 57.626 109.169 57.626L109.17 57.627ZM108.77 55.6533H108.769L108.768 55.6543H108.765L108.77 55.6523V55.6533ZM104.476 54.9912C104.475 54.9916 104.473 54.9927 104.471 54.9932H104.469L104.467 54.9941H104.466L104.465 54.9932L104.475 54.9912H104.476ZM109.18 57.6328L109.182 57.6348L109.174 57.6299L109.18 57.6328Z" stroke="#2C1106"/>
<path d="M106.026 53.4785C106.026 53.4785 105.392 54.2531 105.345 55.0043" stroke="#2C1106" stroke-width="0.75" stroke-miterlimit="10" stroke-linecap="round"/>
<path d="M107.411 54.3008C107.411 54.3008 106.671 54.7584 106.523 55.7679" stroke="#2C1106" stroke-width="0.75" stroke-miterlimit="10" stroke-linecap="round"/>
<path d="M108.537 55.2109C108.537 55.2109 107.786 56.0612 107.786 56.8124" stroke="#2C1106" stroke-width="0.75" stroke-miterlimit="10" stroke-linecap="round"/>
<path d="M108.913 58.0566C108.913 58.0566 108.655 57.4345 108.749 56.8125" stroke="#2C1106" stroke-width="0.75" stroke-miterlimit="10" stroke-linecap="round"/>
<path d="M108.753 57.434C108.753 57.434 108.85 57.1328 109.241 57.0703" stroke="#2C1106" stroke-width="0.75" stroke-miterlimit="10" stroke-linecap="round"/>
<path d="M95.1603 67.2588C95.7205 68.6131 96.5791 71.1326 96.548 73.7676C95.5756 73.7589 94.595 73.7316 93.8195 73.7021C93.4513 73.6882 93.1297 73.6737 92.8781 73.6621L94.2677 67.1357L95.1603 67.2588Z" stroke="#2C1106"/>
<path d="M83.7999 62.2998C84.262 62.2876 84.7672 62.3606 85.2462 62.4697C85.7225 62.5782 86.1566 62.7188 86.4728 62.833C86.6302 62.8899 86.7571 62.9403 86.8439 62.9756C86.8872 62.9932 86.9206 63.0073 86.9425 63.0166C86.9534 63.0213 86.9618 63.0242 86.9669 63.0264C86.968 63.0268 86.969 63.027 86.9698 63.0273V63.0283L93.6378 66.0439C94.4328 68.0771 94.4048 70.3509 94.1534 72.168C94.0249 73.0973 93.8408 73.894 93.6886 74.457C93.6365 74.6498 93.5868 74.8149 93.546 74.9482C93.355 74.9179 93.1027 74.8779 92.8029 74.8213C92.0862 74.6859 91.0987 74.4705 90.0167 74.1533C87.8291 73.5121 85.3473 72.4783 83.881 70.9102C82.4077 69.3343 81.7892 67.451 81.7159 65.8418C81.6793 65.0365 81.7798 64.3121 81.9689 63.7393C82.1614 63.1562 82.4281 62.7778 82.6857 62.5977C82.9543 62.4097 83.3335 62.3122 83.7999 62.2998Z" stroke="#2C1106"/>
<path d="M67.8691 89.1094L68.1934 91.2324L69.1572 97.5508H67.8428L66.876 91.083L66.5811 89.1094H67.8691Z" stroke="#2C1106"/>
<path d="M67.8691 89.1094L68.1055 90.6572H66.8125L66.5811 89.1094H67.8691Z" stroke="#2C1106"/>
<path d="M78.5859 89.1094L78.9102 91.2324L79.8711 97.5508H78.5596L77.5928 91.083L77.2979 89.1094H78.5859Z" stroke="#2C1106"/>
<path d="M78.5859 89.1094L78.8223 90.6572H77.5293L77.2979 89.1094H78.5859Z" stroke="#2C1106"/>
<path d="M78.1205 74.375L80.5502 88.4482H65.475L63.0453 74.375H78.1205Z" stroke="#2C1106"/>
<path d="M75.7778 74.375L78.2075 88.4482H63.1313L60.7026 74.375H75.7778Z" stroke="#2C1106"/>
<path d="M70.9321 99.9492L67.564 122.499H66.2075L69.645 99.9492H70.9321Z" stroke="#2C1106"/>
<path d="M77.8247 99.9492L74.4565 122.499H73.1001L76.5376 99.9492H77.8247Z" stroke="#2C1106"/>
<path d="M95.2075 99.9492L98.644 122.499H97.2886L93.9194 99.9492H95.2075Z" stroke="#2C1106"/>
<path d="M85.3711 99.9492L88.8076 122.499H87.4521L84.083 99.9492H85.3711Z" stroke="#2C1106"/>
<path d="M65.7686 97.4375H97.0723C97.7476 97.4375 98.2948 97.9849 98.2949 98.6602V98.6611C98.2949 99.3361 97.748 99.8838 97.0723 99.8838H65.7686C65.0933 99.8836 64.5459 99.3355 64.5459 98.6602C64.5461 97.985 65.0934 97.4377 65.7686 97.4375Z" stroke="#2C1106"/>
<path d="M63.7007 26.9219H72.7388C75.3855 26.9216 77.5336 29.069 77.5337 31.7158C77.5337 33.0387 76.9969 34.2398 76.1304 35.1104C75.2594 35.9778 74.0618 36.5146 72.7388 36.5146H65.6763L65.5835 36.5527L61.146 38.4082L62.1772 36.9395L62.5435 36.4189L61.9507 36.1865C60.1658 35.4881 58.902 33.7484 58.9019 31.7168C58.9019 30.3943 59.4384 29.1971 60.3052 28.3262C61.176 27.4589 62.3736 26.9219 63.7007 26.9219Z" stroke="#2C1106"/>
<path d="M64.9404 31.1152V32.4795H63.5762V31.1152H64.9404Z" stroke="#2C1106"/>
<path d="M69.2494 31.1152V32.4795H67.8851V31.1152H69.2494Z" stroke="#2C1106"/>
<path d="M73.681 31.1152V32.4795H72.3168V31.1152H73.681Z" stroke="#2C1106"/>
<path d="M97.3484 26.9219H106.386C109.033 26.9216 111.181 29.069 111.181 31.7158C111.181 33.0387 110.645 34.2398 109.778 35.1104C108.907 35.9778 107.71 36.5146 106.386 36.5146H99.324L99.2312 36.5527L94.7937 38.4082L95.825 36.9395L96.1912 36.4189L95.5984 36.1865C93.8135 35.4881 92.5497 33.7484 92.5496 31.7168C92.5496 30.3943 93.0861 29.1971 93.9529 28.3262C94.8237 27.4589 96.0213 26.9219 97.3484 26.9219Z" stroke="#2C1106"/>
<path d="M98.4744 31.1152V32.4795H97.1101V31.1152H98.4744Z" stroke="#2C1106"/>
<path d="M102.783 31.1152V32.4795H101.419V31.1152H102.783Z" stroke="#2C1106"/>
<path d="M107.215 31.1152V32.4795H105.851V31.1152H107.215Z" stroke="#2C1106"/>
</svg>
