<svg width="154" height="154" viewBox="0 0 154 154" fill="none" xmlns="http://www.w3.org/2000/svg">
<path d="M68.335 1.5918C73.0585 1.09166 102.285 -1.53726 126.101 18.415C129.508 21.2699 134.995 26.4212 140.083 34.2793C149.388 48.6507 154.063 66.9825 153.445 84.7773C152.827 102.573 146.918 119.785 135.112 131.953C131.142 136.046 127.591 138.452 124.853 140.28C98.2498 158.043 67.8162 152.931 58.3604 151.171C43.0548 148.322 30.3177 146.332 19.3662 136.438C6.91556 125.189 0.959294 107.796 0.525391 89.5127C0.0915946 71.232 5.18227 52.1302 14.7373 37.5312C15.8657 35.8072 21.2091 27.8598 30.085 19.8477C38.9633 11.8332 51.343 3.78334 66.5459 1.7959C67.2889 1.69877 67.8423 1.64397 68.335 1.5918Z" stroke="black"/>
<path d="M67.447 23.5273C67.4538 23.5273 67.4601 23.5296 67.4666 23.5361C67.4731 23.5427 67.4764 23.5502 67.4763 23.5586L66.9324 57.9736C59.039 59.0178 52.2595 64.0057 48.4861 71.04L15.8601 58.6455C15.8145 58.6281 15.7959 58.5765 15.8132 58.5371C25.0894 37.7712 44.9551 23.771 67.447 23.5273Z" stroke="black"/>
<path d="M93.5686 88.8613L124.133 89.6855C121.391 118.492 98.8397 141.624 70.1956 143.46C60.4344 144.086 52.6583 143.031 44.4504 139.019L61.6584 107.637L61.6594 107.638C61.7248 107.519 61.8676 107.465 61.9963 107.513C62.1941 107.587 62.3958 107.66 62.6008 107.729C69.6571 110.087 78.1442 109.214 84.0745 104.412C86.4098 102.521 88.2948 100.139 89.7639 97.5527C90.5561 96.158 91.2315 94.7007 91.8069 93.21C91.8738 93.0367 92.0886 92.3355 92.3254 91.5596C92.5674 90.7667 92.8422 89.8609 93.0364 89.2402C93.1085 89.0096 93.3253 88.8548 93.5686 88.8613Z" stroke="black"/>
<path d="M124.563 89.4961C121.819 118.318 99.2644 142.15 70.6287 143.985C60.8967 144.609 51.5829 142.634 43.3005 138.58L60.9783 108.172C61.0194 108.101 61.1016 108.077 61.1648 108.103C64.1048 109.293 68.0915 110.07 71.449 109.956C83.2571 109.555 91.9375 100.473 94.0007 88.8701L124.563 89.4961Z" stroke="black"/>
<path d="M45.4626 77.4883C45.3545 78.4046 45.4713 79.4622 45.6121 80.4609C45.782 81.6664 45.9861 82.7944 45.9861 83.7139C45.9861 91.7491 50.3786 97.9169 55.7908 102.475C55.8033 102.485 55.8035 102.499 55.7986 102.508L38.4216 133.674C38.2095 134.054 37.7164 134.169 37.3601 133.922C22.1356 123.372 11.0507 105.018 11.0505 84.1611C11.0505 77.8881 11.9703 71.8288 13.6726 66.1211L45.4626 77.4883Z" stroke="black"/>
<path d="M46.5115 76.6758C46.1688 78.3914 45.9861 80.167 45.9861 81.9844C45.9862 89.8339 49.3351 96.7998 54.6082 101.438C54.7672 101.577 54.8056 101.812 54.697 101.998L36.9578 132.319C21.4184 121.863 11.0505 103.611 11.0505 82.4307C11.0506 76.1602 11.9667 70.103 13.6677 64.3975L46.5115 76.6758Z" stroke="black"/>
<path d="M75.208 0.564453C114.648 5.51385 144.077 40.7613 144.328 81.9531C144.3 81.9808 144.272 82.0074 144.243 82.0352L94.6025 80.373C94.2676 80.3618 93.9888 80.1071 93.9463 79.7676C92.5854 68.8665 84.6367 60.0889 74.3018 58.1621L75.208 0.564453Z" stroke="black"/>
<path d="M94.8204 18.3462C99.3365 13.83 106.659 13.8301 111.175 18.3462C115.691 22.8624 115.691 30.1844 111.175 34.7007C106.659 39.2168 99.3365 39.2168 94.8204 34.7007C90.3043 30.1845 90.3043 22.8624 94.8204 18.3462Z" stroke="black"/>
<path d="M95.478 19.1534C99.5679 15.0636 106.199 15.0637 110.288 19.1534C114.378 23.2433 114.378 29.8739 110.288 33.9638C106.199 38.0535 99.5679 38.0536 95.478 33.9638C91.3884 29.874 91.3884 23.2432 95.478 19.1534Z" stroke="black"/>
<mask id="mask0_10331_47932" style="mask-type:luminance" maskUnits="userSpaceOnUse" x="91" y="15" width="23" height="23">
<path d="M95.5411 19.2412C99.6309 15.1514 106.262 15.1514 110.352 19.2412C114.442 23.3311 114.442 29.9619 110.352 34.0518C106.262 38.1416 99.6309 38.1416 95.5411 34.0518C91.4513 29.9619 91.4513 23.331 95.5411 19.2412Z" fill="white" stroke="white"/>
</mask>
<g mask="url(#mask0_10331_47932)">
<path d="M96.6772 36.0801C96.6653 36.1284 96.6526 36.1851 96.6372 36.249C96.6002 36.4026 96.5564 36.6 96.5044 36.8311H93.5796C93.2742 36.8311 93.0387 36.5616 93.0796 36.2588C93.3713 34.1123 93.7575 32.8159 94.0591 32.0693C94.0955 31.9792 94.13 31.8967 94.1636 31.8223L96.6772 36.0801Z" stroke="black"/>
<path d="M111.22 31.792C111.296 31.9212 111.379 32.0653 111.464 32.2256C111.928 33.1 112.5 34.4413 112.913 36.2822C112.976 36.5631 112.762 36.8301 112.474 36.8301H109.7L111.22 31.792Z" stroke="black"/>
<path d="M102.284 28.5439C103.225 28.4899 104.422 28.508 105.508 28.7773L105.529 28.7832L105.551 28.7861C106.484 28.9312 108.775 29.4227 110.482 30.8193L109.255 35.5898C109.087 36.0638 108.952 36.4937 108.843 36.8984C104.157 37.8062 100.207 37.9351 97.29 36.9443C97.1783 36.5578 97.048 36.1768 96.8945 35.8047L96.8896 35.7949L94.7793 30.9912C94.8288 30.9549 94.8832 30.9131 94.9443 30.8701C95.2498 30.6554 95.6959 30.3649 96.2529 30.0664C97.3711 29.4672 98.9145 28.8468 100.651 28.7256L100.681 28.7236L100.71 28.7188C100.711 28.7186 100.712 28.7181 100.714 28.7178C100.718 28.717 100.725 28.7155 100.734 28.7139C100.753 28.7106 100.781 28.7062 100.817 28.7002C100.891 28.6881 101.001 28.671 101.141 28.6523C101.42 28.615 101.817 28.5708 102.284 28.5439Z" stroke="black"/>
<path d="M104.267 26.2383L104.591 28.4424C104.597 28.4847 104.572 28.5207 104.541 28.5322C103.417 28.9346 102.193 28.631 101.564 28.4092C101.528 28.3965 101.506 28.363 101.507 28.3271L101.571 26.2383H104.267Z" stroke="black"/>
<path d="M103.265 19.7979C104.05 19.8632 104.759 20.2272 105.288 20.5977C105.549 20.7805 105.758 20.9588 105.901 21.0908C105.923 21.1114 105.943 21.1323 105.962 21.1504C105.952 21.2528 105.941 21.3865 105.925 21.5439C105.885 21.9262 105.825 22.4477 105.741 23.0049C105.657 23.5632 105.552 24.1502 105.423 24.667C105.323 25.0645 105.216 25.3936 105.108 25.6309L105 25.8369C104.684 26.342 104.237 26.6656 103.84 26.8643C103.642 26.963 103.462 27.0276 103.327 27.0674C103.213 27.1009 103.153 27.1099 103.144 27.1123C103.062 27.1119 102.731 27.1058 102.361 26.9727C101.979 26.8348 101.578 26.5721 101.345 26.0498C101.08 25.4516 100.895 24.3195 100.781 23.2705C100.725 22.7594 100.688 22.2888 100.665 21.9463C100.653 21.7754 100.645 21.6367 100.639 21.541C100.637 21.4932 100.635 21.4556 100.634 21.4307C100.633 21.4252 100.633 21.4203 100.633 21.416C100.633 21.3605 100.665 21.2186 100.796 21.0127C100.92 20.8175 101.108 20.6033 101.352 20.4082C101.841 20.0173 102.511 19.735 103.265 19.7979Z" stroke="black"/>
<path d="M106.404 22.7266C106.371 22.8863 106.324 23.0631 106.261 23.2393C106.2 23.411 106.128 23.5699 106.054 23.7061C106.093 23.4962 106.152 23.2814 106.203 23.1143C106.228 23.0308 106.251 22.9611 106.267 22.9131C106.269 22.9085 106.27 22.9036 106.271 22.8994C106.287 22.8774 106.308 22.8495 106.333 22.8174C106.355 22.7889 106.378 22.758 106.404 22.7266Z" stroke="black"/>
<path d="M99.9236 22.7803C99.9842 22.8483 100.041 22.915 100.088 22.9736C100.099 22.9875 100.109 23.0011 100.119 23.0137V23.2939C100.107 23.2668 100.093 23.2397 100.081 23.2119C100.018 23.0646 99.9649 22.9175 99.9236 22.7803Z" stroke="black"/>
<path d="M102.923 16.7383C103.237 16.7023 103.566 16.7526 103.868 16.8789C103.99 16.9301 104.156 17.0562 104.321 17.2432C104.483 17.4262 104.607 17.6257 104.669 17.7783C104.678 17.8018 104.71 17.8842 104.758 17.9609C104.809 18.0439 104.908 18.1672 105.08 18.2344C105.216 18.2875 105.34 18.282 105.417 18.2715C105.485 18.262 105.555 18.2412 105.566 18.2383L105.565 18.2373C105.768 18.1833 106.003 18.24 106.186 18.3857C106.366 18.5293 106.457 18.7269 106.435 18.9268C106.406 19.2028 106.376 19.513 106.389 19.8311C106.402 20.1177 106.414 20.3409 106.41 20.5566C106.405 20.8468 106.371 21.1107 106.262 21.4287C106.198 21.619 106.117 21.8322 106.038 22.0586C105.974 21.9253 105.898 21.7716 105.825 21.6152C105.75 21.4552 105.686 21.3114 105.648 21.21C105.628 21.1555 105.624 21.1369 105.625 21.1426C105.625 21.1462 105.628 21.1563 105.629 21.1709C105.63 21.1846 105.631 21.2122 105.627 21.248C105.621 21.2972 105.582 21.5259 105.336 21.6289L104.95 20.7061C104.808 20.7653 104.612 20.7895 104.404 20.7598C104.196 20.73 104.019 20.6526 103.905 20.5566C103.903 20.5542 103.893 20.5448 103.874 20.5205C103.856 20.4988 103.807 20.435 103.761 20.3848C103.666 20.2807 103.491 20.1274 103.226 20.1084L103.107 20.1094C102.974 20.1199 102.856 20.1623 102.771 20.1982C102.683 20.2359 102.597 20.2818 102.527 20.3203C102.357 20.4139 102.285 20.4561 102.235 20.4717C102.099 20.5142 102.035 20.5198 101.999 20.5146C101.933 20.5051 101.846 20.4502 101.645 20.2627L101.252 19.8965L100.915 20.3154C100.851 20.3943 100.785 20.4463 100.653 20.5635C100.564 20.6422 100.452 20.746 100.353 20.8877L100.26 21.042C100.139 21.276 100.058 21.5231 100.012 21.7734C100 21.7542 99.9864 21.7349 99.9734 21.7139C99.7589 21.3666 99.7529 21.2186 99.8083 21.1084C99.8176 21.09 99.8244 21.0796 99.8513 21.0322C99.8726 20.9948 99.906 20.9345 99.9333 20.8623C100.026 20.6181 100.001 20.3846 99.9548 20.207C99.9096 20.0346 99.8332 19.8764 99.78 19.7686C99.5977 19.3986 99.4884 19.1252 99.5027 18.8721C99.5135 18.6812 99.6301 18.4766 99.8259 18.334C99.8842 18.2916 99.9747 18.2617 100.144 18.2539C100.228 18.2501 100.319 18.2522 100.426 18.2559C100.526 18.2593 100.647 18.2643 100.764 18.2627C100.782 18.2625 100.973 18.2707 101.146 18.1611C101.336 18.0416 101.411 17.8386 101.413 17.834C101.681 17.2463 102.281 16.8118 102.923 16.7383Z" stroke="black"/>
</g>
<path d="M119.452 12.9665C123.574 8.84457 130.257 8.84411 134.379 12.9658C138.501 17.0878 138.501 23.7716 134.379 27.8936C130.257 32.0153 123.574 32.0148 119.452 27.8929C115.331 23.771 115.331 17.0884 119.452 12.9665Z" stroke="black"/>
<path d="M126.812 10.9062C132.089 10.9062 136.367 15.184 136.367 20.4609C136.367 25.7379 132.089 30.0156 126.812 30.0156C121.536 30.0156 117.258 25.7379 117.258 20.4609C117.258 15.184 121.536 10.9063 126.812 10.9062Z" stroke="black"/>
<mask id="mask1_10331_47932" style="mask-type:luminance" maskUnits="userSpaceOnUse" x="116" y="10" width="21" height="21">
<path d="M126.87 10.9844C132.147 10.9844 136.425 15.2621 136.425 20.5391C136.425 25.816 132.147 30.0938 126.87 30.0938C121.593 30.0937 117.315 25.816 117.315 20.5391C117.315 15.2622 121.593 10.9844 126.87 10.9844Z" fill="white" stroke="white"/>
</mask>
<g mask="url(#mask1_10331_47932)">
<path d="M126.253 13.2129C126.799 13.1035 127.161 13.1002 127.532 13.2998C127.94 13.5195 128.351 13.4416 128.554 13.416C128.73 13.394 128.816 13.3928 128.885 13.418L128.951 13.4521C129.281 13.672 129.559 14.0393 129.765 14.4482C130.031 14.9755 130.176 15.5709 130.305 16.2158C130.337 16.3767 130.339 16.4267 130.333 16.4541C130.327 16.4771 130.31 16.5148 130.236 16.6299C129.767 17.3565 129.208 17.7753 128.435 17.7754H124.657C124.284 17.7754 124.062 17.7907 123.871 17.7383C123.793 17.7171 123.745 17.6895 123.709 17.6562C123.674 17.6231 123.627 17.5611 123.586 17.4355C123.396 16.8502 123.451 16.0682 123.725 15.3203C123.999 14.5722 124.461 13.9449 124.982 13.6279C125.33 13.416 125.754 13.3132 126.253 13.2129Z" stroke="black"/>
<path d="M126.096 17.3242L125.674 24.0166C125.66 24.0538 125.642 24.1079 125.616 24.1748C125.562 24.3165 125.482 24.5185 125.38 24.7578C125.174 25.2393 124.88 25.8621 124.525 26.4424C124.165 27.032 123.766 27.5335 123.366 27.8184C122.989 28.087 122.673 28.128 122.348 27.9482C122.208 27.8708 122.053 27.7161 121.901 27.4736C121.752 27.2357 121.625 26.9438 121.524 26.6377C121.425 26.3329 121.356 26.0273 121.319 25.7686C121.28 25.4949 121.283 25.3207 121.295 25.2578C121.355 24.9453 121.394 24.5629 121.17 24.2451C121.011 24.019 120.768 23.9025 120.54 23.8281L120.321 23.7656C120.082 23.7042 119.893 23.5583 119.763 23.2695C119.623 22.9594 119.549 22.4688 119.624 21.7432C119.674 21.2617 119.966 20.8683 120.419 20.5576C120.819 20.2838 121.311 20.0993 121.762 20.0039L121.952 19.9688C122.273 19.9172 122.471 19.6855 122.58 19.5156C122.696 19.3343 122.779 19.1191 122.839 18.9219C122.96 18.5227 123.024 18.0811 123.053 17.8379C123.122 17.2515 123.616 17.0519 124.119 16.7988C124.36 16.6778 124.547 16.5545 124.688 16.4287L126.096 17.3242Z" stroke="black"/>
<path d="M129.335 15.8252C129.478 15.9567 129.668 16.0863 129.914 16.2148C130.417 16.478 130.938 16.6941 131.011 17.3408C131.04 17.5963 131.092 17.949 131.214 18.2588C131.329 18.5503 131.571 18.9629 132.067 19.0459C132.947 19.1928 134.116 20.0906 134.371 22.043C134.469 22.7962 134.409 23.5724 134.24 24.1699C134.155 24.4687 134.048 24.7026 133.936 24.8633C133.85 24.9864 133.777 25.0448 133.727 25.0713L133.685 25.0889C133.579 25.1171 133.509 25.1222 133.463 25.124C133.451 25.1245 133.438 25.1248 133.424 25.125C133.413 25.1252 133.392 25.1254 133.374 25.126C133.361 25.1264 133.242 25.1262 133.123 25.1826C133.046 25.2192 132.964 25.2804 132.904 25.373C132.847 25.4603 132.827 25.5462 132.82 25.6055C132.808 25.7053 132.825 25.7969 132.831 25.8262C132.838 25.8679 132.85 25.9217 132.86 25.9678C132.871 26.0191 132.884 26.08 132.898 26.1543V26.1553C132.846 26.1756 132.777 26.205 132.668 26.25C132.491 26.3232 132.269 26.4241 132 26.5791C131.609 26.8035 131.226 26.792 130.824 26.6191C130.4 26.4371 129.974 26.08 129.581 25.6475C129.193 25.2204 128.865 24.7502 128.632 24.3828C128.517 24.2002 128.426 24.045 128.365 23.9365C128.348 23.9069 128.334 23.8806 128.322 23.8584L127.893 16.7812L129.335 15.8252Z" stroke="black"/>
<path d="M127.472 23.3008C127.685 23.2818 127.88 23.2812 128.027 23.3057C128.067 23.3122 128.097 23.3204 128.119 23.3271C128.189 23.6985 128.247 24.0597 128.285 24.3418C128.289 24.3692 128.291 24.3961 128.295 24.4219L126.923 24.6787L125.821 24.4248L125.803 24.4141L125.736 23.751C125.763 23.7384 125.791 23.7242 125.821 23.7109C126.052 23.6082 126.347 23.4972 126.636 23.4434L126.652 23.4404L126.668 23.4365C126.668 23.4364 126.67 23.4358 126.671 23.4355C126.673 23.435 126.677 23.4348 126.682 23.4336C126.692 23.431 126.708 23.4267 126.729 23.4219C126.772 23.4121 126.833 23.3986 126.908 23.3838C127.06 23.3537 127.263 23.3193 127.472 23.3008Z" stroke="black"/>
<mask id="path-26-inside-1_10331_47932" fill="white">
<path d="M124.53 18.4679C124.53 18.4679 124.261 17.6583 123.856 17.9281C123.451 18.198 124.463 19.9202 124.463 19.9202L124.53 18.4679Z"/>
</mask>
<path d="M124.53 18.4679L125.529 18.5141L125.538 18.3282L125.479 18.1516L124.53 18.4679ZM123.856 17.9281L123.301 17.096L123.301 17.0961L123.856 17.9281ZM124.463 19.9202L123.601 20.427L125.307 23.3286L125.462 19.9664L124.463 19.9202ZM124.53 18.4679C125.479 18.1516 125.479 18.1514 125.479 18.1511C125.479 18.151 125.479 18.1508 125.479 18.1506C125.479 18.1502 125.479 18.1498 125.478 18.1494C125.478 18.1486 125.478 18.1478 125.478 18.1469C125.477 18.1451 125.476 18.1431 125.476 18.1409C125.474 18.1365 125.472 18.1312 125.47 18.1252C125.466 18.1131 125.46 18.0979 125.453 18.08C125.44 18.0444 125.421 17.9969 125.397 17.9419C125.351 17.8381 125.275 17.681 125.164 17.5234C125.067 17.3839 124.871 17.1381 124.551 16.9907C124.15 16.8057 123.689 16.8374 123.301 17.096L123.856 17.9281L124.41 18.7602C124.341 18.8066 124.228 18.8588 124.081 18.8707C123.933 18.8825 123.805 18.8492 123.713 18.8065C123.627 18.7668 123.575 18.7212 123.554 18.7006C123.531 18.679 123.523 18.6661 123.526 18.6703C123.533 18.6813 123.55 18.7097 123.567 18.7493C123.574 18.766 123.58 18.7796 123.583 18.7873C123.584 18.791 123.585 18.7928 123.585 18.7925C123.585 18.7924 123.584 18.7916 123.584 18.7902C123.584 18.7896 123.583 18.7887 123.583 18.7877C123.583 18.7872 123.583 18.7866 123.582 18.786C123.582 18.7857 123.582 18.7854 123.582 18.7851C123.582 18.785 123.582 18.7847 123.582 18.7846C123.582 18.7844 123.582 18.7841 124.53 18.4679ZM123.856 17.9281L123.301 17.0961C122.937 17.3389 122.813 17.7011 122.777 17.9412C122.742 18.173 122.769 18.3883 122.798 18.5403C122.857 18.8508 122.981 19.1729 123.091 19.4251C123.207 19.6902 123.334 19.9393 123.43 20.1184C123.478 20.209 123.52 20.2842 123.55 20.3374C123.565 20.3641 123.577 20.3854 123.586 20.4006C123.59 20.4082 123.594 20.4142 123.596 20.4187C123.598 20.4209 123.599 20.4227 123.6 20.4241C123.6 20.4248 123.6 20.4254 123.601 20.4258C123.601 20.4261 123.601 20.4263 123.601 20.4265C123.601 20.4266 123.601 20.4267 123.601 20.4268C123.601 20.4269 123.601 20.427 124.463 19.9202C125.325 19.4135 125.325 19.4136 125.326 19.4137C125.326 19.4137 125.326 19.4138 125.326 19.4138C125.326 19.4139 125.326 19.414 125.326 19.414C125.326 19.4141 125.326 19.4141 125.326 19.4139C125.326 19.4137 125.325 19.413 125.325 19.4119C125.323 19.4098 125.321 19.4062 125.318 19.4011C125.312 19.3909 125.303 19.375 125.291 19.354C125.268 19.312 125.233 19.2505 125.193 19.1754C125.112 19.0232 125.011 18.8248 124.924 18.6256C124.832 18.4136 124.779 18.2545 124.762 18.1662C124.753 18.1187 124.767 18.1553 124.754 18.2412C124.74 18.3355 124.674 18.5848 124.411 18.7602L123.856 17.9281ZM124.463 19.9202L125.462 19.9664L125.529 18.5141L124.53 18.4679L123.532 18.4217L123.464 19.8741L124.463 19.9202Z" fill="black" mask="url(#path-26-inside-1_10331_47932)"/>
<mask id="path-28-inside-2_10331_47932" fill="white">
<path d="M128.578 18.4665C128.578 18.4665 128.578 17.252 129.253 17.9267C129.927 18.6014 128.578 19.5459 128.578 19.5459V18.4665Z"/>
</mask>
<path d="M128.578 18.4665L127.578 18.4665V18.4665H128.578ZM128.578 19.5459H127.578V21.4666L129.152 20.3651L128.578 19.5459ZM128.578 18.4665C129.578 18.4665 129.578 18.4668 129.578 18.467C129.578 18.4671 129.578 18.4674 129.578 18.4675C129.578 18.4678 129.578 18.4682 129.578 18.4685C129.578 18.469 129.578 18.4696 129.578 18.47C129.578 18.471 129.578 18.4716 129.578 18.4721C129.578 18.4729 129.578 18.4728 129.578 18.4719C129.578 18.4699 129.578 18.4647 129.579 18.4569C129.579 18.4408 129.581 18.4165 129.584 18.3888C129.586 18.3604 129.59 18.3345 129.594 18.3139C129.599 18.2912 129.601 18.2891 129.596 18.3026C129.593 18.3103 129.586 18.3277 129.572 18.3517C129.559 18.3753 129.536 18.412 129.5 18.4539C129.464 18.4963 129.41 18.5486 129.334 18.5966C129.257 18.6458 129.164 18.686 129.059 18.707C128.954 18.728 128.856 18.726 128.773 18.712C128.692 18.6983 128.631 18.6743 128.593 18.6557C128.555 18.6373 128.534 18.6215 128.529 18.6178C128.524 18.6138 128.529 18.6175 128.546 18.6338L129.253 17.9267L129.96 17.2196C129.748 17.0079 129.288 16.6215 128.667 16.7459C128.034 16.8724 127.795 17.4123 127.729 17.5846C127.64 17.817 127.608 18.0507 127.594 18.1858C127.586 18.2613 127.582 18.3267 127.58 18.3743C127.579 18.3984 127.579 18.4186 127.578 18.4341C127.578 18.4419 127.578 18.4486 127.578 18.454C127.578 18.4567 127.578 18.4591 127.578 18.4612C127.578 18.4622 127.578 18.4632 127.578 18.4641C127.578 18.4645 127.578 18.4649 127.578 18.4653C127.578 18.4655 127.578 18.4658 127.578 18.4659C127.578 18.4662 127.578 18.4665 128.578 18.4665ZM129.253 17.9267L128.546 18.6338C128.527 18.6147 128.486 18.5645 128.461 18.4827C128.437 18.4025 128.44 18.3341 128.447 18.2944C128.456 18.2399 128.466 18.2654 128.384 18.3697C128.312 18.4604 128.217 18.5522 128.129 18.6276C128.087 18.6633 128.052 18.6912 128.028 18.709C128.017 18.7178 128.008 18.7239 128.004 18.727C128.002 18.7285 128.001 18.7293 128.001 18.7293C128.001 18.7293 128.001 18.729 128.002 18.7286C128.002 18.7284 128.003 18.7281 128.003 18.7278C128.003 18.7276 128.004 18.7275 128.004 18.7273C128.004 18.7272 128.004 18.727 128.004 18.727C128.004 18.7268 128.005 18.7267 128.578 19.5459C129.152 20.3651 129.152 20.365 129.152 20.3648C129.152 20.3647 129.152 20.3646 129.153 20.3645C129.153 20.3642 129.153 20.364 129.154 20.3637C129.154 20.3631 129.155 20.3625 129.156 20.3618C129.158 20.3605 129.16 20.3589 129.163 20.3571C129.168 20.3534 129.175 20.3488 129.182 20.3433C129.197 20.3322 129.217 20.3174 129.241 20.299C129.289 20.2625 129.354 20.2114 129.428 20.148C129.572 20.0252 129.772 19.8387 129.953 19.6089C130.124 19.3928 130.345 19.0556 130.417 18.6342C130.502 18.146 130.369 17.6288 129.96 17.2196L129.253 17.9267ZM128.578 19.5459H129.578V18.4665H128.578H127.578V19.5459H128.578Z" fill="black" mask="url(#path-28-inside-2_10331_47932)"/>
<path d="M133.528 26.1904C133.827 27.0586 134.165 28.253 134.443 29.5967C134.522 29.9769 134.231 30.3349 133.841 30.335H131.989C132.007 29.8679 132.058 29.4492 132.111 29.123C132.147 28.9055 132.182 28.7306 132.209 28.6113C132.222 28.5519 132.234 28.5064 132.241 28.4766C132.243 28.4701 132.244 28.4639 132.245 28.459L133.354 25.7148C133.409 25.8586 133.469 26.017 133.528 26.1904Z" stroke="black"/>
<path d="M122.685 28.999C122.686 29.0864 122.688 29.2168 122.688 29.3848C122.687 29.6278 122.679 29.9498 122.663 30.3359H121.533C121.187 30.3359 120.916 30.0403 120.944 29.6973C120.956 29.5631 120.967 29.4311 120.979 29.3018V29.3008C121.087 28.1737 121.195 27.3297 121.284 26.7246L122.685 28.999Z" stroke="black"/>
<path d="M127.508 21.3428C127.575 21.9333 127.681 22.6792 127.828 23.1953C127.987 23.7499 128.235 24.1048 128.479 24.3252C128.516 24.359 128.553 24.3881 128.589 24.415L128.025 30.3428H126.562L125.72 24.6084C125.987 23.9029 126.042 22.9415 126.042 22.1992C126.042 21.7907 126.025 21.4216 126.008 21.1543L127.456 20.833C127.471 20.9845 127.487 21.158 127.508 21.3428Z" stroke="black"/>
<path d="M129.288 30.3428H123.663L123.175 27.9287C125.29 28.4495 127.42 28.4594 129.516 27.4805L129.288 30.3428Z" stroke="black"/>
<path d="M125.192 25.9297C125.444 27.1741 125.77 28.7649 126.095 30.3369H122.731C122.278 28.535 121.841 26.7097 121.613 25.7051L124.938 24.7529L124.954 24.748C125.022 25.087 125.103 25.4864 125.192 25.9297Z" stroke="black"/>
<path d="M128.943 24.2002L128.945 24.2012C128.947 24.2014 128.95 24.2016 128.954 24.2021C128.961 24.2032 128.972 24.205 128.987 24.207C129.016 24.2111 129.06 24.2168 129.115 24.2246C129.225 24.2401 129.383 24.2623 129.573 24.29C129.953 24.3457 130.463 24.4223 130.979 24.5068C131.497 24.5917 132.016 24.684 132.418 24.7695C132.537 24.7946 132.642 24.8194 132.732 24.8418L131.995 28.8145V28.8164C131.994 28.8181 131.993 28.8209 131.993 28.8242C131.991 28.8308 131.989 28.8409 131.987 28.8535C131.982 28.8789 131.974 28.9161 131.964 28.9639C131.944 29.0603 131.915 29.2006 131.88 29.374C131.829 29.6308 131.765 29.9624 131.694 30.3369H128.145C128.355 28.5976 128.574 26.8855 128.748 25.5664C128.817 25.04 128.879 24.576 128.929 24.1982L128.943 24.2002Z" stroke="black"/>
<path d="M125.829 15.6836C126.202 15.5304 126.599 15.5303 126.986 15.6162C127.374 15.7026 127.73 15.8712 127.995 16.0244C128.084 16.076 128.16 16.1254 128.222 16.167C128.225 16.2517 128.23 16.3556 128.235 16.4736C128.248 16.8046 128.264 17.2475 128.281 17.6943C128.298 18.1411 128.315 18.592 128.328 18.9395C128.334 19.1132 128.339 19.2609 128.342 19.3691C128.343 19.4042 128.344 19.4349 128.345 19.4609C128.341 19.4688 128.338 19.4778 128.333 19.4873C128.297 19.562 128.241 19.6685 128.167 19.7969C128.021 20.0538 127.815 20.3841 127.583 20.7041C127.349 21.0279 127.1 21.3223 126.87 21.5225C126.755 21.6223 126.658 21.6868 126.583 21.7217C126.509 21.7564 126.482 21.75 126.49 21.751C126.216 21.7117 125.949 21.5061 125.667 21.1455C125.531 20.9719 125.406 20.7821 125.285 20.5918C125.17 20.4119 125.046 20.2112 124.93 20.0566C124.942 20.0723 124.919 20.0436 124.887 19.918C124.859 19.8067 124.835 19.6595 124.814 19.4814C124.772 19.1254 124.752 18.688 124.744 18.2559C124.735 17.8261 124.739 17.4115 124.746 17.1035C124.749 16.9499 124.753 16.8232 124.755 16.7354C124.756 16.7311 124.755 16.7267 124.755 16.7227C125.102 16.1264 125.479 15.827 125.829 15.6836Z" stroke="black"/>
<path d="M126.545 14.9697C127.019 14.9622 127.472 15.0409 127.828 15.1631C128.21 15.2944 128.391 15.4437 128.432 15.5059C128.435 15.5102 128.437 15.5151 128.44 15.5195C128.371 15.487 128.303 15.4647 128.241 15.4531C128.09 15.4254 127.94 15.4375 127.817 15.458C127.569 15.4994 127.298 15.5979 127.068 15.6953C126.831 15.7955 126.607 15.9082 126.444 15.9941C126.362 16.0374 126.293 16.0748 126.246 16.1016C126.234 16.1078 126.224 16.1131 126.215 16.1182C126.186 16.1279 126.138 16.1446 126.059 16.1709C125.857 16.2384 125.452 16.3728 124.642 16.6426C124.323 16.7489 124.188 16.728 124.154 16.7188C124.151 16.7114 124.147 16.6993 124.143 16.6816C124.127 16.602 124.133 16.4875 124.154 16.3691C124.163 16.3149 124.174 16.2685 124.183 16.2363H124.182C124.679 15.3328 125.604 14.9847 126.545 14.9697ZM126.304 16.6152C126.272 16.6259 126.231 16.6398 126.179 16.6572C126.14 16.5558 126.131 16.4092 126.195 16.2402L126.304 16.6152Z" stroke="black"/>
</g>
<path d="M107.998 41.4023C114.621 41.4025 119.989 46.7717 119.989 53.3945C119.989 60.0172 114.621 65.3856 107.998 65.3857C101.375 65.3857 96.0061 60.0173 96.0059 53.3945C96.0059 46.7716 101.375 41.4023 107.998 41.4023Z" stroke="black"/>
<path d="M107.879 42.5703C113.878 42.5703 118.741 47.4331 118.741 53.4316C118.741 59.4302 113.878 64.293 107.879 64.293C101.881 64.2929 97.0181 59.4302 97.0181 53.4316C97.0181 47.4331 101.881 42.5703 107.879 42.5703Z" stroke="black"/>
<mask id="mask2_10331_47932" style="mask-type:luminance" maskUnits="userSpaceOnUse" x="96" y="42" width="24" height="23">
<path d="M107.944 42.6582C113.943 42.6582 118.806 47.521 118.806 53.5195C118.806 59.5181 113.943 64.3809 107.944 64.3809C101.946 64.3808 97.083 59.5181 97.083 53.5195C97.083 47.521 101.946 42.6582 107.944 42.6582Z" fill="white" stroke="white"/>
</mask>
<g mask="url(#mask2_10331_47932)">
<path d="M108.193 45.3281C109.964 45.3284 111.398 46.7639 111.398 48.5342C111.398 50.3042 109.963 51.739 108.193 51.7393C106.423 51.7393 104.988 50.3044 104.987 48.5342C104.987 46.7638 106.423 45.3281 108.193 45.3281Z" stroke="black"/>
<path d="M106.86 49.083L106.351 58.7432L102.562 59.1436C102.573 58.8574 102.606 58.4903 102.666 58.0439C102.768 57.2896 102.937 56.3511 103.165 55.2754C103.59 53.268 104.213 50.8014 104.954 48.1973L106.86 49.083Z" stroke="black"/>
<path d="M111.184 47.2139C111.219 47.2763 111.261 47.3585 111.307 47.4648C111.443 47.7801 111.599 48.2356 111.766 48.8076C112.099 49.948 112.463 51.496 112.803 53.1787C113.401 56.1336 113.918 59.4553 114.074 61.667L109.756 59.3672L110.372 47.3447L111.184 47.2139Z" stroke="black"/>
<path d="M109.532 56.8613L107.152 57.2197L107 54.6035L109.418 54.3672L109.532 56.8613Z" stroke="black"/>
<path d="M106.756 48.002C107.093 47.7036 107.507 47.5217 108.092 47.6709C108.823 47.8572 109.74 48.2521 110.375 48.8955C110.981 49.5113 111.347 50.3662 111.009 51.5947L111.003 51.6182V51.6191C111.003 51.6202 111.003 51.6218 111.002 51.624C111.001 51.6294 110.999 51.6387 110.997 51.6504C110.991 51.6737 110.981 51.709 110.969 51.7549C110.945 51.8473 110.907 51.982 110.855 52.1455C110.75 52.4737 110.59 52.9122 110.368 53.3604C109.904 54.2939 109.25 55.1057 108.405 55.2734C108.004 55.3528 107.693 55.2596 107.426 55.0713C107.144 54.8717 106.9 54.5537 106.694 54.1758C106.49 53.8019 106.342 53.4004 106.236 53.0693C106.183 52.9048 106.141 52.7605 106.108 52.6455C106.092 52.5897 106.077 52.5362 106.064 52.4932C106.054 52.4611 106.035 52.3984 106.01 52.3447L105.796 51.8916L105.413 52.0723C105.378 51.9475 105.335 51.8002 105.304 51.6934C105.254 51.5178 105.218 51.364 105.21 51.2402C105.207 51.1849 105.212 51.151 105.215 51.1318C105.239 51.1262 105.28 51.1195 105.349 51.1211L105.958 51.1357L105.853 50.5342C105.853 50.5329 105.853 50.5306 105.852 50.5273C105.851 50.5206 105.848 50.5096 105.846 50.4951C105.842 50.4656 105.836 50.4206 105.83 50.3652C105.817 50.2539 105.803 50.1007 105.8 49.9326C105.794 49.5638 105.842 49.2441 105.945 49.0811C106.152 48.7528 106.392 48.3252 106.756 48.002Z" stroke="black"/>
<path d="M111.329 57.3984L109.25 59.6807L105.266 57.1738C105.353 57.1379 105.438 57.1029 105.518 57.0713C105.882 56.9273 106.206 56.818 106.5 56.7666L109.885 56.6318L111.329 57.3984Z" stroke="black"/>
<path d="M107.767 47.0322C108.423 46.9922 109.147 47.1312 109.949 47.4766L110.445 49.207C110.425 49.2003 110.405 49.1926 110.385 49.1865C110.205 49.1316 110.034 49.1069 109.808 49.0898C109.801 49.0589 109.794 49.0284 109.786 48.999C109.732 48.8047 109.654 48.6012 109.573 48.4092C109.492 48.2169 109.402 48.0202 109.322 47.8438C109.239 47.6622 109.168 47.5032 109.116 47.3672L108.162 47.6602C108.201 47.8293 108.251 48.0095 108.295 48.1787C108.341 48.3521 108.384 48.5182 108.417 48.6768C108.443 48.7957 108.458 48.8996 108.468 48.9883C108.031 49.0098 107.476 49.0741 106.956 49.1543C106.509 49.2231 106.048 49.3091 105.66 49.3965C105.652 49.2988 105.642 49.2004 105.632 49.1104C105.621 49.0038 105.611 48.9042 105.605 48.8047C105.582 48.4429 105.613 48.1092 105.849 47.75C106.449 47.31 107.085 47.0738 107.767 47.0322Z" stroke="black"/>
<path d="M107.929 43.1582C108.234 43.1582 108.575 43.454 108.575 43.9395C108.575 44.1492 108.468 44.4183 108.289 44.6455C108.203 44.7549 108.113 44.8377 108.035 44.8887C107.99 44.918 107.959 44.9308 107.942 44.9365C107.928 44.9303 107.902 44.9182 107.864 44.8926C107.784 44.838 107.687 44.75 107.594 44.6367C107.397 44.3979 107.283 44.1327 107.283 43.9395C107.283 43.4542 107.623 43.1584 107.929 43.1582Z" stroke="black"/>
<path d="M110.183 56.7354C111.692 57.3048 112.957 57.7779 114.291 58.6387L113.248 64.4414H103.675L102.247 58.707C103.553 57.8745 104.884 57.2252 106.263 56.8359C106.465 57.0236 106.716 57.158 106.965 57.25C107.344 57.3904 107.782 57.46 108.212 57.458C108.641 57.456 109.089 57.3825 109.481 57.2158C109.738 57.1069 109.985 56.9495 110.183 56.7354Z" stroke="black"/>
<path d="M115.056 59.7793C115.433 60.5804 115.934 61.8922 116.403 63.8975C116.467 64.1736 116.257 64.4403 115.971 64.4404H113.917C113.825 64.2038 113.746 64.0092 113.682 63.8623C113.659 63.8089 113.636 63.7625 113.618 63.7217L114.971 59.6064C114.998 59.6614 115.028 59.7186 115.056 59.7793Z" stroke="black"/>
<path d="M103.632 62.793C103.391 63.3548 103.191 63.906 103.028 64.4404H100.958C100.692 64.4404 100.487 64.2067 100.52 63.9463C100.719 62.3705 101.12 61.0585 101.47 60.1426C101.557 59.9155 101.641 59.713 101.717 59.5371L103.632 62.793Z" stroke="black"/>
<path d="M111.373 48.0186C112.616 51.9892 112.63 55.3605 112.189 58.2881C112.178 57.1795 112.135 56.0453 112.061 54.9375C111.879 52.2548 111.519 49.6634 111.024 47.9189L111.373 48.0186Z" stroke="black"/>
</g>
<path d="M134.155 33.3496C140.085 33.3496 144.893 38.1568 144.894 44.0869C144.894 50.0172 140.086 54.8252 134.155 54.8252C128.225 54.825 123.418 50.017 123.418 44.0869C123.418 38.1569 128.225 33.3498 134.155 33.3496Z" stroke="black"/>
<path d="M127.174 37.2476C130.97 33.4515 137.125 33.4515 140.921 37.2476C144.717 41.0437 144.717 47.1985 140.921 50.9946C137.125 54.7907 130.97 54.7907 127.174 50.9946C123.378 47.1985 123.378 41.0437 127.174 37.2476Z" stroke="black"/>
<mask id="mask3_10331_47932" style="mask-type:luminance" maskUnits="userSpaceOnUse" x="123" y="33" width="22" height="22">
<path d="M127.233 37.3276C131.029 33.5315 137.184 33.5315 140.98 37.3276C144.776 41.1237 144.776 47.2786 140.98 51.0747C137.184 54.8709 131.029 54.8708 127.233 51.0747C123.436 47.2786 123.436 41.1237 127.233 37.3276Z" fill="white" stroke="white"/>
</mask>
<g mask="url(#mask3_10331_47932)">
<path d="M140.96 49.2207C141.12 49.561 141.263 50.0195 141.321 50.625C141.395 51.3905 141.429 52.8019 141.439 54.4375C141.441 54.73 141.204 54.9678 140.912 54.9678H140.545L140.96 49.2207Z" stroke="black"/>
<path d="M130.259 47.2041C130.947 47.2086 131.883 47.2267 132.876 47.2812C133.872 47.3359 134.916 47.4273 135.824 47.5752C136.591 47.7002 137.212 47.8606 137.624 48.0469C137.625 48.1344 137.628 48.2403 137.63 48.3633C137.639 48.7572 137.652 49.3268 137.667 50.0283C137.694 51.3182 137.729 53.055 137.765 54.9697H128.64C128.895 52.8424 129.132 50.8711 129.309 49.3945C129.405 48.592 129.484 47.9352 129.539 47.4795C129.551 47.3775 129.561 47.2854 129.571 47.2041C129.753 47.203 129.986 47.2023 130.259 47.2041Z" stroke="black"/>
<path d="M131.045 47.1768C131.208 47.9171 131.427 48.9253 131.652 49.9971C132.035 51.8221 132.43 53.8014 132.605 54.9678H127.036C126.959 54.3512 126.902 53.9066 126.902 53.6631C126.902 52.9032 126.796 51.334 126.692 49.9766C126.64 49.2931 126.587 48.6556 126.548 48.1895C126.537 48.0547 126.526 47.9343 126.517 47.8311L130.894 46.4912C130.936 46.6786 130.987 46.9103 131.045 47.1768Z" stroke="black"/>
<path d="M125.834 48.3438C125.876 48.4904 125.919 48.6591 125.955 48.8496C126.064 49.4172 126.14 50.1313 126.192 50.9092C126.284 52.2664 126.299 53.7789 126.294 54.9688H124.088C123.749 54.9685 123.505 54.6446 123.598 54.3193C123.849 53.4369 124.119 52.5115 124.415 51.5371C124.92 49.8774 125.412 48.9494 125.759 48.4482C125.785 48.411 125.81 48.3764 125.834 48.3438Z" stroke="black"/>
<path d="M137.115 47.1123C137.45 47.2248 137.9 47.3774 138.357 47.5391C138.816 47.7012 139.279 47.8707 139.643 48.0166C139.825 48.0898 139.977 48.1549 140.088 48.208C140.092 48.2101 140.096 48.2128 140.101 48.2148C140.107 48.3212 140.114 48.4672 140.115 48.6523C140.119 49.0785 140.107 49.6749 140.084 50.3848C140.043 51.6779 139.963 53.3285 139.878 54.9688H134.54C134.874 53.8393 135.443 52.0309 135.973 50.3779C136.294 49.3744 136.599 48.4318 136.823 47.7402C136.906 47.4846 136.978 47.2634 137.036 47.0859C137.062 47.0945 137.088 47.1032 137.115 47.1123Z" stroke="black"/>
<path d="M135.17 44.5137L135.5 47.1543C135.227 47.202 134.845 47.2542 134.413 47.2715C133.644 47.3022 132.78 47.2198 132.073 46.8691L132.748 44.5137H135.17Z" stroke="black"/>
<path d="M134.318 38.7002C134.966 38.7542 135.555 39.0554 135.999 39.3662C136.218 39.5192 136.393 39.6689 136.512 39.7793C136.521 39.7874 136.529 39.7961 136.537 39.8037C136.53 39.885 136.521 39.9857 136.509 40.1016C136.475 40.4255 136.424 40.867 136.353 41.3389C136.282 41.8123 136.192 42.3091 136.083 42.7451C135.971 43.1939 135.85 43.5303 135.734 43.7168C135.475 44.1311 135.107 44.398 134.778 44.5625C134.614 44.6442 134.466 44.6978 134.355 44.7305C134.274 44.7542 134.229 44.7629 134.216 44.7656C134.141 44.765 133.876 44.7576 133.581 44.6514C133.27 44.5392 132.948 44.3275 132.761 43.9072C132.535 43.3982 132.337 42.4338 132.196 41.541C132.127 41.106 132.073 40.7057 132.037 40.4141C132.019 40.2685 132.005 40.1499 131.996 40.0684C131.993 40.0345 131.99 40.0068 131.988 39.9863C131.99 39.9751 131.994 39.9525 132.008 39.918C132.03 39.8647 132.068 39.7961 132.124 39.7168C132.238 39.5574 132.413 39.3776 132.639 39.2129C133.093 38.8811 133.695 38.6484 134.318 38.7002Z" stroke="black"/>
<mask id="path-63-inside-3_10331_47932" fill="white">
<path d="M136.496 41.0656C136.496 41.0656 137.085 40.1815 137.38 40.4762C137.674 40.7709 137.085 42.6866 136.496 42.6866C135.906 42.6866 136.496 41.0656 136.496 41.0656Z"/>
</mask>
<path d="M136.496 41.0656L135.664 40.5109L135.597 40.6109L135.556 40.7239L136.496 41.0656ZM137.38 40.4762L138.087 39.7691L138.087 39.769L137.38 40.4762ZM136.496 42.6866V41.6866V42.6866ZM136.496 41.0656C137.328 41.6203 137.328 41.6205 137.327 41.6206C137.327 41.6207 137.327 41.6208 137.327 41.6209C137.327 41.6211 137.327 41.6213 137.327 41.6214C137.327 41.6217 137.327 41.622 137.326 41.6222C137.326 41.6227 137.326 41.6229 137.326 41.623C137.326 41.6231 137.326 41.6224 137.327 41.6211C137.329 41.6185 137.333 41.6132 137.338 41.6057C137.349 41.5905 137.365 41.5673 137.387 41.5395C137.432 41.4805 137.485 41.4168 137.534 41.3675C137.558 41.3434 137.573 41.3311 137.578 41.3275C137.585 41.3218 137.563 41.341 137.511 41.3631C137.462 41.3842 137.338 41.4284 137.167 41.4128C137.078 41.4047 136.984 41.3811 136.893 41.338C136.802 41.295 136.729 41.2397 136.673 41.1833L137.38 40.4762L138.087 39.769C137.889 39.5712 137.631 39.4467 137.348 39.421C137.087 39.3973 136.869 39.4622 136.723 39.5248C136.449 39.6426 136.238 39.8349 136.12 39.9533C135.985 40.0881 135.873 40.2271 135.798 40.3246C135.759 40.3751 135.728 40.4187 135.705 40.4507C135.694 40.4668 135.684 40.4802 135.677 40.4904C135.674 40.4955 135.671 40.4998 135.669 40.5032C135.668 40.5049 135.667 40.5064 135.666 40.5077C135.665 40.5084 135.665 40.509 135.665 40.5095C135.664 40.5097 135.664 40.51 135.664 40.5102C135.664 40.5104 135.664 40.5105 135.664 40.5106C135.664 40.5107 135.664 40.5109 136.496 41.0656ZM137.38 40.4762L136.673 41.1832C136.567 41.0778 136.516 40.972 136.493 40.9113C136.469 40.8495 136.462 40.8047 136.46 40.7902C136.456 40.7643 136.461 40.7774 136.454 40.8423C136.441 40.9675 136.399 41.1556 136.328 41.3556C136.255 41.5592 136.174 41.7136 136.114 41.7957C136.085 41.8368 136.084 41.8265 136.122 41.7983C136.161 41.7699 136.291 41.6866 136.496 41.6866V42.6866V43.6866C136.848 43.6866 137.125 43.5434 137.308 43.4091C137.49 43.275 137.63 43.1127 137.734 42.9696C137.941 42.6833 138.1 42.3404 138.211 42.0282C138.324 41.7125 138.41 41.3664 138.443 41.0495C138.46 40.8933 138.467 40.7084 138.441 40.5213C138.42 40.3659 138.356 40.0381 138.087 39.7691L137.38 40.4762ZM136.496 42.6866V41.6866C136.575 41.6866 136.677 41.7006 136.788 41.7474C136.9 41.7949 136.994 41.8651 137.066 41.9442C137.2 42.0916 137.227 42.2327 137.231 42.2544C137.236 42.2852 137.232 42.2834 137.235 42.2342C137.237 42.19 137.245 42.1298 137.258 42.055C137.286 41.9042 137.33 41.7416 137.37 41.6089C137.389 41.5445 137.407 41.4913 137.419 41.4552C137.425 41.4372 137.43 41.4237 137.433 41.4154C137.434 41.4113 137.435 41.4085 137.436 41.4071C137.436 41.4064 137.436 41.4061 137.436 41.4061C137.436 41.4062 137.436 41.4063 137.436 41.4065C137.436 41.4066 137.436 41.4067 137.436 41.4068C137.436 41.4069 137.436 41.4071 137.436 41.4071C137.435 41.4072 137.435 41.4074 136.496 41.0656C135.556 40.7239 135.556 40.724 135.556 40.7242C135.556 40.7242 135.556 40.7244 135.556 40.7245C135.556 40.7248 135.555 40.7251 135.555 40.7253C135.555 40.7259 135.555 40.7266 135.555 40.7274C135.554 40.729 135.553 40.731 135.552 40.7334C135.551 40.7381 135.548 40.7444 135.546 40.7522C135.54 40.7677 135.533 40.789 135.524 40.8153C135.506 40.8679 135.482 40.9413 135.456 41.0289C135.404 41.2001 135.337 41.4427 135.291 41.6972C135.249 41.924 135.202 42.2747 135.263 42.6122C135.295 42.7859 135.372 43.0536 135.586 43.2896C135.832 43.5596 136.164 43.6866 136.496 43.6866V42.6866Z" fill="black" mask="url(#path-63-inside-3_10331_47932)"/>
<mask id="path-65-inside-4_10331_47932" fill="white">
<path d="M132.075 41.2136C132.075 41.2136 131.339 40.1821 131.044 40.4768C130.749 40.7715 131.486 42.6872 132.075 42.6872V41.2136Z"/>
</mask>
<path d="M132.075 41.2136H133.075V40.8931L132.889 40.6323L132.075 41.2136ZM132.075 42.6872V43.6872H133.075V42.6872H132.075ZM132.075 41.2136C132.889 40.6323 132.889 40.6322 132.889 40.6321C132.889 40.632 132.889 40.6319 132.889 40.6318C132.889 40.6316 132.888 40.6314 132.888 40.6311C132.888 40.6306 132.888 40.6301 132.887 40.6295C132.886 40.6283 132.885 40.6268 132.884 40.6251C132.882 40.6217 132.878 40.6174 132.874 40.6121C132.867 40.6015 132.856 40.5872 132.843 40.5698C132.817 40.5352 132.781 40.4877 132.737 40.4323C132.65 40.3243 132.523 40.1737 132.377 40.0276C132.246 39.8964 132.035 39.7021 131.777 39.5732C131.543 39.4563 130.88 39.2263 130.337 39.7697L131.044 40.4768L131.751 41.1839C131.679 41.2563 131.586 41.3208 131.475 41.365C131.366 41.4087 131.261 41.4238 131.173 41.4238C131.087 41.4238 131.019 41.4097 130.974 41.3969C130.929 41.384 130.898 41.3698 130.882 41.362C130.854 41.3479 130.851 41.3421 130.875 41.3613C130.896 41.3783 130.926 41.4048 130.963 41.4418C131.038 41.5167 131.114 41.6055 131.175 41.6817C131.204 41.7184 131.228 41.7492 131.243 41.7698C131.251 41.7801 131.256 41.7877 131.26 41.7921C131.261 41.7943 131.262 41.7956 131.263 41.7961C131.263 41.7964 131.263 41.7964 131.263 41.7962C131.263 41.7961 131.262 41.7959 131.262 41.7957C131.262 41.7956 131.262 41.7954 131.262 41.7953C131.262 41.7952 131.262 41.7951 131.262 41.7951C131.262 41.795 131.262 41.7948 132.075 41.2136ZM131.044 40.4768L130.337 39.7697C130.049 40.0572 129.997 40.4101 129.983 40.5709C129.966 40.7652 129.985 40.9545 130.011 41.1109C130.064 41.4292 130.175 41.7743 130.309 42.0864C130.442 42.3966 130.622 42.7315 130.843 43.008C130.954 43.146 131.098 43.2991 131.278 43.4247C131.455 43.5481 131.729 43.6872 132.075 43.6872V42.6872V41.6872C132.275 41.6872 132.396 41.7664 132.422 41.7839C132.45 41.8036 132.442 41.8047 132.405 41.7586C132.331 41.6667 132.235 41.5042 132.147 41.2986C132.06 41.0949 132.005 40.9059 131.984 40.7821C131.973 40.7174 131.979 40.7087 131.976 40.7418C131.974 40.7601 131.968 40.812 131.944 40.8826C131.919 40.9529 131.865 41.07 131.751 41.1839L131.044 40.4768ZM132.075 42.6872H133.075V41.2136H132.075H131.075V42.6872H132.075Z" fill="black" mask="url(#path-65-inside-4_10331_47932)"/>
<path d="M134.597 36.7227L135.804 36.8418C135.924 36.8536 136.043 36.8246 136.096 36.8115C136.171 36.793 136.255 36.7669 136.338 36.7383C136.505 36.6807 136.7 36.6025 136.882 36.5195C136.968 36.4801 137.057 36.4368 137.141 36.3926C137.223 36.5487 137.304 36.7372 137.379 36.9482C137.49 37.26 137.573 37.58 137.621 37.8408L137.657 38.0791C137.7 38.4456 137.663 38.8144 137.541 39.1328C137.519 39.1913 137.494 39.2482 137.466 39.3027L137.372 39.46C137.273 39.607 137.146 39.7394 136.992 39.8936C136.97 39.754 136.942 39.5935 136.907 39.4365C136.864 39.2383 136.803 39.006 136.718 38.8271C136.68 38.7474 136.606 38.6089 136.473 38.5088C136.398 38.4523 136.286 38.3956 136.145 38.3887C136.036 38.3834 135.94 38.4083 135.861 38.4473L135.786 38.4902C135.507 38.6788 135.176 38.7822 134.791 38.8447C134.391 38.9097 134.001 38.9231 133.547 38.9639C133.259 38.9897 132.712 39.0221 132.243 39.1719C132.059 39.231 131.85 39.3215 131.664 39.458C131.637 39.2654 131.56 39.1004 131.495 38.9844C131.456 38.9144 131.415 38.8469 131.378 38.7891C131.339 38.7276 131.307 38.6779 131.278 38.6279C131.215 38.523 131.197 38.4721 131.194 38.4512C131.119 38.0358 131.32 37.5291 131.674 37.1807C132.106 36.7564 132.632 36.5415 133.249 36.4062C133.56 36.3381 133.885 36.2921 134.229 36.2471C134.567 36.2029 134.929 36.1591 135.283 36.0967C135.318 36.0906 135.353 36.0826 135.389 36.0762L134.597 36.7227ZM136.994 35.9111C136.998 35.9056 137.002 35.9001 137.005 35.8945C137.01 35.8917 137.015 35.8886 137.02 35.8857L136.994 35.9111Z" stroke="black"/>
<path d="M131.603 45.167C131.551 45.4539 131.495 45.7022 131.375 46.0645C131.249 46.4474 131.24 46.8747 131.253 47.2422C131.26 47.43 131.273 47.6179 131.285 47.7881L131.311 48.2578C131.313 48.395 131.33 48.5333 131.354 48.6699C131.087 48.367 130.849 48.086 130.67 47.7861C130.376 47.2933 130.176 46.9272 130.104 46.5918C130.041 46.3004 130.073 46.0226 130.317 45.6836C130.34 45.6528 130.434 45.5724 130.653 45.4717C130.855 45.3793 131.102 45.2969 131.35 45.2295C131.436 45.206 131.521 45.1859 131.603 45.167Z" stroke="black"/>
<path d="M136.424 45.6143C136.477 45.639 136.521 45.66 136.553 45.6758C136.598 45.698 136.593 45.697 136.573 45.6836C136.965 45.9403 137.116 46.289 137.116 46.7012C137.115 47.1397 136.937 47.6552 136.632 48.1455C136.475 48.3986 136.309 48.6195 136.139 48.8369C136.189 48.4336 136.209 47.977 136.182 47.373C136.165 47.0041 136.175 46.4436 136.189 45.9268C136.193 45.786 136.196 45.6453 136.2 45.5127C136.281 45.5486 136.358 45.5833 136.424 45.6143Z" stroke="black"/>
</g>
<path d="M32.6792 44.8594C36.659 44.8594 39.8852 48.0856 39.8853 52.0654C39.8853 56.0452 36.659 59.2715 32.6792 59.2715C28.6994 59.2715 25.4731 56.0452 25.4731 52.0654C25.4732 48.0856 28.6994 44.8594 32.6792 44.8594Z" stroke="black"/>
<path d="M32.6792 45.1152C36.5173 45.1154 39.6284 48.2272 39.6284 52.0654C39.6282 55.9035 36.5172 59.0145 32.6792 59.0146C28.841 59.0146 25.7292 55.9036 25.729 52.0654C25.729 48.2271 28.8409 45.1152 32.6792 45.1152Z" stroke="black"/>
<g opacity="0.7">
<mask id="path-72-inside-5_10331_47932" fill="white">
<path d="M25.8118 51.7705C25.8105 51.7705 25.8093 51.7705 25.8081 51.7704C25.7692 51.7683 25.7393 51.7351 25.7413 51.6963C25.7566 51.404 25.7906 51.1104 25.8422 50.8236C25.8492 50.7853 25.8856 50.7598 25.9242 50.7668C25.9626 50.7737 25.988 50.8104 25.9811 50.8487C25.9304 51.1296 25.8972 51.4173 25.8822 51.7037C25.8802 51.7413 25.8491 51.7705 25.8118 51.7705Z"/>
</mask>
<path d="M25.8081 51.7704L25.7545 52.769L25.7646 52.7695L25.8081 51.7704ZM25.7413 51.6963L26.7399 51.7486L26.7399 51.7485L25.7413 51.6963ZM25.8422 50.8236L24.8584 50.6446L24.8581 50.6463L25.8422 50.8236ZM25.9242 50.7668L26.1029 49.7829L26.1008 49.7825L25.9242 50.7668ZM25.9811 50.8487L26.9652 51.0262L26.9655 51.0248L25.9811 50.8487ZM25.8822 51.7037L26.8808 51.7562L26.8808 51.7559L25.8822 51.7037ZM25.8118 51.7705V50.7705C25.8097 50.7705 25.8148 50.7705 25.8205 50.7705C25.8272 50.7706 25.8381 50.7708 25.8515 50.7714L25.8081 51.7704L25.7646 52.7695C25.7793 52.7701 25.7914 52.7703 25.7993 52.7704C25.8033 52.7705 25.8065 52.7705 25.8085 52.7705C25.8095 52.7705 25.8103 52.7705 25.8109 52.7705C25.8111 52.7705 25.8114 52.7705 25.8115 52.7705C25.8116 52.7705 25.8117 52.7705 25.8117 52.7705C25.8118 52.7705 25.8118 52.7705 25.8118 52.7705V51.7705ZM25.8081 51.7704L25.8617 50.7719C26.3722 50.7993 26.7668 51.2349 26.7399 51.7486L25.7413 51.6963L24.7427 51.6441C24.7117 52.2354 25.1662 52.7374 25.7545 52.769L25.8081 51.7704ZM25.7413 51.6963L26.7399 51.7485C26.753 51.498 26.7822 51.2462 26.8264 51.0009L25.8422 50.8236L24.8581 50.6463C24.7989 50.9745 24.7601 51.3099 24.7427 51.6442L25.7413 51.6963ZM25.8422 50.8236L26.8261 51.0026C26.7347 51.5048 26.2536 51.8419 25.7475 51.751L25.9242 50.7668L26.1008 49.7825C25.5177 49.6778 24.9637 50.0658 24.8584 50.6446L25.8422 50.8236ZM25.9242 50.7668L25.7454 51.7507C25.2413 51.6591 24.9066 51.1767 24.9967 50.6727L25.9811 50.8487L26.9655 51.0248C27.0694 50.444 26.6838 49.8884 26.1029 49.7829L25.9242 50.7668ZM25.9811 50.8487L24.997 50.6712C24.9388 50.9938 24.9007 51.3233 24.8835 51.6514L25.8822 51.7037L26.8808 51.7559C26.8936 51.5113 26.9221 51.2655 26.9652 51.0262L25.9811 50.8487ZM25.8822 51.7037L24.8836 51.6512C24.9096 51.1548 25.3201 50.7705 25.8118 50.7705V51.7705V52.7705C26.3781 52.7705 26.8508 52.3278 26.8808 51.7562L25.8822 51.7037Z" fill="black" mask="url(#path-72-inside-5_10331_47932)"/>
</g>
<g opacity="0.7">
<mask id="path-74-inside-6_10331_47932" fill="white">
<path d="M26.5358 49.0406C26.5251 49.0406 26.5143 49.0382 26.5041 49.033C26.4693 49.0154 26.4554 48.973 26.4729 48.9383C27.6627 46.5814 30.0406 45.1172 32.679 45.1172C33.0999 45.1172 33.5215 45.1551 33.9323 45.23C33.9706 45.2369 33.996 45.2737 33.9891 45.3119C33.9821 45.3503 33.9457 45.376 33.907 45.3687C33.5046 45.2954 33.0914 45.2583 32.679 45.2583C30.0943 45.2583 27.7645 46.6927 26.5989 49.0018C26.5865 49.0264 26.5616 49.0406 26.5358 49.0406Z"/>
</mask>
<path d="M26.5041 49.033L26.9552 48.1405L26.9547 48.1403L26.5041 49.033ZM26.4729 48.9383L27.3651 49.39L27.3656 49.3889L26.4729 48.9383ZM33.9323 45.23L33.7531 46.2138L33.7533 46.2138L33.9323 45.23ZM33.9891 45.3119L33.0052 45.1327L33.0052 45.1332L33.9891 45.3119ZM33.907 45.3687L34.094 44.3863L34.0862 44.3849L33.907 45.3687ZM26.5989 49.0018L27.4909 49.4538L27.4916 49.4525L26.5989 49.0018ZM26.5358 49.0406V48.0406C26.6775 48.0406 26.8217 48.073 26.9552 48.1405L26.5041 49.033L26.0531 49.9255C26.207 50.0033 26.3728 50.0406 26.5358 50.0406V49.0406ZM26.5041 49.033L26.9547 48.1403C27.4124 48.3713 27.5977 48.9305 27.3651 49.39L26.4729 48.9383L25.5808 48.4866C25.313 49.0155 25.5263 49.6596 26.0535 49.9257L26.5041 49.033ZM26.4729 48.9383L27.3656 49.3889C28.3855 47.3686 30.4184 46.1172 32.679 46.1172V45.1172V44.1172C29.6629 44.1172 26.9398 45.7941 25.5802 48.4877L26.4729 48.9383ZM32.679 45.1172V46.1172C33.0403 46.1172 33.4019 46.1498 33.7531 46.2138L33.9323 45.23L34.1115 44.2461C33.6411 44.1605 33.1595 44.1172 32.679 44.1172V45.1172ZM33.9323 45.23L33.7533 46.2138C33.2487 46.122 32.9131 45.6384 33.0052 45.1327L33.9891 45.3119L34.9729 45.4912C35.079 44.9089 34.6925 44.3519 34.1113 44.2461L33.9323 45.23ZM33.9891 45.3119L33.0052 45.1332C33.0951 44.6383 33.5736 44.2873 34.094 44.3863L33.907 45.3687L33.7201 46.351C34.3177 46.4648 34.8691 46.0623 34.9729 45.4907L33.9891 45.3119ZM33.907 45.3687L34.0862 44.3849C33.6241 44.3007 33.151 44.2583 32.679 44.2583V45.2583V46.2583C33.0319 46.2583 33.3851 46.2901 33.7279 46.3525L33.907 45.3687ZM32.679 45.2583V44.2583C29.7165 44.2583 27.0417 45.9055 25.7062 48.5512L26.5989 49.0018L27.4916 49.4525C28.4874 47.48 30.472 46.2583 32.679 46.2583V45.2583ZM26.5989 49.0018L25.7069 48.5498C25.871 48.226 26.1988 48.0406 26.5358 48.0406V49.0406V50.0406C26.9245 50.0406 27.3019 49.8268 27.4909 49.4538L26.5989 49.0018Z" fill="black" mask="url(#path-74-inside-6_10331_47932)"/>
</g>
<path opacity="0.78" d="M28.7356 48.1214C31.0028 45.8545 34.6783 45.855 36.9453 48.1221C39.2121 50.3891 39.2121 54.064 36.9453 56.3311C34.6783 58.5981 31.0028 58.5987 28.7356 56.3317C26.4685 54.0646 26.4685 50.3885 28.7356 48.1214Z" stroke="black"/>
<path d="M32.8394 48.5195C33.6693 48.5198 34.272 49.0905 34.272 49.8447C34.272 50.251 34.1035 50.6954 33.8208 51.0361C33.5385 51.3763 33.1857 51.5653 32.8394 51.5654C32.4928 51.5654 32.1394 51.3765 31.8569 51.0361C31.5742 50.6954 31.4058 50.251 31.4058 49.8447C31.4058 49.1374 31.9358 48.5918 32.686 48.5264L32.8394 48.5195Z" stroke="black"/>
<path d="M30.0283 53.707C31.9794 53.0578 33.8468 52.9822 35.6396 53.6377C35.9173 53.7392 36.085 54.0216 36.0518 54.3115L36.0244 54.4355L35.7705 55.2295C35.6853 55.4954 35.4383 55.6757 35.1592 55.6758H30.4395C30.1498 55.6757 29.8963 55.4816 29.8203 55.2021L29.624 54.4805C29.5344 54.1495 29.7176 53.8105 30.0283 53.707Z" stroke="black"/>
<path d="M46.5825 32.8848C50.5623 32.8848 53.7886 36.111 53.7886 40.0908C53.7886 44.0706 50.5623 47.2969 46.5825 47.2969C42.6027 47.2969 39.3765 44.0706 39.3765 40.0908C39.3765 36.111 42.6027 32.8848 46.5825 32.8848Z" stroke="black"/>
<path d="M46.583 33.1426C50.4212 33.1428 53.5322 36.2546 53.5322 40.0928C53.532 43.9308 50.421 47.0418 46.583 47.042C42.7448 47.042 39.633 43.9309 39.6328 40.0928C39.6328 36.2545 42.7447 33.1426 46.583 33.1426Z" stroke="black"/>
<g opacity="0.7">
<mask id="path-81-inside-7_10331_47932" fill="white">
<path d="M39.7151 39.7978C39.7139 39.7978 39.7127 39.7978 39.7114 39.7978C39.6725 39.7957 39.6426 39.7625 39.6446 39.7237C39.6599 39.4313 39.6938 39.1377 39.7455 38.851C39.7525 38.8127 39.789 38.7872 39.8274 38.7941C39.8658 38.8011 39.8913 38.8377 39.8844 38.8761C39.8337 39.157 39.8004 39.4447 39.7854 39.731C39.7835 39.7686 39.7524 39.7978 39.7151 39.7978Z"/>
</mask>
<path d="M39.7114 39.7978L39.6578 40.7964L39.668 40.7968L39.7114 39.7978ZM39.6446 39.7237L40.6433 39.7759L40.6433 39.7758L39.6446 39.7237ZM39.7455 38.851L38.7617 38.672L38.7614 38.6735L39.7455 38.851ZM39.8274 38.7941L40.0062 37.8102L40.0044 37.8099L39.8274 38.7941ZM39.8844 38.8761L40.8685 39.0536L40.8685 39.0535L39.8844 38.8761ZM39.7854 39.731L38.7868 39.6788L38.7868 39.6799L39.7854 39.731ZM39.7151 39.7978V38.7978C39.7156 38.7978 39.7203 38.7978 39.7264 38.7979C39.7328 38.798 39.7427 38.7982 39.7548 38.7987L39.7114 39.7978L39.668 40.7968C39.6929 40.7979 39.7131 40.7978 39.7151 40.7978V39.7978ZM39.7114 39.7978L39.765 38.7992C40.2755 38.8266 40.6702 39.2621 40.6433 39.7759L39.6446 39.7237L38.646 39.6714C38.615 40.2628 39.0695 40.7648 39.6578 40.7963L39.7114 39.7978ZM39.6446 39.7237L40.6433 39.7758C40.6563 39.5252 40.6855 39.2735 40.7297 39.0285L39.7455 38.851L38.7614 38.6735C38.7022 39.0019 38.6634 39.3374 38.646 39.6715L39.6446 39.7237ZM39.7455 38.851L40.7294 39.03C40.6381 39.5317 40.1573 39.8694 39.6505 39.7783L39.8274 38.7941L40.0044 37.8099C39.4206 37.705 38.8669 38.0936 38.7617 38.672L39.7455 38.851ZM39.8274 38.7941L39.6487 39.778C39.1459 39.6866 38.809 39.205 38.9002 38.6987L39.8844 38.8761L40.8685 39.0535C40.9736 38.4704 40.5858 37.9155 40.0062 37.8102L39.8274 38.7941ZM39.8844 38.8761L38.9003 38.6986C38.8421 39.0211 38.804 39.3506 38.7868 39.6788L39.7854 39.731L40.7841 39.7833C40.7969 39.5387 40.8253 39.2929 40.8685 39.0536L39.8844 38.8761ZM39.7854 39.731L38.7868 39.6799C38.8122 39.1827 39.223 38.7978 39.7151 38.7978V39.7978V40.7978C40.2818 40.7978 40.7549 40.3544 40.7841 39.7821L39.7854 39.731Z" fill="black" mask="url(#path-81-inside-7_10331_47932)"/>
</g>
<g opacity="0.7">
<mask id="path-83-inside-8_10331_47932" fill="white">
<path d="M40.4396 37.0679C40.429 37.0679 40.4181 37.0655 40.4079 37.0603C40.3731 37.0428 40.3592 37.0003 40.3767 36.9656C41.5665 34.6087 43.9444 33.1445 46.5828 33.1445C47.0037 33.1445 47.4253 33.1825 47.8361 33.2573C47.8744 33.2643 47.8998 33.301 47.8929 33.3393C47.8859 33.3776 47.8495 33.4034 47.8108 33.396C47.4084 33.3227 46.9953 33.2856 46.5828 33.2856C43.998 33.2856 41.6683 34.7201 40.5027 37.0292C40.4903 37.0537 40.4654 37.0679 40.4396 37.0679Z"/>
</mask>
<path d="M40.4079 37.0603L40.859 36.1678L40.8585 36.1676L40.4079 37.0603ZM40.3767 36.9656L41.2689 37.4174L41.2695 37.4163L40.3767 36.9656ZM47.8361 33.2573L47.6569 34.2411L47.6571 34.2411L47.8361 33.2573ZM47.8929 33.3393L46.9091 33.16L46.909 33.1605L47.8929 33.3393ZM47.8108 33.396L47.9975 32.4136L47.99 32.4122L47.8108 33.396ZM40.5027 37.0292L41.3951 37.4804L41.3954 37.4798L40.5027 37.0292ZM40.4396 37.0679V36.0679C40.5809 36.0679 40.7251 36.1002 40.859 36.1678L40.4079 37.0603L39.9569 37.9528C40.1111 38.0308 40.2771 38.0679 40.4396 38.0679V37.0679ZM40.4079 37.0603L40.8585 36.1676C41.3162 36.3986 41.5015 36.9579 41.2689 37.4174L40.3767 36.9656L39.4846 36.5139C39.2168 37.0427 39.43 37.6869 39.9573 37.9531L40.4079 37.0603ZM40.3767 36.9656L41.2695 37.4163C42.2893 35.3959 44.3222 34.1445 46.5828 34.1445V33.1445V32.1445C43.5667 32.1445 40.8437 33.8215 39.484 36.515L40.3767 36.9656ZM46.5828 33.1445V34.1445C46.9441 34.1445 47.3057 34.1771 47.6569 34.2411L47.8361 33.2573L48.0153 32.2735C47.5449 32.1878 47.0633 32.1445 46.5828 32.1445V33.1445ZM47.8361 33.2573L47.6571 34.2411C47.1524 34.1493 46.8169 33.6657 46.9091 33.16L47.8929 33.3393L48.8767 33.5185C48.9827 32.9363 48.5964 32.3792 48.0151 32.2734L47.8361 33.2573ZM47.8929 33.3393L46.909 33.1605C46.999 32.6649 47.4781 32.3149 47.9975 32.4136L47.8108 33.396L47.6241 34.3784C48.2209 34.4919 48.7728 34.0904 48.8768 33.518L47.8929 33.3393ZM47.8108 33.396L47.99 32.4122C47.5279 32.328 47.0548 32.2856 46.5828 32.2856V33.2856V34.2856C46.9357 34.2856 47.2889 34.3174 47.6316 34.3798L47.8108 33.396ZM46.5828 33.2856V32.2856C43.6203 32.2856 40.9455 33.9329 39.61 36.5785L40.5027 37.0292L41.3954 37.4798C42.3911 35.5073 44.3758 34.2856 46.5828 34.2856V33.2856ZM40.5027 37.0292L39.6103 36.578C39.7743 36.2536 40.1023 36.0679 40.4396 36.0679V37.0679V38.0679C40.8285 38.0679 41.2063 37.8538 41.3951 37.4804L40.5027 37.0292Z" fill="black" mask="url(#path-83-inside-8_10331_47932)"/>
</g>
<path opacity="0.78" d="M42.6394 36.1487C44.9066 33.8818 48.5821 33.8824 50.8491 36.1494C53.116 38.4165 53.116 42.0913 50.8491 44.3584C48.5821 46.6254 44.9066 46.626 42.6394 44.3591C40.3723 42.092 40.3723 38.4158 42.6394 36.1487Z" stroke="black"/>
<path d="M46.7427 36.5469C47.5726 36.5471 48.1753 37.1177 48.1753 37.8721C48.1753 38.2783 48.0068 38.7228 47.7241 39.0635C47.4418 39.4036 47.0891 39.5926 46.7427 39.5928C46.3961 39.5928 46.0427 39.4038 45.7603 39.0635C45.4776 38.7228 45.3091 38.2783 45.3091 37.8721C45.3091 37.1176 45.9125 36.5469 46.7427 36.5469Z" stroke="black"/>
<path d="M43.9316 41.7344C45.8827 41.0852 47.7502 41.0096 49.543 41.665C49.8206 41.7666 49.9883 42.0489 49.9551 42.3389L49.9277 42.4629L49.6738 43.2568C49.5887 43.5227 49.3417 43.7031 49.0625 43.7031H44.3428C44.0532 43.703 43.7997 43.5089 43.7236 43.2295V43.2285L43.5273 42.5078C43.4378 42.1768 43.6209 41.8379 43.9316 41.7344Z" stroke="black"/>
<path d="M49.4248 50.707C53.4046 50.707 56.6308 53.9333 56.6309 57.9131C56.6309 61.8929 53.4046 65.1191 49.4248 65.1191C45.445 65.1191 42.2188 61.8929 42.2188 57.9131C42.2188 53.9333 45.445 50.707 49.4248 50.707Z" stroke="black"/>
<path d="M49.4253 50.9629C53.2634 50.9631 56.3745 54.0749 56.3745 57.9131C56.3743 61.7511 53.2633 64.8621 49.4253 64.8623C45.5871 64.8623 42.4753 61.7512 42.4751 57.9131C42.4751 54.0748 45.587 50.9629 49.4253 50.9629Z" stroke="black"/>
<g opacity="0.7">
<mask id="path-90-inside-9_10331_47932" fill="white">
<path d="M42.5574 57.6181C42.5561 57.6181 42.5549 57.6181 42.5537 57.6181C42.5148 57.616 42.4849 57.5828 42.4869 57.544C42.5022 57.2516 42.5362 56.958 42.5878 56.6713C42.5948 56.633 42.6312 56.6075 42.6698 56.6144C42.7082 56.6214 42.7336 56.658 42.7267 56.6964C42.676 56.9773 42.6428 57.265 42.6278 57.5513C42.6258 57.5889 42.5947 57.6181 42.5574 57.6181Z"/>
</mask>
<path d="M42.5537 57.6181L42.5001 58.6167L42.5102 58.6171L42.5537 57.6181ZM42.4869 57.544L43.4856 57.5962L43.4856 57.5961L42.4869 57.544ZM42.5878 56.6713L41.604 56.4923L41.6037 56.494L42.5878 56.6713ZM42.6698 56.6144L42.8485 55.6305L42.8464 55.6301L42.6698 56.6144ZM42.7267 56.6964L43.7108 56.8739L43.7111 56.8724L42.7267 56.6964ZM42.6278 57.5513L43.6264 57.6038L43.6264 57.6036L42.6278 57.5513ZM42.5574 57.6181V56.6181C42.5553 56.6181 42.5604 56.6181 42.5661 56.6182C42.5728 56.6183 42.5837 56.6184 42.5971 56.619L42.5537 57.6181L42.5102 58.6171C42.5249 58.6178 42.537 58.618 42.5449 58.6181C42.5489 58.6181 42.5521 58.6181 42.5541 58.6181C42.5551 58.6181 42.5559 58.6181 42.5565 58.6181C42.5567 58.6181 42.557 58.6181 42.5571 58.6181C42.5572 58.6181 42.5573 58.6181 42.5573 58.6181C42.5574 58.6181 42.5574 58.6181 42.5574 58.6181V57.6181ZM42.5537 57.6181L42.6073 56.6195C43.1175 56.6469 43.5124 57.0822 43.4856 57.5962L42.4869 57.544L41.4883 57.4918C41.4574 58.0835 41.9121 58.5851 42.5001 58.6166L42.5537 57.6181ZM42.4869 57.544L43.4856 57.5961C43.4986 57.3457 43.5278 57.0939 43.572 56.8486L42.5878 56.6713L41.6037 56.494C41.5445 56.8222 41.5057 57.1576 41.4883 57.4918L42.4869 57.544ZM42.5878 56.6713L43.5717 56.8503C43.4803 57.3524 42.9992 57.6895 42.4931 57.5987L42.6698 56.6144L42.8464 55.6301C42.2632 55.5255 41.7093 55.9135 41.604 56.4923L42.5878 56.6713ZM42.6698 56.6144L42.491 57.5983C41.9869 57.5067 41.6522 57.0244 41.7423 56.5203L42.7267 56.6964L43.7111 56.8724C43.815 56.2916 43.4294 55.7361 42.8485 55.6305L42.6698 56.6144ZM42.7267 56.6964L41.7426 56.5189C41.6844 56.8414 41.6463 57.171 41.6291 57.4991L42.6278 57.5513L43.6264 57.6036C43.6392 57.359 43.6677 57.1132 43.7108 56.8739L42.7267 56.6964ZM42.6278 57.5513L41.6292 57.4988C41.6552 57.0024 42.0657 56.6181 42.5574 56.6181V57.6181V58.6181C43.1237 58.6181 43.5964 58.1755 43.6264 57.6038L42.6278 57.5513Z" fill="black" mask="url(#path-90-inside-9_10331_47932)"/>
</g>
<g opacity="0.7">
<mask id="path-92-inside-10_10331_47932" fill="white">
<path d="M43.2819 54.8882C43.2713 54.8882 43.2604 54.8858 43.2502 54.8807C43.2154 54.8631 43.2015 54.8207 43.219 54.786C44.4087 52.429 46.7867 50.9648 49.4251 50.9648C49.846 50.9648 50.2676 51.0028 50.6784 51.0776C50.7167 51.0846 50.7421 51.1213 50.7352 51.1596C50.7282 51.1979 50.6918 51.2237 50.6531 51.2163C50.2507 51.1431 49.8375 51.1059 49.4251 51.1059C46.8404 51.1059 44.5106 52.5404 43.345 54.8495C43.3326 54.8741 43.3077 54.8882 43.2819 54.8882Z"/>
</mask>
<path d="M43.2502 54.8807L43.7013 53.9882L43.7008 53.9879L43.2502 54.8807ZM43.219 54.786L44.1112 55.2377L44.1117 55.2366L43.219 54.786ZM50.6784 51.0776L50.4992 52.0614L50.4994 52.0615L50.6784 51.0776ZM50.7352 51.1596L49.7513 50.9803L49.7513 50.9808L50.7352 51.1596ZM50.6531 51.2163L50.8401 50.2339L50.8323 50.2325L50.6531 51.2163ZM43.345 54.8495L44.237 55.3015L44.2377 55.3001L43.345 54.8495ZM43.2819 54.8882V53.8882C43.4228 53.8882 43.5671 53.9203 43.7013 53.9882L43.2502 54.8807L42.7992 55.7732C42.9538 55.8513 43.1198 55.8882 43.2819 55.8882V54.8882ZM43.2502 54.8807L43.7008 53.9879C44.1585 54.219 44.3438 54.7783 44.1112 55.2377L43.219 54.786L42.3269 54.3342C42.0591 54.8631 42.2723 55.5072 42.7996 55.7734L43.2502 54.8807ZM43.219 54.786L44.1117 55.2366C45.1316 53.2162 47.1645 51.9648 49.4251 51.9648V50.9648V49.9648C46.409 49.9648 43.6859 51.6418 42.3263 54.3353L43.219 54.786ZM49.4251 50.9648V51.9648C49.7864 51.9648 50.148 51.9975 50.4992 52.0614L50.6784 51.0776L50.8576 50.0938C50.3872 50.0081 49.9056 49.9648 49.4251 49.9648V50.9648ZM50.6784 51.0776L50.4994 52.0615C49.995 51.9697 49.6592 51.4862 49.7513 50.9803L50.7352 51.1596L51.719 51.3388C51.8251 50.7564 51.4384 50.1995 50.8574 50.0938L50.6784 51.0776ZM50.7352 51.1596L49.7513 50.9808C49.8412 50.4859 50.3198 50.1349 50.8401 50.234L50.6531 51.2163L50.4661 52.1987C51.0637 52.3125 51.6152 51.91 51.719 51.3383L50.7352 51.1596ZM50.6531 51.2163L50.8323 50.2325C50.3702 50.1484 49.897 50.1059 49.4251 50.1059V51.1059V52.1059C49.778 52.1059 50.1312 52.1377 50.474 52.2002L50.6531 51.2163ZM49.4251 51.1059V50.1059C46.4626 50.1059 43.7878 51.7532 42.4523 54.3989L43.345 54.8495L44.2377 55.3001C45.2334 53.3276 47.2181 52.1059 49.4251 52.1059V51.1059ZM43.345 54.8495L42.453 54.3975C42.6172 54.0734 42.9451 53.8882 43.2819 53.8882V54.8882V55.8882C43.6704 55.8882 44.0479 55.6747 44.237 55.3015L43.345 54.8495Z" fill="black" mask="url(#path-92-inside-10_10331_47932)"/>
</g>
<path opacity="0.78" d="M49.5874 52.2695C52.7935 52.2697 55.3921 54.8691 55.3921 58.0752C55.3919 61.2812 52.7934 63.8797 49.5874 63.8799C46.3813 63.8799 43.7819 61.2813 43.7817 58.0752C43.7817 54.869 46.3812 52.2695 49.5874 52.2695Z" stroke="black"/>
<path d="M49.585 54.3672C50.4149 54.3674 51.0176 54.9381 51.0176 55.6924C51.0176 56.0986 50.8491 56.5431 50.5664 56.8838C50.2841 57.2239 49.9313 57.4129 49.585 57.4131C49.2384 57.4131 48.885 57.2241 48.6025 56.8838C48.3199 56.5431 48.1514 56.0986 48.1514 55.6924C48.1514 54.9851 48.6814 54.4395 49.4316 54.374L49.585 54.3672Z" stroke="black"/>
<path d="M46.7739 59.5547C48.725 58.9055 50.5925 58.8299 52.3853 59.4854C52.7025 59.6014 52.8755 59.9536 52.77 60.2832L52.5161 61.0771C52.4309 61.343 52.184 61.5234 51.9048 61.5234H47.1851C46.8954 61.5233 46.642 61.3293 46.5659 61.0498L46.3696 60.3281C46.28 59.9971 46.4632 59.6582 46.7739 59.5547Z" stroke="black"/>
<path d="M64.9937 61.4805L64.0522 75.7617C64.0184 75.8193 63.9699 75.9022 63.9067 76.0049C63.7729 76.2225 63.576 76.5322 63.3247 76.8965C62.8205 77.6276 62.1046 78.5708 61.2505 79.4336C60.3922 80.3006 59.42 81.0598 58.4087 81.459C57.4139 81.8516 56.3936 81.8932 55.3706 81.3535C54.386 80.834 53.8594 80.2723 53.5952 79.748C53.3328 79.2272 53.3036 78.692 53.4077 78.1719C53.7172 76.6271 52.6992 75.1653 51.2056 74.7988C50.4197 74.606 49.709 74.2448 49.2397 73.6172C48.7766 72.9977 48.4925 72.0422 48.7056 70.542C48.9797 68.6123 49.9626 67.3746 51.1616 66.5635C52.3767 65.7416 53.8228 65.3534 54.9878 65.1748C56.1861 64.9911 57.0653 64.0278 57.2114 62.8486C57.2973 62.1555 57.7586 61.7637 58.3872 61.3955C58.6643 61.2332 59.0612 61.0304 59.3354 60.8516C59.6223 60.6645 59.9555 60.3985 60.0903 59.9893C60.1552 59.7922 60.3058 59.5677 60.5347 59.3301C60.7595 59.0966 61.0351 58.8764 61.3101 58.6836C61.5769 58.4965 61.8338 58.341 62.0278 58.2314L64.9937 61.4805Z" stroke="black"/>
<path d="M87.791 56.2393C86.0318 61.6205 81.8149 67.1315 77.9785 71.3359C76.0507 73.4487 74.2321 75.2186 72.8955 76.46C72.2274 77.0805 71.6794 77.5689 71.2998 77.9014C71.177 78.0089 71.0705 78.0987 70.9844 78.1729C70.9139 78.1146 70.8347 78.0425 70.75 77.9512C70.5561 77.7422 70.3506 77.4669 70.1396 77.1406C69.7178 76.4882 69.2996 75.6704 68.9268 74.8604C68.5551 74.0529 68.2339 73.2652 68.0059 72.6787C67.9387 72.506 67.8809 72.3505 67.8311 72.2178C73.3551 70.6099 78.3743 66.2384 82.0186 62.2744C83.9071 60.2202 85.4432 58.2569 86.5068 56.8076C86.9327 56.2273 87.2813 55.7274 87.5488 55.3379L87.791 56.2393Z" stroke="black"/>
<path d="M41.9395 148.76C42.1528 148.76 42.3185 148.946 42.293 149.158L41.9883 151.662C41.9581 151.91 41.7631 152.103 41.5205 152.131C40.7336 152.221 39.4863 152.31 38.2783 152.183C38.0461 152.158 37.8846 151.917 37.959 151.683C38.2458 150.78 38.7317 149.541 39.3857 148.76H41.9395Z" stroke="black"/>
<path d="M64.5083 122.66C64.5054 122.689 64.5022 122.728 64.4976 122.775C64.486 122.894 64.4685 123.068 64.4468 123.292C64.4033 123.74 64.3409 124.386 64.2651 125.182C64.1135 126.772 63.9086 128.96 63.6948 131.347C63.2676 136.115 62.8038 141.692 62.6636 144.886C62.6154 145.984 62.8996 147.068 63.4751 148.003L65.147 150.718L60.1489 147.769L60.0815 147.358L61.0952 145.966L61.2046 145.815L61.189 145.63L59.7017 127.815C59.6223 126.865 59.8178 125.911 60.2661 125.068L61.644 122.479L64.1812 120.74L64.5083 122.66Z" stroke="black"/>
<path d="M60.0088 147.08C60.0324 147.147 60.0588 147.215 60.0879 147.286C60.3031 147.81 60.6955 148.483 61.3955 148.905C61.9501 149.24 63.097 150.019 64.1191 150.724C64.6271 151.074 65.0997 151.403 65.4453 151.645C65.6181 151.765 65.7597 151.864 65.8574 151.933C65.9061 151.967 65.944 151.994 65.9697 152.012C65.9826 152.021 65.9924 152.028 65.999 152.032C66.0023 152.035 66.0052 152.036 66.0068 152.037L66.0088 152.039L66.1709 152.153L66.3662 152.125H66.3672C66.3686 152.125 66.3712 152.124 66.375 152.124C66.3835 152.123 66.398 152.122 66.417 152.12C66.4554 152.117 66.5132 152.112 66.584 152.11C66.7277 152.106 66.9163 152.112 67.1074 152.146C67.134 152.151 67.147 152.158 67.1514 152.161C67.1558 152.164 67.1588 152.167 67.1611 152.17C67.1669 152.178 67.1761 152.201 67.1729 152.235C67.1696 152.269 67.1559 152.291 67.1475 152.3C67.144 152.303 67.1401 152.305 67.1348 152.308C67.1293 152.31 67.1149 152.315 67.0879 152.315H64.874C64.613 152.315 64.369 152.195 64.2119 151.991C63.8631 151.538 63.3207 150.86 62.7734 150.286C62.5006 150 62.2158 149.728 61.9453 149.521C61.7297 149.355 61.4564 149.178 61.1689 149.121L61.0449 149.105L60.9414 149.104C60.7045 149.117 60.508 149.225 60.3623 149.368C60.2078 149.52 60.105 149.715 60.0332 149.896C59.9489 150.108 59.889 150.353 59.8438 150.604L59.5332 148.669C59.4391 148.083 59.6241 147.501 60.0088 147.08Z" stroke="black"/>
<path d="M52.0527 120.702C52.4522 120.562 52.8803 120.502 53.3066 120.597C53.6607 120.676 54.0459 120.87 54.4365 121.271C54.3742 121.39 54.2949 121.541 54.2002 121.722C53.9457 122.207 53.5805 122.905 53.1377 123.754C52.2522 125.452 51.0563 127.759 49.8145 130.19C47.3398 135.035 44.6563 140.427 43.9121 142.454C42.4379 146.471 41.912 149.842 41.8887 150.217C41.8876 150.233 41.8806 150.339 41.625 150.464C41.3546 150.596 40.8666 150.711 40.0596 150.711C39.3504 150.711 39.0914 150.441 38.9805 150.262C38.8979 150.128 38.8892 149.951 38.9668 149.794C39.4953 148.724 41.1939 145.264 41.8281 143.681C42.0301 143.177 42.2781 142.264 42.5459 141.171C42.8166 140.066 43.1156 138.739 43.418 137.384C44.0258 134.66 44.6425 131.84 45.0762 130.395C45.9507 127.479 46.909 124.426 50.6123 121.594L50.6367 121.575L50.6572 121.554C50.6579 121.554 50.6582 121.555 50.6582 121.555L50.6611 121.552C50.6644 121.549 50.67 121.543 50.6777 121.536C50.6936 121.521 50.7186 121.498 50.752 121.47C50.8188 121.412 50.9187 121.331 51.0449 121.24C51.3003 121.056 51.6521 120.842 52.0527 120.702Z" stroke="black"/>
<path d="M67.8901 72.1836C68.0644 72.3193 68.3137 72.518 68.6108 72.7686C69.2065 73.2708 69.9905 73.9773 70.7476 74.7959C71.5069 75.6171 72.2252 76.536 72.7046 77.4629C73.1866 78.3949 73.3995 79.2816 73.2368 80.0664C73.1295 80.5837 72.7937 81.6575 72.3354 83.0098C71.8812 84.3502 71.3172 85.9332 70.7671 87.4492C70.2172 88.9647 69.681 90.4115 69.2827 91.4795C69.0836 92.0134 68.9191 92.4532 68.8042 92.7588C68.7633 92.8675 68.7283 92.9591 68.7007 93.0322C68.5989 93.0713 68.4562 93.1241 68.2759 93.1787C67.8729 93.3006 67.2876 93.4394 66.5718 93.5C65.2144 93.6149 63.386 93.4488 61.4194 92.3584C62.5066 87.3843 61.5924 83.4639 60.3774 80.7656C59.7563 79.3863 59.0586 78.3284 58.5132 77.6133C58.285 77.3141 58.081 77.0761 57.9224 76.8975C59.7194 75.3133 62.1297 74.1279 64.1704 73.3223C65.2552 72.894 66.2238 72.5782 66.9204 72.3691C67.2684 72.2647 67.5479 72.1869 67.7397 72.1357C67.7628 72.1296 67.7847 72.1236 67.8052 72.1182C67.8309 72.138 67.8596 72.1598 67.8901 72.1836Z" stroke="black"/>
<path d="M60.8389 93.1777C63.0441 94.429 65.1156 94.6256 66.6562 94.4951C67.4531 94.4276 68.1075 94.2733 68.5654 94.1348C68.6232 94.1173 68.6771 94.0978 68.7285 94.0811C68.798 94.4284 68.8854 94.9225 68.9541 95.5098C69.0928 96.6958 69.1543 98.2356 68.8691 99.7031C68.57 101.243 67.4837 106.955 66.4717 112.281C65.9656 114.945 65.4781 117.513 65.1172 119.414C64.9368 120.365 64.7873 121.149 64.6836 121.695C64.6441 121.904 64.6106 122.078 64.585 122.213C61.7716 122.709 58.2591 122.428 55.373 121.996C53.8813 121.773 52.5719 121.512 51.6357 121.308C51.2893 121.232 50.9948 121.161 50.7607 121.105C52.5071 117.677 53.5881 112.679 54.3457 108.181C54.748 105.792 55.0639 103.519 55.3369 101.674C55.6136 99.8041 55.8412 98.4199 56.0654 97.7441C56.497 96.4441 57.7029 95.277 58.8799 94.4092C59.4578 93.983 60.0084 93.6446 60.4141 93.4121C60.5848 93.3143 60.7293 93.2357 60.8389 93.1777Z" stroke="black"/>
<path d="M64.0918 65.0469C64.1771 64.6957 64.5593 64.5078 64.8896 64.6543L66.4883 65.3633C66.7243 65.4679 66.8634 65.7159 66.8281 65.9717L65.999 71.9795C65.9876 72.0624 65.9715 72.1074 65.958 72.1318C65.766 72.4786 65.3466 72.7914 64.748 73.0518C64.163 73.3062 63.4799 73.48 62.8662 73.5957C62.6703 73.6326 62.4994 73.6638 62.3486 73.6816C62.2741 73.6905 62.2138 73.6943 62.166 73.6953L64.0918 65.0469Z" stroke="black"/>
<path d="M65.416 57.4365C65.9913 57.1554 66.5346 57.1429 67.0264 57.4502C67.0275 57.451 67.029 57.4522 67.0303 57.4531C67.0412 57.461 67.0589 57.4744 67.083 57.4932C67.1318 57.5311 67.2061 57.5915 67.2998 57.6758C67.4872 57.8444 67.7523 58.1079 68.0449 58.4785C68.6292 59.2186 69.3287 60.3879 69.751 62.082C70.1772 63.7919 70.014 64.8438 69.6738 65.4346C69.349 65.9986 68.815 66.2248 68.2402 66.1943C66.8722 66.1219 64.9035 65.71 63.1709 63.3271C62.8116 62.833 62.696 62.1446 62.8125 61.3545C62.9285 60.568 63.2692 59.7333 63.748 59.0146C64.2291 58.2927 64.8231 57.7263 65.416 57.4365Z" stroke="black"/>
<path d="M65.0317 54.2832C66.1691 54.0266 67.3808 54.3083 68.4146 55.1035C68.9094 55.4842 69.1386 55.8699 69.2339 56.2168C69.3309 56.5699 69.3016 56.9285 69.2046 57.2656C69.1242 57.5448 68.9992 57.797 68.8794 58L68.4478 57.5508L68.3364 57.4346L68.1782 57.4053L67.9663 57.3701C66.9197 57.2166 66.1002 57.3985 65.4829 57.832C64.8352 58.2871 64.4857 58.9667 64.2983 59.6152C64.1261 60.2116 64.0803 60.8196 64.0776 61.2939C63.9283 61.1989 63.7367 61.1131 63.5142 61.1045C63.1731 61.0915 62.8779 61.2602 62.6606 61.5469C62.4376 61.8415 62.3607 62.199 62.3423 62.5137C62.3236 62.8341 62.3631 63.1622 62.4165 63.4453C62.4704 63.731 62.5427 63.9887 62.6011 64.1738C62.6038 64.1826 62.6062 64.1917 62.6089 64.2002C62.5129 64.2953 62.3924 64.3886 62.2583 64.4404C62.1304 64.4898 61.9839 64.5062 61.8032 64.4365C61.6103 64.3621 61.3362 64.1724 61.0044 63.7236C60.3591 62.851 60.1727 61.9328 60.3481 60.8418C60.5282 59.7219 61.0892 58.4245 61.9595 56.8369C62.7772 55.3453 63.8969 54.5393 65.0317 54.2832Z" stroke="black"/>
<path d="M62.8042 61.1309C62.8373 61.1309 62.8701 61.1396 62.9106 61.165C63.01 61.2275 63.1304 61.3776 63.2466 61.6279C63.3568 61.8654 63.4361 62.1324 63.4878 62.3486C63.5082 62.4342 63.5224 62.5097 63.5337 62.5684L63.3696 62.9492C63.0937 62.6879 62.8008 62.3766 62.6011 62.0654C62.4318 61.8018 62.3698 61.6048 62.3726 61.4805C62.3742 61.4082 62.3934 61.313 62.5933 61.2012C62.7004 61.1412 62.7683 61.131 62.8042 61.1309Z" stroke="black"/>
<path d="M90.8831 50.7559L90.5774 50.9619L90.6838 51.3145C90.7411 51.5042 90.8043 51.6865 90.8645 51.8584C90.9257 52.0331 90.9834 52.1956 91.0354 52.3604C91.1382 52.6864 91.2126 53.0019 91.2278 53.3486C91.2486 53.8271 91.0719 54.3069 90.7415 54.6846C90.3339 55.1503 89.7948 55.7394 89.3167 56.1807C88.9319 56.5357 88.5372 56.6646 88.2424 56.708C88.0937 56.7299 87.9701 56.7304 87.887 56.7256C87.8455 56.7232 87.8142 56.7193 87.7961 56.7168L87.7805 56.7139L87.1213 56.5771L87.1516 56.9131C87.0294 56.8702 86.8415 56.7428 86.717 56.3691C86.7399 56.2068 86.7685 55.987 86.7961 55.752C86.8336 55.4333 86.8776 55.0637 86.9319 54.7021C86.9865 54.3383 87.0493 53.9954 87.1213 53.7266C87.1574 53.5919 87.1933 53.488 87.2258 53.4141C87.2629 53.3299 87.2775 53.3272 87.2512 53.3506C88.3782 52.3506 89.9625 51.2766 91.2805 50.4443C91.5536 50.2719 91.8144 50.1104 92.0559 49.9629L90.8831 50.7559Z" stroke="black"/>
<mask id="path-110-inside-11_10331_47932" fill="white">
<path d="M88.8023 56.1906L88.4871 56.0609C88.5289 55.9588 89.5189 53.5532 89.9977 53.0528C90.1796 52.863 90.2675 52.7003 90.2594 52.5693C90.2554 52.4984 90.2202 52.4283 90.1536 52.357L88.4844 53.2497L87.7471 54.404L87.4597 54.2203L88.2448 52.9907L90.2 51.9453L90.2883 52.0171C90.4861 52.1788 90.5883 52.3524 90.6 52.5484C90.6144 52.7817 90.4982 53.0238 90.2446 53.2889C89.8837 53.6656 89.0811 55.5111 88.8023 56.1906Z"/>
</mask>
<path d="M88.8023 56.1906L88.4218 57.1154L89.3475 57.4962L89.7275 56.5702L88.8023 56.1906ZM88.4871 56.0609L87.562 55.681L87.1824 56.6054L88.1065 56.9856L88.4871 56.0609ZM89.9977 53.0528L89.2757 52.3609L89.2752 52.3615L89.9977 53.0528ZM90.2594 52.5693L89.2611 52.6265L89.2613 52.6308L90.2594 52.5693ZM90.1536 52.357L90.8844 51.6744L90.3598 51.1126L89.682 51.4751L90.1536 52.357ZM88.4844 53.2497L88.0128 52.3679L87.7823 52.4911L87.6416 52.7114L88.4844 53.2497ZM87.7471 54.404L87.2083 55.2465L88.0513 55.7856L88.5898 54.9423L87.7471 54.404ZM87.4597 54.2203L86.6169 53.6821L86.0791 54.5244L86.921 55.0628L87.4597 54.2203ZM88.2448 52.9907L87.7733 52.1088L87.5427 52.2321L87.4019 52.4526L88.2448 52.9907ZM90.2 51.9453L90.831 51.1695L90.315 50.7499L89.7285 51.0634L90.2 51.9453ZM90.2883 52.0171L90.9213 51.2429L90.9193 51.2413L90.2883 52.0171ZM90.6 52.5484L89.6017 52.608L89.6019 52.6099L90.6 52.5484ZM90.2446 53.2889L90.9668 53.9806L90.9672 53.9802L90.2446 53.2889ZM88.8023 56.1906L89.1829 55.2658L88.8676 55.1361L88.4871 56.0609L88.1065 56.9856L88.4218 57.1154L88.8023 56.1906ZM88.4871 56.0609L89.4121 56.4407C89.4312 56.3943 89.6828 55.7828 89.9864 55.1256C90.1386 54.796 90.2987 54.4664 90.4453 54.1951C90.5187 54.0593 90.5839 53.9471 90.639 53.8611C90.6996 53.7666 90.7267 53.7374 90.7203 53.7441L89.9977 53.0528L89.2752 52.3615C89.0506 52.5962 88.8427 52.9539 88.6859 53.2441C88.5109 53.5678 88.3311 53.9397 88.1707 54.2869C87.8492 54.9831 87.5848 55.6254 87.562 55.681L88.4871 56.0609ZM89.9977 53.0528L90.7197 53.7447C90.9257 53.5298 91.2935 53.0923 91.2575 52.5078L90.2594 52.5693L89.2613 52.6308C89.2501 52.449 89.3092 52.3337 89.3203 52.3132C89.333 52.2897 89.3287 52.3057 89.2757 52.3609L89.9977 53.0528ZM90.2594 52.5693L91.2578 52.5121C91.236 52.1314 91.0491 51.8507 90.8844 51.6744L90.1536 52.357L89.4227 53.0395C89.3914 53.0059 89.2747 52.8653 89.2611 52.6265L90.2594 52.5693ZM90.1536 52.357L89.682 51.4751L88.0128 52.3679L88.4844 53.2497L88.956 54.1315L90.6252 53.2388L90.1536 52.357ZM88.4844 53.2497L87.6416 52.7114L86.9043 53.8658L87.7471 54.404L88.5898 54.9423L89.3271 53.7879L88.4844 53.2497ZM87.7471 54.404L88.2858 53.5616L87.9985 53.3778L87.4597 54.2203L86.921 55.0628L87.2083 55.2465L87.7471 54.404ZM87.4597 54.2203L88.3026 54.7584L89.0876 53.5289L88.2448 52.9907L87.4019 52.4526L86.6169 53.6821L87.4597 54.2203ZM88.2448 52.9907L88.7163 53.8726L90.6715 52.8272L90.2 51.9453L89.7285 51.0634L87.7733 52.1088L88.2448 52.9907ZM90.2 51.9453L89.569 52.7211L89.6573 52.7929L90.2883 52.0171L90.9193 51.2413L90.831 51.1695L90.2 51.9453ZM90.2883 52.0171L89.6553 52.7913C89.6855 52.816 89.6732 52.8131 89.6516 52.7762C89.6404 52.7572 89.6283 52.7317 89.6187 52.7005C89.609 52.6692 89.6035 52.6377 89.6017 52.608L90.6 52.5484L91.5982 52.4888C91.5651 51.935 91.265 51.524 90.9213 51.2429L90.2883 52.0171ZM90.6 52.5484L89.6019 52.6099C89.5996 52.5737 89.6029 52.5411 89.6085 52.515C89.614 52.4896 89.6205 52.4756 89.6212 52.4741C89.6217 52.473 89.6168 52.4835 89.6008 52.5055C89.5847 52.5275 89.5596 52.5582 89.522 52.5976L90.2446 53.2889L90.9672 53.9802C91.3058 53.6262 91.6373 53.1232 91.5981 52.4869L90.6 52.5484ZM90.2446 53.2889L89.5224 52.5971C89.3302 52.7978 89.1567 53.0936 89.0303 53.3231C88.886 53.5852 88.7332 53.893 88.5887 54.1987C88.2989 54.8114 88.0215 55.4591 87.8772 55.811L88.8023 56.1906L89.7275 56.5702C89.8619 56.2426 90.1252 55.6278 90.3967 55.0537C90.5328 54.766 90.6658 54.4993 90.7821 54.2882C90.9164 54.0444 90.9786 53.9682 90.9667 53.9806L90.2446 53.2889Z" fill="black" mask="url(#path-110-inside-11_10331_47932)"/>
<path d="M80.2715 96.8691H80.2803C80.4202 96.8667 80.5436 96.9844 80.5439 97.1318C80.5441 97.2545 80.4547 97.3639 80.3291 97.3896L80.2725 97.3955L63.04 97.4141H63.0254C62.8782 97.4067 62.7688 97.2872 62.7686 97.1514L62.7734 97.0996C62.7977 96.982 62.904 96.888 63.0391 96.8877H63.04L80.2715 96.8691Z" stroke="black"/>
<path d="M81.4128 82.9336H95.7634C96.2266 82.9336 96.5281 83.3904 96.365 83.7988L91.2205 96.6797C91.0465 97.1148 90.6193 97.4051 90.1394 97.4053H73.0964L79.3904 84.2002C79.7582 83.429 80.545 82.9336 81.4128 82.9336Z" stroke="black"/>
<path d="M86.1232 89.7168C86.2561 89.3136 86.4715 89.005 86.6865 88.8249C86.9084 88.6392 87.0629 88.6364 87.1347 88.6601C87.2065 88.6839 87.3282 88.7781 87.396 89.0588C87.4619 89.3314 87.4516 89.7076 87.3187 90.1108C87.1858 90.5141 86.9704 90.8226 86.7554 91.0027C86.534 91.188 86.3801 91.1914 86.3082 91.1679C86.2364 91.1442 86.1138 91.0501 86.0459 90.7689C85.98 90.4962 85.9903 90.1201 86.1232 89.7168Z" stroke="black"/>
<path d="M57.3667 77.4385C57.572 77.5047 57.7984 77.6314 58.0356 77.8252C58.3627 78.0923 58.6845 78.4673 58.9663 78.917C59.5248 79.808 59.8856 80.9285 59.854 81.9521C59.6328 82.8561 59.1842 83.7966 58.6284 84.7725C58.0502 85.7876 57.4251 86.733 56.814 87.7676C56.3044 88.6303 56.482 89.7426 57.2476 90.3965C57.9655 91.0095 58.8475 91.9895 59.8276 92.9736C60.7677 93.9175 61.811 94.877 62.7661 95.2852L63.061 95.4111L63.2983 95.1963C64.2904 94.2976 65.1091 94.083 65.9419 94.3066C66.6401 94.4941 67.4106 95.0045 68.3296 95.8691H63.3003L62.9233 95.8604C61.0319 95.7825 59.0966 95.144 57.4556 94.2764C55.6946 93.3452 54.343 92.1882 53.7563 91.2676L53.7378 91.2393L53.7163 91.2139C53.6265 91.1069 53.5268 90.8694 53.4751 90.4404C53.4252 90.0265 53.4274 89.499 53.48 88.8828C53.5849 87.6525 53.8847 86.1299 54.3071 84.5752C54.7291 83.0224 55.2692 81.4542 55.8452 80.1328C56.363 78.945 56.8919 78.0015 57.3667 77.4385Z" stroke="black"/>
<path d="M106.341 96.5898C106.352 96.1774 106.905 96.0287 107.119 96.3916C108.845 99.3152 111.118 104.196 111.139 109.622C111.16 115.012 108.962 120.998 101.636 126.195C93.3368 132.082 89.7107 137.904 88.3184 142.704C86.9276 147.499 87.7825 151.215 88.3438 152.868C88.3724 152.952 88.3078 153.034 88.2227 153.029C88.1889 153.027 88.1596 153.012 88.1387 152.988C87.3602 152.089 84.0917 148.068 82.6182 142.436C81.1523 136.832 81.4554 129.617 87.8301 122.234C90.9067 118.671 93.5787 115.799 95.8623 113.371C98.1417 110.947 100.047 108.952 101.571 107.158C104.635 103.553 106.228 100.684 106.341 96.5898Z" stroke="black"/>
<path d="M114.979 134.907C114.816 136.422 114.288 138.842 112.628 141.156C110.92 143.538 107.989 145.85 102.928 146.935C97.3912 148.121 94.2697 149.069 92.5713 149.941C91.7214 150.378 91.1668 150.826 90.8633 151.33C90.544 151.861 90.5432 152.384 90.6475 152.859C90.6809 153.013 90.5555 153.17 90.3818 153.16C90.2046 153.149 90.0588 153.025 90.0195 152.856C89.7186 151.562 89.1407 148.503 89.5059 145.393C89.8707 142.286 91.1583 139.229 94.4961 137.736C98.2562 136.055 101.817 136.889 105.308 137.424C107.029 137.687 108.746 137.876 110.394 137.573C112.025 137.274 113.562 136.496 114.979 134.907Z" stroke="black"/>
<path d="M102.97 110.705C101.737 112.62 100.198 114.34 98.4668 115.833C97.6042 116.575 96.6713 117.27 95.7402 117.907C95.0386 118.388 94.3612 118.904 93.709 119.45L93.0645 120.006C91.3671 121.513 89.8565 123.226 88.5488 125.076H88.5479C86.0275 128.659 84.33 132.866 83.916 137.259C84.0591 135.14 84.5157 133.038 85.2266 131.028C85.8951 129.144 86.7987 127.344 87.8799 125.657L88.3535 124.941C89.6424 123.052 91.1751 121.331 92.8799 119.799C93.7336 119.035 94.6314 118.32 95.5742 117.669L95.5732 117.668C96.5211 117.025 97.4276 116.372 98.3008 115.637C100.038 114.187 101.626 112.542 102.962 110.695L102.961 110.694C102.993 110.651 103.025 110.606 103.057 110.562C103.027 110.61 103 110.658 102.97 110.705Z" stroke="black"/>
<mask id="path-119-inside-12_10331_47932" fill="white">
<path d="M89.751 151.889C89.778 151.79 89.7606 151.701 89.7505 151.61L89.7214 151.336L89.6738 150.788C89.6469 150.423 89.6273 150.057 89.6158 149.69C89.5934 148.957 89.6009 148.223 89.644 147.49C89.7342 146.026 89.954 144.556 90.4366 143.151C90.9134 141.756 91.6924 140.399 92.9004 139.459C93.5026 138.997 94.1949 138.648 94.9241 138.443C95.6522 138.231 96.4107 138.151 97.1591 138.16C100.098 138.279 102.997 138.623 105.895 138.862C107.337 138.967 108.798 139.048 110.184 138.751C110.528 138.674 110.865 138.572 111.19 138.44C111.511 138.301 111.825 138.141 112.114 137.941C112.697 137.548 113.197 137.032 113.636 136.469L113.637 136.467C113.697 136.39 113.809 136.376 113.887 136.436C113.963 136.496 113.978 136.605 113.92 136.683C113.477 137.278 112.962 137.836 112.344 138.273C112.037 138.495 111.702 138.675 111.358 138.833C111.01 138.983 110.65 139.1 110.284 139.19C108.809 139.521 107.317 139.446 105.859 139.357C104.396 139.26 102.948 139.099 101.496 138.975C100.05 138.849 98.5866 138.733 97.1507 138.673C96.4429 138.658 95.7337 138.728 95.059 138.918C94.3828 139.102 93.7468 139.416 93.1881 139.836C92.0617 140.678 91.2935 141.942 90.8082 143.283C90.3165 144.632 90.0723 146.07 89.9572 147.511C89.9014 148.233 89.8807 148.959 89.8896 149.684C89.8943 150.047 89.907 150.409 89.927 150.771L89.9641 151.314L89.9879 151.585C89.9971 151.674 89.9999 151.766 90.0504 151.848C90.0984 151.926 90.0743 152.028 89.9967 152.076C89.9189 152.124 89.8171 152.1 89.769 152.022C89.7441 151.982 89.7386 151.935 89.7501 151.892L89.751 151.889Z"/>
</mask>
<path d="M89.751 151.889L90.7091 152.176L90.7126 152.164L90.7158 152.152L89.751 151.889ZM89.7505 151.61L88.7561 151.716L88.7564 151.718L89.7505 151.61ZM89.7214 151.336L88.7251 151.423L88.7259 151.432L88.727 151.442L89.7214 151.336ZM89.6738 150.788L88.6764 150.861L88.6775 150.875L89.6738 150.788ZM89.6158 149.69L88.6163 149.721L88.6163 149.721L89.6158 149.69ZM89.644 147.49L88.6458 147.429L88.6457 147.431L89.644 147.49ZM90.4366 143.151L91.3823 143.476L91.3828 143.475L90.4366 143.151ZM92.9004 139.459L92.2918 138.666L92.2864 138.67L92.9004 139.459ZM94.9241 138.443L95.1954 139.405L95.203 139.403L94.9241 138.443ZM97.1591 138.16L97.1995 137.161L97.1856 137.161L97.1716 137.161L97.1591 138.16ZM105.895 138.862L105.813 139.858L105.822 139.859L105.895 138.862ZM110.184 138.751L110.393 139.729L110.403 139.727L110.184 138.751ZM111.19 138.44L111.567 139.367L111.578 139.362L111.589 139.357L111.19 138.44ZM112.114 137.941L111.554 137.113L111.545 137.119L112.114 137.941ZM113.636 136.469L112.856 135.843L112.851 135.849L112.847 135.854L113.636 136.469ZM113.637 136.467L114.417 137.093L114.421 137.087L114.426 137.082L113.637 136.467ZM113.887 136.436L113.272 137.225L113.273 137.225L113.887 136.436ZM113.92 136.683L114.722 137.28L114.723 137.28L113.92 136.683ZM112.344 138.273L111.766 137.456L111.758 137.462L112.344 138.273ZM111.358 138.833L111.755 139.75L111.765 139.746L111.775 139.741L111.358 138.833ZM110.284 139.19L110.503 140.166L110.513 140.163L110.523 140.161L110.284 139.19ZM105.859 139.357L105.793 140.354L105.798 140.355L105.859 139.357ZM101.496 138.975L101.41 139.971L101.411 139.971L101.496 138.975ZM97.1507 138.673L97.1924 137.674L97.1823 137.674L97.1722 137.673L97.1507 138.673ZM95.059 138.918L95.3218 139.883L95.3297 139.88L95.059 138.918ZM93.1881 139.836L93.787 140.637L93.7891 140.635L93.1881 139.836ZM90.8082 143.283L91.7477 143.626L91.7485 143.623L90.8082 143.283ZM89.9572 147.511L88.9604 147.432L88.9602 147.434L89.9572 147.511ZM89.8896 149.684L88.8897 149.696L88.8897 149.697L89.8896 149.684ZM89.927 150.771L88.9284 150.827L88.9293 150.84L89.927 150.771ZM89.9641 151.314L88.9665 151.382L88.9671 151.392L88.968 151.402L89.9641 151.314ZM89.9879 151.585L88.9917 151.672L88.9931 151.686L89.9879 151.585ZM90.0504 151.848L90.9014 151.323L90.9012 151.323L90.0504 151.848ZM89.9967 152.076L90.5219 152.927L90.5225 152.927L89.9967 152.076ZM89.769 152.022L88.9179 152.547L88.9185 152.548L89.769 152.022ZM89.7501 151.892L88.792 151.606L88.788 151.619L88.7843 151.633L89.7501 151.892ZM89.751 151.889L90.7158 152.152C90.7649 151.972 90.7691 151.814 90.7634 151.698C90.7608 151.643 90.7557 151.595 90.752 151.564C90.7461 151.512 90.7476 151.529 90.7446 151.501L89.7505 151.61L88.7564 151.718C88.7584 151.736 88.7604 151.753 88.7618 151.764C88.7634 151.778 88.7643 151.785 88.7652 151.793C88.7668 151.807 88.7663 151.805 88.7658 151.795C88.7647 151.772 88.7641 151.707 88.7862 151.626L89.751 151.889ZM89.7505 151.61L90.7449 151.504L90.7157 151.23L89.7214 151.336L88.727 151.442L88.7561 151.716L89.7505 151.61ZM89.7214 151.336L90.7176 151.249L90.67 150.702L89.6738 150.788L88.6775 150.875L88.7251 151.423L89.7214 151.336ZM89.6738 150.788L90.6711 150.715C90.6452 150.362 90.6264 150.01 90.6154 149.659L89.6158 149.69L88.6163 149.721C88.6283 150.103 88.6486 150.483 88.6764 150.861L89.6738 150.788ZM89.6158 149.69L90.6154 149.66C90.5938 148.954 90.601 148.25 90.6422 147.549L89.644 147.49L88.6457 147.431C88.6007 148.197 88.5931 148.961 88.6163 149.721L89.6158 149.69ZM89.644 147.49L90.6421 147.552C90.7289 146.143 90.9384 144.769 91.3823 143.476L90.4366 143.151L89.4908 142.826C88.9696 144.344 88.7395 145.909 88.6458 147.429L89.644 147.49ZM90.4366 143.151L91.3828 143.475C91.8204 142.195 92.5092 141.03 93.5143 140.248L92.9004 139.459L92.2864 138.67C90.8755 139.767 90.0065 141.318 89.4903 142.828L90.4366 143.151ZM92.9004 139.459L93.5089 140.253C94.0117 139.867 94.5898 139.576 95.1954 139.405L94.9241 138.443L94.6528 137.48C93.8 137.721 92.9935 138.127 92.2918 138.666L92.9004 139.459ZM94.9241 138.443L95.203 139.403C95.8186 139.224 96.4763 139.152 97.1465 139.16L97.1591 138.16L97.1716 137.161C96.3451 137.15 95.4858 137.238 94.6451 137.483L94.9241 138.443ZM97.1591 138.16L97.1187 139.16C100.032 139.277 102.865 139.616 105.813 139.858L105.895 138.862L105.977 137.865C103.128 137.631 100.165 137.281 97.1995 137.161L97.1591 138.16ZM105.895 138.862L105.822 139.859C107.254 139.964 108.849 140.06 110.393 139.729L110.184 138.751L109.974 137.774C108.746 138.036 107.42 137.97 105.967 137.864L105.895 138.862ZM110.184 138.751L110.403 139.727C110.794 139.639 111.184 139.522 111.567 139.367L111.19 138.44L110.814 137.514C110.546 137.623 110.262 137.709 109.965 137.776L110.184 138.751ZM111.19 138.44L111.589 139.357C111.944 139.203 112.321 139.014 112.683 138.764L112.114 137.941L111.545 137.119C111.329 137.269 111.078 137.398 110.791 137.524L111.19 138.44ZM112.114 137.941L112.674 138.77C113.37 138.3 113.944 137.7 114.425 137.083L113.636 136.469L112.847 135.854C112.449 136.364 112.024 136.796 111.555 137.113L112.114 137.941ZM113.636 136.469L114.415 137.095L114.417 137.093L113.637 136.467L112.857 135.841L112.856 135.843L113.636 136.469ZM113.637 136.467L114.426 137.082C114.147 137.439 113.631 137.504 113.272 137.225L113.887 136.436L114.501 135.647C113.988 135.247 113.247 135.34 112.848 135.853L113.637 136.467ZM113.887 136.436L113.273 137.225C112.918 136.949 112.852 136.443 113.118 136.086L113.92 136.683L114.723 137.28C115.103 136.768 115.009 136.042 114.501 135.647L113.887 136.436ZM113.92 136.683L113.118 136.086C112.716 136.626 112.273 137.098 111.766 137.456L112.344 138.273L112.921 139.089C113.651 138.573 114.239 137.93 114.722 137.28L113.92 136.683ZM112.344 138.273L111.758 137.462C111.522 137.633 111.249 137.782 110.94 137.924L111.358 138.833L111.775 139.741C112.155 139.567 112.553 139.356 112.93 139.083L112.344 138.273ZM111.358 138.833L110.961 137.915C110.671 138.04 110.364 138.141 110.045 138.219L110.284 139.19L110.523 140.161C110.936 140.059 111.35 139.926 111.755 139.75L111.358 138.833ZM110.284 139.19L110.065 138.214C108.747 138.51 107.389 138.449 105.92 138.359L105.859 139.357L105.798 140.355C107.244 140.443 108.871 140.532 110.503 140.166L110.284 139.19ZM105.859 139.357L105.925 138.359C104.471 138.262 103.07 138.106 101.582 137.978L101.496 138.975L101.411 139.971C102.825 140.092 104.322 140.257 105.793 140.354L105.859 139.357ZM101.496 138.975L101.583 137.978C100.133 137.853 98.6517 137.735 97.1924 137.674L97.1507 138.673L97.109 139.672C98.5216 139.731 99.9661 139.846 101.41 139.971L101.496 138.975ZM97.1507 138.673L97.1722 137.673C96.3862 137.657 95.5759 137.734 94.7884 137.955L95.059 138.918L95.3297 139.88C95.8914 139.722 96.4996 139.659 97.1292 139.673L97.1507 138.673ZM95.059 138.918L94.7963 137.953C93.9958 138.171 93.2453 138.542 92.5872 139.037L93.1881 139.836L93.7891 140.635C94.2483 140.29 94.7699 140.033 95.3218 139.883L95.059 138.918ZM93.1881 139.836L92.5893 139.035C91.2566 140.032 90.3946 141.487 89.8678 142.943L90.8082 143.283L91.7485 143.623C92.1924 142.396 92.8668 141.325 93.787 140.637L93.1881 139.836ZM90.8082 143.283L89.8686 142.941C89.3362 144.401 89.0799 145.935 88.9604 147.432L89.9572 147.511L90.954 147.591C91.0647 146.205 91.2969 144.862 91.7477 143.626L90.8082 143.283ZM89.9572 147.511L88.9602 147.434C88.9019 148.189 88.8805 148.944 88.8897 149.696L89.8896 149.684L90.8895 149.672C90.881 148.974 90.901 148.278 90.9542 147.588L89.9572 147.511ZM89.8896 149.684L88.8897 149.697C88.8946 150.074 88.9078 150.451 88.9285 150.827L89.927 150.771L90.9255 150.716C90.9062 150.368 90.8941 150.019 90.8895 149.671L89.8896 149.684ZM89.927 150.771L88.9293 150.84L88.9665 151.382L89.9641 151.314L90.9618 151.246L90.9247 150.703L89.927 150.771ZM89.9641 151.314L88.968 151.402L88.9918 151.672L89.9879 151.585L90.9841 151.497L90.9603 151.226L89.9641 151.314ZM89.9879 151.585L88.9931 151.686C88.9937 151.692 88.9943 151.699 88.9955 151.711C88.9965 151.722 88.998 151.738 88.9998 151.755C89.0033 151.789 89.0092 151.841 89.02 151.9C89.0421 152.02 89.0881 152.193 89.1997 152.374L90.0504 151.848L90.9012 151.323C90.9622 151.422 90.9815 151.508 90.9873 151.539C90.9899 151.553 90.9902 151.56 90.9891 151.549C90.9886 151.544 90.9879 151.537 90.9869 151.526C90.9859 151.515 90.9845 151.5 90.9828 151.483L89.9879 151.585ZM90.0504 151.848L89.1995 152.374C88.9576 151.982 89.0788 151.468 89.4709 151.225L89.9967 152.076L90.5225 152.927C91.0698 152.588 91.2392 151.87 90.9014 151.323L90.0504 151.848ZM89.9967 152.076L89.4714 151.225C89.8631 150.983 90.3771 151.104 90.6195 151.496L89.769 152.022L88.9185 152.548C89.257 153.096 89.9748 153.265 90.5219 152.927L89.9967 152.076ZM89.769 152.022L90.6201 151.497C90.746 151.701 90.7728 151.94 90.7158 152.152L89.7501 151.892L88.7843 151.633C88.7045 151.93 88.7422 152.262 88.9179 152.547L89.769 152.022ZM89.7501 151.892L90.7081 152.179L90.7091 152.176L89.751 151.889L88.7929 151.603L88.792 151.606L89.7501 151.892Z" fill="black" mask="url(#path-119-inside-12_10331_47932)"/>
</svg>
