<svg width="1920" height="544" viewBox="0 0 1920 544" fill="none" xmlns="http://www.w3.org/2000/svg">
<rect width="1920" height="522" fill="#3A3A3A"/>
<mask id="mask0_10196_19594" style="mask-type:luminance" maskUnits="userSpaceOnUse" x="0" y="0" width="1920" height="544">
<path d="M1920 0H0V544H1920V0Z" fill="white"/>
</mask>
<g mask="url(#mask0_10196_19594)">
<path d="M1687.91 19.602C1719.07 59.4609 2059.92 294.507 1379.48 436.771C1379.48 436.771 1324.88 464.477 1421.18 472.497C1517.48 480.517 1884.24 472.497 1884.24 472.497V-38.0742L1687.91 19.602Z" fill="url(#paint0_linear_10196_19594)"/>
</g>
<mask id="mask1_10196_19594" style="mask-type:luminance" maskUnits="userSpaceOnUse" x="0" y="0" width="1920" height="544">
<path d="M1920 0H0V544H1920V0Z" fill="white"/>
</mask>
<g mask="url(#mask1_10196_19594)">
<path d="M1650.4 -51.1719C1651.56 12.4462 1728.14 46.9004 1762.09 71.9421C1861.57 145.305 1869.91 226.267 1802.53 289.679C1716.64 370.519 1324.96 469.733 1134.32 470.569H1920V-51.1719H1650.4Z" fill="url(#paint1_linear_10196_19594)"/>
</g>
<mask id="mask2_10196_19594" style="mask-type:luminance" maskUnits="userSpaceOnUse" x="0" y="0" width="1920" height="544">
<path d="M1920 0H0V544H1920V0Z" fill="white"/>
</mask>
<g mask="url(#mask2_10196_19594)">
<path d="M8.08789 570.877C85.7807 513.372 271.566 451.454 882.974 459.58C1494.38 467.706 1920 308.945 1920 308.945V570.879H8.08789V570.877Z" fill="#28418E"/>
</g>
<mask id="mask3_10196_19594" style="mask-type:luminance" maskUnits="userSpaceOnUse" x="0" y="0" width="1920" height="544">
<path d="M1920 0H0V544H1920V0Z" fill="white"/>
</mask>
<g mask="url(#mask3_10196_19594)">
<path d="M32.232 594.642C109.925 537.137 263.48 475.219 874.886 483.345C1486.29 491.471 1911.91 345.203 1911.91 345.203V594.642H0H32.232Z" fill="url(#paint2_linear_10196_19594)"/>
</g>
<defs>
<linearGradient id="paint0_linear_10196_19594" x1="1659.42" y1="217.786" x2="1918.14" y2="248.421" gradientUnits="userSpaceOnUse">
<stop stop-color="#3B62B9"/>
<stop offset="0.1081" stop-color="#476CBD"/>
<stop offset="0.3037" stop-color="#6785C9"/>
<stop offset="0.5648" stop-color="#9BAFDB"/>
<stop offset="0.878" stop-color="#E2E8F5"/>
<stop offset="0.9975" stop-color="white"/>
</linearGradient>
<linearGradient id="paint1_linear_10196_19594" x1="1676.87" y1="479.829" x2="1476.78" y2="-19.8562" gradientUnits="userSpaceOnUse">
<stop stop-color="#1C2D65"/>
<stop offset="1" stop-color="#273A6F"/>
</linearGradient>
<linearGradient id="paint2_linear_10196_19594" x1="951.272" y1="449.304" x2="994.441" y2="712.307" gradientUnits="userSpaceOnUse">
<stop stop-color="#121E43"/>
<stop offset="1" stop-color="#313F68"/>
</linearGradient>
</defs>
</svg>
