<svg width="160" height="123" viewBox="0 0 160 123" fill="none" xmlns="http://www.w3.org/2000/svg">
<path d="M77.96 1.87695C86.4512 -0.807154 96.0112 0.556164 103.824 4.89453C111.637 9.23239 117.733 16.3759 121.509 24.502C125.281 32.6199 126.591 41.9071 126.508 50.9072L126.505 51.2891L126.872 51.3926C140.542 55.2676 151.451 67.5392 153.684 81.5508C155.909 95.5145 149.152 111.215 137.44 119.161H19.9453C14.7999 113.146 9.70536 106.837 5.92773 99.9463C2.11842 92.998 -0.227942 85.0615 0.705078 77.2676C1.46928 70.8838 4.47483 64.7858 9.07617 60.2881C13.6718 55.7959 19.4718 53.248 25.8887 52.6201L26.4375 52.5664L26.3311 52.0254C24.5701 43.1242 27.6719 33.4056 34.2666 27.1631C40.8688 20.9136 50.5526 18.1534 59.3516 20.3828L59.8281 20.5039L59.957 20.0293C62.2798 11.4785 69.4674 4.56163 77.96 1.87695Z" stroke="black"/>
<path d="M131.581 50.7891V107.142H50.8442V50.7891H131.581Z" stroke="black"/>
<path d="M129.668 52.7207V98.748H52.7563V52.7207H129.668Z" stroke="black"/>
<path d="M121.708 59.1152V91.8145H60.7173V59.1152H121.708Z" stroke="black"/>
<path d="M62.3184 60.5137C62.4297 60.5137 62.5185 60.6035 62.5186 60.7129C62.5186 60.8226 62.4297 60.912 62.3193 60.9121H62.3184C62.2071 60.9121 62.1182 60.8223 62.1182 60.7129C62.1182 60.6036 62.207 60.5137 62.3184 60.5137Z" stroke="black"/>
<path d="M64.8474 60.5137C64.9587 60.5137 65.0476 60.6035 65.0476 60.7129C65.0476 60.8226 64.9587 60.912 64.8484 60.9121H64.8474C64.7361 60.9121 64.6472 60.8223 64.6472 60.7129C64.6472 60.6036 64.7361 60.5137 64.8474 60.5137Z" stroke="black"/>
<path d="M67.3767 60.5137C67.488 60.5137 67.5769 60.6035 67.5769 60.7129C67.5769 60.8226 67.488 60.912 67.3777 60.9121H67.3767C67.2654 60.9121 67.1765 60.8223 67.1765 60.7129C67.1765 60.6036 67.2654 60.5137 67.3767 60.5137Z" stroke="black"/>
<path d="M93.853 118.754L93.5942 119.31H79.9048C79.8911 119.296 79.8654 119.262 79.8394 119.198C79.818 119.146 79.8026 119.09 79.7915 119.039L85.2847 107.404L99.2515 107.188L93.853 118.754Z" stroke="black"/>
<mask id="path-9-inside-1_10331_47377" fill="white">
<path d="M94.3059 118.987H80.2967C80.2105 118.987 80.1406 118.918 80.1406 118.832C80.1406 118.746 80.2105 118.676 80.2967 118.676H94.3059C94.3921 118.676 94.462 118.746 94.462 118.832C94.4616 118.918 94.3921 118.987 94.3059 118.987Z"/>
</mask>
<path d="M94.462 118.832L95.462 118.836V118.832H94.462ZM94.3059 118.987V117.987H80.2967V118.987V119.987H94.3059V118.987ZM80.2967 118.987V117.987C80.7613 117.987 81.1406 118.364 81.1406 118.832H80.1406H79.1406C79.1406 119.471 79.6598 119.987 80.2967 119.987V118.987ZM80.1406 118.832H81.1406C81.1406 119.299 80.7613 119.676 80.2967 119.676V118.676V117.676C79.6598 117.676 79.1406 118.192 79.1406 118.832H80.1406ZM80.2967 118.676V119.676H94.3059V118.676V117.676H80.2967V118.676ZM94.3059 118.676V119.676C93.8412 119.676 93.462 119.299 93.462 118.832H94.462H95.462C95.462 118.192 94.943 117.676 94.3059 117.676V118.676ZM94.462 118.832L93.462 118.827C93.464 118.367 93.8372 117.987 94.3059 117.987V118.987V119.987C94.9469 119.987 95.4592 119.468 95.462 118.836L94.462 118.832Z" fill="black" mask="url(#path-9-inside-1_10331_47377)"/>
<mask id="path-11-inside-2_10331_47377" fill="white">
<path d="M7.33254 41.0765H6.1965V39.938C6.1965 39.6927 5.99734 39.4961 5.75169 39.4961C5.50528 39.4961 5.30801 39.6931 5.30801 39.938V41.0765H4.17122C3.92557 41.0765 3.72754 41.2712 3.72754 41.5165C3.72754 41.7618 3.92595 41.9625 4.17122 41.9625H5.30801V43.0958C5.30801 43.3407 5.50528 43.5407 5.75169 43.5407C5.99734 43.5407 6.1965 43.3407 6.1965 43.0958V41.9625H7.33254C7.57819 41.9625 7.77735 41.7618 7.77735 41.5165C7.77697 41.2712 7.57781 41.0765 7.33254 41.0765Z"/>
</mask>
<path d="M6.1965 41.0765H5.1965V42.0765H6.1965V41.0765ZM5.30801 41.0765V42.0765H6.30801V41.0765H5.30801ZM5.30801 41.9625H6.30801V40.9625H5.30801V41.9625ZM6.1965 41.9625V40.9625H5.1965V41.9625H6.1965ZM7.77735 41.5165H8.77735L8.77735 41.515L7.77735 41.5165ZM7.33254 41.0765V40.0765H6.1965V41.0765V42.0765H7.33254V41.0765ZM6.1965 41.0765H7.1965V39.938H6.1965H5.1965V41.0765H6.1965ZM6.1965 39.938H7.1965C7.1965 39.1324 6.54155 38.4961 5.75169 38.4961V39.4961V40.4961C5.45312 40.4961 5.1965 40.253 5.1965 39.938H6.1965ZM5.75169 39.4961V38.4961C4.95606 38.4961 4.30801 39.1377 4.30801 39.938H5.30801H6.30801C6.30801 40.2484 6.05451 40.4961 5.75169 40.4961V39.4961ZM5.30801 39.938H4.30801V41.0765H5.30801H6.30801V39.938H5.30801ZM5.30801 41.0765V40.0765H4.17122V41.0765V42.0765H5.30801V41.0765ZM4.17122 41.0765V40.0765C3.38363 40.0765 2.72754 40.7086 2.72754 41.5165H3.72754H4.72754C4.72754 41.8338 4.46751 42.0765 4.17122 42.0765V41.0765ZM3.72754 41.5165H2.72754C2.72754 42.3072 3.36679 42.9625 4.17122 42.9625V41.9625V40.9625C4.4851 40.9625 4.72754 41.2164 4.72754 41.5165H3.72754ZM4.17122 41.9625V42.9625H5.30801V41.9625V40.9625H4.17122V41.9625ZM5.30801 41.9625H4.30801V43.0958H5.30801H6.30801V41.9625H5.30801ZM5.30801 43.0958H4.30801C4.30801 43.8871 4.9472 44.5407 5.75169 44.5407V43.5407V42.5407C6.06336 42.5407 6.30801 42.7942 6.30801 43.0958H5.30801ZM5.75169 43.5407V44.5407C6.55099 44.5407 7.1965 43.8916 7.1965 43.0958H6.1965H5.1965C5.1965 42.7897 5.44369 42.5407 5.75169 42.5407V43.5407ZM6.1965 43.0958H7.1965V41.9625H6.1965H5.1965V43.0958H6.1965ZM6.1965 41.9625V42.9625H7.33254V41.9625V40.9625H6.1965V41.9625ZM7.33254 41.9625V42.9625C8.13458 42.9625 8.77735 42.3099 8.77735 41.5165H7.77735H6.77735C6.77735 41.2136 7.02179 40.9625 7.33254 40.9625V41.9625ZM7.77735 41.5165L8.77735 41.515C8.7761 40.7058 8.11727 40.0765 7.33254 40.0765V41.0765V42.0765C7.03834 42.0765 6.77784 41.8366 6.77735 41.518L7.77735 41.5165Z" fill="black" mask="url(#path-11-inside-2_10331_47377)"/>
<mask id="path-13-inside-3_10331_47377" fill="white">
<path d="M146.247 36.1113H145.111V34.9731C145.111 34.7279 144.911 34.5312 144.666 34.5312C144.419 34.5312 144.222 34.7282 144.222 34.9731V36.1113H143.085C142.84 36.1113 142.642 36.306 142.642 36.5513C142.642 36.7966 142.84 36.9973 143.085 36.9973H144.222V38.1305C144.222 38.3754 144.419 38.5754 144.666 38.5754C144.911 38.5754 145.111 38.3754 145.111 38.1305V36.9973H146.247C146.492 36.9973 146.691 36.7966 146.691 36.5513C146.691 36.3064 146.492 36.1113 146.247 36.1113Z"/>
</mask>
<path d="M145.111 36.1113H144.111V37.1113H145.111V36.1113ZM144.222 36.1113V37.1113H145.222V36.1113H144.222ZM144.222 36.9973H145.222V35.9973H144.222V36.9973ZM145.111 36.9973V35.9973H144.111V36.9973H145.111ZM146.247 36.1113V35.1113H145.111V36.1113V37.1113H146.247V36.1113ZM145.111 36.1113H146.111V34.9731H145.111H144.111V36.1113H145.111ZM145.111 34.9731H146.111C146.111 34.1675 145.456 33.5312 144.666 33.5312V34.5312V35.5312C144.367 35.5312 144.111 35.2882 144.111 34.9731H145.111ZM144.666 34.5312V33.5312C143.87 33.5312 143.222 34.1729 143.222 34.9731H144.222H145.222C145.222 35.2836 144.969 35.5312 144.666 35.5312V34.5312ZM144.222 34.9731H143.222V36.1113H144.222H145.222V34.9731H144.222ZM144.222 36.1113V35.1113H143.085V36.1113V37.1113H144.222V36.1113ZM143.085 36.1113V35.1113C142.298 35.1113 141.642 35.7434 141.642 36.5513H142.642H143.642C143.642 36.8686 143.382 37.1113 143.085 37.1113V36.1113ZM142.642 36.5513H141.642C141.642 37.3419 142.281 37.9973 143.085 37.9973V36.9973V35.9973C143.399 35.9973 143.642 36.2512 143.642 36.5513H142.642ZM143.085 36.9973V37.9973H144.222V36.9973V35.9973H143.085V36.9973ZM144.222 36.9973H143.222V38.1305H144.222H145.222V36.9973H144.222ZM144.222 38.1305H143.222C143.222 38.9219 143.861 39.5754 144.666 39.5754V38.5754V37.5754C144.977 37.5754 145.222 37.829 145.222 38.1305H144.222ZM144.666 38.5754V39.5754C145.465 39.5754 146.111 38.9264 146.111 38.1305H145.111H144.111C144.111 37.8245 144.358 37.5754 144.666 37.5754V38.5754ZM145.111 38.1305H146.111V36.9973H145.111H144.111V38.1305H145.111ZM145.111 36.9973V37.9973H146.247V36.9973V35.9973H145.111V36.9973ZM146.247 36.9973V37.9973C147.049 37.9973 147.691 37.3447 147.691 36.5513H146.691H145.691C145.691 36.2484 145.936 35.9973 146.247 35.9973V36.9973ZM146.691 36.5513H147.691C147.691 35.741 147.031 35.1113 146.247 35.1113V36.1113V37.1113C145.953 37.1113 145.691 36.8717 145.691 36.5513H146.691Z" fill="black" mask="url(#path-13-inside-3_10331_47377)"/>
<mask id="path-15-inside-4_10331_47377" fill="white">
<path d="M127.224 7.1374C127.224 8.22949 128.114 9.11856 129.207 9.11856C130.3 9.11856 131.19 8.22949 131.19 7.1374C131.19 6.04645 130.3 5.15625 129.207 5.15625C128.114 5.15625 127.224 6.04645 127.224 7.1374ZM127.984 7.1374C127.984 6.46419 128.533 5.91588 129.207 5.91588C129.882 5.91588 130.43 6.46457 130.43 7.1374C130.43 7.81137 129.882 8.35817 129.207 8.35817C128.533 8.35817 127.984 7.81175 127.984 7.1374Z"/>
</mask>
<path d="M127.224 7.1374H126.224C126.224 8.7828 127.563 10.1186 129.207 10.1186V9.11856V8.11856C128.665 8.11856 128.224 7.67618 128.224 7.1374H127.224ZM129.207 9.11856V10.1186C130.852 10.1186 132.19 8.78242 132.19 7.1374H131.19H130.19C130.19 7.67656 129.749 8.11856 129.207 8.11856V9.11856ZM131.19 7.1374H132.19C132.19 5.49389 130.852 4.15625 129.207 4.15625V5.15625V6.15625C129.748 6.15625 130.19 6.59901 130.19 7.1374H131.19ZM129.207 5.15625V4.15625C127.562 4.15625 126.224 5.49351 126.224 7.1374H127.224H128.224C128.224 6.59939 128.666 6.15625 129.207 6.15625V5.15625ZM127.984 7.1374H128.984C128.984 7.01706 129.084 6.91588 129.207 6.91588V5.91588V4.91588C127.981 4.91588 126.984 5.91132 126.984 7.1374H127.984ZM129.207 5.91588V6.91588C129.33 6.91588 129.43 7.01685 129.43 7.1374H130.43H131.43C131.43 5.91229 130.434 4.91588 129.207 4.91588V5.91588ZM130.43 7.1374H129.43C129.43 7.25789 129.331 7.35817 129.207 7.35817V8.35817V9.35817C130.433 9.35817 131.43 8.36486 131.43 7.1374H130.43ZM129.207 8.35817V7.35817C129.083 7.35817 128.984 7.25748 128.984 7.1374H127.984H126.984C126.984 8.36603 127.982 9.35817 129.207 9.35817V8.35817Z" fill="black" mask="url(#path-15-inside-4_10331_47377)"/>
<mask id="path-17-inside-5_10331_47377" fill="white">
<path d="M44.7072 5.15694C44.7072 6.24902 45.5975 7.13809 46.6901 7.13809C47.7838 7.13809 48.6731 6.24902 48.6731 5.15694C48.6731 4.06598 47.7834 3.17578 46.6901 3.17578C45.5975 3.17578 44.7072 4.06598 44.7072 5.15694ZM45.4679 5.15694C45.4679 4.48372 46.0163 3.93541 46.6905 3.93541C47.3655 3.93541 47.9131 4.4841 47.9131 5.15694C47.9131 5.83091 47.3658 6.37771 46.6905 6.37771C46.0163 6.37771 45.4679 5.83091 45.4679 5.15694Z"/>
</mask>
<path d="M44.7072 5.15694H43.7072C43.7072 6.80233 45.0463 8.13809 46.6901 8.13809V7.13809V6.13809C46.1488 6.13809 45.7072 5.69572 45.7072 5.15694H44.7072ZM46.6901 7.13809V8.13809C48.3354 8.13809 49.6731 6.80196 49.6731 5.15694H48.6731H47.6731C47.6731 5.69609 47.2322 6.13809 46.6901 6.13809V7.13809ZM48.6731 5.15694H49.6731C49.6731 3.51329 48.3353 2.17578 46.6901 2.17578V3.17578V4.17578C47.2316 4.17578 47.6731 4.61867 47.6731 5.15694H48.6731ZM46.6901 3.17578V2.17578C45.0459 2.17578 43.7072 3.51305 43.7072 5.15694H44.7072H45.7072C45.7072 4.61891 46.1492 4.17578 46.6901 4.17578V3.17578ZM45.4679 5.15694H46.4679C46.4679 5.0366 46.568 4.93541 46.6905 4.93541V3.93541V2.93541C45.4646 2.93541 44.4679 3.93084 44.4679 5.15694H45.4679ZM46.6905 3.93541V4.93541C46.8132 4.93541 46.9131 5.03637 46.9131 5.15694H47.9131H48.9131C48.9131 3.93183 47.9178 2.93541 46.6905 2.93541V3.93541ZM47.9131 5.15694H46.9131C46.9131 5.27743 46.8147 5.37771 46.6905 5.37771V6.37771V7.37771C47.9169 7.37771 48.9131 6.38438 48.9131 5.15694H47.9131ZM46.6905 6.37771V5.37771C46.5668 5.37771 46.4679 5.27682 46.4679 5.15694H45.4679H44.4679C44.4679 6.38499 45.4658 7.37771 46.6905 7.37771V6.37771Z" fill="black" mask="url(#path-17-inside-5_10331_47377)"/>
<mask id="path-19-inside-6_10331_47377" fill="white">
<path d="M5.47168 23.2546C5.47168 24.3467 6.36206 25.2357 7.45464 25.2357C8.54834 25.2357 9.43759 24.3467 9.43759 23.2546C9.43759 22.1636 8.54796 21.2734 7.45464 21.2734C6.36206 21.2734 5.47168 22.1636 5.47168 23.2546ZM6.23206 23.2546C6.23206 22.5814 6.78042 22.0331 7.45464 22.0331C8.1296 22.0331 8.67721 22.5818 8.67721 23.2546C8.67721 23.9286 8.12998 24.4754 7.45464 24.4754C6.78042 24.4754 6.23206 23.9289 6.23206 23.2546Z"/>
</mask>
<path d="M7.45464 24.4754V25.4754V24.4754ZM5.47168 23.2546H4.47168C4.47168 24.9 5.8108 26.2357 7.45464 26.2357V25.2357V24.2357C6.91332 24.2357 6.47168 23.7934 6.47168 23.2546H5.47168ZM7.45464 25.2357V26.2357C9.09997 26.2357 10.4376 24.8996 10.4376 23.2546H9.43759H8.43759C8.43759 23.7937 7.99671 24.2357 7.45464 24.2357V25.2357ZM9.43759 23.2546H10.4376C10.4376 21.6109 9.09984 20.2734 7.45464 20.2734V21.2734V22.2734C7.99608 22.2734 8.43759 22.7163 8.43759 23.2546H9.43759ZM7.45464 21.2734V20.2734C5.81043 20.2734 4.47168 21.6107 4.47168 23.2546H5.47168H6.47168C6.47168 22.7166 6.9137 22.2734 7.45464 22.2734V21.2734ZM6.23206 23.2546H7.23206C7.23206 23.1343 7.33212 23.0331 7.45464 23.0331V22.0331V21.0331C6.22873 21.0331 5.23206 22.0285 5.23206 23.2546H6.23206ZM7.45464 22.0331V23.0331C7.57731 23.0331 7.67721 23.134 7.67721 23.2546H8.67721H9.67721C9.67721 22.0295 8.6819 21.0331 7.45464 21.0331V22.0331ZM8.67721 23.2546H7.67721C7.67721 23.3751 7.57889 23.4754 7.45464 23.4754V24.4754V25.4754C8.68107 25.4754 9.67721 24.482 9.67721 23.2546H8.67721ZM7.45464 24.4754V23.4754C7.33071 23.4754 7.23206 23.3747 7.23206 23.2546H6.23206H5.23206C5.23206 24.4832 6.23014 25.4754 7.45464 25.4754V24.4754Z" fill="black" mask="url(#path-19-inside-6_10331_47377)"/>
<mask id="path-21-inside-7_10331_47377" fill="white">
<path d="M127.421 18.043C127.143 18.043 126.921 18.269 126.921 18.5441C126.921 18.8226 127.143 19.0415 127.421 19.0415H132.42C132.697 19.0415 132.922 18.8226 132.922 18.5441C132.922 18.269 132.697 18.043 132.42 18.043H127.421Z"/>
</mask>
<path d="M127.421 18.043V17.043C126.584 17.043 125.921 17.7232 125.921 18.5441H126.921H127.921C127.921 18.8148 127.702 19.043 127.421 19.043V18.043ZM126.921 18.5441H125.921C125.921 19.3827 126.599 20.0415 127.421 20.0415V19.0415V18.0415C127.688 18.0415 127.921 18.2625 127.921 18.5441H126.921ZM127.421 19.0415V20.0415H132.42V19.0415V18.0415H127.421V19.0415ZM132.42 19.0415V20.0415C133.237 20.0415 133.922 19.3871 133.922 18.5441H132.922H131.922C131.922 18.2581 132.157 18.0415 132.42 18.0415V19.0415ZM132.922 18.5441H133.922C133.922 17.7188 133.251 17.043 132.42 17.043V18.043V19.043C132.143 19.043 131.922 18.8192 131.922 18.5441H132.922ZM132.42 18.043V17.043H127.421V18.043V19.043H132.42V18.043Z" fill="black" mask="url(#path-21-inside-7_10331_47377)"/>
<mask id="path-23-inside-8_10331_47377" fill="white">
<path d="M134.564 18.043C134.289 18.043 134.064 18.269 134.064 18.5441C134.064 18.8226 134.289 19.0415 134.564 19.0415H135.482C135.758 19.0415 135.981 18.8226 135.981 18.5441C135.981 18.269 135.759 18.043 135.482 18.043H134.564Z"/>
</mask>
<path d="M134.564 18.043V17.043C133.734 17.043 133.064 17.7193 133.064 18.5441H134.064H135.064C135.064 18.8188 134.844 19.043 134.564 19.043V18.043ZM134.064 18.5441H133.064C133.064 19.3866 133.749 20.0415 134.564 20.0415V19.0415V18.0415C134.83 18.0415 135.064 18.2586 135.064 18.5441H134.064ZM134.564 19.0415V20.0415H135.482V19.0415V18.0415H134.564V19.0415ZM135.482 19.0415V20.0415C136.303 20.0415 136.981 19.3822 136.981 18.5441H135.981H134.981C134.981 18.263 135.213 18.0415 135.482 18.0415V19.0415ZM135.981 18.5441H136.981C136.981 17.7242 136.318 17.043 135.482 17.043V18.043V19.043C135.199 19.043 134.981 18.8138 134.981 18.5441H135.981ZM135.482 18.043V17.043H134.564V18.043V19.043H135.482V18.043Z" fill="black" mask="url(#path-23-inside-8_10331_47377)"/>
<mask id="path-25-inside-9_10331_47377" fill="white">
<path d="M18.4678 13.1484C18.19 13.1484 17.9678 13.3745 17.9678 13.6496C17.9678 13.9281 18.19 14.1469 18.4678 14.1469H23.4673C23.7439 14.1469 23.9684 13.9281 23.9684 13.6496C23.9684 13.3745 23.7443 13.1484 23.4673 13.1484H18.4678Z"/>
</mask>
<path d="M18.4678 13.1484V12.1484C17.6312 12.1484 16.9678 12.8287 16.9678 13.6496H17.9678H18.9678C18.9678 13.9203 18.7487 14.1484 18.4678 14.1484V13.1484ZM17.9678 13.6496H16.9678C16.9678 14.4882 17.6456 15.1469 18.4678 15.1469V14.1469V13.1469C18.7344 13.1469 18.9678 13.368 18.9678 13.6496H17.9678ZM18.4678 14.1469V15.1469H23.4673V14.1469V13.1469H18.4678V14.1469ZM23.4673 14.1469V15.1469C24.2839 15.1469 24.9684 14.4926 24.9684 13.6496H23.9684H22.9684C22.9684 13.3636 23.2039 13.1469 23.4673 13.1469V14.1469ZM23.9684 13.6496H24.9684C24.9684 12.8247 24.2991 12.1484 23.4673 12.1484V13.1484V14.1484C23.1895 14.1484 22.9684 13.9242 22.9684 13.6496H23.9684ZM23.4673 13.1484V12.1484H18.4678V13.1484V14.1484H23.4673V13.1484Z" fill="black" mask="url(#path-25-inside-9_10331_47377)"/>
<mask id="path-27-inside-10_10331_47377" fill="white">
<path d="M25.61 13.1484C25.3352 13.1484 25.11 13.3745 25.11 13.6496C25.11 13.9281 25.3352 14.1469 25.61 14.1469H26.5276C26.8042 14.1469 27.0268 13.9281 27.0268 13.6496C27.0268 13.3745 26.8046 13.1484 26.5276 13.1484H25.61Z"/>
</mask>
<path d="M25.61 13.1484V12.1484C24.7804 12.1484 24.11 12.8247 24.11 13.6496H25.11H26.11C26.11 13.9242 25.89 14.1484 25.61 14.1484V13.1484ZM25.11 13.6496H24.11C24.11 14.4921 24.7947 15.1469 25.61 15.1469V14.1469V13.1469C25.8757 13.1469 26.11 13.3641 26.11 13.6496H25.11ZM25.61 14.1469V15.1469H26.5276V14.1469V13.1469H25.61V14.1469ZM26.5276 14.1469V15.1469C27.3491 15.1469 28.0268 14.4877 28.0268 13.6496H27.0268H26.0268C26.0268 13.3685 26.2593 13.1469 26.5276 13.1469V14.1469ZM27.0268 13.6496H28.0268C28.0268 12.8297 27.3643 12.1484 26.5276 12.1484V13.1484V14.1484C26.2449 14.1484 26.0268 13.9193 26.0268 13.6496H27.0268ZM26.5276 13.1484V12.1484H25.61V13.1484V14.1484H26.5276V13.1484Z" fill="black" mask="url(#path-27-inside-10_10331_47377)"/>
<mask id="path-29-inside-11_10331_47377" fill="white">
<path d="M149.144 53.9961C148.879 53.9961 148.667 54.2221 148.667 54.4972C148.667 54.7757 148.879 54.9946 149.144 54.9946H153.915C154.179 54.9946 154.393 54.7757 154.393 54.4972C154.393 54.2221 154.179 53.9961 153.915 53.9961H149.144Z"/>
</mask>
<path d="M149.144 53.9961V52.9961C148.278 52.9961 147.667 53.7204 147.667 54.4972H148.667H149.667C149.667 54.7239 149.481 54.9961 149.144 54.9961V53.9961ZM148.667 54.4972H147.667C147.667 55.2916 148.291 55.9946 149.144 55.9946V54.9946V53.9946C149.467 53.9946 149.667 54.2599 149.667 54.4972H148.667ZM149.144 54.9946V55.9946H153.915V54.9946V53.9946H149.144V54.9946ZM153.915 54.9946V55.9946C154.763 55.9946 155.393 55.2952 155.393 54.4972H154.393H153.393C153.393 54.2562 153.594 53.9946 153.915 53.9946V54.9946ZM154.393 54.4972H155.393C155.393 53.7172 154.777 52.9961 153.915 52.9961V53.9961V54.9961C153.58 54.9961 153.393 54.7271 153.393 54.4972H154.393ZM153.915 53.9961V52.9961H149.144V53.9961V54.9961H153.915V53.9961Z" fill="black" mask="url(#path-29-inside-11_10331_47377)"/>
<mask id="path-31-inside-12_10331_47377" fill="white">
<path d="M157.718 53.9961C157.455 53.9961 157.24 54.2221 157.24 54.4972C157.24 54.7757 157.455 54.9946 157.718 54.9946H158.593C158.857 54.9946 159.069 54.7757 159.069 54.4972C159.069 54.2221 158.857 53.9961 158.593 53.9961H157.718Z"/>
</mask>
<path d="M157.718 53.9961V52.9961C156.857 52.9961 156.24 53.7167 156.24 54.4972H157.24H158.24C158.24 54.7276 158.053 54.9961 157.718 54.9961V53.9961ZM157.24 54.4972H156.24C156.24 55.2958 156.871 55.9946 157.718 55.9946V54.9946V53.9946C158.039 53.9946 158.24 54.2557 158.24 54.4972H157.24ZM157.718 54.9946V55.9946H158.593V54.9946V53.9946H157.718V54.9946ZM158.593 54.9946V55.9946C159.447 55.9946 160.069 55.29 160.069 54.4972H159.069H158.069C158.069 54.2615 158.268 53.9946 158.593 53.9946V54.9946ZM159.069 54.4972H160.069C160.069 53.7225 159.461 52.9961 158.593 52.9961V53.9961V54.9961C158.254 54.9961 158.069 54.7218 158.069 54.4972H159.069ZM158.593 53.9961V52.9961H157.718V53.9961V54.9961H158.593V53.9961Z" fill="black" mask="url(#path-31-inside-12_10331_47377)"/>
<path d="M85.2358 70.0508H138.149C138.694 70.0507 139.134 70.4926 139.134 71.0352V102.25C139.134 102.793 138.694 103.233 138.148 103.233H85.2358C84.6905 103.233 84.2495 102.792 84.2495 102.25V71.0342C84.2497 70.4917 84.6909 70.0508 85.2358 70.0508Z" stroke="black"/>
<path d="M97.3062 79.3877C102.443 79.4179 106.596 83.5849 106.596 88.7197C106.596 91.1253 105.686 93.3161 104.19 94.9707C102.478 96.863 100.003 98.0517 97.2495 98.0518C92.0856 98.0518 87.9011 93.874 87.9009 88.7197C87.9009 87.6173 88.0927 86.5597 88.4438 85.5781L97.0562 89.1807L97.7856 89.4863L97.7485 88.6953L97.3062 79.3877Z" stroke="black"/>
<path d="M95.7314 86.3291L87.8525 83.0332C88.1511 82.4178 88.5148 81.84 88.9355 81.3096C90.4648 79.3793 92.7398 78.0688 95.3271 77.8115L95.7314 86.3291Z" stroke="black"/>
<path d="M130.304 82.4473V82.7979H129.952V82.4473H130.304Z" stroke="black"/>
<mask id="path-37-inside-13_10331_47377" fill="white">
<path d="M136.561 82.7912H131.716C131.708 82.7912 131.701 82.7845 131.701 82.7765V82.4678C131.701 82.4595 131.708 82.4531 131.716 82.4531H136.561C136.57 82.4531 136.576 82.4595 136.576 82.4678V82.7765C136.576 82.7845 136.569 82.7912 136.561 82.7912Z"/>
</mask>
<path d="M136.561 82.7912V81.7912H131.716V82.7912V83.7912H136.561V82.7912ZM131.716 82.7912V81.7912C132.258 81.7912 132.701 82.2298 132.701 82.7765H131.701H130.701C130.701 83.3391 131.158 83.7912 131.716 83.7912V82.7912ZM131.701 82.7765H132.701V82.4678H131.701H130.701V82.7765H131.701ZM131.701 82.4678H132.701C132.701 83.0298 132.242 83.4531 131.716 83.4531V82.4531V81.4531C131.174 81.4531 130.701 81.8893 130.701 82.4678H131.701ZM131.716 82.4531V83.4531H136.561V82.4531V81.4531H131.716V82.4531ZM136.561 82.4531V83.4531C136.019 83.4531 135.576 83.0132 135.576 82.4678H136.576H137.576C137.576 81.9059 137.12 81.4531 136.561 81.4531V82.4531ZM136.576 82.4678H135.576V82.7765H136.576H137.576V82.4678H136.576ZM136.576 82.7765H135.576C135.576 82.2298 136.019 81.7912 136.561 81.7912V82.7912V83.7912C137.119 83.7912 137.576 83.3391 137.576 82.7765H136.576Z" fill="black" mask="url(#path-37-inside-13_10331_47377)"/>
<path d="M130.304 80.041V80.3916H129.952V80.041H130.304Z" stroke="black"/>
<mask id="path-40-inside-14_10331_47377" fill="white">
<path d="M136.561 80.385H131.716C131.708 80.385 131.701 80.3786 131.701 80.3703V80.0616C131.701 80.0533 131.708 80.0469 131.716 80.0469H136.561C136.57 80.0469 136.576 80.0537 136.576 80.0616V80.3703C136.576 80.3782 136.569 80.385 136.561 80.385Z"/>
</mask>
<path d="M136.561 80.385V79.385H131.716V80.385V81.385H136.561V80.385ZM131.716 80.385V79.385C132.242 79.385 132.701 79.8083 132.701 80.3703H131.701H130.701C130.701 80.9489 131.174 81.385 131.716 81.385V80.385ZM131.701 80.3703H132.701V80.0616H131.701H130.701V80.3703H131.701ZM131.701 80.0616H132.701C132.701 80.6236 132.242 81.0469 131.716 81.0469V80.0469V79.0469C131.174 79.0469 130.701 79.483 130.701 80.0616H131.701ZM131.716 80.0469V81.0469H136.561V80.0469V79.0469H131.716V80.0469ZM136.561 80.0469V81.0469C136.002 81.0469 135.576 80.5906 135.576 80.0616H136.576H137.576C137.576 79.5167 137.137 79.0469 136.561 79.0469V80.0469ZM136.576 80.0616H135.576V80.3703H136.576H137.576V80.0616H136.576ZM136.576 80.3703H135.576C135.576 79.8245 136.018 79.385 136.561 79.385V80.385V81.385C137.12 81.385 137.576 80.9319 137.576 80.3703H136.576Z" fill="black" mask="url(#path-40-inside-14_10331_47377)"/>
<path d="M130.304 84.8535V85.2041H129.952V84.8535H130.304Z" stroke="black"/>
<mask id="path-43-inside-15_10331_47377" fill="white">
<path d="M136.561 85.1975H131.716C131.708 85.1975 131.701 85.1911 131.701 85.1828V84.8741C131.701 84.8658 131.708 84.8594 131.716 84.8594H136.561C136.57 84.8594 136.576 84.8658 136.576 84.8741V85.1828C136.576 85.1907 136.569 85.1975 136.561 85.1975Z"/>
</mask>
<path d="M136.561 85.1975V84.1975H131.716V85.1975V86.1975H136.561V85.1975ZM131.716 85.1975V84.1975C132.241 84.1975 132.701 84.6198 132.701 85.1828H131.701H130.701C130.701 85.7624 131.175 86.1975 131.716 86.1975V85.1975ZM131.701 85.1828H132.701V84.8741H131.701H130.701V85.1828H131.701ZM131.701 84.8741H132.701C132.701 85.4361 132.242 85.8594 131.716 85.8594V84.8594V83.8594C131.174 83.8594 130.701 84.2955 130.701 84.8741H131.701ZM131.716 84.8594V85.8594H136.561V84.8594V83.8594H131.716V84.8594ZM136.561 84.8594V85.8594C136.019 85.8594 135.576 85.4195 135.576 84.8741H136.576H137.576C137.576 84.3121 137.12 83.8594 136.561 83.8594V84.8594ZM136.576 84.8741H135.576V85.1828H136.576H137.576V84.8741H136.576ZM136.576 85.1828H135.576C135.576 84.636 136.019 84.1975 136.561 84.1975V85.1975V86.1975C137.119 86.1975 137.576 85.7454 137.576 85.1828H136.576Z" fill="black" mask="url(#path-43-inside-15_10331_47377)"/>
<mask id="path-45-inside-16_10331_47377" fill="white">
<path d="M136.406 89.9358H129.62C129.527 89.9358 129.451 89.8603 129.451 89.7667C129.451 89.6735 129.527 89.5977 129.62 89.5977H136.406C136.5 89.5977 136.576 89.6735 136.576 89.7667C136.576 89.8603 136.5 89.9358 136.406 89.9358Z"/>
</mask>
<path d="M136.576 89.7667H135.576L135.576 89.7708L136.576 89.7667ZM136.406 89.9358V88.9358H129.62V89.9358V90.9358H136.406V89.9358ZM129.62 89.9358V88.9358C130.077 88.9358 130.451 89.3052 130.451 89.7667H129.451H128.451C128.451 90.4154 128.978 90.9358 129.62 90.9358V89.9358ZM129.451 89.7667H130.451C130.451 90.2257 130.079 90.5977 129.62 90.5977V89.5977V88.5977C128.974 88.5977 128.451 89.1213 128.451 89.7667H129.451ZM129.62 89.5977V90.5977H136.406V89.5977V88.5977H129.62V89.5977ZM136.406 89.5977V90.5977C135.948 90.5977 135.576 90.2257 135.576 89.7667H136.576H137.576C137.576 89.1213 137.053 88.5977 136.406 88.5977V89.5977ZM136.576 89.7667L135.576 89.7708C135.574 89.3038 135.953 88.9358 136.406 88.9358V89.9358V90.9358C137.047 90.9358 137.578 90.4168 137.576 89.7627L136.576 89.7667Z" fill="black" mask="url(#path-45-inside-16_10331_47377)"/>
<mask id="path-47-inside-17_10331_47377" fill="white">
<path d="M136.406 91.3244H129.62C129.527 91.3244 129.451 91.2486 129.451 91.1554C129.451 91.0622 129.527 90.9863 129.62 90.9863H136.406C136.5 90.9863 136.576 91.0622 136.576 91.1554C136.576 91.2486 136.5 91.3244 136.406 91.3244Z"/>
</mask>
<path d="M136.576 91.1554H135.576L135.576 91.1594L136.576 91.1554ZM136.406 91.3244V90.3244H129.62V91.3244V92.3244H136.406V91.3244ZM129.62 91.3244V90.3244C130.078 90.3244 130.451 90.6949 130.451 91.1554H129.451H128.451C128.451 91.8023 128.976 92.3244 129.62 92.3244V91.3244ZM129.451 91.1554H130.451C130.451 91.6144 130.079 91.9863 129.62 91.9863V90.9863V89.9863C128.974 89.9863 128.451 90.51 128.451 91.1554H129.451ZM129.62 90.9863V91.9863H136.406V90.9863V89.9863H129.62V90.9863ZM136.406 90.9863V91.9863C135.948 91.9863 135.576 91.6144 135.576 91.1554H136.576H137.576C137.576 90.51 137.053 89.9863 136.406 89.9863V90.9863ZM136.576 91.1554L135.576 91.1594C135.574 90.6936 135.952 90.3244 136.406 90.3244V91.3244V92.3244C137.049 92.3244 137.578 91.8036 137.576 91.1513L136.576 91.1554Z" fill="black" mask="url(#path-47-inside-17_10331_47377)"/>
<mask id="path-49-inside-18_10331_47377" fill="white">
<path d="M136.406 92.7131H129.62C129.527 92.7131 129.451 92.6373 129.451 92.5441C129.451 92.4508 129.527 92.375 129.62 92.375H136.406C136.5 92.375 136.576 92.4508 136.576 92.5441C136.576 92.6373 136.5 92.7131 136.406 92.7131Z"/>
</mask>
<path d="M136.576 92.5441H135.576L135.576 92.5481L136.576 92.5441ZM136.406 92.7131V91.7131H129.62V92.7131V93.7131H136.406V92.7131ZM129.62 92.7131V91.7131C130.078 91.7131 130.451 92.0836 130.451 92.5441H129.451H128.451C128.451 93.1909 128.976 93.7131 129.62 93.7131V92.7131ZM129.451 92.5441H130.451C130.451 93.0031 130.079 93.375 129.62 93.375V92.375V91.375C128.974 91.375 128.451 91.8986 128.451 92.5441H129.451ZM129.62 92.375V93.375H136.406V92.375V91.375H129.62V92.375ZM136.406 92.375V93.375C135.948 93.375 135.576 93.0031 135.576 92.5441H136.576H137.576C137.576 91.8986 137.053 91.375 136.406 91.375V92.375ZM136.576 92.5441L135.576 92.5481C135.574 92.0822 135.952 91.7131 136.406 91.7131V92.7131V93.7131C137.049 93.7131 137.578 93.1923 137.576 92.54L136.576 92.5441Z" fill="black" mask="url(#path-49-inside-18_10331_47377)"/>
<mask id="path-51-inside-19_10331_47377" fill="white">
<path d="M136.406 94.1018H129.62C129.527 94.1018 129.451 94.0259 129.451 93.9327C129.451 93.8391 129.527 93.7637 129.62 93.7637H136.406C136.5 93.7637 136.576 93.8391 136.576 93.9327C136.576 94.0259 136.5 94.1018 136.406 94.1018Z"/>
</mask>
<path d="M136.576 93.9327H135.576L135.576 93.9368L136.576 93.9327ZM136.406 94.1018V93.1018H129.62V94.1018V95.1018H136.406V94.1018ZM129.62 94.1018V93.1018C130.078 93.1018 130.451 93.4723 130.451 93.9327H129.451H128.451C128.451 94.5796 128.976 95.1018 129.62 95.1018V94.1018ZM129.451 93.9327H130.451C130.451 94.3928 130.078 94.7637 129.62 94.7637V93.7637V92.7637C128.976 92.7637 128.451 93.2855 128.451 93.9327H129.451ZM129.62 93.7637V94.7637H136.406V93.7637V92.7637H129.62V93.7637ZM136.406 93.7637V94.7637C135.949 94.7637 135.576 94.3928 135.576 93.9327H136.576H137.576C137.576 93.2855 137.051 92.7637 136.406 92.7637V93.7637ZM136.576 93.9327L135.576 93.9368C135.574 93.4709 135.952 93.1018 136.406 93.1018V94.1018V95.1018C137.049 95.1018 137.578 94.581 137.576 93.9287L136.576 93.9327Z" fill="black" mask="url(#path-51-inside-19_10331_47377)"/>
<mask id="path-53-inside-20_10331_47377" fill="white">
<path d="M136.406 95.4885H129.62C129.527 95.4885 129.451 95.4127 129.451 95.3194C129.451 95.2259 129.527 95.1504 129.62 95.1504H136.406C136.5 95.1504 136.576 95.2259 136.576 95.3194C136.576 95.413 136.5 95.4885 136.406 95.4885Z"/>
</mask>
<path d="M136.576 95.3194H135.576L135.576 95.3235L136.576 95.3194ZM136.406 95.4885V94.4885H129.62V95.4885V96.4885H136.406V95.4885ZM129.62 95.4885V94.4885C130.078 94.4885 130.451 94.859 130.451 95.3194H129.451H128.451C128.451 95.9663 128.976 96.4885 129.62 96.4885V95.4885ZM129.451 95.3194H130.451C130.451 95.7795 130.078 96.1504 129.62 96.1504V95.1504V94.1504C128.976 94.1504 128.451 94.6722 128.451 95.3194H129.451ZM129.62 95.1504V96.1504H136.406V95.1504V94.1504H129.62V95.1504ZM136.406 95.1504V96.1504C135.949 96.1504 135.576 95.7795 135.576 95.3194H136.576H137.576C137.576 94.6722 137.051 94.1504 136.406 94.1504V95.1504ZM136.576 95.3194L135.576 95.3235C135.574 94.8566 135.953 94.4885 136.406 94.4885V95.4885V96.4885C137.047 96.4885 137.578 95.9695 137.576 95.3154L136.576 95.3194Z" fill="black" mask="url(#path-53-inside-20_10331_47377)"/>
<mask id="path-55-inside-21_10331_47377" fill="white">
<path d="M136.406 96.8772H129.62C129.527 96.8772 129.451 96.8013 129.451 96.7081C129.451 96.6149 129.527 96.5391 129.62 96.5391H136.406C136.5 96.5391 136.576 96.6149 136.576 96.7081C136.576 96.8013 136.5 96.8772 136.406 96.8772Z"/>
</mask>
<path d="M136.576 96.7081H135.576L135.576 96.7122L136.576 96.7081ZM136.406 96.8772V95.8772H129.62V96.8772V97.8772H136.406V96.8772ZM129.62 96.8772V95.8772C130.078 95.8772 130.451 96.2476 130.451 96.7081H129.451H128.451C128.451 97.355 128.976 97.8772 129.62 97.8772V96.8772ZM129.451 96.7081H130.451C130.451 97.1671 130.079 97.5391 129.62 97.5391V96.5391V95.5391C128.974 95.5391 128.451 96.0627 128.451 96.7081H129.451ZM129.62 96.5391V97.5391H136.406V96.5391V95.5391H129.62V96.5391ZM136.406 96.5391V97.5391C135.948 97.5391 135.576 97.1671 135.576 96.7081H136.576H137.576C137.576 96.0627 137.053 95.5391 136.406 95.5391V96.5391ZM136.576 96.7081L135.576 96.7122C135.574 96.2463 135.952 95.8772 136.406 95.8772V96.8772V97.8772C137.049 97.8772 137.578 97.3564 137.576 96.7041L136.576 96.7081Z" fill="black" mask="url(#path-55-inside-21_10331_47377)"/>
<mask id="path-57-inside-22_10331_47377" fill="white">
<path d="M136.406 98.2658H129.62C129.527 98.2658 129.451 98.19 129.451 98.0968C129.451 98.0036 129.527 97.9277 129.62 97.9277H136.406C136.5 97.9277 136.576 98.0036 136.576 98.0968C136.576 98.19 136.5 98.2658 136.406 98.2658Z"/>
</mask>
<path d="M136.576 98.0968H135.576L135.576 98.1008L136.576 98.0968ZM136.406 98.2658V97.2658H129.62V98.2658V99.2658H136.406V98.2658ZM129.62 98.2658V97.2658C130.078 97.2658 130.451 97.6363 130.451 98.0968H129.451H128.451C128.451 98.7437 128.976 99.2658 129.62 99.2658V98.2658ZM129.451 98.0968H130.451C130.451 98.5558 130.079 98.9277 129.62 98.9277V97.9277V96.9277C128.974 96.9277 128.451 97.4514 128.451 98.0968H129.451ZM129.62 97.9277V98.9277H136.406V97.9277V96.9277H129.62V97.9277ZM136.406 97.9277V98.9277C135.948 98.9277 135.576 98.5558 135.576 98.0968H136.576H137.576C137.576 97.4514 137.053 96.9277 136.406 96.9277V97.9277ZM136.576 98.0968L135.576 98.1008C135.574 97.635 135.952 97.2658 136.406 97.2658V98.2658V99.2658C137.049 99.2658 137.578 98.745 137.576 98.0927L136.576 98.0968Z" fill="black" mask="url(#path-57-inside-22_10331_47377)"/>
<path d="M85.2358 70.0508H138.148C138.693 70.0508 139.134 70.4926 139.134 71.0352V73.1396H84.2495V71.0342C84.2497 70.5257 84.637 70.1062 85.1343 70.0557L85.2358 70.0508Z" stroke="black"/>
<path d="M133.059 71.4082C133.164 71.4082 133.248 71.4927 133.248 71.5957C133.248 71.6985 133.164 71.7832 133.059 71.7832C132.954 71.7832 132.871 71.6987 132.871 71.5957C132.871 71.4926 132.954 71.4083 133.059 71.4082Z" stroke="black"/>
<path d="M135.29 71.4082C135.395 71.4082 135.479 71.4926 135.479 71.5957C135.479 71.6985 135.395 71.7832 135.29 71.7832C135.185 71.7832 135.102 71.6987 135.102 71.5957C135.102 71.4928 135.185 71.4083 135.29 71.4082Z" stroke="black"/>
<path d="M137.427 71.4082C137.532 71.4082 137.616 71.4928 137.616 71.5957C137.616 71.6985 137.532 71.7832 137.427 71.7832C137.322 71.7832 137.239 71.6987 137.239 71.5957C137.239 71.4928 137.323 71.4083 137.427 71.4082Z" stroke="black"/>
<path d="M97.3057 79.3877C102.443 79.4175 106.597 83.5846 106.597 88.7197C106.597 90.9462 105.815 92.9871 104.513 94.5908L97.7383 88.4873L97.3057 79.3877Z" stroke="black"/>
<path d="M119.32 86.7344V99.1484H117.185V86.7344H119.32Z" stroke="black"/>
<path d="M119.32 99.1494H117.185V96.4678C117.935 96.1978 118.648 95.8239 119.32 95.4111V99.1494Z" stroke="black"/>
<path d="M114.195 90.4609V99.1475H112.061V90.4609H114.195Z" stroke="black"/>
<path d="M112.061 96.8086C112.516 96.7223 113.154 96.7015 114.043 96.8311H114.044C114.095 96.8384 114.146 96.8426 114.196 96.8486V99.1475H112.061V96.8086Z" stroke="black"/>
<path d="M124.444 82.7266V99.1484H122.309V82.7266H124.444Z" stroke="black"/>
<path d="M124.444 99.1494H122.31V93.3809C123.117 92.8467 123.816 92.4671 124.444 92.3311V99.1494Z" stroke="black"/>
<path d="M123.951 78.9775L123.855 78.8838L123.499 78.5342L123.149 78.8906L118.423 83.7002L117.26 82.5605L116.904 82.2109L116.554 82.5674L111.921 87.2832C111.909 87.2956 111.889 87.2956 111.877 87.2842C111.865 87.2724 111.866 87.2533 111.876 87.2422H111.877L116.903 82.125L118.067 83.2656L118.423 83.6152L118.773 83.2588L123.105 78.8486L123.456 78.4922L123.098 78.1416L123.002 78.0479L124.182 77.7959L123.951 78.9775Z" stroke="black"/>
<path d="M6.62646 115.693H48.2036C48.3592 115.693 48.4849 115.819 48.4849 115.973V119.323H6.34619V115.973C6.34619 115.819 6.47098 115.693 6.62646 115.693Z" stroke="black"/>
<path d="M40.5552 59.6211H48.2729C48.3905 59.6212 48.4849 59.7165 48.4849 59.832V69.5869L48.48 69.6289C48.4606 69.7241 48.3764 69.7968 48.2729 69.7969H40.5552C40.4377 69.7969 40.3435 69.7023 40.3433 69.5869V59.832C40.3433 59.7164 40.4376 59.6211 40.5552 59.6211Z" stroke="black"/>
<path d="M6.51318 59.6211H43.0259C43.1189 59.6211 43.1929 59.696 43.1929 59.7871V69.6318C43.1925 69.7234 43.118 69.7979 43.0259 69.7979H6.51318C6.4202 69.7978 6.34622 69.7229 6.34619 69.6318V59.7871C6.34621 59.696 6.42018 59.6211 6.51318 59.6211Z" stroke="black"/>
<path d="M40.5308 61.9648V67.9258H8.77393V61.9648H40.5308Z" stroke="black"/>
<path d="M10.1895 64.8184C10.2895 64.8184 10.3817 64.9021 10.3818 65.0195C10.3818 65.1371 10.2896 65.2217 10.1895 65.2217C10.0895 65.2217 9.99707 65.137 9.99707 65.0195C9.99725 64.9021 10.0894 64.8184 10.1895 64.8184Z" stroke="black"/>
<path d="M12.5103 64.8184C12.6103 64.8184 12.7025 64.9021 12.7026 65.0195C12.7026 65.1371 12.6104 65.2217 12.5103 65.2217C12.4103 65.2217 12.3179 65.137 12.3179 65.0195C12.3181 64.9021 12.4102 64.8184 12.5103 64.8184Z" stroke="black"/>
<path d="M14.8306 64.8184C14.931 64.8184 15.0228 64.9025 15.0229 65.0195C15.0229 65.137 14.9313 65.2217 14.8306 65.2217C14.7306 65.2217 14.6382 65.137 14.6382 65.0195C14.6384 64.9021 14.7305 64.8184 14.8306 64.8184Z" stroke="black"/>
<path d="M17.1514 64.8184C17.2514 64.8184 17.3436 64.9021 17.3438 65.0195C17.3438 65.1371 17.2515 65.2217 17.1514 65.2217C17.0514 65.2217 16.959 65.137 16.959 65.0195C16.9592 64.9021 17.0513 64.8184 17.1514 64.8184Z" stroke="black"/>
<path d="M38.9922 63.4062V66.6318H36.377V63.4062H38.9922Z" stroke="black"/>
<path d="M42.1851 70.7988V72.792H9.04443V70.7988H42.1851Z" stroke="black"/>
<path d="M43.6787 70.7988V72.792H43.1494V70.7988H43.6787Z" stroke="black"/>
<mask id="path-82-inside-23_10331_47377" fill="white">
<path d="M33.2769 67.1316H32.6685C32.6095 67.1316 32.5615 67.0837 32.5615 67.0248V63.013C32.5615 62.9538 32.6095 62.9062 32.6685 62.9062H33.2769C33.3359 62.9062 33.3839 62.9542 33.3839 63.013V67.0248C33.3843 67.0837 33.3363 67.1316 33.2769 67.1316Z"/>
</mask>
<path d="M33.3839 67.0248H32.3839L32.3839 67.0312L33.3839 67.0248ZM33.2769 67.1316V66.1316H32.6685V67.1316V68.1316H33.2769V67.1316ZM32.6685 67.1316V66.1316C33.1603 66.1316 33.5615 66.5299 33.5615 67.0248H32.5615H31.5615C31.5615 67.6374 32.0587 68.1316 32.6685 68.1316V67.1316ZM32.5615 67.0248H33.5615V63.013H32.5615H31.5615V67.0248H32.5615ZM32.5615 63.013H33.5615C33.5615 63.5098 33.158 63.9062 32.6685 63.9062V62.9062V61.9062C32.061 61.9062 31.5615 62.3977 31.5615 63.013H32.5615ZM32.6685 62.9062V63.9062H33.2769V62.9062V61.9062H32.6685V62.9062ZM33.2769 62.9062V63.9062C32.7851 63.9062 32.3839 63.5079 32.3839 63.013H33.3839H34.3839C34.3839 62.4004 33.8867 61.9062 33.2769 61.9062V62.9062ZM33.3839 63.013H32.3839V67.0248H33.3839H34.3839V63.013H33.3839ZM33.3839 67.0248L32.3839 67.0312C32.3807 66.5278 32.789 66.1316 33.2769 66.1316V67.1316V68.1316C33.8835 68.1316 34.3879 67.6395 34.3839 67.0184L33.3839 67.0248Z" fill="black" mask="url(#path-82-inside-23_10331_47377)"/>
<mask id="path-84-inside-24_10331_47377" fill="white">
<path d="M30.3297 67.1316H29.7212C29.6622 67.1316 29.6143 67.0837 29.6143 67.0248V63.013C29.6143 62.9538 29.6622 62.9062 29.7212 62.9062H30.3297C30.3886 62.9062 30.4366 62.9542 30.4366 63.013V67.0248C30.4366 67.0837 30.3886 67.1316 30.3297 67.1316Z"/>
</mask>
<path d="M30.3297 67.1316V66.1316H29.7212V67.1316V68.1316H30.3297V67.1316ZM29.7212 67.1316V66.1316C30.2131 66.1316 30.6143 66.53 30.6143 67.0248H29.6143H28.6143C28.6143 67.6373 29.1114 68.1316 29.7212 68.1316V67.1316ZM29.6143 67.0248H30.6143V63.013H29.6143H28.6143V67.0248H29.6143ZM29.6143 63.013H30.6143C30.6143 63.5098 30.2108 63.9062 29.7212 63.9062V62.9062V61.9062C29.1137 61.9062 28.6143 62.3978 28.6143 63.013H29.6143ZM29.7212 62.9062V63.9062H30.3297V62.9062V61.9062H29.7212V62.9062ZM30.3297 62.9062V63.9062C29.8378 63.9062 29.4366 63.5079 29.4366 63.013H30.4366H31.4366C31.4366 62.4004 30.9394 61.9062 30.3297 61.9062V62.9062ZM30.4366 63.013H29.4366V67.0248H30.4366H31.4366V63.013H30.4366ZM30.4366 67.0248H29.4366C29.4366 66.5299 29.8378 66.1316 30.3297 66.1316V67.1316V68.1316C30.9394 68.1316 31.4366 67.6374 31.4366 67.0248H30.4366Z" fill="black" mask="url(#path-84-inside-24_10331_47377)"/>
<mask id="path-86-inside-25_10331_47377" fill="white">
<path d="M27.3809 67.1316H26.7725C26.7135 67.1316 26.6655 67.0837 26.6655 67.0248V63.013C26.6655 62.9538 26.7135 62.9062 26.7725 62.9062H27.3809C27.4399 62.9062 27.4879 62.9542 27.4879 63.013V67.0248C27.4879 67.0837 27.4399 67.1316 27.3809 67.1316Z"/>
</mask>
<path d="M27.4879 67.0248H26.4879H27.4879ZM27.3809 67.1316V66.1316H26.7725V67.1316V68.1316H27.3809V67.1316ZM26.7725 67.1316V66.1316C27.2643 66.1316 27.6655 66.5299 27.6655 67.0248H26.6655H25.6655C25.6655 67.6374 26.1627 68.1316 26.7725 68.1316V67.1316ZM26.6655 67.0248H27.6655V63.013H26.6655H25.6655V67.0248H26.6655ZM26.6655 63.013H27.6655C27.6655 63.5098 27.262 63.9062 26.7725 63.9062V62.9062V61.9062C26.165 61.9062 25.6655 62.3977 25.6655 63.013H26.6655ZM26.7725 62.9062V63.9062H27.3809V62.9062V61.9062H26.7725V62.9062ZM27.3809 62.9062V63.9062C26.8891 63.9062 26.4879 63.5079 26.4879 63.013H27.4879H28.4879C28.4879 62.4004 27.9907 61.9062 27.3809 61.9062V62.9062ZM27.4879 63.013H26.4879V67.0248H27.4879H28.4879V63.013H27.4879ZM27.4879 67.0248H26.4879C26.4879 66.5299 26.8891 66.1316 27.3809 66.1316V67.1316V68.1316C27.9907 68.1316 28.4879 67.6374 28.4879 67.0248H27.4879Z" fill="black" mask="url(#path-86-inside-25_10331_47377)"/>
<mask id="path-88-inside-26_10331_47377" fill="white">
<path d="M24.4327 67.1316H23.8242C23.7653 67.1316 23.7173 67.0837 23.7173 67.0248V63.013C23.7173 62.9538 23.7653 62.9062 23.8242 62.9062H24.4327C24.4916 62.9062 24.5396 62.9542 24.5396 63.013V67.0248C24.5396 67.0837 24.492 67.1316 24.4327 67.1316Z"/>
</mask>
<path d="M24.4327 67.1316V66.1316H23.8242V67.1316V68.1316H24.4327V67.1316ZM23.8242 67.1316V66.1316C24.3161 66.1316 24.7173 66.5299 24.7173 67.0248H23.7173H22.7173C22.7173 67.6374 23.2145 68.1316 23.8242 68.1316V67.1316ZM23.7173 67.0248H24.7173V63.013H23.7173H22.7173V67.0248H23.7173ZM23.7173 63.013H24.7173C24.7173 63.5098 24.3138 63.9062 23.8242 63.9062V62.9062V61.9062C23.2168 61.9062 22.7173 62.3977 22.7173 63.013H23.7173ZM23.8242 62.9062V63.9062H24.4327V62.9062V61.9062H23.8242V62.9062ZM24.4327 62.9062V63.9062C23.9408 63.9062 23.5396 63.5079 23.5396 63.013H24.5396H25.5396C25.5396 62.4005 25.0425 61.9062 24.4327 61.9062V62.9062ZM24.5396 63.013H23.5396V67.0248H24.5396H25.5396V63.013H24.5396ZM24.5396 67.0248H23.5396C23.5396 66.5323 23.9388 66.1316 24.4327 66.1316V67.1316V68.1316C25.0452 68.1316 25.5396 67.635 25.5396 67.0248H24.5396Z" fill="black" mask="url(#path-88-inside-26_10331_47377)"/>
<mask id="path-90-inside-27_10331_47377" fill="white">
<path d="M21.4849 67.1316H20.8765C20.8175 67.1316 20.7695 67.0837 20.7695 67.0248V63.013C20.7695 62.9538 20.8175 62.9062 20.8765 62.9062H21.4849C21.5439 62.9062 21.5919 62.9542 21.5919 63.013V67.0248C21.5923 67.0837 21.5443 67.1316 21.4849 67.1316Z"/>
</mask>
<path d="M21.5919 67.0248H20.5919L20.5919 67.0312L21.5919 67.0248ZM21.4849 67.1316V66.1316H20.8765V67.1316V68.1316H21.4849V67.1316ZM20.8765 67.1316V66.1316C21.3684 66.1316 21.7695 66.53 21.7695 67.0248H20.7695H19.7695C19.7695 67.6373 20.2666 68.1316 20.8765 68.1316V67.1316ZM20.7695 67.0248H21.7695V63.013H20.7695H19.7695V67.0248H20.7695ZM20.7695 63.013H21.7695C21.7695 63.5098 21.3661 63.9062 20.8765 63.9062V62.9062V61.9062C20.2689 61.9062 19.7695 62.3978 19.7695 63.013H20.7695ZM20.8765 62.9062V63.9062H21.4849V62.9062V61.9062H20.8765V62.9062ZM21.4849 62.9062V63.9062C20.9931 63.9062 20.5919 63.5079 20.5919 63.013H21.5919H22.5919C22.5919 62.4004 22.0947 61.9062 21.4849 61.9062V62.9062ZM21.5919 63.013H20.5919V67.0248H21.5919H22.5919V63.013H21.5919ZM21.5919 67.0248L20.5919 67.0312C20.5887 66.5278 20.997 66.1316 21.4849 66.1316V67.1316V68.1316C22.0915 68.1316 22.5959 67.6395 22.5919 67.0184L21.5919 67.0248Z" fill="black" mask="url(#path-90-inside-27_10331_47377)"/>
<path d="M42.1499 70.7988V70.8457H9.04443V70.7988H42.1499Z" stroke="black"/>
<path d="M40.5552 73.7168H48.2729C48.3905 73.7169 48.4849 73.8122 48.4849 73.9277V83.6826L48.48 83.7246C48.4605 83.8197 48.3762 83.8925 48.2729 83.8926H40.5552C40.4377 83.8926 40.3435 83.798 40.3433 83.6826V73.9277C40.3433 73.8121 40.4376 73.7168 40.5552 73.7168Z" stroke="black"/>
<path d="M6.51318 73.7148H43.0259C43.1189 73.7148 43.1929 73.7898 43.1929 73.8809V83.7256C43.1925 83.8171 43.1181 83.8916 43.0259 83.8916H6.51318C6.42019 83.8916 6.34622 83.8166 6.34619 83.7256V73.8809C6.3462 73.7898 6.42018 73.7149 6.51318 73.7148Z" stroke="black"/>
<path d="M40.5308 76.0605V82.0215H8.77393V76.0605H40.5308Z" stroke="black"/>
<path d="M42.1851 84.8926V86.8857H9.04443V84.8926H42.1851Z" stroke="black"/>
<path d="M43.6787 84.8926V86.8857H43.1494V84.8926H43.6787Z" stroke="black"/>
<path d="M38.8452 78.9121C38.9458 78.9121 39.0374 78.996 39.0376 79.1133C39.0376 79.2305 38.9457 79.3154 38.8452 79.3154C38.7451 79.3154 38.6528 79.2309 38.6528 79.1133C38.653 78.9958 38.7452 78.9121 38.8452 78.9121Z" stroke="black"/>
<path d="M36.5244 78.9121C36.6245 78.9121 36.7166 78.9959 36.7168 79.1133C36.7168 79.2309 36.6246 79.3154 36.5244 79.3154C36.4243 79.3154 36.332 79.2309 36.332 79.1133C36.3322 78.9958 36.4244 78.9121 36.5244 78.9121Z" stroke="black"/>
<path d="M34.2041 78.9121C34.3047 78.9121 34.3963 78.996 34.3965 79.1133C34.3965 79.2305 34.3046 79.3154 34.2041 79.3154C34.1039 79.3154 34.0117 79.2309 34.0117 79.1133C34.0119 78.9957 34.1039 78.9121 34.2041 78.9121Z" stroke="black"/>
<path d="M31.8838 78.9121C31.9838 78.9121 32.076 78.9958 32.0762 79.1133C32.0762 79.2309 31.9839 79.3154 31.8838 79.3154C31.7832 79.3152 31.6914 79.2306 31.6914 79.1133C31.6916 78.9963 31.7835 78.9123 31.8838 78.9121Z" stroke="black"/>
<path d="M12.6582 77.502V80.7275H10.043V77.502H12.6582Z" stroke="black"/>
<mask id="path-103-inside-28_10331_47377" fill="white">
<path d="M15.758 81.2273H16.3664C16.4257 81.2273 16.4734 81.1794 16.4734 81.1205V77.1088C16.4734 77.0499 16.4254 77.002 16.3664 77.002H15.758C15.6986 77.002 15.651 77.0499 15.651 77.1088V81.1205C15.651 81.1794 15.699 81.2273 15.758 81.2273Z"/>
</mask>
<path d="M15.758 81.2273V82.2273H16.3664V81.2273V80.2273H15.758V81.2273ZM16.3664 81.2273V82.2273C16.9791 82.2273 17.4734 81.7306 17.4734 81.1205H16.4734H15.4734C15.4734 80.6281 15.8724 80.2273 16.3664 80.2273V81.2273ZM16.4734 81.1205H17.4734V77.1088H16.4734H15.4734V81.1205H16.4734ZM16.4734 77.1088H17.4734C17.4734 76.4963 16.9764 76.002 16.3664 76.002V77.002V78.002C15.8743 78.002 15.4734 77.6034 15.4734 77.1088H16.4734ZM16.3664 77.002V76.002H15.758V77.002V78.002H16.3664V77.002ZM15.758 77.002V76.002C15.1453 76.002 14.651 76.4986 14.651 77.1088H15.651H16.651C16.651 77.6012 16.2519 78.002 15.758 78.002V77.002ZM15.651 77.1088H14.651V81.1205H15.651H16.651V77.1088H15.651ZM15.651 81.1205H14.651C14.651 81.7329 15.148 82.2273 15.758 82.2273V81.2273V80.2273C16.25 80.2273 16.651 80.6258 16.651 81.1205H15.651Z" fill="black" mask="url(#path-103-inside-28_10331_47377)"/>
<mask id="path-105-inside-29_10331_47377" fill="white">
<path d="M18.706 81.2273H19.3144C19.3737 81.2273 19.4214 81.1794 19.4214 81.1205V77.1088C19.4214 77.0499 19.3734 77.002 19.3144 77.002H18.706C18.6466 77.002 18.599 77.0499 18.599 77.1088V81.1205C18.599 81.1794 18.647 81.2273 18.706 81.2273Z"/>
</mask>
<path d="M18.599 81.1205H19.599H18.599ZM18.706 81.2273V82.2273H19.3144V81.2273V80.2273H18.706V81.2273ZM19.3144 81.2273V82.2273C19.927 82.2273 20.4214 81.7307 20.4214 81.1205H19.4214H18.4214C18.4214 80.6281 18.8205 80.2273 19.3144 80.2273V81.2273ZM19.4214 81.1205H20.4214V77.1088H19.4214H18.4214V81.1205H19.4214ZM19.4214 77.1088H20.4214C20.4214 76.4963 19.9243 76.002 19.3144 76.002V77.002V78.002C18.8224 78.002 18.4214 77.6035 18.4214 77.1088H19.4214ZM19.3144 77.002V76.002H18.706V77.002V78.002H19.3144V77.002ZM18.706 77.002V76.002C18.0934 76.002 17.599 76.4986 17.599 77.1088H18.599H19.599C19.599 77.6012 19.1999 78.002 18.706 78.002V77.002ZM18.599 77.1088H17.599V81.1205H18.599H19.599V77.1088H18.599ZM18.599 81.1205H17.599C17.599 81.733 18.096 82.2273 18.706 82.2273V81.2273V80.2273C19.198 80.2273 19.599 80.6257 19.599 81.1205H18.599Z" fill="black" mask="url(#path-105-inside-29_10331_47377)"/>
<mask id="path-107-inside-30_10331_47377" fill="white">
<path d="M21.6543 81.2273H22.2628C22.3221 81.2273 22.3697 81.1794 22.3697 81.1205V77.1088C22.3697 77.0499 22.3217 77.002 22.2628 77.002H21.6543C21.595 77.002 21.5474 77.0499 21.5474 77.1088V81.1205C21.5474 81.1794 21.595 81.2273 21.6543 81.2273Z"/>
</mask>
<path d="M21.6543 81.2273V82.2273H22.2628V81.2273V80.2273H21.6543V81.2273ZM22.2628 81.2273V82.2273C22.8754 82.2273 23.3697 81.7307 23.3697 81.1205H22.3697H21.3697C21.3697 80.6281 21.7688 80.2273 22.2628 80.2273V81.2273ZM22.3697 81.1205H23.3697V77.1088H22.3697H21.3697V81.1205H22.3697ZM22.3697 77.1088H23.3697C23.3697 76.4963 22.8727 76.002 22.2628 76.002V77.002V78.002C21.7708 78.002 21.3697 77.6035 21.3697 77.1088H22.3697ZM22.2628 77.002V76.002H21.6543V77.002V78.002H22.2628V77.002ZM21.6543 77.002V76.002C21.0416 76.002 20.5474 76.4986 20.5474 77.1088H21.5474H22.5474C22.5474 77.6011 22.1483 78.002 21.6543 78.002V77.002ZM21.5474 77.1088H20.5474V81.1205H21.5474H22.5474V77.1088H21.5474ZM21.5474 81.1205H20.5474C20.5474 81.7306 21.0416 82.2273 21.6543 82.2273V81.2273V80.2273C22.1483 80.2273 22.5474 80.6281 22.5474 81.1205H21.5474Z" fill="black" mask="url(#path-107-inside-30_10331_47377)"/>
<mask id="path-109-inside-31_10331_47377" fill="white">
<path d="M24.6026 81.2273H25.211C25.2703 81.2273 25.318 81.1794 25.318 81.1205V77.1088C25.318 77.0499 25.27 77.002 25.211 77.002H24.6026C24.5432 77.002 24.4956 77.0499 24.4956 77.1088V81.1205C24.4952 81.1794 24.5432 81.2273 24.6026 81.2273Z"/>
</mask>
<path d="M24.4956 81.1205L25.4956 81.1269V81.1205H24.4956ZM24.6026 81.2273V82.2273H25.211V81.2273V80.2273H24.6026V81.2273ZM25.211 81.2273V82.2273C25.8237 82.2273 26.318 81.7306 26.318 81.1205H25.318H24.318C24.318 80.6281 24.717 80.2273 25.211 80.2273V81.2273ZM25.318 81.1205H26.318V77.1088H25.318H24.318V81.1205H25.318ZM25.318 77.1088H26.318C26.318 76.4963 25.821 76.002 25.211 76.002V77.002V78.002C24.7189 78.002 24.318 77.6034 24.318 77.1088H25.318ZM25.211 77.002V76.002H24.6026V77.002V78.002H25.211V77.002ZM24.6026 77.002V76.002C23.99 76.002 23.4956 76.4986 23.4956 77.1088H24.4956H25.4956C25.4956 77.6012 25.0965 78.002 24.6026 78.002V77.002ZM24.4956 77.1088H23.4956V81.1205H24.4956H25.4956V77.1088H24.4956ZM24.4956 81.1205L23.4956 81.1141C23.4916 81.7351 23.9959 82.2273 24.6026 82.2273V81.2273V80.2273C25.0906 80.2273 25.4988 80.6236 25.4956 81.1269L24.4956 81.1205Z" fill="black" mask="url(#path-109-inside-31_10331_47377)"/>
<mask id="path-111-inside-32_10331_47377" fill="white">
<path d="M27.5501 81.2273H28.1585C28.2179 81.2273 28.2655 81.1794 28.2655 81.1205V77.1088C28.2655 77.0499 28.2175 77.002 28.1585 77.002H27.5501C27.4907 77.002 27.4431 77.0499 27.4431 77.1088V81.1205C27.4431 81.1794 27.4911 81.2273 27.5501 81.2273Z"/>
</mask>
<path d="M27.5501 81.2273V82.2273H28.1585V81.2273V80.2273H27.5501V81.2273ZM28.1585 81.2273V82.2273C28.7711 82.2273 29.2655 81.7307 29.2655 81.1205H28.2655H27.2655C27.2655 80.6281 27.6646 80.2273 28.1585 80.2273V81.2273ZM28.2655 81.1205H29.2655V77.1088H28.2655H27.2655V81.1205H28.2655ZM28.2655 77.1088H29.2655C29.2655 76.4963 28.7684 76.002 28.1585 76.002V77.002V78.002C27.6665 78.002 27.2655 77.6035 27.2655 77.1088H28.2655ZM28.1585 77.002V76.002H27.5501V77.002V78.002H28.1585V77.002ZM27.5501 77.002V76.002C26.9374 76.002 26.4431 76.4986 26.4431 77.1088H27.4431H28.4431C28.4431 77.6011 28.0441 78.002 27.5501 78.002V77.002ZM27.4431 77.1088H26.4431V81.1205H27.4431H28.4431V77.1088H27.4431ZM27.4431 81.1205H26.4431C26.4431 81.7329 26.9401 82.2273 27.5501 82.2273V81.2273V80.2273C28.0421 80.2273 28.4431 80.6258 28.4431 81.1205H27.4431Z" fill="black" mask="url(#path-111-inside-32_10331_47377)"/>
<path d="M42.1499 84.8926V84.9395H9.04443V84.8926H42.1499Z" stroke="black"/>
<path d="M40.5552 87.8105H48.2729C48.3905 87.8106 48.4849 87.9059 48.4849 88.0215V97.7764L48.48 97.8184C48.4606 97.9136 48.3764 97.9863 48.2729 97.9863H40.5552C40.4377 97.9863 40.3435 97.8918 40.3433 97.7764V88.0215C40.3433 87.9059 40.4376 87.8105 40.5552 87.8105Z" stroke="black"/>
<path d="M6.51318 87.8105H43.0259C43.1189 87.8105 43.1929 87.8855 43.1929 87.9766V97.8213C43.1925 97.9128 43.118 97.9873 43.0259 97.9873H6.51318C6.4202 97.9873 6.34622 97.9123 6.34619 97.8213V87.9766C6.3462 87.8855 6.42018 87.8106 6.51318 87.8105Z" stroke="black"/>
<path d="M40.5308 90.1543V96.1152H8.77393V90.1543H40.5308Z" stroke="black"/>
<path d="M10.1895 93.0078C10.2895 93.0078 10.3817 93.0916 10.3818 93.209C10.3818 93.3266 10.2896 93.4111 10.1895 93.4111C10.0895 93.4111 9.99707 93.3264 9.99707 93.209C9.99725 93.0916 10.0894 93.0078 10.1895 93.0078Z" stroke="black"/>
<path d="M12.5103 93.0078C12.6103 93.0078 12.7025 93.0916 12.7026 93.209C12.7026 93.3266 12.6104 93.4111 12.5103 93.4111C12.4103 93.4111 12.3179 93.3264 12.3179 93.209C12.318 93.0916 12.4102 93.0078 12.5103 93.0078Z" stroke="black"/>
<path d="M14.8306 93.0078C14.931 93.0078 15.0228 93.0919 15.0229 93.209C15.0229 93.3264 14.9313 93.4111 14.8306 93.4111C14.7306 93.4111 14.6382 93.3264 14.6382 93.209C14.6384 93.0916 14.7305 93.0078 14.8306 93.0078Z" stroke="black"/>
<path d="M17.1514 93.0078C17.2514 93.0078 17.3436 93.0916 17.3438 93.209C17.3438 93.3266 17.2515 93.4111 17.1514 93.4111C17.0514 93.4111 16.959 93.3264 16.959 93.209C16.9592 93.0916 17.0513 93.0078 17.1514 93.0078Z" stroke="black"/>
<path d="M38.9922 91.5957V94.8213H36.377V91.5957H38.9922Z" stroke="black"/>
<path d="M42.1851 98.9863V100.979H9.04443V98.9863H42.1851Z" stroke="black"/>
<path d="M43.6787 98.9863V100.979H43.1494V98.9863H43.6787Z" stroke="black"/>
<mask id="path-124-inside-33_10331_47377" fill="white">
<path d="M33.2769 95.321H32.6685C32.6095 95.321 32.5615 95.2731 32.5615 95.2142V91.2025C32.5615 91.1433 32.6095 91.0957 32.6685 91.0957H33.2769C33.3359 91.0957 33.3839 91.1436 33.3839 91.2025V95.2142C33.3843 95.2731 33.3363 95.321 33.2769 95.321Z"/>
</mask>
<path d="M33.3839 95.2142H32.3839L32.3839 95.2207L33.3839 95.2142ZM33.2769 95.321V94.321H32.6685V95.321V96.321H33.2769V95.321ZM32.6685 95.321V94.321C33.1605 94.321 33.5615 94.7195 33.5615 95.2142H32.5615H31.5615C31.5615 95.8267 32.0586 96.321 32.6685 96.321V95.321ZM32.5615 95.2142H33.5615V91.2025H32.5615H31.5615V95.2142H32.5615ZM32.5615 91.2025H33.5615C33.5615 91.6992 33.1582 92.0957 32.6685 92.0957V91.0957V90.0957C32.0609 90.0957 31.5615 90.5873 31.5615 91.2025H32.5615ZM32.6685 91.0957V92.0957H33.2769V91.0957V90.0957H32.6685V91.0957ZM33.2769 91.0957V92.0957C32.7849 92.0957 32.3839 91.6972 32.3839 91.2025H33.3839H34.3839C34.3839 90.59 33.8868 90.0957 33.2769 90.0957V91.0957ZM33.3839 91.2025H32.3839V95.2142H33.3839H34.3839V91.2025H33.3839ZM33.3839 95.2142L32.3839 95.2207C32.3807 94.7174 32.7889 94.321 33.2769 94.321V95.321V96.321C33.8836 96.321 34.3879 95.8289 34.3839 95.2078L33.3839 95.2142Z" fill="black" mask="url(#path-124-inside-33_10331_47377)"/>
<mask id="path-126-inside-34_10331_47377" fill="white">
<path d="M30.3297 95.321H29.7212C29.6622 95.321 29.6143 95.2731 29.6143 95.2142V91.2025C29.6143 91.1433 29.6622 91.0957 29.7212 91.0957H30.3297C30.3886 91.0957 30.4366 91.1436 30.4366 91.2025V95.2142C30.4366 95.2731 30.3886 95.321 30.3297 95.321Z"/>
</mask>
<path d="M30.3297 95.321V94.321H29.7212V95.321V96.321H30.3297V95.321ZM29.7212 95.321V94.321C30.2133 94.321 30.6143 94.7196 30.6143 95.2142H29.6143H28.6143C28.6143 95.8266 29.1112 96.321 29.7212 96.321V95.321ZM29.6143 95.2142H30.6143V91.2025H29.6143H28.6143V95.2142H29.6143ZM29.6143 91.2025H30.6143C30.6143 91.6991 30.211 92.0957 29.7212 92.0957V91.0957V90.0957C29.1135 90.0957 28.6143 90.5874 28.6143 91.2025H29.6143ZM29.7212 91.0957V92.0957H30.3297V91.0957V90.0957H29.7212V91.0957ZM30.3297 91.0957V92.0957C29.8377 92.0957 29.4366 91.6972 29.4366 91.2025H30.4366H31.4366C31.4366 90.59 30.9396 90.0957 30.3297 90.0957V91.0957ZM30.4366 91.2025H29.4366V95.2142H30.4366H31.4366V91.2025H30.4366ZM30.4366 95.2142H29.4366C29.4366 94.7195 29.8377 94.321 30.3297 94.321V95.321V96.321C30.9396 96.321 31.4366 95.8267 31.4366 95.2142H30.4366Z" fill="black" mask="url(#path-126-inside-34_10331_47377)"/>
<mask id="path-128-inside-35_10331_47377" fill="white">
<path d="M27.3809 95.321H26.7725C26.7135 95.321 26.6655 95.2731 26.6655 95.2142V91.2025C26.6655 91.1433 26.7135 91.0957 26.7725 91.0957H27.3809C27.4399 91.0957 27.4879 91.1436 27.4879 91.2025V95.2142C27.4879 95.2731 27.4399 95.321 27.3809 95.321Z"/>
</mask>
<path d="M27.4879 95.2142H26.4879H27.4879ZM27.3809 95.321V94.321H26.7725V95.321V96.321H27.3809V95.321ZM26.7725 95.321V94.321C27.2645 94.321 27.6655 94.7195 27.6655 95.2142H26.6655H25.6655C25.6655 95.8267 26.1626 96.321 26.7725 96.321V95.321ZM26.6655 95.2142H27.6655V91.2025H26.6655H25.6655V95.2142H26.6655ZM26.6655 91.2025H27.6655C27.6655 91.6992 27.2622 92.0957 26.7725 92.0957V91.0957V90.0957C26.1649 90.0957 25.6655 90.5873 25.6655 91.2025H26.6655ZM26.7725 91.0957V92.0957H27.3809V91.0957V90.0957H26.7725V91.0957ZM27.3809 91.0957V92.0957C26.8889 92.0957 26.4879 91.6972 26.4879 91.2025H27.4879H28.4879C28.4879 90.59 27.9908 90.0957 27.3809 90.0957V91.0957ZM27.4879 91.2025H26.4879V95.2142H27.4879H28.4879V91.2025H27.4879ZM27.4879 95.2142H26.4879C26.4879 94.7195 26.8889 94.321 27.3809 94.321V95.321V96.321C27.9908 96.321 28.4879 95.8267 28.4879 95.2142H27.4879Z" fill="black" mask="url(#path-128-inside-35_10331_47377)"/>
<mask id="path-130-inside-36_10331_47377" fill="white">
<path d="M24.4327 95.321H23.8242C23.7653 95.321 23.7173 95.2731 23.7173 95.2142V91.2025C23.7173 91.1433 23.7653 91.0957 23.8242 91.0957H24.4327C24.4916 91.0957 24.5396 91.1436 24.5396 91.2025V95.2142C24.5396 95.2731 24.492 95.321 24.4327 95.321Z"/>
</mask>
<path d="M24.4327 95.321V94.321H23.8242V95.321V96.321H24.4327V95.321ZM23.8242 95.321V94.321C24.3162 94.321 24.7173 94.7195 24.7173 95.2142H23.7173H22.7173C22.7173 95.8267 23.2143 96.321 23.8242 96.321V95.321ZM23.7173 95.2142H24.7173V91.2025H23.7173H22.7173V95.2142H23.7173ZM23.7173 91.2025H24.7173C24.7173 91.6992 24.3139 92.0957 23.8242 92.0957V91.0957V90.0957C23.2166 90.0957 22.7173 90.5873 22.7173 91.2025H23.7173ZM23.8242 91.0957V92.0957H24.4327V91.0957V90.0957H23.8242V91.0957ZM24.4327 91.0957V92.0957C23.9406 92.0957 23.5396 91.6972 23.5396 91.2025H24.5396H25.5396C25.5396 90.5901 25.0427 90.0957 24.4327 90.0957V91.0957ZM24.5396 91.2025H23.5396V95.2142H24.5396H25.5396V91.2025H24.5396ZM24.5396 95.2142H23.5396C23.5396 94.7219 23.9387 94.321 24.4327 94.321V95.321V96.321C25.0454 96.321 25.5396 95.8243 25.5396 95.2142H24.5396Z" fill="black" mask="url(#path-130-inside-36_10331_47377)"/>
<mask id="path-132-inside-37_10331_47377" fill="white">
<path d="M21.4849 95.321H20.8765C20.8175 95.321 20.7695 95.2731 20.7695 95.2142V91.2025C20.7695 91.1433 20.8175 91.0957 20.8765 91.0957H21.4849C21.5439 91.0957 21.5919 91.1436 21.5919 91.2025V95.2142C21.5923 95.2731 21.5443 95.321 21.4849 95.321Z"/>
</mask>
<path d="M21.5919 95.2142H20.5919L20.5919 95.2207L21.5919 95.2142ZM21.4849 95.321V94.321H20.8765V95.321V96.321H21.4849V95.321ZM20.8765 95.321V94.321C21.3686 94.321 21.7695 94.7196 21.7695 95.2142H20.7695H19.7695C19.7695 95.8266 20.2665 96.321 20.8765 96.321V95.321ZM20.7695 95.2142H21.7695V91.2025H20.7695H19.7695V95.2142H20.7695ZM20.7695 91.2025H21.7695C21.7695 91.6991 21.3662 92.0957 20.8765 92.0957V91.0957V90.0957C20.2688 90.0957 19.7695 90.5874 19.7695 91.2025H20.7695ZM20.8765 91.0957V92.0957H21.4849V91.0957V90.0957H20.8765V91.0957ZM21.4849 91.0957V92.0957C20.9929 92.0957 20.5919 91.6972 20.5919 91.2025H21.5919H22.5919C22.5919 90.59 22.0948 90.0957 21.4849 90.0957V91.0957ZM21.5919 91.2025H20.5919V95.2142H21.5919H22.5919V91.2025H21.5919ZM21.5919 95.2142L20.5919 95.2207C20.5887 94.7174 20.9969 94.321 21.4849 94.321V95.321V96.321C22.0916 96.321 22.5959 95.8289 22.5919 95.2078L21.5919 95.2142Z" fill="black" mask="url(#path-132-inside-37_10331_47377)"/>
<path d="M42.1499 98.9863V99.0332H9.04443V98.9863H42.1499Z" stroke="black"/>
<path d="M40.5552 101.904H48.2729C48.3905 101.904 48.4849 102 48.4849 102.115V111.87L48.48 111.912C48.4606 112.007 48.3764 112.08 48.2729 112.08H40.5552C40.4377 112.08 40.3435 111.986 40.3433 111.87V102.115C40.3433 102 40.4376 101.904 40.5552 101.904Z" stroke="black"/>
<path d="M6.51318 101.904H43.0259C43.1189 101.904 43.1929 101.979 43.1929 102.07V111.915C43.1925 112.007 43.1181 112.081 43.0259 112.081H6.51318C6.42019 112.081 6.34622 112.006 6.34619 111.915V102.07C6.3462 101.979 6.42018 101.904 6.51318 101.904Z" stroke="black"/>
<path d="M40.5308 104.248V110.209H8.77393V104.248H40.5308Z" stroke="black"/>
<path d="M42.1851 113.08V115.073H9.04443V113.08H42.1851Z" stroke="black"/>
<path d="M43.6787 113.08V115.073H43.1494V113.08H43.6787Z" stroke="black"/>
<path d="M10.3477 107.102C10.4476 107.102 10.5399 107.185 10.54 107.303C10.54 107.42 10.4477 107.505 10.3477 107.505C10.2476 107.505 10.1553 107.42 10.1553 107.303C10.1554 107.185 10.2477 107.102 10.3477 107.102Z" stroke="black"/>
<path d="M12.668 107.102C12.7684 107.102 12.8602 107.186 12.8604 107.303C12.8604 107.42 12.7687 107.505 12.668 107.505C12.568 107.505 12.4756 107.42 12.4756 107.303C12.4758 107.185 12.5679 107.102 12.668 107.102Z" stroke="black"/>
<path d="M14.9883 107.102C15.0882 107.102 15.1805 107.185 15.1807 107.303C15.1807 107.42 15.0883 107.505 14.9883 107.505C14.8882 107.505 14.7959 107.42 14.7959 107.303C14.7961 107.185 14.8883 107.102 14.9883 107.102Z" stroke="black"/>
<path d="M17.3086 107.102C17.4087 107.102 17.5008 107.185 17.501 107.303C17.501 107.42 17.4087 107.505 17.3086 107.505C17.2082 107.505 17.1162 107.42 17.1162 107.303C17.1164 107.186 17.2081 107.102 17.3086 107.102Z" stroke="black"/>
<path d="M39.1497 105.689V108.915H36.5344V105.689H39.1497Z" stroke="black"/>
<mask id="path-145-inside-38_10331_47377" fill="white">
<path d="M33.4346 109.415H32.8262C32.7669 109.415 32.7192 109.367 32.7192 109.308V105.296C32.7192 105.237 32.7672 105.189 32.8262 105.189H33.4346C33.494 105.189 33.5416 105.237 33.5416 105.296V109.308C33.5416 109.367 33.4936 109.415 33.4346 109.415Z"/>
</mask>
<path d="M33.5416 109.308H32.5416H33.5416ZM33.4346 109.415V108.415H32.8262V109.415V110.415H33.4346V109.415ZM32.8262 109.415V108.415C33.32 108.415 33.7192 108.815 33.7192 109.308H32.7192H31.7192C31.7192 109.918 32.2137 110.415 32.8262 110.415V109.415ZM32.7192 109.308H33.7192V105.296H32.7192H31.7192V109.308H32.7192ZM32.7192 105.296H33.7192C33.7192 105.793 33.3157 106.189 32.8262 106.189V105.189V104.189C32.2187 104.189 31.7192 104.681 31.7192 105.296H32.7192ZM32.8262 105.189V106.189H33.4346V105.189V104.189H32.8262V105.189ZM33.4346 105.189V106.189C32.9408 106.189 32.5416 105.789 32.5416 105.296H33.5416H34.5416C34.5416 104.686 34.0472 104.189 33.4346 104.189V105.189ZM33.5416 105.296H32.5416V109.308H33.5416H34.5416V105.296H33.5416ZM33.5416 109.308H32.5416C32.5416 108.813 32.9427 108.415 33.4346 108.415V109.415V110.415C34.0445 110.415 34.5416 109.921 34.5416 109.308H33.5416Z" fill="black" mask="url(#path-145-inside-38_10331_47377)"/>
<mask id="path-147-inside-39_10331_47377" fill="white">
<path d="M30.4864 109.415H29.8779C29.8186 109.415 29.771 109.367 29.771 109.308V105.296C29.771 105.237 29.819 105.189 29.8779 105.189H30.4864C30.5457 105.189 30.5934 105.237 30.5934 105.296V109.308C30.5937 109.367 30.5457 109.415 30.4864 109.415Z"/>
</mask>
<path d="M30.5934 109.308H29.5933L29.5934 109.314L30.5934 109.308ZM30.4864 109.415V108.415H29.8779V109.415V110.415H30.4864V109.415ZM29.8779 109.415V108.415C30.3718 108.415 30.771 108.815 30.771 109.308H29.771H28.771C28.771 109.918 29.2654 110.415 29.8779 110.415V109.415ZM29.771 109.308H30.771V105.296H29.771H28.771V109.308H29.771ZM29.771 105.296H30.771C30.771 105.793 30.3676 106.189 29.8779 106.189V105.189V104.189C29.2704 104.189 28.771 104.681 28.771 105.296H29.771ZM29.8779 105.189V106.189H30.4864V105.189V104.189H29.8779V105.189ZM30.4864 105.189V106.189C29.9926 106.189 29.5934 105.789 29.5934 105.296H30.5934H31.5934C31.5934 104.686 31.0989 104.189 30.4864 104.189V105.189ZM30.5934 105.296H29.5934V109.308H30.5934H31.5934V105.296H30.5934ZM30.5934 109.308L29.5934 109.314C29.5901 108.811 29.9985 108.415 30.4864 108.415V109.415V110.415C31.093 110.415 31.5973 109.923 31.5933 109.302L30.5934 109.308Z" fill="black" mask="url(#path-147-inside-39_10331_47377)"/>
<mask id="path-149-inside-40_10331_47377" fill="white">
<path d="M27.5384 109.415H26.93C26.8706 109.415 26.823 109.367 26.823 109.308V105.296C26.823 105.237 26.871 105.189 26.93 105.189H27.5384C27.5977 105.189 27.6454 105.237 27.6454 105.296V109.308C27.6457 109.367 27.5977 109.415 27.5384 109.415Z"/>
</mask>
<path d="M27.6454 109.308H26.6453L26.6454 109.314L27.6454 109.308ZM27.5384 109.415V108.415H26.93V109.415V110.415H27.5384V109.415ZM26.93 109.415V108.415C27.4237 108.415 27.823 108.815 27.823 109.308H26.823H25.823C25.823 109.918 26.3175 110.415 26.93 110.415V109.415ZM26.823 109.308H27.823V105.296H26.823H25.823V109.308H26.823ZM26.823 105.296H27.823C27.823 105.793 27.4195 106.189 26.93 106.189V105.189V104.189C26.3225 104.189 25.823 104.681 25.823 105.296H26.823ZM26.93 105.189V106.189H27.5384V105.189V104.189H26.93V105.189ZM27.5384 105.189V106.189C27.0446 106.189 26.6454 105.789 26.6454 105.296H27.6454H28.6454C28.6454 104.686 28.1509 104.189 27.5384 104.189V105.189ZM27.6454 105.296H26.6454V109.308H27.6454H28.6454V105.296H27.6454ZM27.6454 109.308L26.6454 109.314C26.6421 108.811 27.0505 108.415 27.5384 108.415V109.415V110.415C28.145 110.415 28.6493 109.923 28.6453 109.302L27.6454 109.308Z" fill="black" mask="url(#path-149-inside-40_10331_47377)"/>
<mask id="path-151-inside-41_10331_47377" fill="white">
<path d="M24.5905 109.415H23.9821C23.9227 109.415 23.8751 109.367 23.8751 109.308V105.296C23.8751 105.237 23.9231 105.189 23.9821 105.189H24.5905C24.6499 105.189 24.6975 105.237 24.6975 105.296V109.308C24.6975 109.367 24.6495 109.415 24.5905 109.415Z"/>
</mask>
<path d="M24.5905 109.415V108.415H23.9821V109.415V110.415H24.5905V109.415ZM23.9821 109.415V108.415C24.4759 108.415 24.8751 108.815 24.8751 109.308H23.8751H22.8751C22.8751 109.918 23.3696 110.415 23.9821 110.415V109.415ZM23.8751 109.308H24.8751V105.296H23.8751H22.8751V109.308H23.8751ZM23.8751 105.296H24.8751C24.8751 105.793 24.4716 106.189 23.9821 106.189V105.189V104.189C23.3746 104.189 22.8751 104.681 22.8751 105.296H23.8751ZM23.9821 105.189V106.189H24.5905V105.189V104.189H23.9821V105.189ZM24.5905 105.189V106.189C24.0967 106.189 23.6975 105.789 23.6975 105.296H24.6975H25.6975C25.6975 104.686 25.203 104.189 24.5905 104.189V105.189ZM24.6975 105.296H23.6975V109.308H24.6975H25.6975V105.296H24.6975ZM24.6975 109.308H23.6975C23.6975 108.813 24.0987 108.415 24.5905 108.415V109.415V110.415C25.2003 110.415 25.6975 109.921 25.6975 109.308H24.6975Z" fill="black" mask="url(#path-151-inside-41_10331_47377)"/>
<mask id="path-153-inside-42_10331_47377" fill="white">
<path d="M21.6422 109.415H21.0337C20.9744 109.415 20.9268 109.367 20.9268 109.308V105.296C20.9268 105.237 20.9748 105.189 21.0337 105.189H21.6422C21.7015 105.189 21.7491 105.237 21.7491 105.296V109.308C21.7491 109.367 21.7011 109.415 21.6422 109.415Z"/>
</mask>
<path d="M21.6422 109.415V108.415H21.0337V109.415V110.415H21.6422V109.415ZM21.0337 109.415V108.415C21.5275 108.415 21.9268 108.815 21.9268 109.308H20.9268H19.9268C19.9268 109.918 20.4213 110.415 21.0337 110.415V109.415ZM20.9268 109.308H21.9268V105.296H20.9268H19.9268V109.308H20.9268ZM20.9268 105.296H21.9268C21.9268 105.793 21.5233 106.189 21.0337 106.189V105.189V104.189C20.4262 104.189 19.9268 104.681 19.9268 105.296H20.9268ZM21.0337 105.189V106.189H21.6422V105.189V104.189H21.0337V105.189ZM21.6422 105.189V106.189C21.1483 106.189 20.7491 105.789 20.7491 105.296H21.7491H22.7491C22.7491 104.686 22.2547 104.189 21.6422 104.189V105.189ZM21.7491 105.296H20.7491V109.308H21.7491H22.7491V105.296H21.7491ZM21.7491 109.308H20.7491C20.7491 108.813 21.1502 108.415 21.6422 108.415V109.415V110.415C22.252 110.415 22.7491 109.921 22.7491 109.308H21.7491Z" fill="black" mask="url(#path-153-inside-42_10331_47377)"/>
<path d="M42.1499 113.08V113.127H9.04443V113.08H42.1499Z" stroke="black"/>
<path d="M6.62646 115.693H42.9126C43.0681 115.693 43.1929 115.819 43.1929 115.973V119.323H6.34619V115.973C6.34619 115.819 6.47098 115.693 6.62646 115.693Z" stroke="black"/>
<path d="M5.00488 119.488H149.599C150.209 119.488 150.71 119.989 150.71 120.597C150.71 121.204 150.209 121.705 149.599 121.705H5.00488C4.39466 121.705 3.89457 121.204 3.89453 120.597C3.89453 119.989 4.39464 119.488 5.00488 119.488Z" stroke="black"/>
</svg>
