<svg width="160" height="120" viewBox="0 0 160 120" fill="none" xmlns="http://www.w3.org/2000/svg">
<rect width="160" height="120" fill="#8C8C8C"/>
<g id="Frame 1835">
<g id="Frame 997">
<rect width="416" height="500" rx="44" transform="matrix(-1 0 0 1 188 -54)" fill="white"/>
<g id="Object">
<g id="Group">
<path id="Vector" d="M8.10156 85.5596C8.0979 78.2399 14.2484 72.3532 21.6758 72.8018C28.0311 73.1838 33.216 78.3581 33.625 84.7119C34.0979 92.1404 28.2233 98.316 20.8975 98.3291H20.8965C20.6642 98.3297 20.4318 98.3214 20.1973 98.3086L20.1689 98.3076H20.1406L6.23633 98.3311C7.35831 97.0749 8.05122 95.3493 8.11133 93.4756L8.11523 93.1924L8.10352 86.834H8.12109L8.10547 85.8184L8.10156 85.5596Z" stroke="black" stroke-width="2"/>
<path id="Vector_2" d="M28.8779 101.613C35.3746 101.603 40.6701 106.778 40.8457 113.233L40.8506 113.542L40.8564 118.826L1.00488 118.894L1 113.608C0.991453 107.011 6.32942 101.652 12.9297 101.641L28.8779 101.613Z" stroke="black" stroke-width="2"/>
<path id="Vector_3" d="M52.2324 78.4141C57.3408 78.4062 61.4898 82.5409 61.4971 87.6504C61.5043 92.7601 57.3705 96.9064 52.2666 96.915C47.1569 96.9233 43.0085 92.7894 43 87.6807C42.9918 82.5709 47.1245 78.4233 52.2324 78.4141Z" stroke="black" stroke-width="2"/>
<path id="Vector_4" d="M79.8711 72.3281C86.9908 72.3155 92.7598 78.0724 92.7725 85.1855C92.7846 92.2949 87.0262 98.0665 79.9121 98.0791C72.8017 98.0914 67.0283 92.3386 67.0156 85.2275C67.003 78.1164 72.7613 72.3409 79.8711 72.3281Z" stroke="black" stroke-width="2"/>
<path id="Vector_5" d="M87.9512 101.379C94.4992 101.367 99.838 106.584 100.017 113.091L100.021 113.402L100.027 118.731L59.874 118.799L59.8652 113.469C59.8527 106.818 65.2412 101.416 71.8867 101.404L87.9512 101.379Z" stroke="black" stroke-width="2"/>
<path id="Vector_6" d="M138.848 72.2266H138.849C145.848 72.214 151.555 77.7923 151.74 84.75L151.745 85.083C151.758 92.1932 145.999 97.9655 138.889 97.9775C131.78 97.99 126.005 92.2365 125.992 85.126C125.98 78.0144 131.739 72.2394 138.848 72.2266Z" stroke="black" stroke-width="2"/>
<path id="Vector_7" d="M146.929 101.277C153.475 101.266 158.812 106.483 158.988 112.99L158.992 113.302L158.998 118.629L118.848 118.697L118.842 113.368L118.845 113.057C118.998 106.549 124.317 101.316 130.863 101.305L146.929 101.277Z" stroke="black" stroke-width="2"/>
<path id="Vector_8" d="M113.497 99.7812C115.959 99.7777 118.175 100.807 119.752 102.46C117.277 104.989 115.652 108.351 115.352 112.087L103.693 112.109C103.311 107.522 100.961 103.499 97.4961 100.869C98.7245 100.19 100.131 99.8032 101.633 99.8008L113.497 99.7812Z" stroke="black" stroke-width="2"/>
<path id="Vector_9" d="M58.2012 99.8711C59.7106 99.8687 61.1293 100.256 62.3672 100.938C58.9153 103.578 56.5874 107.604 56.2227 112.184L44.5273 112.205C44.2144 108.469 42.5803 105.113 40.0977 102.592C41.6671 100.933 43.8763 99.8959 46.334 99.8916L58.2012 99.8711Z" stroke="black" stroke-width="2"/>
<path id="Vector_10" d="M106.838 78.3633C112.227 78.0197 116.71 82.2844 116.719 87.5986L116.713 87.7578L116.678 88.792H116.721L116.728 93.2812V93.2822C116.731 94.6145 117.148 95.8704 117.864 96.8535L108.029 96.8701H107.998L107.447 96.8877C102.138 96.8863 97.874 92.4259 98.1963 87.0371C98.4662 82.5689 101.995 78.8965 106.408 78.4014L106.838 78.3633Z" stroke="black" stroke-width="2"/>
<path id="Vector_11" d="M131.214 1H131.215C134.517 0.99394 137.288 3.81086 137.29 7.36328V7.36426L137.391 66.6699C136.516 66.8619 135.677 67.1067 134.875 67.4023L134.772 7.36816C134.771 5.34917 133.277 3.51191 131.213 3.51465H131.212L30.3457 3.68555C28.2797 3.68882 26.7981 5.53292 26.7979 7.54883V7.55078L26.9014 68.0049C26.0921 67.8091 25.2514 67.6619 24.3838 67.5615L24.2832 7.55469C24.2774 4.00248 27.0393 1.1756 30.3467 1.16992L131.214 1Z" stroke="black" stroke-width="2"/>
<path id="Vector_12" d="M125.904 38.334L113.969 29.1846L113.228 28.6172L112.61 29.3164L90.0879 54.835L71.9893 40.0977L71.1641 39.4258L70.5449 40.291L55.8525 60.8193L48.5947 54.9404L47.79 54.2881L47.167 55.1162L38.7959 66.2285L36.0703 64.0381L49.2178 45.9834L54.6992 51.1201L55.5303 51.8994L56.1953 50.9736L70.918 30.4795L87.4492 43.1289L88.249 43.7422L88.8555 42.9365L104.132 22.6455L104.719 21.8652L103.953 21.2598L94.0527 13.4346L124.102 7.08984L125.904 38.334Z" stroke="black" stroke-width="2"/>
</g>
</g>
</g>
</g>
</svg>
