<svg width="203" height="160" viewBox="0 0 203 160" fill="none" xmlns="http://www.w3.org/2000/svg">
<path d="M134.716 12.653C137.923 9.44645 143.122 9.44588 146.329 12.6523C149.535 15.859 149.535 21.059 146.329 24.2656C143.122 27.4721 137.923 27.4715 134.716 24.2649C131.51 21.0583 131.51 15.8596 134.716 12.653Z" stroke="black"/>
<path d="M140.389 21.9404L139.919 21.9121C139.093 21.8624 138.311 21.6712 137.744 21.4209L138.166 20.4668C138.869 20.7836 139.686 20.9775 140.432 20.9775C140.812 20.9775 141.148 20.9403 141.404 20.8242C141.541 20.7625 141.677 20.6696 141.777 20.5273C141.881 20.3807 141.92 20.2176 141.92 20.0645C141.92 19.7206 141.715 19.4915 141.515 19.3594C141.33 19.2373 141.101 19.1614 140.894 19.1055C140.679 19.0476 140.433 18.9973 140.192 18.9473C139.946 18.8959 139.695 18.8426 139.447 18.7764C138.944 18.6419 138.508 18.4669 138.201 18.2012C137.917 17.9553 137.717 17.6099 137.717 17.0459C137.717 16.56 137.89 16.1243 138.237 15.7793C138.589 15.4299 139.148 15.1456 139.958 15.0322L140.389 14.9717V13.8535H140.92V14.9697L141.373 15.0127C141.955 15.0678 142.51 15.196 142.982 15.3906L142.589 16.333C141.956 16.0729 141.338 15.9375 140.735 15.9375C140.328 15.9375 139.978 15.9938 139.714 16.1436C139.449 16.2936 139.291 16.5282 139.255 16.7979L139.247 16.916L139.257 17.041C139.301 17.3205 139.49 17.5055 139.662 17.6133C139.846 17.7286 140.075 17.7999 140.28 17.8525C140.493 17.907 140.739 17.955 140.979 18.0029C141.225 18.0521 141.475 18.1034 141.723 18.168C142.226 18.2992 142.662 18.4721 142.969 18.7344C143.252 18.9766 143.45 19.3157 143.45 19.8691C143.45 20.3288 143.286 20.7523 142.956 21.0957C142.622 21.4425 142.094 21.7317 141.334 21.8643L140.92 21.9365V23.0625H140.389V21.9404Z" stroke="black"/>
<path d="M125.379 25.5156C128.018 25.5158 130.157 27.6547 130.157 30.293C130.157 32.9311 128.018 35.0702 125.379 35.0703C122.741 35.0703 120.602 32.9312 120.602 30.293C120.602 27.6546 122.741 25.5156 125.379 25.5156Z" stroke="black"/>
<path d="M125.875 28.4023C126.137 28.4272 126.385 28.4772 126.607 28.5488L126.522 28.7539C126.181 28.6337 125.842 28.5694 125.508 28.5693C125.248 28.5693 124.995 28.6041 124.791 28.7197C124.579 28.8399 124.445 29.0348 124.415 29.2607L124.408 29.3594L124.417 29.4688C124.456 29.7108 124.621 29.8664 124.753 29.9492C124.892 30.036 125.055 30.0845 125.183 30.1172C125.318 30.1518 125.474 30.1824 125.616 30.2109C125.765 30.2407 125.912 30.2711 126.056 30.3086C126.351 30.3857 126.58 30.4811 126.732 30.6104C126.859 30.7198 126.955 30.8708 126.955 31.1484C126.955 31.3769 126.875 31.5844 126.711 31.7549C126.544 31.9288 126.264 32.0884 125.836 32.1631L125.494 32.2227V32.2168L125.024 32.1885C124.627 32.1645 124.254 32.0848 123.958 31.9805L124.053 31.7666C124.458 31.9234 124.906 32.0166 125.323 32.0166C125.56 32.0166 125.799 31.9945 125.994 31.9062C126.1 31.8584 126.214 31.7823 126.3 31.6602C126.389 31.5336 126.422 31.394 126.422 31.2666C126.422 30.9698 126.243 30.777 126.088 30.6748C125.948 30.5827 125.784 30.53 125.654 30.4951C125.518 30.4582 125.362 30.4263 125.219 30.3965C125.069 30.3653 124.922 30.3344 124.778 30.2959C124.482 30.2167 124.253 30.1196 124.102 29.9883C123.973 29.8769 123.876 29.7222 123.876 29.4375C123.876 29.1937 123.962 28.981 124.133 28.8105C124.309 28.6356 124.605 28.4773 125.064 28.4131L125.44 28.3604L125.875 28.4023Z" stroke="black"/>
<path d="M135.979 32.8786C136.425 30.9571 138.344 29.7611 140.265 30.2068C142.187 30.6525 143.383 32.5708 142.937 34.4923C142.492 36.4139 140.573 37.6108 138.652 37.1653C136.73 36.7197 135.533 34.8002 135.979 32.8786Z" stroke="black"/>
<path d="M139.955 33.8008C140.178 33.859 140.335 33.9279 140.432 34.0107C140.505 34.0735 140.564 34.1583 140.564 34.3389C140.563 34.4863 140.513 34.6178 140.407 34.7275C140.358 34.7791 140.29 34.8289 140.202 34.875C140.224 34.8521 140.246 34.8268 140.266 34.7988C140.35 34.6794 140.381 34.548 140.381 34.4297C140.381 34.1495 140.211 33.9696 140.072 33.8779C140.015 33.84 139.953 33.811 139.894 33.7871C139.914 33.792 139.935 33.7955 139.955 33.8008ZM138.834 32.4492C138.685 32.5772 138.599 32.7571 138.599 32.958C138.599 33.2478 138.783 33.425 138.918 33.5098C138.958 33.5347 139 33.5551 139.041 33.5732C139.037 33.5721 139.032 33.5715 139.027 33.5703C138.804 33.5106 138.648 33.4415 138.551 33.3574C138.477 33.2932 138.416 33.2052 138.416 33.0186C138.416 32.8596 138.471 32.7245 138.581 32.6152C138.64 32.5568 138.722 32.4985 138.834 32.4492Z" stroke="black"/>
<mask id="path-7-inside-1_10331_47586" fill="white">
<path d="M123.07 15.9316H122.475V20.1995H123.07V15.9316Z"/>
</mask>
<path d="M122.475 15.9316V14.9316H121.475V15.9316H122.475ZM123.07 15.9316H124.07V14.9316H123.07V15.9316ZM123.07 20.1995V21.1995H124.07V20.1995H123.07ZM122.475 20.1995H121.475V21.1995H122.475V20.1995ZM122.475 15.9316V16.9316H123.07V15.9316V14.9316H122.475V15.9316ZM123.07 15.9316H122.07V20.1995H123.07H124.07V15.9316H123.07ZM123.07 20.1995V19.1995H122.475V20.1995V21.1995H123.07V20.1995ZM122.475 20.1995H123.475V15.9316H122.475H121.475V20.1995H122.475Z" fill="black" mask="url(#path-7-inside-1_10331_47586)"/>
<mask id="path-9-inside-2_10331_47586" fill="white">
<path d="M124.907 17.7676H120.639V18.3631H124.907V17.7676Z"/>
</mask>
<path d="M120.639 17.7676V16.7676H119.639V17.7676H120.639ZM124.907 17.7676H125.907V16.7676H124.907V17.7676ZM124.907 18.3631V19.3631H125.907V18.3631H124.907ZM120.639 18.3631H119.639V19.3631H120.639V18.3631ZM120.639 17.7676V18.7676H124.907V17.7676V16.7676H120.639V17.7676ZM124.907 17.7676H123.907V18.3631H124.907H125.907V17.7676H124.907ZM124.907 18.3631V17.3631H120.639V18.3631V19.3631H124.907V18.3631ZM120.639 18.3631H121.639V17.7676H120.639H119.639V18.3631H120.639Z" fill="black" mask="url(#path-9-inside-2_10331_47586)"/>
<mask id="path-11-inside-3_10331_47586" fill="white">
<path d="M128.383 4.50977H127.488V10.9202H128.383V4.50977Z"/>
</mask>
<path d="M127.488 4.50977V3.50977H126.488V4.50977H127.488ZM128.383 4.50977H129.383V3.50977H128.383V4.50977ZM128.383 10.9202V11.9202H129.383V10.9202H128.383ZM127.488 10.9202H126.488V11.9202H127.488V10.9202ZM127.488 4.50977V5.50977H128.383V4.50977V3.50977H127.488V4.50977ZM128.383 4.50977H127.383V10.9202H128.383H129.383V4.50977H128.383ZM128.383 10.9202V9.92016H127.488V10.9202V11.9202H128.383V10.9202ZM127.488 10.9202H128.488V4.50977H127.488H126.488V10.9202H127.488Z" fill="black" mask="url(#path-11-inside-3_10331_47586)"/>
<mask id="path-13-inside-4_10331_47586" fill="white">
<path d="M131.141 7.26758H124.73V8.16209H131.141V7.26758Z"/>
</mask>
<path d="M124.73 7.26758V6.26758H123.73V7.26758H124.73ZM131.141 7.26758H132.141V6.26758H131.141V7.26758ZM131.141 8.16209V9.16209H132.141V8.16209H131.141ZM124.73 8.16209H123.73V9.16209H124.73V8.16209ZM124.73 7.26758V8.26758H131.141V7.26758V6.26758H124.73V7.26758ZM131.141 7.26758H130.141V8.16209H131.141H132.141V7.26758H131.141ZM131.141 8.16209V7.16209H124.73V8.16209V9.16209H131.141V8.16209ZM124.73 8.16209H125.73V7.26758H124.73H123.73V8.16209H124.73Z" fill="black" mask="url(#path-13-inside-4_10331_47586)"/>
<mask id="path-15-inside-5_10331_47586" fill="white">
<path d="M148.486 37.291H147.809V42.1449H148.486V37.291Z"/>
</mask>
<path d="M147.809 37.291V36.291H146.809V37.291H147.809ZM148.486 37.291H149.486V36.291H148.486V37.291ZM148.486 42.1449V43.1449H149.486V42.1449H148.486ZM147.809 42.1449H146.809V43.1449H147.809V42.1449ZM147.809 37.291V38.291H148.486V37.291V36.291H147.809V37.291ZM148.486 37.291H147.486V42.1449H148.486H149.486V37.291H148.486ZM148.486 42.1449V41.1449H147.809V42.1449V43.1449H148.486V42.1449ZM147.809 42.1449H148.809V37.291H147.809H146.809V42.1449H147.809Z" fill="black" mask="url(#path-15-inside-5_10331_47586)"/>
<mask id="path-17-inside-6_10331_47586" fill="white">
<path d="M150.574 39.3789H145.72V40.0562H150.574V39.3789Z"/>
</mask>
<path d="M145.72 39.3789V38.3789H144.72V39.3789H145.72ZM150.574 39.3789H151.574V38.3789H150.574V39.3789ZM150.574 40.0562V41.0562H151.574V40.0562H150.574ZM145.72 40.0562H144.72V41.0562H145.72V40.0562ZM145.72 39.3789V40.3789H150.574V39.3789V38.3789H145.72V39.3789ZM150.574 39.3789H149.574V40.0562H150.574H151.574V39.3789H150.574ZM150.574 40.0562V39.0562H145.72V40.0562V41.0562H150.574V40.0562ZM145.72 40.0562H146.72V39.3789H145.72H144.72V40.0562H145.72Z" fill="black" mask="url(#path-17-inside-6_10331_47586)"/>
<path d="M134.794 45.8945V123.613H29.3209V45.8945H134.794Z" stroke="black"/>
<mask id="path-20-inside-7_10331_47586" fill="white">
<path d="M135.549 124.37H28.5645V45.1387H135.549V124.37ZM29.0769 123.857H135.037V45.6511H29.0769V123.857Z"/>
</mask>
<path d="M135.549 124.37V125.37H136.549V124.37H135.549ZM28.5645 124.37H27.5645V125.37H28.5645V124.37ZM28.5645 45.1387V44.1387H27.5645V45.1387H28.5645ZM135.549 45.1387H136.549V44.1387H135.549V45.1387ZM29.0769 123.857H28.0769V124.857H29.0769V123.857ZM135.037 123.857V124.857H136.037V123.857H135.037ZM135.037 45.6511H136.037V44.6511H135.037V45.6511ZM29.0769 45.6511V44.6511H28.0769V45.6511H29.0769ZM135.549 124.37V123.37H28.5645V124.37V125.37H135.549V124.37ZM28.5645 124.37H29.5645V45.1387H28.5645H27.5645V124.37H28.5645ZM28.5645 45.1387V46.1387H135.549V45.1387V44.1387H28.5645V45.1387ZM135.549 45.1387H134.549V124.37H135.549H136.549V45.1387H135.549ZM29.0769 123.857V124.857H135.037V123.857V122.857H29.0769V123.857ZM135.037 123.857H136.037V45.6511H135.037H134.037V123.857H135.037ZM135.037 45.6511V44.6511H29.0769V45.6511V46.6511H135.037V45.6511ZM29.0769 45.6511H28.0769V123.857H29.0769H30.0769V45.6511H29.0769Z" fill="black" mask="url(#path-20-inside-7_10331_47586)"/>
<path d="M44.4097 99.0469V114.903H36.6988V99.0469H44.4097Z" stroke="black"/>
<path d="M58.2442 90.6406V114.903H50.5333V90.6406H58.2442Z" stroke="black"/>
<path d="M72.0782 73.3027V114.902H64.3672V73.3027H72.0782Z" stroke="black"/>
<path d="M85.9127 85.6113V114.902H78.2017V85.6113H85.9127Z" stroke="black"/>
<path d="M99.7466 72.2539V114.904H92.0357V72.2539H99.7466Z" stroke="black"/>
<path d="M113.581 74.5332V114.903H105.87V74.5332H113.581Z" stroke="black"/>
<path d="M127.416 59.418V114.903H119.705V59.418H127.416Z" stroke="black"/>
<mask id="path-29-inside-8_10331_47586" fill="white">
<path d="M38.8252 108.714L38.5928 108.258L53.1414 100.856L68.1451 80.4195L81.8813 94.7976L96.0028 80.6761L109.698 82.34L123.443 66.5586L123.829 66.8952L109.906 82.8814L96.1887 81.2148L81.8729 95.5306L68.1967 81.2153L53.4824 101.257L38.8252 108.714Z"/>
</mask>
<path d="M38.8252 108.714L37.934 109.168L38.3875 110.059L39.2787 109.606L38.8252 108.714ZM38.5928 108.258L38.1394 107.366L37.248 107.82L37.7016 108.711L38.5928 108.258ZM53.1414 100.856L53.5948 101.747L53.8068 101.639L53.9475 101.447L53.1414 100.856ZM68.1451 80.4195L68.8682 79.7287L68.0446 78.8667L67.339 79.8277L68.1451 80.4195ZM81.8813 94.7976L81.1583 95.4883L81.865 96.2281L82.5885 95.5047L81.8813 94.7976ZM96.0028 80.6761L96.1234 79.6834L95.64 79.6247L95.2957 79.969L96.0028 80.6761ZM109.698 82.34L109.577 83.3327L110.104 83.3967L110.452 82.9968L109.698 82.34ZM123.443 66.5586L124.1 65.8047L123.346 65.1476L122.689 65.9018L123.443 66.5586ZM123.829 66.8952L124.583 67.552L125.24 66.7981L124.486 66.1413L123.829 66.8952ZM109.906 82.8814L109.785 83.8741L110.312 83.9381L110.66 83.5382L109.906 82.8814ZM96.1887 81.2148L96.3093 80.2221L95.8259 80.1634L95.4816 80.5077L96.1887 81.2148ZM81.8729 95.5306L81.1499 96.2213L81.8566 96.9611L82.58 96.2377L81.8729 95.5306ZM68.1967 81.2153L68.9197 80.5245L68.0962 79.6624L67.3906 80.6235L68.1967 81.2153ZM53.4824 101.257L53.9359 102.148L54.1478 102.041L54.2885 101.849L53.4824 101.257ZM38.8252 108.714L39.7165 108.261L39.4841 107.804L38.5928 108.258L37.7016 108.711L37.934 109.168L38.8252 108.714ZM38.5928 108.258L39.0463 109.149L53.5948 101.747L53.1414 100.856L52.6879 99.9644L38.1394 107.366L38.5928 108.258ZM53.1414 100.856L53.9475 101.447L68.9512 81.0113L68.1451 80.4195L67.339 79.8277L52.3353 100.264L53.1414 100.856ZM68.1451 80.4195L67.4221 81.1103L81.1583 95.4883L81.8813 94.7976L82.6044 94.1068L68.8682 79.7287L68.1451 80.4195ZM81.8813 94.7976L82.5885 95.5047L96.7099 81.3832L96.0028 80.6761L95.2957 79.969L81.1742 94.0905L81.8813 94.7976ZM96.0028 80.6761L95.8822 81.6688L109.577 83.3327L109.698 82.34L109.819 81.3473L96.1234 79.6834L96.0028 80.6761ZM109.698 82.34L110.452 82.9968L124.197 67.2154L123.443 66.5586L122.689 65.9018L108.944 81.6833L109.698 82.34ZM123.443 66.5586L122.786 67.3125L123.172 67.6492L123.829 66.8952L124.486 66.1413L124.1 65.8047L123.443 66.5586ZM123.829 66.8952L123.075 66.2385L109.152 82.2246L109.906 82.8814L110.66 83.5382L124.583 67.552L123.829 66.8952ZM109.906 82.8814L110.027 81.8887L96.3093 80.2221L96.1887 81.2148L96.0681 82.2075L109.785 83.8741L109.906 82.8814ZM96.1887 81.2148L95.4816 80.5077L81.1658 94.8235L81.8729 95.5306L82.58 96.2377L96.8958 81.922L96.1887 81.2148ZM81.8729 95.5306L82.596 94.8398L68.9197 80.5245L68.1967 81.2153L67.4736 81.906L81.1499 96.2213L81.8729 95.5306ZM68.1967 81.2153L67.3906 80.6235L52.6763 100.665L53.4824 101.257L54.2885 101.849L69.0028 81.8071L68.1967 81.2153ZM53.4824 101.257L53.029 100.366L38.3718 107.823L38.8252 108.714L39.2787 109.606L53.9359 102.148L53.4824 101.257Z" fill="black" mask="url(#path-29-inside-8_10331_47586)"/>
<mask id="path-31-inside-9_10331_47586" fill="white">
<path d="M103.491 55.1133H60.6221V55.6257H103.491V55.1133Z"/>
</mask>
<path d="M60.6221 55.1133V54.1133H59.6221V55.1133H60.6221ZM103.491 55.1133H104.491V54.1133H103.491V55.1133ZM103.491 55.6257V56.6257H104.491V55.6257H103.491ZM60.6221 55.6257H59.6221V56.6257H60.6221V55.6257ZM60.6221 55.1133V56.1133H103.491V55.1133V54.1133H60.6221V55.1133ZM103.491 55.1133H102.491V55.6257H103.491H104.491V55.1133H103.491ZM103.491 55.6257V54.6257H60.6221V55.6257V56.6257H103.491V55.6257ZM60.6221 55.6257H61.6221V55.1133H60.6221H59.6221V55.6257H60.6221Z" fill="black" mask="url(#path-31-inside-9_10331_47586)"/>
<mask id="path-33-inside-10_10331_47586" fill="white">
<path d="M89.0209 60.748H75.0923V61.2604H89.0209V60.748Z"/>
</mask>
<path d="M75.0923 60.748V59.748H74.0923V60.748H75.0923ZM89.0209 60.748H90.0209V59.748H89.0209V60.748ZM89.0209 61.2604V62.2604H90.0209V61.2604H89.0209ZM75.0923 61.2604H74.0923V62.2604H75.0923V61.2604ZM75.0923 60.748V61.748H89.0209V60.748V59.748H75.0923V60.748ZM89.0209 60.748H88.0209V61.2604H89.0209H90.0209V60.748H89.0209ZM89.0209 61.2604V60.2604H75.0923V61.2604V62.2604H89.0209V61.2604ZM75.0923 61.2604H76.0923V60.748H75.0923H74.0923V61.2604H75.0923Z" fill="black" mask="url(#path-33-inside-10_10331_47586)"/>
<path d="M18.4858 118.045C21.3204 120.081 23.6454 122.93 25.1196 126.222C26.8942 130.185 27.4264 134.767 26.6098 139.072L26.601 139.117C25.6242 139.022 24.6825 138.59 23.8403 137.916C22.7361 137.033 21.8307 135.756 21.2914 134.381C20.1926 131.579 20.2065 128.456 20.0112 125.273C19.8632 122.861 19.5379 120.268 18.4858 118.045Z" stroke="black"/>
<path d="M35.7769 119.154C34.7249 121.378 34.3995 123.971 34.2515 126.383C34.0562 129.566 34.0702 132.688 32.9713 135.49C32.432 136.865 31.5266 138.142 30.4224 139.025C29.5801 139.699 28.6386 140.131 27.6617 140.227L27.6539 140.182C26.8372 135.877 27.3694 131.294 29.1441 127.331C30.6182 124.04 32.9424 121.191 35.7769 119.154Z" stroke="black"/>
<path d="M28.6636 120.219C28.5775 122.279 29.1906 124.287 29.775 126.198C30.4601 128.439 31.1064 130.551 30.8238 132.686C30.4676 135.376 28.472 137.72 26.0386 138.395L24.1373 137.765C22.3972 134.764 21.9325 130.948 22.9088 127.573C23.8158 124.438 25.9502 121.738 28.6636 120.219Z" stroke="black"/>
<path d="M38.9195 125.265C37.3039 127.233 36.4135 129.731 35.7554 132.085C34.8934 135.169 34.2734 138.226 32.5132 140.739C30.9577 142.961 28.2434 144.568 25.6763 144.283V144.231C25.6685 139.852 27.1764 135.476 29.9078 131.963C32.2061 129.006 35.3629 126.67 38.9195 125.265Z" stroke="black"/>
<path d="M14.0259 125.538C17.2464 126.943 20.109 129.258 22.2007 132.188C24.7084 135.702 26.0967 140.083 26.0894 144.474L26.0884 144.529C23.7822 144.789 21.3258 143.217 19.899 140.998C18.2812 138.482 17.7105 135.419 16.9195 132.337C16.318 129.993 15.5032 127.506 14.0259 125.538Z" stroke="black"/>
<path d="M36.3282 143.408L33.7022 159.308H18.3204L15.6954 143.408H36.3282Z" stroke="black"/>
<mask id="path-41-inside-11_10331_47586" fill="white">
<path d="M34.2896 160.001H17.7338L14.8799 142.717H37.1433L34.2896 160.001ZM18.0599 159.616H33.9636L36.6905 143.101H15.333L18.0599 159.616Z"/>
</mask>
<path d="M34.2896 160.001V161.001H35.138L35.2762 160.163L34.2896 160.001ZM17.7338 160.001L16.7472 160.163L16.8854 161.001H17.7338V160.001ZM14.8799 142.717V141.717H13.7013L13.8933 142.88L14.8799 142.717ZM37.1433 142.717L38.13 142.88L38.322 141.717H37.1433V142.717ZM18.0599 159.616L17.0732 159.779L17.2115 160.616H18.0599V159.616ZM33.9636 159.616V160.616H34.812L34.9502 159.779L33.9636 159.616ZM36.6905 143.101L37.6771 143.264L37.8691 142.101H36.6905V143.101ZM15.333 143.101V142.101H14.1543L14.3464 143.264L15.333 143.101ZM34.2896 160.001V159.001H17.7338V160.001V161.001H34.2896V160.001ZM17.7338 160.001L18.7204 159.838L15.8666 142.554L14.8799 142.717L13.8933 142.88L16.7472 160.163L17.7338 160.001ZM14.8799 142.717V143.717H37.1433V142.717V141.717H14.8799V142.717ZM37.1433 142.717L36.1567 142.554L33.3029 159.838L34.2896 160.001L35.2762 160.163L38.13 142.88L37.1433 142.717ZM18.0599 159.616V160.616H33.9636V159.616V158.616H18.0599V159.616ZM33.9636 159.616L34.9502 159.779L37.6771 143.264L36.6905 143.101L35.7038 142.938L32.9769 159.453L33.9636 159.616ZM36.6905 143.101V142.101H15.333V143.101V144.101H36.6905V143.101ZM15.333 143.101L14.3464 143.264L17.0732 159.779L18.0599 159.616L19.0465 159.453L16.3196 142.938L15.333 143.101Z" fill="black" mask="url(#path-41-inside-11_10331_47586)"/>
<path d="M49.2095 0.755859V38.6016H0.756409V0.755859H49.2095Z" stroke="black"/>
<mask id="path-44-inside-12_10331_47586" fill="white">
<path d="M49.9656 39.3577H6.10352e-05V0H49.9656V39.3577ZM0.512442 38.8454H49.4532V0.512381H0.512442V38.8454Z"/>
</mask>
<path d="M49.9656 39.3577V40.3577H50.9656V39.3577H49.9656ZM6.10352e-05 39.3577H-0.999939V40.3577H6.10352e-05V39.3577ZM6.10352e-05 0V-1H-0.999939V0H6.10352e-05ZM49.9656 0H50.9656V-1H49.9656V0ZM0.512442 38.8454H-0.487558V39.8454H0.512442V38.8454ZM49.4532 38.8454V39.8454H50.4532V38.8454H49.4532ZM49.4532 0.512381H50.4532V-0.487619H49.4532V0.512381ZM0.512442 0.512381V-0.487619H-0.487558V0.512381H0.512442ZM49.9656 39.3577V38.3577H6.10352e-05V39.3577V40.3577H49.9656V39.3577ZM6.10352e-05 39.3577H1.00006V0H6.10352e-05H-0.999939V39.3577H6.10352e-05ZM6.10352e-05 0V1H49.9656V0V-1H6.10352e-05V0ZM49.9656 0H48.9656V39.3577H49.9656H50.9656V0H49.9656ZM0.512442 38.8454V39.8454H49.4532V38.8454V37.8454H0.512442V38.8454ZM49.4532 38.8454H50.4532V0.512381H49.4532H48.4532V38.8454H49.4532ZM49.4532 0.512381V-0.487619H0.512442V0.512381V1.51238H49.4532V0.512381ZM0.512442 0.512381H-0.487558V38.8454H0.512442H1.51244V0.512381H0.512442Z" fill="black" mask="url(#path-44-inside-12_10331_47586)"/>
<path d="M17.628 7.12109V12.4375H7.47467V7.12109H17.628Z" stroke="black"/>
<mask id="path-47-inside-13_10331_47586" fill="white">
<path d="M43.1233 7.23047H22.8315V7.49927H43.1233V7.23047Z"/>
</mask>
<path d="M22.8315 7.23047V6.23047H21.8315V7.23047H22.8315ZM43.1233 7.23047H44.1233V6.23047H43.1233V7.23047ZM43.1233 7.49927V8.49927H44.1233V7.49927H43.1233ZM22.8315 7.49927H21.8315V8.49927H22.8315V7.49927ZM22.8315 7.23047V8.23047H43.1233V7.23047V6.23047H22.8315V7.23047ZM43.1233 7.23047H42.1233V7.49927H43.1233H44.1233V7.23047H43.1233ZM43.1233 7.49927V6.49927H22.8315V7.49927V8.49927H43.1233V7.49927ZM22.8315 7.49927H23.8315V7.23047H22.8315H21.8315V7.49927H22.8315Z" fill="black" mask="url(#path-47-inside-13_10331_47586)"/>
<mask id="path-49-inside-14_10331_47586" fill="white">
<path d="M43.1233 9.64453H22.8316V9.91332H43.1233V9.64453Z"/>
</mask>
<path d="M22.8316 9.64453V8.64453H21.8316V9.64453H22.8316ZM43.1233 9.64453H44.1233V8.64453H43.1233V9.64453ZM43.1233 9.91332V10.9133H44.1233V9.91332H43.1233ZM22.8316 9.91332H21.8316V10.9133H22.8316V9.91332ZM22.8316 9.64453V10.6445H43.1233V9.64453V8.64453H22.8316V9.64453ZM43.1233 9.64453H42.1233V9.91332H43.1233H44.1233V9.64453H43.1233ZM43.1233 9.91332V8.91332H22.8316V9.91332V10.9133H43.1233V9.91332ZM22.8316 9.91332H23.8316V9.64453H22.8316H21.8316V9.91332H22.8316Z" fill="black" mask="url(#path-49-inside-14_10331_47586)"/>
<mask id="path-51-inside-15_10331_47586" fill="white">
<path d="M43.1233 12.0586H22.8316V12.3274H43.1233V12.0586Z"/>
</mask>
<path d="M22.8316 12.0586V11.0586H21.8316V12.0586H22.8316ZM43.1233 12.0586H44.1233V11.0586H43.1233V12.0586ZM43.1233 12.3274V13.3274H44.1233V12.3274H43.1233ZM22.8316 12.3274H21.8316V13.3274H22.8316V12.3274ZM22.8316 12.0586V13.0586H43.1233V12.0586V11.0586H22.8316V12.0586ZM43.1233 12.0586H42.1233V12.3274H43.1233H44.1233V12.0586H43.1233ZM43.1233 12.3274V11.3274H22.8316V12.3274V13.3274H43.1233V12.3274ZM22.8316 12.3274H23.8316V12.0586H22.8316H21.8316V12.3274H22.8316Z" fill="black" mask="url(#path-51-inside-15_10331_47586)"/>
<path d="M14.046 26.0391V32.2549H12.7169V26.0391H14.046Z" stroke="black"/>
<path d="M16.3752 22.5273V32.2549H15.0461V22.5273H16.3752Z" stroke="black"/>
<path d="M22.7359 21.3125V32.209H21.4068V21.3125H22.7359Z" stroke="black"/>
<path d="M25.065 28.8066V32.21H23.7359V28.8066H25.065Z" stroke="black"/>
<path d="M31.4258 25.0078V32.2451H30.0967V25.0078H31.4258Z" stroke="black"/>
<path d="M33.7552 23.1855V32.2451H32.4261V23.1855H33.7552Z" stroke="black"/>
<path d="M40.1161 27.4453V32.1904H38.787V27.4453H40.1161Z" stroke="black"/>
<path d="M42.4455 19.4844V32.1914H41.1164V19.4844H42.4455Z" stroke="black"/>
<mask id="path-61-inside-16_10331_47586" fill="white">
<path d="M42.9456 32.8259H7.08795V18.3574H7.35675V32.5571H42.9456V32.8259Z"/>
</mask>
<path d="M42.9456 32.8259V33.8259H43.9456V32.8259H42.9456ZM7.08795 32.8259H6.08795V33.8259H7.08795V32.8259ZM7.08795 18.3574V17.3574H6.08795V18.3574H7.08795ZM7.35675 18.3574H8.35675V17.3574H7.35675V18.3574ZM7.35675 32.5571H6.35675V33.5571H7.35675V32.5571ZM42.9456 32.5571H43.9456V31.5571H42.9456V32.5571ZM42.9456 32.8259V31.8259H7.08795V32.8259V33.8259H42.9456V32.8259ZM7.08795 32.8259H8.08795V18.3574H7.08795H6.08795V32.8259H7.08795ZM7.08795 18.3574V19.3574H7.35675V18.3574V17.3574H7.08795V18.3574ZM7.35675 18.3574H6.35675V32.5571H7.35675H8.35675V18.3574H7.35675ZM7.35675 32.5571V33.5571H42.9456V32.5571V31.5571H7.35675V32.5571ZM42.9456 32.5571H41.9456V32.8259H42.9456H43.9456V32.5571H42.9456Z" fill="black" mask="url(#path-61-inside-16_10331_47586)"/>
<path d="M186.856 149.218L188.175 155.115L179.702 155.099L183.042 152.217L183.237 152.048L183.214 151.791L182.948 148.961L186.856 149.218Z" stroke="black"/>
<mask id="path-64-inside-17_10331_47586" fill="white">
<path d="M182.835 151.68L182.588 151.975L184.317 153.428L184.564 153.133L182.835 151.68Z"/>
</mask>
<path d="M182.588 151.975L181.822 151.331L181.179 152.097L181.945 152.74L182.588 151.975ZM182.835 151.68L183.478 150.915L182.713 150.272L182.07 151.037L182.835 151.68ZM184.564 153.133L185.33 153.777L185.973 153.011L185.208 152.368L184.564 153.133ZM184.317 153.428L183.674 154.193L184.44 154.837L185.083 154.071L184.317 153.428ZM182.588 151.975L183.354 152.618L183.601 152.324L182.835 151.68L182.07 151.037L181.822 151.331L182.588 151.975ZM182.835 151.68L182.192 152.446L183.921 153.899L184.564 153.133L185.208 152.368L183.478 150.915L182.835 151.68ZM184.564 153.133L183.799 152.49L183.552 152.784L184.317 153.428L185.083 154.071L185.33 153.777L184.564 153.133ZM184.317 153.428L184.961 152.662L183.231 151.209L182.588 151.975L181.945 152.74L183.674 154.193L184.317 153.428Z" fill="black" mask="url(#path-64-inside-17_10331_47586)"/>
<path d="M166.252 149.113L166.913 155.116H157.784L161.684 152.24L161.887 152.09V148.902L166.252 149.113Z" stroke="black"/>
<mask id="path-67-inside-18_10331_47586" fill="white">
<path d="M161.508 151.68L161.261 151.975L162.99 153.428L163.237 153.133L161.508 151.68Z"/>
</mask>
<path d="M161.261 151.975L160.495 151.331L159.852 152.097L160.618 152.74L161.261 151.975ZM161.508 151.68L162.151 150.915L161.386 150.272L160.742 151.037L161.508 151.68ZM163.237 153.133L164.003 153.777L164.646 153.011L163.881 152.368L163.237 153.133ZM162.99 153.428L162.347 154.193L163.112 154.837L163.756 154.071L162.99 153.428ZM161.261 151.975L162.026 152.618L162.274 152.324L161.508 151.68L160.742 151.037L160.495 151.331L161.261 151.975ZM161.508 151.68L160.865 152.446L162.594 153.899L163.237 153.133L163.881 152.368L162.151 150.915L161.508 151.68ZM163.237 153.133L162.472 152.49L162.225 152.784L162.99 153.428L163.756 154.071L164.003 153.777L163.237 153.133ZM162.99 153.428L163.633 152.662L161.904 151.209L161.261 151.975L160.618 152.74L162.347 154.193L162.99 153.428Z" fill="black" mask="url(#path-67-inside-18_10331_47586)"/>
<path d="M179.441 96.8477C179.49 97.3057 179.539 97.7643 179.59 98.2236L179.792 99.9854C181.625 115.698 184.741 132.197 188.498 149.084L187.447 149.1L182.506 149.166L180.143 149.198C177.494 140.031 175.018 131.054 172.987 122.567H172.987C172.582 120.882 172.196 119.214 171.833 117.572L171.339 115.303C170.297 110.418 169.446 105.743 168.849 101.347L168.716 100.337C168.568 99.1858 168.438 98.0553 168.328 96.9463V96.9453L168.203 95.6279C168.184 95.4061 168.167 95.185 168.15 94.9648L179.441 96.8477Z" stroke="black"/>
<path d="M172.477 100.168L170.907 116.994L170.906 116.995L170.847 117.635L167.913 149.077H159.695C159.883 130.808 160.496 113.512 162.883 100.724V100.723C163.038 99.8877 163.204 99.0744 163.375 98.2783L167.916 97.4893L172.805 96.6367L172.477 100.168Z" stroke="black"/>
<mask id="path-71-inside-19_10331_47586" fill="white">
<path d="M169.337 105.787L169.086 105.836L172.586 123.854L172.837 123.805L169.337 105.787Z"/>
</mask>
<path d="M169.086 105.836L168.895 104.854L167.913 105.045L168.104 106.027L169.086 105.836ZM169.337 105.787L170.319 105.596L170.128 104.615L169.146 104.805L169.337 105.787ZM172.837 123.805L173.028 124.787L174.01 124.596L173.819 123.614L172.837 123.805ZM172.586 123.854L171.604 124.045L171.795 125.026L172.777 124.835L172.586 123.854ZM169.086 105.836L169.276 106.818L169.528 106.769L169.337 105.787L169.146 104.805L168.895 104.854L169.086 105.836ZM169.337 105.787L168.355 105.978L171.856 123.996L172.837 123.805L173.819 123.614L170.319 105.596L169.337 105.787ZM172.837 123.805L172.647 122.823L172.395 122.872L172.586 123.854L172.777 124.835L173.028 124.787L172.837 123.805ZM172.586 123.854L173.568 123.663L170.067 105.645L169.086 105.836L168.104 106.027L171.604 124.045L172.586 123.854Z" fill="black" mask="url(#path-71-inside-19_10331_47586)"/>
<path opacity="0.3" d="M179.44 96.8477C179.532 97.7118 179.629 98.5776 179.73 99.4473L172.955 99.7139L168.2 99.9004L163.002 100.106C163.121 99.4858 163.245 98.8765 163.374 98.2773L167.916 97.4883L168.375 97.4082L168.328 96.9453C168.261 96.2781 168.202 95.6182 168.149 94.9658L179.44 96.8477Z" stroke="black"/>
<path d="M180.653 78.6992L180.709 96.0244C180.71 96.3723 180.567 96.7054 180.314 96.9443C180.081 97.1642 179.773 97.288 179.453 97.2891L163.315 97.3428L160.301 88.2471L163.253 79.5049L166.777 77.3037L171.296 76.7383L180.653 78.6992Z" stroke="black"/>
<mask id="path-75-inside-20_10331_47586" fill="white">
<path d="M172.482 80.7055C171.465 80.7055 170.479 80.344 169.711 79.6212L169.843 79.4813C171.306 80.8586 173.605 80.8563 175.31 79.4766L175.431 79.6259C174.542 80.3456 173.497 80.7055 172.482 80.7055Z"/>
</mask>
<path d="M169.711 79.6212L168.983 78.9357L168.297 79.6639L169.026 80.3493L169.711 79.6212ZM169.843 79.4813L170.528 78.7531L169.8 78.0678L169.115 78.7958L169.843 79.4813ZM175.31 79.4766L176.087 78.8472L175.458 78.0703L174.681 78.6993L175.31 79.4766ZM175.431 79.6259L176.06 80.4031L176.838 79.7738L176.208 78.9965L175.431 79.6259ZM172.482 80.7055V79.7055C171.705 79.7055 170.968 79.4313 170.396 78.893L169.711 79.6212L169.026 80.3493C169.99 81.2568 171.225 81.7055 172.482 81.7055V80.7055ZM169.711 79.6212L170.439 80.3066L170.571 80.1667L169.843 79.4813L169.115 78.7958L168.983 78.9357L169.711 79.6212ZM169.843 79.4813L169.157 80.2095C171.033 81.9749 173.899 81.9048 175.939 80.2538L175.31 79.4766L174.681 78.6993C173.311 79.8078 171.579 79.7422 170.528 78.7531L169.843 79.4813ZM175.31 79.4766L174.533 80.1059L174.654 80.2552L175.431 79.6259L176.208 78.9965L176.087 78.8472L175.31 79.4766ZM175.431 79.6259L174.802 78.8486C174.084 79.4293 173.26 79.7055 172.482 79.7055V80.7055V81.7055C173.734 81.7055 174.999 81.2619 176.06 80.4031L175.431 79.6259Z" fill="black" mask="url(#path-75-inside-20_10331_47586)"/>
<path d="M179.616 77.0674H179.617C181.051 77.2646 182.211 78.3338 182.525 79.7471L183.692 85.0059L178.739 85.7041L177.687 82.0605L177.669 82L177.638 81.9463L174.358 76.3438L179.616 77.0674Z" stroke="black"/>
<path d="M185.016 90.9814C185.081 91.4909 185.095 91.9377 185.065 92.333V92.3369C184.998 93.3318 184.67 93.9939 184.208 94.4521C183.736 94.9196 183.081 95.2173 182.291 95.3975C181.467 95.5848 180.535 95.6354 179.59 95.6367C179.12 95.6373 178.652 95.6258 178.196 95.6143C177.969 95.6085 177.745 95.6028 177.526 95.5986L176.887 95.5928C174.253 95.6004 171.615 95.4861 168.971 95.3428L168.956 95.3418H168.94L162.491 95.4033L162.065 94.7402C162.964 93.7087 165.079 92.4553 168.721 93.3184L168.835 93.3447L168.947 93.3193L179.687 90.8857L180.204 90.7686L180.056 90.2588L179.02 86.6748L183.91 85.9863L185.016 90.9814Z" stroke="black"/>
<path d="M161.807 87.5215L161.268 92.7822L161.223 92.7715L157.297 87.833L158.252 85.8438L161.807 87.5215Z" stroke="black"/>
<path d="M162.463 82.4014L162.318 82.5303L162.298 82.7246L161.914 86.4658L158.683 84.9404L161.156 79.7832C161.832 78.3712 163.16 77.3815 164.706 77.1367L169.191 76.4268L162.463 82.4014Z" stroke="black"/>
<path opacity="0.2" d="M184.252 92.4785C184.529 92.4785 184.793 92.5394 185.031 92.6475C184.922 93.4722 184.619 94.0434 184.207 94.4521C183.802 94.8541 183.26 95.1302 182.614 95.3145C182.454 95.036 182.361 94.7135 182.361 94.3691C182.361 93.3259 183.209 92.4785 184.252 92.4785Z" stroke="black"/>
<mask id="path-82-inside-21_10331_47586" fill="white">
<path d="M162.713 82.762L161.362 94.6953L161.553 94.7169L162.904 82.7836L162.713 82.762Z"/>
</mask>
<path d="M161.362 94.6953L160.368 94.5828L160.256 95.5765L161.249 95.689L161.362 94.6953ZM162.713 82.762L162.825 81.7683L161.832 81.6558L161.719 82.6495L162.713 82.762ZM162.904 82.7836L163.898 82.8961L164.01 81.9024L163.016 81.7899L162.904 82.7836ZM161.553 94.7169L161.44 95.7106L162.434 95.8231L162.547 94.8294L161.553 94.7169ZM161.362 94.6953L162.356 94.8078L163.707 82.8745L162.713 82.762L161.719 82.6495L160.368 94.5828L161.362 94.6953ZM162.713 82.762L162.6 83.7557L162.791 83.7773L162.904 82.7836L163.016 81.7899L162.825 81.7683L162.713 82.762ZM162.904 82.7836L161.91 82.6711L160.559 94.6044L161.553 94.7169L162.547 94.8294L163.898 82.8961L162.904 82.7836ZM161.553 94.7169L161.665 93.7232L161.474 93.7016L161.362 94.6953L161.249 95.689L161.44 95.7106L161.553 94.7169Z" fill="black" mask="url(#path-82-inside-21_10331_47586)"/>
<mask id="path-84-inside-22_10331_47586" fill="white">
<path d="M177.305 82.1732L177.12 82.2266L179.49 90.4249L179.675 90.3715L177.305 82.1732Z"/>
</mask>
<path d="M177.12 82.2266L176.842 81.2659L175.882 81.5436L176.159 82.5043L177.12 82.2266ZM177.305 82.1732L178.265 81.8955L177.988 80.9348L177.027 81.2125L177.305 82.1732ZM179.675 90.3715L179.952 91.3322L180.913 91.0545L180.635 90.0938L179.675 90.3715ZM179.49 90.4249L178.529 90.7026L178.807 91.6633L179.768 91.3856L179.49 90.4249ZM177.12 82.2266L177.398 83.1873L177.582 83.1339L177.305 82.1732L177.027 81.2125L176.842 81.2659L177.12 82.2266ZM177.305 82.1732L176.344 82.4509L178.714 90.6492L179.675 90.3715L180.635 90.0938L178.265 81.8955L177.305 82.1732ZM179.675 90.3715L179.397 89.4108L179.212 89.4642L179.49 90.4249L179.768 91.3856L179.952 91.3322L179.675 90.3715ZM179.49 90.4249L180.451 90.1472L178.081 81.9489L177.12 82.2266L176.159 82.5043L178.529 90.7026L179.49 90.4249Z" fill="black" mask="url(#path-84-inside-22_10331_47586)"/>
<mask id="path-86-inside-23_10331_47586" fill="white">
<path d="M174.8 61.6413C174.767 61.2083 174.787 60.7632 174.92 60.3386C175.051 59.9165 175.326 59.5215 175.719 59.2891C175.914 59.1743 176.131 59.096 176.353 59.0582C176.575 59.0196 176.802 59.0196 177.024 59.0451C177.468 59.0972 177.895 59.2584 178.27 59.5005C178.644 59.7418 178.965 60.0776 179.163 60.4853C179.365 60.8901 179.409 61.3754 179.283 61.8084C179.159 62.2439 178.898 62.6189 178.597 62.936C178.289 63.2497 177.939 63.5144 177.569 63.7417L177.528 63.6788C177.879 63.4312 178.215 63.1611 178.499 62.8444C178.782 62.5306 179.018 62.1669 179.121 61.7646C179.224 61.3649 179.187 60.9335 178.999 60.5653C178.816 60.1944 178.514 59.8883 178.165 59.6599C177.817 59.4305 177.416 59.2754 177.002 59.224C176.59 59.1702 176.16 59.2287 175.8 59.4294C175.44 59.631 175.18 59.9839 175.044 60.3803C174.973 60.5781 174.929 60.7865 174.902 60.9975C174.877 61.2089 174.872 61.4231 174.875 61.6374L174.8 61.6413Z"/>
</mask>
<path d="M174.8 61.6413L173.802 61.7171L173.876 62.6906L174.851 62.64L174.8 61.6413ZM174.92 60.3386L175.875 60.6372L175.876 60.6338L174.92 60.3386ZM175.719 59.2891L175.212 58.4268L175.21 58.4283L175.719 59.2891ZM176.353 59.0582L176.521 60.044L176.524 60.0434L176.353 59.0582ZM177.024 59.0451L177.14 58.0519L177.138 58.0516L177.024 59.0451ZM178.27 59.5005L177.727 60.3404L177.728 60.341L178.27 59.5005ZM179.163 60.4853L178.264 60.9222L178.268 60.9316L179.163 60.4853ZM179.283 61.8084L178.323 61.5284L178.321 61.5348L179.283 61.8084ZM178.597 62.936L179.311 63.6366L179.316 63.6306L179.322 63.6246L178.597 62.936ZM177.569 63.7417L176.732 64.2885L177.264 65.1031L178.093 64.5936L177.569 63.7417ZM177.528 63.6788L176.951 62.8617L176.163 63.4179L176.691 64.2256L177.528 63.6788ZM178.499 62.8444L177.756 62.1742L177.754 62.1769L178.499 62.8444ZM179.121 61.7646L178.153 61.5133L178.152 61.5171L179.121 61.7646ZM178.999 60.5653L178.101 61.0064L178.105 61.0135L178.108 61.0206L178.999 60.5653ZM178.165 59.6599L177.616 60.4952L177.617 60.4959L178.165 59.6599ZM177.002 59.224L176.873 60.2156L176.879 60.2164L177.002 59.224ZM175.8 59.4294L175.314 58.5559L175.312 58.5565L175.8 59.4294ZM175.044 60.3803L175.985 60.7176L175.989 60.7052L175.044 60.3803ZM174.902 60.9975L173.91 60.8722L173.909 60.8786L174.902 60.9975ZM174.875 61.6374L174.926 62.6361L175.885 62.5864L175.875 61.6269L174.875 61.6374ZM174.8 61.6413L175.797 61.5656C175.77 61.2102 175.792 60.9017 175.875 60.6372L174.92 60.3386L173.966 60.0399C173.783 60.6247 173.764 61.2063 173.802 61.7171L174.8 61.6413ZM174.92 60.3386L175.876 60.6338C175.945 60.4079 176.083 60.2355 176.228 60.1499L175.719 59.2891L175.21 58.4283C174.568 58.8075 174.156 59.425 173.965 60.0433L174.92 60.3386ZM175.719 59.2891L176.225 60.1514C176.315 60.0987 176.416 60.0618 176.521 60.044L176.353 59.0582L176.185 58.0724C175.845 58.1303 175.514 58.2499 175.212 58.4268L175.719 59.2891ZM176.353 59.0582L176.524 60.0434C176.634 60.0243 176.763 60.0217 176.909 60.0386L177.024 59.0451L177.138 58.0516C176.841 58.0175 176.516 58.0148 176.182 58.073L176.353 59.0582ZM177.024 59.0451L176.907 60.0383C177.189 60.0713 177.471 60.1753 177.727 60.3404L178.27 59.5005L178.812 58.6606C178.319 58.3416 177.747 58.123 177.14 58.0519L177.024 59.0451ZM178.27 59.5005L177.728 60.341C177.97 60.4975 178.157 60.7016 178.264 60.9222L179.163 60.4853L180.063 60.0484C179.774 59.4537 179.317 58.9862 178.811 58.66L178.27 59.5005ZM179.163 60.4853L178.268 60.9316C178.358 61.1121 178.378 61.3381 178.323 61.5284L179.283 61.8084L180.243 62.0883C180.44 61.4127 180.372 60.6681 180.058 60.039L179.163 60.4853ZM179.283 61.8084L178.321 61.5348C178.256 61.7622 178.107 62 177.872 62.2474L178.597 62.936L179.322 63.6246C179.69 63.2377 180.062 62.7256 180.245 62.082L179.283 61.8084ZM178.597 62.936L177.883 62.2355C177.644 62.4797 177.361 62.6957 177.045 62.8897L177.569 63.7417L178.093 64.5936C178.517 64.3331 178.935 64.0197 179.311 63.6366L178.597 62.936ZM177.569 63.7417L178.406 63.1949L178.365 63.132L177.528 63.6788L176.691 64.2256L176.732 64.2885L177.569 63.7417ZM177.528 63.6788L178.104 64.4958C178.486 64.2268 178.889 63.9072 179.243 63.5119L178.499 62.8444L177.754 62.1769C177.541 62.4149 177.272 62.6355 176.951 62.8617L177.528 63.6788ZM178.499 62.8444L179.241 63.5146C179.589 63.1292 179.933 62.6249 180.09 62.0121L179.121 61.7646L178.152 61.5171C178.103 61.709 177.975 61.9321 177.756 62.1742L178.499 62.8444ZM179.121 61.7646L180.089 62.016C180.25 61.3955 180.196 60.711 179.889 60.1101L178.999 60.5653L178.108 61.0206C178.178 61.1561 178.199 61.3342 178.153 61.5133L179.121 61.7646ZM178.999 60.5653L179.896 60.1243C179.618 59.558 179.176 59.1266 178.714 58.8238L178.165 59.6599L177.617 60.4959C177.852 60.65 178.015 60.8308 178.101 61.0064L178.999 60.5653ZM178.165 59.6599L178.715 58.8245C178.248 58.5172 177.702 58.3033 177.125 58.2316L177.002 59.224L176.879 60.2164C177.129 60.2475 177.386 60.3438 177.616 60.4952L178.165 59.6599ZM177.002 59.224L177.131 58.2324C176.548 58.1563 175.895 58.2319 175.314 58.5559L175.8 59.4294L176.287 60.3029C176.426 60.2256 176.631 60.1841 176.873 60.2156L177.002 59.224ZM175.8 59.4294L175.312 58.5565C174.697 58.9005 174.298 59.4734 174.098 60.0553L175.044 60.3803L175.989 60.7052C176.062 60.4944 176.183 60.3614 176.288 60.3022L175.8 59.4294ZM175.044 60.3803L174.102 60.0429C174.001 60.3255 173.943 60.6081 173.91 60.8722L174.902 60.9975L175.894 61.1228C175.914 60.9648 175.944 60.8307 175.985 60.7176L175.044 60.3803ZM174.902 60.9975L173.909 60.8786C173.876 61.153 173.872 61.4169 173.875 61.648L174.875 61.6374L175.875 61.6269C175.873 61.4292 175.877 61.2647 175.895 61.1164L174.902 60.9975ZM174.875 61.6374L174.823 60.6388L174.748 60.6427L174.8 61.6413L174.851 62.64L174.926 62.6361L174.875 61.6374Z" fill="black" mask="url(#path-86-inside-23_10331_47586)"/>
<path d="M176.896 60.1855C177.754 60.1855 178.45 60.8811 178.451 61.7393C178.451 62.5976 177.754 63.2939 176.896 63.2939C176.038 63.2937 175.342 62.5974 175.342 61.7393C175.342 60.8813 176.038 60.1858 176.896 60.1855Z" stroke="black"/>
<path d="M171.284 61.7529C172.468 61.5866 173.666 61.6961 174.737 62.1494C177.913 63.4931 179.133 67.0282 179.496 72.3115L178.672 72.5283L177.769 71.1455L176.863 71.5303L177.18 72.9238L173.901 73.79L167.386 74.0547L167.905 68.959L167.94 68.6123L167.628 68.459C167.325 68.3099 166.968 67.9066 166.724 67.2881C166.486 66.6845 166.384 65.9428 166.522 65.2041C166.659 64.4728 167.032 63.7357 167.763 63.1211C168.498 62.5031 169.621 61.9867 171.284 61.7529Z" stroke="black"/>
<path d="M174.807 70.7637V76.3115C174.807 77.5764 173.781 78.6025 172.516 78.6025C171.251 78.6024 170.226 77.5763 170.226 76.3115V70.7637H174.807Z" stroke="black"/>
<path d="M172.684 73.3945C172.157 74.273 171.318 74.8152 170.226 75.1729V73.6582L172.684 73.3945Z" stroke="black"/>
<path d="M174.513 71.959C174.43 72.0149 174.322 72.0871 174.193 72.167C173.861 72.3733 173.395 72.6401 172.863 72.8857C171.765 73.3925 170.515 73.7449 169.552 73.457L169.551 73.4561C169.306 73.383 169.065 73.1975 168.833 72.8691C168.6 72.54 168.398 72.0986 168.228 71.5781C168.109 71.2097 168.009 70.8094 167.924 70.3965L167.844 69.9795C167.668 68.976 167.584 67.9562 167.544 67.1836C167.526 66.8322 167.516 66.5338 167.512 66.3135L174.674 64.9951L174.513 71.959Z" stroke="black"/>
<path d="M167.957 69.2129C167.972 69.1938 168.03 69.1348 168.138 69.1348L168.21 69.1445C168.272 69.162 168.307 69.1985 168.318 69.2129C168.303 69.2322 168.245 69.2909 168.138 69.291C168.03 69.291 167.972 69.232 167.957 69.2129Z" stroke="black"/>
<path d="M170.436 69.0254C170.457 69.0187 170.482 69.0137 170.509 69.0137L170.574 69.0234C170.576 69.0239 170.577 69.0249 170.579 69.0254C170.558 69.0318 170.535 69.0371 170.509 69.0371C170.482 69.0371 170.457 69.0321 170.436 69.0254Z" stroke="black"/>
<mask id="path-95-inside-24_10331_47586" fill="white">
<path d="M171.657 68.0319C171.645 68.1516 171.244 68.1792 170.8 68.1015C170.356 68.0238 169.977 68.0465 170.049 67.7507C170.107 67.509 170.458 67.5298 170.903 67.6074C171.347 67.685 171.669 67.9272 171.657 68.0319Z"/>
</mask>
<path d="M171.657 68.0319L172.652 68.1383L172.652 68.138L171.657 68.0319ZM170.8 68.1015L170.628 69.0866L170.628 69.0866L170.8 68.1015ZM170.049 67.7507L169.077 67.5155L169.077 67.5156L170.049 67.7507ZM170.903 67.6074L171.075 66.6223L171.075 66.6223L170.903 67.6074ZM171.657 68.0319L170.663 67.9255C170.693 67.6459 170.836 67.4493 170.956 67.3382C171.066 67.2367 171.17 67.191 171.214 67.1736C171.302 67.1394 171.349 67.1409 171.314 67.1437C171.26 67.1478 171.135 67.145 170.972 67.1164L170.8 68.1015L170.628 69.0866C170.909 69.1357 171.207 69.1579 171.468 69.1377C171.589 69.1284 171.767 69.1054 171.947 69.0348C172.054 68.9927 172.584 68.7674 172.652 68.1383L171.657 68.0319ZM170.8 68.1015L170.972 67.1164C170.838 67.093 170.7 67.0757 170.622 67.065C170.521 67.051 170.502 67.0452 170.51 67.0475C170.518 67.05 170.56 67.0624 170.617 67.0936C170.676 67.1255 170.769 67.1875 170.856 67.2965C170.948 67.4125 171.008 67.5502 171.03 67.6921C171.051 67.8249 171.034 67.929 171.021 67.9858L170.049 67.7507L169.077 67.5156C169.009 67.7952 169.013 68.1933 169.291 68.5423C169.52 68.8297 169.822 68.9303 169.952 68.9682C170.101 69.0116 170.255 69.0332 170.348 69.046C170.464 69.0621 170.54 69.0712 170.628 69.0866L170.8 68.1015ZM170.049 67.7507L171.021 67.986C171 68.0712 170.961 68.1649 170.897 68.2547C170.832 68.3443 170.757 68.4108 170.684 68.4573C170.549 68.5435 170.44 68.5534 170.432 68.5542C170.417 68.5557 170.433 68.5527 170.496 68.5586C170.555 68.5642 170.631 68.5751 170.731 68.5925L170.903 67.6074L171.075 66.6223C170.856 66.5841 170.533 66.5336 170.23 66.5644C170.072 66.5805 169.835 66.6257 169.605 66.7735C169.343 66.941 169.153 67.2006 169.077 67.5155L170.049 67.7507ZM170.903 67.6074L170.73 68.5924C170.826 68.6092 170.898 68.6431 170.924 68.6597C170.941 68.6697 170.915 68.6571 170.871 68.6091C170.849 68.5856 170.801 68.5302 170.756 68.4423C170.716 68.3636 170.636 68.1776 170.663 67.9259L171.657 68.0319L172.652 68.138C172.681 67.8601 172.594 67.6436 172.537 67.5313C172.475 67.4098 172.4 67.3176 172.343 67.2555C172.228 67.1302 172.096 67.0326 171.977 66.9593C171.735 66.8092 171.423 66.6832 171.075 66.6223L170.903 67.6074Z" fill="black" mask="url(#path-95-inside-24_10331_47586)"/>
<mask id="path-97-inside-25_10331_47586" fill="white">
<path d="M167.311 68.3014C167.327 68.4194 167.668 68.4142 168.042 68.3007C168.416 68.1871 168.739 68.1787 168.666 67.8902C168.607 67.6544 168.309 67.7038 167.935 67.8174C167.561 67.9309 167.298 68.1981 167.311 68.3014Z"/>
</mask>
<path d="M167.311 68.3014L166.32 68.4322L167.311 68.3014ZM168.666 67.8902L167.696 68.1339L167.696 68.1342L168.666 67.8902ZM167.935 67.8174L167.645 66.8605L167.645 66.8605L167.935 67.8174ZM167.311 68.3014L166.32 68.4322C166.397 69.0169 166.867 69.2457 167.042 69.3084C167.24 69.3795 167.43 69.3885 167.548 69.3878C167.804 69.3864 168.081 69.3338 168.333 69.2576L168.042 68.3007L167.752 67.3438C167.696 67.3608 167.644 67.3726 167.603 67.3798C167.559 67.3874 167.537 67.3879 167.537 67.3879C167.537 67.3879 167.552 67.3877 167.576 67.3909C167.599 67.3937 167.65 67.4017 167.717 67.4257C167.812 67.4597 168.233 67.6449 168.303 68.1706L167.311 68.3014ZM168.042 68.3007L168.333 69.2576C168.401 69.2369 168.456 69.2238 168.559 69.197C168.638 69.1766 168.784 69.1386 168.926 69.0755C169.065 69.0142 169.329 68.875 169.509 68.5746C169.71 68.2407 169.699 67.895 169.636 67.6463L168.666 67.8902L167.696 68.1342C167.67 68.0297 167.646 67.7932 167.794 67.5456C167.923 67.3315 168.097 67.2555 168.117 67.2466C168.141 67.2359 168.141 67.2392 168.056 67.2614C167.995 67.2771 167.871 67.3076 167.752 67.3438L168.042 68.3007ZM168.666 67.8902L169.636 67.6466C169.566 67.3676 169.397 67.0984 169.116 66.9196C168.864 66.7593 168.608 66.7269 168.442 66.7231C168.134 66.716 167.825 66.8057 167.645 66.8605L167.935 67.8174L168.226 68.7743C168.306 68.7498 168.363 68.735 168.402 68.7268C168.446 68.7177 168.438 68.7235 168.396 68.7225C168.359 68.7217 168.211 68.7141 168.043 68.6072C167.846 68.4819 167.737 68.2949 167.696 68.1339L168.666 67.8902ZM167.935 67.8174L167.645 66.8605C167.319 66.9594 167.04 67.1238 166.832 67.2999C166.729 67.3869 166.62 67.4969 166.528 67.6288C166.483 67.6945 166.428 67.7859 166.384 67.8996C166.345 68.004 166.289 68.1952 166.32 68.4322L167.311 68.3014L168.303 68.1706C168.331 68.3817 168.28 68.542 168.253 68.6116C168.223 68.6904 168.189 68.7431 168.173 68.7675C168.139 68.8167 168.116 68.8334 168.124 68.8265C168.138 68.8149 168.178 68.7889 168.226 68.7743L167.935 67.8174Z" fill="black" mask="url(#path-97-inside-25_10331_47586)"/>
<path opacity="0.2" d="M172.276 69.6328C172.503 69.633 172.688 69.8181 172.688 70.0459C172.688 70.2735 172.503 70.4578 172.276 70.458C172.048 70.458 171.863 70.2736 171.863 70.0459C171.863 69.818 172.048 69.6328 172.276 69.6328Z" stroke="black"/>
<g opacity="0.2">
<mask id="path-100-inside-26_10331_47586" fill="white">
<path d="M168.161 70.9753C168.161 71.293 168 71.5696 167.754 71.7336C167.585 71.2135 167.454 70.6422 167.351 70.0684C167.807 70.1195 168.161 70.5063 168.161 70.9753Z"/>
</mask>
<path d="M167.754 71.7336L166.803 72.0428L167.211 73.2975L168.308 72.5656L167.754 71.7336ZM167.351 70.0684L167.463 69.0746L166.131 68.9253L166.367 70.2442L167.351 70.0684ZM168.161 70.9753H167.161C167.161 70.9623 167.165 70.9457 167.173 70.9305C167.181 70.9166 167.19 70.9074 167.199 70.9015L167.754 71.7336L168.308 72.5656C168.818 72.2256 169.161 71.6439 169.161 70.9753H168.161ZM167.754 71.7336L168.705 71.4244C168.554 70.9615 168.433 70.4379 168.336 69.8926L167.351 70.0684L166.367 70.2442C166.475 70.8466 166.615 71.4655 166.803 72.0428L167.754 71.7336ZM167.351 70.0684L167.24 71.0621C167.195 71.0571 167.161 71.0203 167.161 70.9753H168.161H169.161C169.161 69.9924 168.42 69.1819 167.463 69.0746L167.351 70.0684Z" fill="black" mask="url(#path-100-inside-26_10331_47586)"/>
</g>
<mask id="path-102-inside-27_10331_47586" fill="white">
<path d="M169.171 69.5849C169.181 69.6658 169.162 69.7499 169.13 69.8234C169.099 69.8973 169.056 69.9613 169.014 70.0198C168.93 70.137 168.848 70.2393 168.827 70.3313C168.816 70.3757 168.819 70.4221 168.831 70.4688C168.842 70.5142 168.867 70.5552 168.904 70.595C168.978 70.674 169.095 70.7343 169.222 70.7806L169.212 70.8803C169.062 70.8979 168.897 70.8695 168.756 70.765C168.686 70.7134 168.626 70.6365 168.594 70.5475C168.567 70.4601 168.554 70.3621 168.58 70.2693C168.633 70.0859 168.753 69.9758 168.847 69.8793C168.945 69.7809 169.029 69.6971 169.071 69.5781L169.171 69.5849Z"/>
</mask>
<path d="M169.171 69.5849L170.163 69.4618L170.062 68.6429L169.238 68.5872L169.171 69.5849ZM169.13 69.8234L170.049 70.219L170.052 70.2126L169.13 69.8234ZM169.014 70.0198L168.202 69.4365L168.202 69.4372L169.014 70.0198ZM168.827 70.3313L169.796 70.5775L169.799 70.5673L169.801 70.557L168.827 70.3313ZM168.831 70.4688L169.805 70.2424L169.803 70.2343L169.801 70.2263L168.831 70.4688ZM168.904 70.595L168.166 71.2701L168.175 71.28L168.904 70.595ZM169.222 70.7806L170.217 70.8736L170.289 70.1055L169.564 69.8411L169.222 70.7806ZM169.212 70.8803L169.328 71.8735L170.133 71.7796L170.208 70.9734L169.212 70.8803ZM168.756 70.765L169.352 69.9617L169.349 69.9595L168.756 70.765ZM168.594 70.5475L167.639 70.8455L167.646 70.8665L167.654 70.8873L168.594 70.5475ZM168.58 70.2693L167.619 69.9908L167.617 69.9991L168.58 70.2693ZM168.847 69.8793L168.139 69.1725L168.131 69.1814L168.847 69.8793ZM169.071 69.5781L169.139 68.5804L168.382 68.5292L168.129 69.2437L169.071 69.5781ZM169.171 69.5849L168.178 69.708C168.169 69.6294 168.175 69.5662 168.183 69.5247C168.191 69.4832 168.201 69.453 168.209 69.4341L169.13 69.8234L170.052 70.2126C170.125 70.0396 170.202 69.7733 170.163 69.4618L169.171 69.5849ZM169.13 69.8234L168.212 69.4277C168.218 69.4136 168.223 69.4064 168.222 69.4079C168.221 69.4086 168.22 69.4112 168.216 69.416C168.213 69.4209 168.209 69.4274 168.202 69.4365L169.014 70.0198L169.827 70.6031C169.882 70.5253 169.974 70.3923 170.049 70.219L169.13 69.8234ZM169.014 70.0198L168.202 69.4372C168.181 69.4656 168.109 69.563 168.059 69.6398C168.009 69.717 167.904 69.8847 167.853 70.1057L168.827 70.3313L169.801 70.557C169.793 70.5939 169.783 70.6245 169.774 70.6479C169.765 70.6712 169.757 70.6894 169.751 70.7018C169.745 70.7143 169.74 70.7228 169.737 70.7269C169.735 70.7311 169.734 70.7324 169.736 70.7302C169.739 70.7246 169.747 70.7132 169.764 70.6896C169.772 70.6781 169.781 70.6663 169.792 70.6512C169.802 70.6369 169.815 70.62 169.827 70.6024L169.014 70.0198ZM168.827 70.3313L167.858 70.0851C167.793 70.3423 167.825 70.5665 167.861 70.7114L168.831 70.4688L169.801 70.2263C169.814 70.2778 169.839 70.4091 169.796 70.5775L168.827 70.3313ZM168.831 70.4688L167.857 70.6953C167.92 70.9638 168.059 71.1537 168.166 71.27L168.904 70.595L169.641 69.92C169.675 69.9567 169.764 70.0647 169.805 70.2424L168.831 70.4688ZM168.904 70.595L168.175 71.28C168.411 71.5313 168.706 71.657 168.879 71.72L169.222 70.7806L169.564 69.8411C169.537 69.831 169.529 69.826 169.535 69.8295C169.539 69.8317 169.55 69.8381 169.566 69.8499C169.581 69.8616 169.605 69.8811 169.632 69.91L168.904 70.595ZM169.222 70.7806L168.226 70.6875L168.217 70.7872L169.212 70.8803L170.208 70.9734L170.217 70.8736L169.222 70.7806ZM169.212 70.8803L169.096 69.8871C169.149 69.8809 169.252 69.8875 169.352 69.9617L168.756 70.765L168.161 71.5684C168.543 71.8515 168.974 71.9149 169.328 71.8735L169.212 70.8803ZM168.756 70.765L169.349 69.9595C169.433 70.021 169.497 70.1039 169.535 70.2076L168.594 70.5475L167.654 70.8873C167.755 71.1691 167.94 71.4057 168.164 71.5705L168.756 70.765ZM168.594 70.5475L169.549 70.2494C169.553 70.2626 169.561 70.2932 169.564 70.3387C169.568 70.3852 169.566 70.4557 169.543 70.5395L168.58 70.2693L167.617 69.9991C167.519 70.3473 167.581 70.6568 167.639 70.8455L168.594 70.5475ZM168.58 70.2693L169.54 70.5478C169.533 70.5736 169.523 70.5972 169.512 70.6171C169.502 70.6364 169.493 70.6489 169.489 70.6534C169.486 70.6572 169.488 70.6547 169.5 70.6419C169.506 70.6355 169.513 70.6279 169.524 70.6169C169.53 70.6112 169.535 70.6061 169.542 70.5991C169.548 70.5926 169.555 70.5851 169.563 70.5772L168.847 69.8793L168.131 69.1814C168.08 69.2335 167.755 69.5226 167.619 69.9909L168.58 70.2693ZM168.847 69.8793L169.554 70.586C169.624 70.5166 169.883 70.2793 170.013 69.9126L169.071 69.5781L168.129 69.2437C168.141 69.2093 168.155 69.1797 168.169 69.1559C168.183 69.1328 168.194 69.1178 168.199 69.1121C168.203 69.107 168.202 69.1084 168.192 69.1196C168.18 69.132 168.166 69.1462 168.139 69.1726L168.847 69.8793ZM169.071 69.5781L169.003 70.5758L169.103 70.5826L169.171 69.5849L169.238 68.5872L169.139 68.5804L169.071 69.5781Z" fill="black" mask="url(#path-102-inside-27_10331_47586)"/>
<mask id="path-104-inside-28_10331_47586" fill="white">
<path d="M168.929 71.662C169.265 72.7349 170.706 72.1904 170.818 71.1816L168.929 71.662Z"/>
</mask>
<path d="M168.929 71.662L168.683 70.6929L167.659 70.9532L167.975 71.9611L168.929 71.662ZM170.818 71.1816L171.812 71.2921L171.972 69.8566L170.572 70.2125L170.818 71.1816ZM168.929 71.662L167.975 71.9611C168.132 72.4623 168.459 72.8737 168.935 73.0911C169.389 73.2984 169.864 73.2775 170.252 73.1582C170.996 72.9292 171.707 72.2446 171.812 71.2921L170.818 71.1816L169.825 71.0712C169.822 71.0953 169.81 71.13 169.775 71.1698C169.736 71.2133 169.691 71.2384 169.664 71.2467C169.635 71.2555 169.68 71.2326 169.766 71.2717C169.809 71.2918 169.845 71.3206 169.869 71.3491C169.892 71.3762 169.891 71.3877 169.883 71.363L168.929 71.662ZM170.818 71.1816L170.572 70.2125L168.683 70.6929L168.929 71.662L169.175 72.6312L171.065 72.1508L170.818 71.1816Z" fill="black" mask="url(#path-104-inside-28_10331_47586)"/>
<path d="M175.422 64.3926L176.215 66.9766L174.805 68.1504C174.535 67.9884 174.304 67.7848 174.116 67.5166C173.865 67.1589 173.666 66.6571 173.571 65.9297L173.481 65.2412L172.857 65.5449C171.165 66.3675 169.36 66.6097 167.175 66.6406L167.084 65.9307L170.682 64.1309L175.422 64.3926Z" stroke="black"/>
<path d="M174.93 68.8725C175.139 68.5769 175.398 68.386 175.629 68.3015C175.863 68.2165 176.019 68.2518 176.104 68.3121C176.19 68.3725 176.275 68.507 176.274 68.755C176.273 69.001 176.181 69.3101 175.973 69.6058C175.765 69.9016 175.504 70.0931 175.273 70.1776C175.04 70.2625 174.885 70.2277 174.799 70.1676C174.713 70.1073 174.627 69.9724 174.629 69.7241C174.63 69.478 174.722 69.1683 174.93 68.8725Z" stroke="black"/>
<mask id="path-108-inside-29_10331_47586" fill="white">
<path d="M174.998 69.7702C174.961 69.6374 174.95 69.4965 174.966 69.3538C174.982 69.2115 175.03 69.0652 175.118 68.9396C175.205 68.8141 175.331 68.7164 175.466 68.6594C175.601 68.6014 175.744 68.579 175.883 68.5878L175.9 68.6865C175.781 68.7426 175.669 68.7947 175.571 68.8586C175.473 68.9227 175.391 68.9974 175.326 69.0866C175.26 69.1757 175.216 69.282 175.18 69.3966C175.146 69.5119 175.124 69.6358 175.098 69.7654L174.998 69.7702Z"/>
</mask>
<path d="M174.998 69.7702L174.034 70.0371L174.247 70.8067L175.045 70.7691L174.998 69.7702ZM174.966 69.3538L175.96 69.4672L175.96 69.4633L174.966 69.3538ZM175.118 68.9396L175.938 69.5121L175.938 69.5119L175.118 68.9396ZM175.466 68.6594L175.854 69.581L175.86 69.5784L175.466 68.6594ZM175.883 68.5878L176.868 68.416L176.733 67.6397L175.947 67.5898L175.883 68.5878ZM175.9 68.6865L176.325 69.5916L177.017 69.267L176.886 68.5146L175.9 68.6865ZM175.571 68.8586L175.024 68.0212L175.022 68.0224L175.571 68.8586ZM175.326 69.0866L176.131 69.6797L176.136 69.6733L175.326 69.0866ZM175.18 69.3966L174.225 69.0997L174.223 69.1073L175.18 69.3966ZM175.098 69.7654L175.145 70.7643L175.928 70.7274L176.079 69.9586L175.098 69.7654ZM174.998 69.7702L175.962 69.5032C175.959 69.4947 175.958 69.483 175.96 69.4672L174.966 69.3538L173.972 69.2404C173.942 69.51 173.963 69.78 174.034 70.0371L174.998 69.7702ZM174.966 69.3538L175.96 69.4633C175.96 69.4656 175.959 69.4698 175.957 69.4767C175.954 69.4838 175.949 69.4964 175.938 69.5121L175.118 68.9396L174.298 68.3671C174.102 68.6482 174.003 68.959 173.972 69.2443L174.966 69.3538ZM175.118 68.9396L175.938 69.5119C175.923 69.5325 175.909 69.5463 175.898 69.5556C175.886 69.5649 175.872 69.5735 175.854 69.581L175.466 68.6594L175.078 67.7378C174.777 67.8644 174.499 68.0792 174.298 68.3672L175.118 68.9396ZM175.466 68.6594L175.86 69.5784C175.846 69.5847 175.831 69.5865 175.82 69.5858L175.883 68.5878L175.947 67.5898C175.658 67.5714 175.357 67.6181 175.072 67.7405L175.466 68.6594ZM175.883 68.5878L174.898 68.7596L174.915 68.8583L175.9 68.6865L176.886 68.5146L176.868 68.416L175.883 68.5878ZM175.9 68.6865L175.475 67.7813C175.374 67.8289 175.192 67.9114 175.024 68.0212L175.571 68.8586L176.117 69.696C176.145 69.678 176.188 69.6564 176.325 69.5916L175.9 68.6865ZM175.571 68.8586L175.022 68.0224C174.841 68.1411 174.664 68.2961 174.516 68.5L175.326 69.0866L176.136 69.6733C176.127 69.6852 176.12 69.6931 176.115 69.6971C176.111 69.7009 176.112 69.6998 176.119 69.6948L175.571 68.8586ZM175.326 69.0866L174.521 68.4936C174.361 68.7107 174.276 68.9364 174.226 69.0997L175.18 69.3966L176.135 69.6936C176.14 69.6791 176.144 69.6683 176.146 69.6603C176.149 69.6524 176.151 69.6483 176.152 69.6473C176.153 69.6448 176.147 69.6582 176.131 69.6797L175.326 69.0866ZM175.18 69.3966L174.223 69.1073C174.17 69.2832 174.137 69.4725 174.117 69.5723L175.098 69.7654L176.079 69.9586C176.111 69.7992 176.121 69.7406 176.138 69.6859L175.18 69.3966ZM175.098 69.7654L175.051 68.7666L174.951 68.7713L174.998 69.7702L175.045 70.7691L175.145 70.7643L175.098 69.7654Z" fill="black" mask="url(#path-108-inside-29_10331_47586)"/>
<mask id="path-110-inside-30_10331_47586" fill="white">
<path d="M177.549 63.7099C177.282 63.5549 177.055 63.3757 176.83 63.1995L176.18 62.6636C175.967 62.4865 175.755 62.312 175.536 62.1437C175.317 61.9726 175.091 61.814 174.837 61.6391C175.145 61.6054 175.453 61.6787 175.736 61.7937C176.018 61.9118 176.277 62.0775 176.508 62.2701C176.739 62.463 176.943 62.6829 177.12 62.9219C177.294 63.1631 177.447 63.4191 177.549 63.7099Z"/>
</mask>
<path d="M177.549 63.7099L177.045 64.574L179.383 65.9362L178.493 63.3808L177.549 63.7099ZM176.83 63.1995L176.193 63.9709L176.203 63.979L176.213 63.9869L176.83 63.1995ZM176.18 62.6636L175.541 63.433L175.544 63.4351L176.18 62.6636ZM175.536 62.1437L174.921 62.9318L174.927 62.9368L175.536 62.1437ZM174.837 61.6391L174.729 60.645L172.059 60.9367L174.269 62.462L174.837 61.6391ZM175.736 61.7937L176.121 60.8709L176.113 60.8675L175.736 61.7937ZM176.508 62.2701L175.866 63.0374L175.867 63.0376L176.508 62.2701ZM177.12 62.9219L177.93 62.3361L177.924 62.3272L177.12 62.9219ZM177.549 63.7099L178.052 62.8458C177.854 62.7308 177.679 62.5948 177.446 62.4121L176.83 63.1995L176.213 63.9869C176.43 64.1567 176.71 64.3789 177.045 64.574L177.549 63.7099ZM176.83 63.1995L177.466 62.428L176.816 61.8922L176.18 62.6636L175.544 63.4351L176.193 63.9709L176.83 63.1995ZM176.18 62.6636L176.819 61.8943C176.606 61.7177 176.381 61.5319 176.145 61.3505L175.536 62.1437L174.927 62.9368C175.129 63.0922 175.327 63.2554 175.541 63.433L176.18 62.6636ZM175.536 62.1437L176.152 61.3555C175.907 61.1647 175.659 60.9915 175.405 60.8161L174.837 61.6391L174.269 62.462C174.522 62.6365 174.727 62.7805 174.921 62.9318L175.536 62.1437ZM174.837 61.6391L174.946 62.6331C175.029 62.624 175.163 62.6404 175.359 62.7199L175.736 61.7937L176.113 60.8675C175.743 60.717 175.26 60.5869 174.729 60.645L174.837 61.6391ZM175.736 61.7937L175.35 62.7165C175.527 62.7902 175.701 62.899 175.866 63.0374L176.508 62.2701L177.149 61.5029C176.854 61.2559 176.51 61.0333 176.121 60.8709L175.736 61.7937ZM176.508 62.2701L175.867 63.0376C176.033 63.1767 176.183 63.3377 176.316 63.5165L177.12 62.9219L177.924 62.3272C177.702 62.028 177.444 61.7493 177.149 61.5026L176.508 62.2701ZM177.12 62.9219L176.309 63.5075C176.451 63.704 176.546 63.8721 176.604 64.039L177.549 63.7099L178.493 63.3808C178.348 62.966 178.137 62.6222 177.93 62.3362L177.12 62.9219Z" fill="black" mask="url(#path-110-inside-30_10331_47586)"/>
<path d="M167.954 96.3613V97.3682H162.165V96.3613H167.954Z" stroke="black"/>
<path d="M156.776 83.7969L163.06 97.3682H148.79L142.508 83.7969H156.776Z" stroke="black"/>
<path d="M155.719 95.4834C155.737 95.4852 155.76 95.4934 155.784 95.5215C155.809 95.5512 155.824 95.5935 155.824 95.6367V96.2773L156.824 96.3018C156.827 96.2312 156.887 96.1805 156.957 96.1885C156.974 96.1905 156.997 96.2 157.02 96.2275C157.044 96.2566 157.059 96.2976 157.059 96.3398V97.9287L158.059 97.9531C158.063 97.8713 158.089 97.8137 158.118 97.7783C158.136 97.7552 158.161 97.7373 158.197 97.7236C158.201 97.7495 158.204 97.782 158.205 97.8213C158.206 97.8943 158.197 97.9753 158.179 98.0547C158.102 98.3177 158.042 98.5006 157.987 98.6328C157.931 98.7678 157.894 98.8158 157.878 98.832C157.868 98.842 157.85 98.8784 157.455 98.9053C156.303 98.9835 155.167 98.9863 154.047 98.9062C153.679 98.8799 153.572 98.835 153.505 98.7734C153.438 98.7101 153.336 98.5543 153.247 98.1182L153.21 97.9131C153.209 97.9092 153.209 97.9044 153.209 97.8994C153.206 97.8739 153.204 97.8356 153.203 97.79C153.2 97.6954 153.202 97.5812 153.219 97.4775C153.225 97.4416 153.234 97.4109 153.242 97.3848C153.249 97.3925 153.259 97.3991 153.267 97.4102C153.32 97.4818 153.348 97.5703 153.351 97.627L154.35 97.6006V96.3398C154.35 96.2976 154.366 96.2566 154.39 96.2275C154.413 96.2 154.436 96.1905 154.454 96.1885C154.523 96.1806 154.583 96.231 154.586 96.3018L155.586 96.2773V95.6016C155.586 95.5315 155.646 95.476 155.719 95.4834Z" stroke="black"/>
<mask id="path-115-inside-31_10331_47586" fill="white">
<path d="M153.867 96.7344C153.918 96.9929 153.937 97.2523 153.947 97.5121C153.951 97.6419 153.951 97.7718 153.946 97.902C153.941 98.0321 153.932 98.1624 153.91 98.2929L153.835 98.295C153.806 98.1658 153.789 98.0362 153.777 97.9066C153.765 97.777 153.758 97.6471 153.755 97.5173C153.751 97.2575 153.755 96.9974 153.792 96.7364L153.867 96.7344Z"/>
</mask>
<path d="M153.867 96.7344L154.848 96.54L154.684 95.7117L153.84 95.7347L153.867 96.7344ZM153.947 97.5121L154.946 97.4805L154.946 97.475L153.947 97.5121ZM153.946 97.902L152.947 97.8626L152.947 97.865L153.946 97.902ZM153.91 98.2929L153.937 99.2926L154.762 99.27L154.897 98.4563L153.91 98.2929ZM153.835 98.295L152.859 98.5125L153.038 99.3171L153.862 99.2946L153.835 98.295ZM153.777 97.9066L154.773 97.8145L154.773 97.8122L153.777 97.9066ZM153.755 97.5173L152.756 97.535L152.756 97.5402L153.755 97.5173ZM153.792 96.7364L153.765 95.7368L152.921 95.7599L152.802 96.5961L153.792 96.7364ZM153.867 96.7344L152.886 96.9288C152.922 97.1104 152.938 97.3084 152.947 97.5491L153.947 97.5121L154.946 97.475C154.936 97.1962 154.915 96.8754 154.848 96.54L153.867 96.7344ZM153.947 97.5121L152.947 97.5436C152.951 97.6554 152.951 97.7611 152.947 97.8626L153.946 97.902L154.945 97.9413C154.952 97.7826 154.951 97.6284 154.946 97.4805L153.947 97.5121ZM153.946 97.902L152.947 97.865C152.943 97.972 152.936 98.0563 152.923 98.1295L153.91 98.2929L154.897 98.4563C154.928 98.2685 154.94 98.0922 154.945 97.939L153.946 97.902ZM153.91 98.2929L153.883 97.2933L153.808 97.2954L153.835 98.295L153.862 99.2946L153.937 99.2926L153.91 98.2929ZM153.835 98.295L154.811 98.0775C154.795 98.0053 154.783 97.9217 154.773 97.8145L153.777 97.9066L152.782 97.9987C152.796 98.1507 152.817 98.3262 152.859 98.5125L153.835 98.295ZM153.777 97.9066L154.773 97.8122C154.763 97.711 154.758 97.6056 154.755 97.4944L153.755 97.5173L152.756 97.5402C152.759 97.6887 152.767 97.8429 152.782 98.001L153.777 97.9066ZM153.755 97.5173L154.755 97.4995C154.751 97.2589 154.756 97.0602 154.782 96.8768L153.792 96.7364L152.802 96.5961C152.754 96.9347 152.751 97.2562 152.756 97.535L153.755 97.5173ZM153.792 96.7364L153.82 97.7361L153.895 97.734L153.867 96.7344L153.84 95.7347L153.765 95.7368L153.792 96.7364Z" fill="black" mask="url(#path-115-inside-31_10331_47586)"/>
<mask id="path-117-inside-32_10331_47586" fill="white">
<path d="M155.124 96.2754C155.176 96.5499 155.195 96.8253 155.205 97.1009C155.209 97.2388 155.21 97.3767 155.205 97.5148C155.2 97.653 155.191 97.7911 155.17 97.9297L155.095 97.9317C155.065 97.7946 155.049 97.6571 155.036 97.5195C155.024 97.3818 155.017 97.2441 155.014 97.1062C155.009 96.8304 155.012 96.5543 155.049 96.2774L155.124 96.2754Z"/>
</mask>
<path d="M155.124 96.2754L156.107 96.0901L155.949 95.2525L155.096 95.2758L155.124 96.2754ZM155.205 97.1009L156.204 97.069L156.204 97.0642L155.205 97.1009ZM155.205 97.5148L154.206 97.4793L154.206 97.4815L155.205 97.5148ZM155.17 97.9297L155.197 98.9293L156.03 98.9067L156.158 98.0824L155.17 97.9297ZM155.095 97.9317L154.116 98.1393L154.289 98.9539L155.122 98.9313L155.095 97.9317ZM155.036 97.5195L156.032 97.4312L156.032 97.429L155.036 97.5195ZM155.014 97.1062L154.014 97.1247L154.014 97.1292L155.014 97.1062ZM155.049 96.2774L155.021 95.2778L154.169 95.3011L154.057 96.1468L155.049 96.2774ZM155.124 96.2754L154.141 96.4606C154.179 96.6625 154.196 96.88 154.205 97.1377L155.205 97.1009L156.204 97.0642C156.193 96.7706 156.172 96.4374 156.107 96.0901L155.124 96.2754ZM155.205 97.1009L154.205 97.1329C154.209 97.2531 154.21 97.368 154.206 97.4793L155.205 97.5148L156.204 97.5504C156.21 97.3854 156.209 97.2245 156.204 97.069L155.205 97.1009ZM155.205 97.5148L154.206 97.4815C154.202 97.5985 154.194 97.6929 154.181 97.7769L155.17 97.9297L156.158 98.0824C156.188 97.8893 156.199 97.7075 156.204 97.5482L155.205 97.5148ZM155.17 97.9297L155.143 96.93L155.067 96.9321L155.095 97.9317L155.122 98.9313L155.197 98.9293L155.17 97.9297ZM155.095 97.9317L156.073 97.7241C156.055 97.6415 156.043 97.5478 156.032 97.4312L155.036 97.5195L154.04 97.6077C154.054 97.7663 154.076 97.9477 154.116 98.1393L155.095 97.9317ZM155.036 97.5195L156.032 97.429C156.022 97.3178 156.016 97.2029 156.013 97.0831L155.014 97.1062L154.014 97.1292C154.018 97.2853 154.026 97.4459 154.04 97.6099L155.036 97.5195ZM155.014 97.1062L156.014 97.0876C156.009 96.8297 156.013 96.6116 156.04 96.4081L155.049 96.2774L154.057 96.1468C154.011 96.4971 154.008 96.8311 154.014 97.1247L155.014 97.1062ZM155.049 96.2774L155.076 97.2771L155.151 97.275L155.124 96.2754L155.096 95.2758L155.021 95.2778L155.049 96.2774Z" fill="black" mask="url(#path-117-inside-32_10331_47586)"/>
<mask id="path-119-inside-33_10331_47586" fill="white">
<path d="M156.362 96.2754C156.417 96.535 156.44 96.796 156.454 97.0573C156.46 97.188 156.462 97.3189 156.459 97.45C156.456 97.581 156.449 97.7124 156.429 97.8442L156.354 97.8474C156.323 97.7177 156.305 97.5875 156.291 97.4571C156.276 97.3268 156.268 97.1961 156.263 97.0654C156.254 96.8039 156.254 96.5418 156.287 96.2785L156.362 96.2754Z"/>
</mask>
<path d="M156.362 96.2754L157.34 96.0673L157.165 95.2416L156.321 95.2762L156.362 96.2754ZM156.454 97.0573L157.453 97.0103L157.452 97.0048L156.454 97.0573ZM156.459 97.45L155.459 97.4265L155.459 97.4281L156.459 97.45ZM156.429 97.8442L156.471 98.8433L157.296 98.8085L157.418 97.9919L156.429 97.8442ZM156.354 97.8474L155.381 98.0789L155.572 98.8812L156.396 98.8465L156.354 97.8474ZM156.291 97.4571L157.285 97.3501L157.285 97.3485L156.291 97.4571ZM156.263 97.0654L155.263 97.0983L155.263 97.1038L156.263 97.0654ZM156.287 96.2785L156.246 95.2793L155.4 95.314L155.295 96.1545L156.287 96.2785ZM156.362 96.2754L155.384 96.4835C155.423 96.6669 155.442 96.8671 155.455 97.1098L156.454 97.0573L157.452 97.0048C157.438 96.7249 157.412 96.403 157.34 96.0673L156.362 96.2754ZM156.454 97.0573L155.455 97.1043C155.46 97.2164 155.462 97.3233 155.459 97.4265L156.459 97.45L157.459 97.4734C157.463 97.3145 157.46 97.1597 157.453 97.0103L156.454 97.0573ZM156.459 97.45L155.459 97.4281C155.457 97.5375 155.451 97.6227 155.44 97.6965L156.429 97.8442L157.418 97.9919C157.447 97.8022 157.456 97.6246 157.459 97.4719L156.459 97.45ZM156.429 97.8442L156.387 96.8451L156.312 96.8483L156.354 97.8474L156.396 98.8465L156.471 98.8433L156.429 97.8442ZM156.354 97.8474L157.327 97.6159C157.31 97.5432 157.297 97.4589 157.285 97.3501L156.291 97.4571L155.296 97.5642C155.313 97.7161 155.337 97.8922 155.381 98.0789L156.354 97.8474ZM156.291 97.4571L157.285 97.3485C157.274 97.246 157.266 97.1392 157.262 97.027L156.263 97.0654L155.263 97.1038C155.269 97.253 155.279 97.4076 155.297 97.5658L156.291 97.4571ZM156.263 97.0654L157.262 97.0325C157.254 96.7896 157.256 96.5885 157.279 96.4024L156.287 96.2785L155.295 96.1545C155.252 96.4951 155.254 96.8181 155.263 97.0983L156.263 97.0654ZM156.287 96.2785L156.328 97.2776L156.403 97.2746L156.362 96.2754L156.321 95.2762L156.246 95.2793L156.287 96.2785Z" fill="black" mask="url(#path-119-inside-33_10331_47586)"/>
<mask id="path-121-inside-34_10331_47586" fill="white">
<path d="M157.966 97.2942C157.909 97.3681 157.868 97.4582 157.829 97.5505C157.791 97.6434 157.755 97.7385 157.719 97.8347C157.683 97.9307 157.647 98.0273 157.608 98.1235C157.568 98.2199 157.526 98.3161 157.474 98.4102L157.402 98.3902C157.406 98.2819 157.423 98.1765 157.447 98.0727C157.47 97.9688 157.502 97.8666 157.541 97.7664C157.58 97.6666 157.625 97.5676 157.684 97.4744C157.743 97.3829 157.814 97.2875 157.924 97.2324L157.966 97.2942Z"/>
</mask>
<path d="M157.966 97.2942L158.756 97.9083L159.206 97.329L158.789 96.7254L157.966 97.2942ZM157.829 97.5505L156.909 97.1593L156.904 97.1716L157.829 97.5505ZM157.719 97.8347L158.656 98.1855L158.657 98.1807L157.719 97.8347ZM157.608 98.1235L156.683 97.7433L156.682 97.7454L157.608 98.1235ZM157.474 98.4102L157.208 99.3741L157.967 99.5837L158.349 98.8951L157.474 98.4102ZM157.402 98.3902L156.402 98.3562L156.376 99.1442L157.136 99.3541L157.402 98.3902ZM157.447 98.0727L158.421 98.2978L158.422 98.2958L157.447 98.0727ZM157.541 97.7664L156.611 97.3988L156.608 97.4059L157.541 97.7664ZM157.684 97.4744L156.844 96.9323L156.84 96.9382L157.684 97.4744ZM157.924 97.2324L158.746 96.6636L158.252 95.9497L157.476 96.3382L157.924 97.2324ZM157.966 97.2942L157.177 96.6801C157.03 96.8699 156.945 97.0743 156.909 97.1593L157.829 97.5505L158.75 97.9417C158.758 97.9211 158.765 97.9063 158.77 97.8939C158.776 97.8818 158.779 97.8751 158.781 97.8719C158.782 97.8687 158.781 97.871 158.778 97.8769C158.774 97.883 158.767 97.8941 158.756 97.9083L157.966 97.2942ZM157.829 97.5505L156.904 97.1716C156.86 97.2783 156.819 97.385 156.781 97.4886L157.719 97.8347L158.657 98.1807C158.69 98.0921 158.722 98.0084 158.755 97.9295L157.829 97.5505ZM157.719 97.8347L156.783 97.4839C156.746 97.5825 156.715 97.6642 156.683 97.7433L157.608 98.1235L158.532 98.5038C158.579 98.3904 158.621 98.2789 158.656 98.1855L157.719 97.8347ZM157.608 98.1235L156.682 97.7454C156.647 97.8308 156.623 97.8836 156.6 97.9253L157.474 98.4102L158.349 98.8951C158.43 98.7486 158.49 98.609 158.533 98.5017L157.608 98.1235ZM157.474 98.4102L157.74 97.4463L157.668 97.4263L157.402 98.3902L157.136 99.3541L157.208 99.3741L157.474 98.4102ZM157.402 98.3902L158.401 98.4242C158.402 98.3986 158.407 98.3597 158.421 98.2978L157.447 98.0727L156.472 97.8477C156.439 97.9933 156.409 98.1652 156.402 98.3562L157.402 98.3902ZM157.447 98.0727L158.422 98.2958C158.434 98.24 158.451 98.1837 158.473 98.1269L157.541 97.7664L156.608 97.4059C156.552 97.5496 156.507 97.6976 156.472 97.8497L157.447 98.0727ZM157.541 97.7664L158.471 98.134C158.5 98.0609 158.517 98.0276 158.528 98.0105L157.684 97.4744L156.84 96.9382C156.732 97.1076 156.661 97.2723 156.611 97.3988L157.541 97.7664ZM157.684 97.4744L158.524 98.0164C158.544 97.9864 158.54 97.996 158.521 98.0168C158.498 98.0415 158.449 98.0877 158.371 98.1267L157.924 97.2324L157.476 96.3382C157.108 96.5222 156.915 96.8213 156.844 96.9323L157.684 97.4744ZM157.924 97.2324L157.101 97.8013L157.144 97.863L157.966 97.2942L158.789 96.7254L158.746 96.6636L157.924 97.2324Z" fill="black" mask="url(#path-121-inside-34_10331_47586)"/>
<path d="M201.448 64.9277V73.2686H188.2L190.166 71.8711L190.377 71.7217V64.9277H201.448Z" stroke="black"/>
<mask id="path-124-inside-35_10331_47586" fill="white">
<path d="M202.076 73.8961H186.23L189.748 71.3962V64.2988H202.076V73.8961ZM187.033 73.6399H201.82V64.555H190.005V71.5284L187.033 73.6399Z"/>
</mask>
<path d="M202.076 73.8961V74.8961H203.076V73.8961H202.076ZM186.23 73.8961L185.651 73.081L183.096 74.8961H186.23V73.8961ZM189.748 71.3962L190.328 72.2114L190.748 71.9124V71.3962H189.748ZM189.748 64.2988V63.2988H188.748V64.2988H189.748ZM202.076 64.2988H203.076V63.2988H202.076V64.2988ZM187.033 73.6399L186.454 72.8248L183.899 74.6399H187.033V73.6399ZM201.82 73.6399V74.6399H202.82V73.6399H201.82ZM201.82 64.555H202.82V63.555H201.82V64.555ZM190.005 64.555V63.555H189.005V64.555H190.005ZM190.005 71.5284L190.584 72.3436L191.005 72.0446V71.5284H190.005ZM202.076 73.8961V72.8961H186.23V73.8961V74.8961H202.076V73.8961ZM186.23 73.8961L186.809 74.7113L190.328 72.2114L189.748 71.3962L189.169 70.581L185.651 73.081L186.23 73.8961ZM189.748 71.3962H190.748V64.2988H189.748H188.748V71.3962H189.748ZM189.748 64.2988V65.2988H202.076V64.2988V63.2988H189.748V64.2988ZM202.076 64.2988H201.076V73.8961H202.076H203.076V64.2988H202.076ZM187.033 73.6399V74.6399H201.82V73.6399V72.6399H187.033V73.6399ZM201.82 73.6399H202.82V64.555H201.82H200.82V73.6399H201.82ZM201.82 64.555V63.555H190.005V64.555V65.555H201.82V64.555ZM190.005 64.555H189.005V71.5284H190.005H191.005V64.555H190.005ZM190.005 71.5284L189.425 70.7132L186.454 72.8248L187.033 73.6399L187.612 74.4551L190.584 72.3436L190.005 71.5284Z" fill="black" mask="url(#path-124-inside-35_10331_47586)"/>
<mask id="path-126-inside-36_10331_47586" fill="white">
<path d="M195.748 71.5812L193.776 69.6831L194.132 69.314L195.619 70.7464L198.149 66.1094L198.598 66.3548L195.748 71.5812Z"/>
</mask>
<path d="M195.748 71.5812L195.054 72.3015L195.998 73.2105L196.625 72.06L195.748 71.5812ZM193.776 69.6831L193.056 68.9895L192.362 69.7098L193.083 70.4035L193.776 69.6831ZM194.132 69.314L194.826 68.5937L194.105 67.9L193.412 68.6203L194.132 69.314ZM195.619 70.7464L194.926 71.4667L195.87 72.3758L196.497 71.2253L195.619 70.7464ZM198.149 66.1094L198.628 65.2316L197.75 64.7525L197.271 65.6305L198.149 66.1094ZM198.598 66.3548L199.476 66.8337L199.955 65.9559L199.077 65.477L198.598 66.3548ZM195.748 71.5812L196.441 70.8609L194.47 68.9628L193.776 69.6831L193.083 70.4035L195.054 72.3015L195.748 71.5812ZM193.776 69.6831L194.497 70.3768L194.852 70.0077L194.132 69.314L193.412 68.6203L193.056 68.9895L193.776 69.6831ZM194.132 69.314L193.438 70.0343L194.926 71.4667L195.619 70.7464L196.313 70.0261L194.826 68.5937L194.132 69.314ZM195.619 70.7464L196.497 71.2253L199.026 66.5882L198.149 66.1094L197.271 65.6305L194.741 70.2676L195.619 70.7464ZM198.149 66.1094L197.67 66.9872L198.119 67.2326L198.598 66.3548L199.077 65.477L198.628 65.2316L198.149 66.1094ZM198.598 66.3548L197.72 65.876L194.87 71.1023L195.748 71.5812L196.625 72.06L199.476 66.8337L198.598 66.3548Z" fill="black" mask="url(#path-126-inside-36_10331_47586)"/>
<mask id="path-128-inside-37_10331_47586" fill="white">
<path d="M166.427 159.615H0.819885V160H166.427V159.615Z"/>
</mask>
<path d="M0.819885 159.615V158.615H-0.180115V159.615H0.819885ZM166.427 159.615H167.427V158.615H166.427V159.615ZM166.427 160V161H167.427V160H166.427ZM0.819885 160H-0.180115V161H0.819885V160ZM0.819885 159.615V160.615H166.427V159.615V158.615H0.819885V159.615ZM166.427 159.615H165.427V160H166.427H167.427V159.615H166.427ZM166.427 160V159H0.819885V160V161H166.427V160ZM0.819885 160H1.81989V159.615H0.819885H-0.180115V160H0.819885Z" fill="black" mask="url(#path-128-inside-37_10331_47586)"/>
</svg>
